%TF.GenerationSoftware,KiCad,Pcbnew,8.0.1*%
%TF.CreationDate,2024-03-19T23:03:29+08:00*%
%TF.ProjectId,SmallGeneral,536d616c-6c47-4656-9e65-72616c2e6b69,4*%
%TF.SameCoordinates,Original*%
%TF.FileFunction,Drillmap*%
%TF.FilePolarity,Positive*%
%FSLAX45Y45*%
G04 Gerber Fmt 4.5, Leading zero omitted, Abs format (unit mm)*
G04 Created by KiCad (PCBNEW 8.0.1) date 2024-03-19 23:03:29*
%MOMM*%
%LPD*%
G01*
G04 APERTURE LIST*
%ADD10C,0.100000*%
%ADD11C,0.200000*%
%ADD12C,0.430000*%
G04 APERTURE END LIST*
D10*
X17400000Y-10000000D02*
X17400000Y-10000000D01*
G75*
G02*
X18000000Y-10600000I0J-600000D01*
G01*
X18000000Y-14400000D01*
G75*
G02*
X17400000Y-15000000I-600000J0D01*
G01*
X10600000Y-15000000D01*
G75*
G02*
X10000000Y-14400000I0J600000D01*
G01*
X10000000Y-10600000D01*
G75*
G02*
X10600000Y-10000000I600000J0D01*
G01*
X17400000Y-10000000D01*
D11*
D10*
X12280000Y-11020000D02*
X12310000Y-11050000D01*
X12310000Y-11020000D02*
X12280000Y-11050000D01*
X12535000Y-10905000D02*
X12565000Y-10935000D01*
X12565000Y-10905000D02*
X12535000Y-10935000D01*
X12902500Y-11467500D02*
X12932500Y-11497500D01*
X12932500Y-11467500D02*
X12902500Y-11497500D01*
X12905000Y-11310000D02*
X12935000Y-11340000D01*
X12935000Y-11310000D02*
X12905000Y-11340000D01*
X13105000Y-11701434D02*
X13135000Y-11731434D01*
X13135000Y-11701434D02*
X13105000Y-11731434D01*
X13585000Y-11475000D02*
X13615000Y-11505000D01*
X13615000Y-11475000D02*
X13585000Y-11505000D01*
X13712500Y-11885000D02*
X13742500Y-11915000D01*
X13742500Y-11885000D02*
X13712500Y-11915000D01*
X13785000Y-12515000D02*
X13815000Y-12545000D01*
X13815000Y-12515000D02*
X13785000Y-12545000D01*
X10402500Y-12960000D02*
G75*
G02*
X10367500Y-12960000I-17500J0D01*
G01*
X10367500Y-12960000D02*
G75*
G02*
X10402500Y-12960000I17500J0D01*
G01*
X11182500Y-13255000D02*
G75*
G02*
X11147500Y-13255000I-17500J0D01*
G01*
X11147500Y-13255000D02*
G75*
G02*
X11182500Y-13255000I17500J0D01*
G01*
X11717500Y-14110000D02*
G75*
G02*
X11682500Y-14110000I-17500J0D01*
G01*
X11682500Y-14110000D02*
G75*
G02*
X11717500Y-14110000I17500J0D01*
G01*
X11847500Y-13550000D02*
G75*
G02*
X11812500Y-13550000I-17500J0D01*
G01*
X11812500Y-13550000D02*
G75*
G02*
X11847500Y-13550000I17500J0D01*
G01*
X11857500Y-12660000D02*
G75*
G02*
X11822500Y-12660000I-17500J0D01*
G01*
X11822500Y-12660000D02*
G75*
G02*
X11857500Y-12660000I17500J0D01*
G01*
X11857500Y-12820000D02*
G75*
G02*
X11822500Y-12820000I-17500J0D01*
G01*
X11822500Y-12820000D02*
G75*
G02*
X11857500Y-12820000I17500J0D01*
G01*
X11942500Y-13550000D02*
G75*
G02*
X11907500Y-13550000I-17500J0D01*
G01*
X11907500Y-13550000D02*
G75*
G02*
X11942500Y-13550000I17500J0D01*
G01*
X11992500Y-13810000D02*
G75*
G02*
X11957500Y-13810000I-17500J0D01*
G01*
X11957500Y-13810000D02*
G75*
G02*
X11992500Y-13810000I17500J0D01*
G01*
X12017500Y-11720000D02*
G75*
G02*
X11982500Y-11720000I-17500J0D01*
G01*
X11982500Y-11720000D02*
G75*
G02*
X12017500Y-11720000I17500J0D01*
G01*
X12057500Y-10750000D02*
G75*
G02*
X12022500Y-10750000I-17500J0D01*
G01*
X12022500Y-10750000D02*
G75*
G02*
X12057500Y-10750000I17500J0D01*
G01*
X12237500Y-11710000D02*
G75*
G02*
X12202500Y-11710000I-17500J0D01*
G01*
X12202500Y-11710000D02*
G75*
G02*
X12237500Y-11710000I17500J0D01*
G01*
X12412500Y-11720000D02*
G75*
G02*
X12377500Y-11720000I-17500J0D01*
G01*
X12377500Y-11720000D02*
G75*
G02*
X12412500Y-11720000I17500J0D01*
G01*
X12457500Y-10750000D02*
G75*
G02*
X12422500Y-10750000I-17500J0D01*
G01*
X12422500Y-10750000D02*
G75*
G02*
X12457500Y-10750000I17500J0D01*
G01*
X12512500Y-13810000D02*
G75*
G02*
X12477500Y-13810000I-17500J0D01*
G01*
X12477500Y-13810000D02*
G75*
G02*
X12512500Y-13810000I17500J0D01*
G01*
X12537500Y-10230000D02*
G75*
G02*
X12502500Y-10230000I-17500J0D01*
G01*
X12502500Y-10230000D02*
G75*
G02*
X12537500Y-10230000I17500J0D01*
G01*
X12557500Y-13620000D02*
G75*
G02*
X12522500Y-13620000I-17500J0D01*
G01*
X12522500Y-13620000D02*
G75*
G02*
X12557500Y-13620000I17500J0D01*
G01*
X12562500Y-13015000D02*
G75*
G02*
X12527500Y-13015000I-17500J0D01*
G01*
X12527500Y-13015000D02*
G75*
G02*
X12562500Y-13015000I17500J0D01*
G01*
X12662500Y-11835000D02*
G75*
G02*
X12627500Y-11835000I-17500J0D01*
G01*
X12627500Y-11835000D02*
G75*
G02*
X12662500Y-11835000I17500J0D01*
G01*
X12767500Y-11935000D02*
G75*
G02*
X12732500Y-11935000I-17500J0D01*
G01*
X12732500Y-11935000D02*
G75*
G02*
X12767500Y-11935000I17500J0D01*
G01*
X12817500Y-12835000D02*
G75*
G02*
X12782500Y-12835000I-17500J0D01*
G01*
X12782500Y-12835000D02*
G75*
G02*
X12817500Y-12835000I17500J0D01*
G01*
X12937500Y-13620000D02*
G75*
G02*
X12902500Y-13620000I-17500J0D01*
G01*
X12902500Y-13620000D02*
G75*
G02*
X12937500Y-13620000I17500J0D01*
G01*
X12987500Y-10750000D02*
G75*
G02*
X12952500Y-10750000I-17500J0D01*
G01*
X12952500Y-10750000D02*
G75*
G02*
X12987500Y-10750000I17500J0D01*
G01*
X13247500Y-11110000D02*
G75*
G02*
X13212500Y-11110000I-17500J0D01*
G01*
X13212500Y-11110000D02*
G75*
G02*
X13247500Y-11110000I17500J0D01*
G01*
X13252500Y-12680000D02*
G75*
G02*
X13217500Y-12680000I-17500J0D01*
G01*
X13217500Y-12680000D02*
G75*
G02*
X13252500Y-12680000I17500J0D01*
G01*
X13317500Y-10240000D02*
G75*
G02*
X13282500Y-10240000I-17500J0D01*
G01*
X13282500Y-10240000D02*
G75*
G02*
X13317500Y-10240000I17500J0D01*
G01*
X13357500Y-11757500D02*
G75*
G02*
X13322500Y-11757500I-17500J0D01*
G01*
X13322500Y-11757500D02*
G75*
G02*
X13357500Y-11757500I17500J0D01*
G01*
X13532500Y-11490000D02*
G75*
G02*
X13497500Y-11490000I-17500J0D01*
G01*
X13497500Y-11490000D02*
G75*
G02*
X13532500Y-11490000I17500J0D01*
G01*
X13592500Y-12020000D02*
G75*
G02*
X13557500Y-12020000I-17500J0D01*
G01*
X13557500Y-12020000D02*
G75*
G02*
X13592500Y-12020000I17500J0D01*
G01*
X13622500Y-13430000D02*
G75*
G02*
X13587500Y-13430000I-17500J0D01*
G01*
X13587500Y-13430000D02*
G75*
G02*
X13622500Y-13430000I17500J0D01*
G01*
X13690717Y-11163217D02*
G75*
G02*
X13655717Y-11163217I-17500J0D01*
G01*
X13655717Y-11163217D02*
G75*
G02*
X13690717Y-11163217I17500J0D01*
G01*
X14192500Y-14575000D02*
G75*
G02*
X14157500Y-14575000I-17500J0D01*
G01*
X14157500Y-14575000D02*
G75*
G02*
X14192500Y-14575000I17500J0D01*
G01*
X14517500Y-10990000D02*
G75*
G02*
X14482500Y-10990000I-17500J0D01*
G01*
X14482500Y-10990000D02*
G75*
G02*
X14517500Y-10990000I17500J0D01*
G01*
X14542500Y-11760000D02*
G75*
G02*
X14507500Y-11760000I-17500J0D01*
G01*
X14507500Y-11760000D02*
G75*
G02*
X14542500Y-11760000I17500J0D01*
G01*
X14550000Y-11602500D02*
G75*
G02*
X14515000Y-11602500I-17500J0D01*
G01*
X14515000Y-11602500D02*
G75*
G02*
X14550000Y-11602500I17500J0D01*
G01*
X14621748Y-12216748D02*
G75*
G02*
X14586748Y-12216748I-17500J0D01*
G01*
X14586748Y-12216748D02*
G75*
G02*
X14621748Y-12216748I17500J0D01*
G01*
X14807500Y-12910000D02*
G75*
G02*
X14772500Y-12910000I-17500J0D01*
G01*
X14772500Y-12910000D02*
G75*
G02*
X14807500Y-12910000I17500J0D01*
G01*
X14882500Y-13875000D02*
G75*
G02*
X14847500Y-13875000I-17500J0D01*
G01*
X14847500Y-13875000D02*
G75*
G02*
X14882500Y-13875000I17500J0D01*
G01*
X15017500Y-11580000D02*
G75*
G02*
X14982500Y-11580000I-17500J0D01*
G01*
X14982500Y-11580000D02*
G75*
G02*
X15017500Y-11580000I17500J0D01*
G01*
X15217500Y-13795000D02*
G75*
G02*
X15182500Y-13795000I-17500J0D01*
G01*
X15182500Y-13795000D02*
G75*
G02*
X15217500Y-13795000I17500J0D01*
G01*
X15367500Y-12910000D02*
G75*
G02*
X15332500Y-12910000I-17500J0D01*
G01*
X15332500Y-12910000D02*
G75*
G02*
X15367500Y-12910000I17500J0D01*
G01*
X15397500Y-14150000D02*
G75*
G02*
X15362500Y-14150000I-17500J0D01*
G01*
X15362500Y-14150000D02*
G75*
G02*
X15397500Y-14150000I17500J0D01*
G01*
X15567500Y-13650000D02*
G75*
G02*
X15532500Y-13650000I-17500J0D01*
G01*
X15532500Y-13650000D02*
G75*
G02*
X15567500Y-13650000I17500J0D01*
G01*
X15622122Y-12910377D02*
G75*
G02*
X15587122Y-12910377I-17500J0D01*
G01*
X15587122Y-12910377D02*
G75*
G02*
X15622122Y-12910377I17500J0D01*
G01*
X15897500Y-14100000D02*
G75*
G02*
X15862500Y-14100000I-17500J0D01*
G01*
X15862500Y-14100000D02*
G75*
G02*
X15897500Y-14100000I17500J0D01*
G01*
X16012500Y-13895000D02*
G75*
G02*
X15977500Y-13895000I-17500J0D01*
G01*
X15977500Y-13895000D02*
G75*
G02*
X16012500Y-13895000I17500J0D01*
G01*
X16297500Y-13410000D02*
G75*
G02*
X16262500Y-13410000I-17500J0D01*
G01*
X16262500Y-13410000D02*
G75*
G02*
X16297500Y-13410000I17500J0D01*
G01*
X16322500Y-14210000D02*
G75*
G02*
X16287500Y-14210000I-17500J0D01*
G01*
X16287500Y-14210000D02*
G75*
G02*
X16322500Y-14210000I17500J0D01*
G01*
X16452500Y-14805000D02*
G75*
G02*
X16417500Y-14805000I-17500J0D01*
G01*
X16417500Y-14805000D02*
G75*
G02*
X16452500Y-14805000I17500J0D01*
G01*
X16657500Y-11510000D02*
G75*
G02*
X16622500Y-11510000I-17500J0D01*
G01*
X16622500Y-11510000D02*
G75*
G02*
X16657500Y-11510000I17500J0D01*
G01*
X16657500Y-12040000D02*
G75*
G02*
X16622500Y-12040000I-17500J0D01*
G01*
X16622500Y-12040000D02*
G75*
G02*
X16657500Y-12040000I17500J0D01*
G01*
X16667500Y-11360000D02*
G75*
G02*
X16632500Y-11360000I-17500J0D01*
G01*
X16632500Y-11360000D02*
G75*
G02*
X16667500Y-11360000I17500J0D01*
G01*
X16677500Y-13545000D02*
G75*
G02*
X16642500Y-13545000I-17500J0D01*
G01*
X16642500Y-13545000D02*
G75*
G02*
X16677500Y-13545000I17500J0D01*
G01*
X16847500Y-12100000D02*
G75*
G02*
X16812500Y-12100000I-17500J0D01*
G01*
X16812500Y-12100000D02*
G75*
G02*
X16847500Y-12100000I17500J0D01*
G01*
X16907500Y-13545000D02*
G75*
G02*
X16872500Y-13545000I-17500J0D01*
G01*
X16872500Y-13545000D02*
G75*
G02*
X16907500Y-13545000I17500J0D01*
G01*
X16917500Y-11335000D02*
G75*
G02*
X16882500Y-11335000I-17500J0D01*
G01*
X16882500Y-11335000D02*
G75*
G02*
X16917500Y-11335000I17500J0D01*
G01*
X16917500Y-11445000D02*
G75*
G02*
X16882500Y-11445000I-17500J0D01*
G01*
X16882500Y-11445000D02*
G75*
G02*
X16917500Y-11445000I17500J0D01*
G01*
X17157500Y-12450000D02*
G75*
G02*
X17122500Y-12450000I-17500J0D01*
G01*
X17122500Y-12450000D02*
G75*
G02*
X17157500Y-12450000I17500J0D01*
G01*
X17157500Y-12640000D02*
G75*
G02*
X17122500Y-12640000I-17500J0D01*
G01*
X17122500Y-12640000D02*
G75*
G02*
X17157500Y-12640000I17500J0D01*
G01*
X17172500Y-13035000D02*
G75*
G02*
X17137500Y-13035000I-17500J0D01*
G01*
X17137500Y-13035000D02*
G75*
G02*
X17172500Y-13035000I17500J0D01*
G01*
X17172500Y-13655000D02*
G75*
G02*
X17137500Y-13655000I-17500J0D01*
G01*
X17137500Y-13655000D02*
G75*
G02*
X17172500Y-13655000I17500J0D01*
G01*
X17177500Y-12910000D02*
G75*
G02*
X17142500Y-12910000I-17500J0D01*
G01*
X17142500Y-12910000D02*
G75*
G02*
X17177500Y-12910000I17500J0D01*
G01*
X11650000Y-11180000D02*
X11650000Y-11220000D01*
X11630000Y-11200000D02*
X11670000Y-11200000D01*
X11690000Y-10710000D02*
X11690000Y-10750000D01*
X11670000Y-10730000D02*
X11710000Y-10730000D01*
X11825050Y-10635050D02*
X11825050Y-10675050D01*
X11805050Y-10655050D02*
X11845050Y-10655050D01*
X11880000Y-11840000D02*
X11880000Y-11880000D01*
X11860000Y-11860000D02*
X11900000Y-11860000D01*
X14445000Y-13025000D02*
X14445000Y-13065000D01*
X14425000Y-13045000D02*
X14465000Y-13045000D01*
X14445000Y-13440000D02*
X14445000Y-13480000D01*
X14425000Y-13460000D02*
X14465000Y-13460000D01*
X17408213Y-12889213D02*
X17408213Y-12846787D01*
X17365787Y-12846787D01*
X17365787Y-12889213D01*
X17408213Y-12889213D01*
X17332000Y-12898000D02*
X17442000Y-12898000D01*
X17442000Y-12838000D02*
G75*
G02*
X17442000Y-12898000I0J-30000D01*
G01*
X17442000Y-12838000D02*
X17332000Y-12838000D01*
X17332000Y-12838000D02*
G75*
G03*
X17332000Y-12898000I0J-30000D01*
G01*
X17408213Y-13753213D02*
X17408213Y-13710787D01*
X17365787Y-13710787D01*
X17365787Y-13753213D01*
X17408213Y-13753213D01*
X17332000Y-13762000D02*
X17442000Y-13762000D01*
X17442000Y-13702000D02*
G75*
G02*
X17442000Y-13762000I0J-30000D01*
G01*
X17442000Y-13702000D02*
X17332000Y-13702000D01*
X17332000Y-13702000D02*
G75*
G03*
X17332000Y-13762000I0J-30000D01*
G01*
X17826213Y-12889213D02*
X17826213Y-12846787D01*
X17783787Y-12846787D01*
X17783787Y-12889213D01*
X17826213Y-12889213D01*
X17775000Y-12898000D02*
X17835000Y-12898000D01*
X17835000Y-12838000D02*
G75*
G02*
X17835000Y-12898000I0J-30000D01*
G01*
X17835000Y-12838000D02*
X17775000Y-12838000D01*
X17775000Y-12838000D02*
G75*
G03*
X17775000Y-12898000I0J-30000D01*
G01*
X17826213Y-13753213D02*
X17826213Y-13710787D01*
X17783787Y-13710787D01*
X17783787Y-13753213D01*
X17826213Y-13753213D01*
X17775000Y-13762000D02*
X17835000Y-13762000D01*
X17835000Y-13702000D02*
G75*
G02*
X17835000Y-13762000I0J-30000D01*
G01*
X17835000Y-13702000D02*
X17775000Y-13702000D01*
X17775000Y-13702000D02*
G75*
G03*
X17775000Y-13762000I0J-30000D01*
G01*
X12736000Y-12229700D02*
X12771700Y-12194000D01*
X12736000Y-12158300D01*
X12700300Y-12194000D01*
X12736000Y-12229700D01*
X12766000Y-13490700D02*
X12801700Y-13455000D01*
X12766000Y-13419300D01*
X12730300Y-13455000D01*
X12766000Y-13490700D01*
X12990000Y-11975700D02*
X13025700Y-11940000D01*
X12990000Y-11904300D01*
X12954300Y-11940000D01*
X12990000Y-11975700D01*
X13020000Y-13236700D02*
X13055700Y-13201000D01*
X13020000Y-13165300D01*
X12984300Y-13201000D01*
X13020000Y-13236700D01*
X13244000Y-12229700D02*
X13279700Y-12194000D01*
X13244000Y-12158300D01*
X13208300Y-12194000D01*
X13244000Y-12229700D01*
X13274000Y-13490700D02*
X13309700Y-13455000D01*
X13274000Y-13419300D01*
X13238300Y-13455000D01*
X13274000Y-13490700D01*
X10664100Y-11422500D02*
X10739100Y-11497500D01*
X10739100Y-11422500D02*
X10664100Y-11497500D01*
X10739100Y-11460000D02*
G75*
G02*
X10664100Y-11460000I-37500J0D01*
G01*
X10664100Y-11460000D02*
G75*
G02*
X10739100Y-11460000I37500J0D01*
G01*
X10664100Y-11622500D02*
X10739100Y-11697500D01*
X10739100Y-11622500D02*
X10664100Y-11697500D01*
X10739100Y-11660000D02*
G75*
G02*
X10664100Y-11660000I-37500J0D01*
G01*
X10664100Y-11660000D02*
G75*
G02*
X10739100Y-11660000I37500J0D01*
G01*
X10664100Y-11822500D02*
X10739100Y-11897500D01*
X10739100Y-11822500D02*
X10664100Y-11897500D01*
X10739100Y-11860000D02*
G75*
G02*
X10664100Y-11860000I-37500J0D01*
G01*
X10664100Y-11860000D02*
G75*
G02*
X10739100Y-11860000I37500J0D01*
G01*
X10664100Y-12022500D02*
X10739100Y-12097500D01*
X10739100Y-12022500D02*
X10664100Y-12097500D01*
X10739100Y-12060000D02*
G75*
G02*
X10664100Y-12060000I-37500J0D01*
G01*
X10664100Y-12060000D02*
G75*
G02*
X10739100Y-12060000I37500J0D01*
G01*
X10664100Y-12922500D02*
X10739100Y-12997500D01*
X10739100Y-12922500D02*
X10664100Y-12997500D01*
X10739100Y-12960000D02*
G75*
G02*
X10664100Y-12960000I-37500J0D01*
G01*
X10664100Y-12960000D02*
G75*
G02*
X10739100Y-12960000I37500J0D01*
G01*
X10664100Y-13122500D02*
X10739100Y-13197500D01*
X10739100Y-13122500D02*
X10664100Y-13197500D01*
X10739100Y-13160000D02*
G75*
G02*
X10664100Y-13160000I-37500J0D01*
G01*
X10664100Y-13160000D02*
G75*
G02*
X10739100Y-13160000I37500J0D01*
G01*
X10664100Y-13322500D02*
X10739100Y-13397500D01*
X10739100Y-13322500D02*
X10664100Y-13397500D01*
X10739100Y-13360000D02*
G75*
G02*
X10664100Y-13360000I-37500J0D01*
G01*
X10664100Y-13360000D02*
G75*
G02*
X10739100Y-13360000I37500J0D01*
G01*
X10664100Y-13522500D02*
X10739100Y-13597500D01*
X10739100Y-13522500D02*
X10664100Y-13597500D01*
X10739100Y-13560000D02*
G75*
G02*
X10664100Y-13560000I-37500J0D01*
G01*
X10664100Y-13560000D02*
G75*
G02*
X10739100Y-13560000I37500J0D01*
G01*
X10864100Y-11422500D02*
X10939100Y-11497500D01*
X10939100Y-11422500D02*
X10864100Y-11497500D01*
X10939100Y-11460000D02*
G75*
G02*
X10864100Y-11460000I-37500J0D01*
G01*
X10864100Y-11460000D02*
G75*
G02*
X10939100Y-11460000I37500J0D01*
G01*
X10864100Y-11622500D02*
X10939100Y-11697500D01*
X10939100Y-11622500D02*
X10864100Y-11697500D01*
X10939100Y-11660000D02*
G75*
G02*
X10864100Y-11660000I-37500J0D01*
G01*
X10864100Y-11660000D02*
G75*
G02*
X10939100Y-11660000I37500J0D01*
G01*
X10864100Y-11822500D02*
X10939100Y-11897500D01*
X10939100Y-11822500D02*
X10864100Y-11897500D01*
X10939100Y-11860000D02*
G75*
G02*
X10864100Y-11860000I-37500J0D01*
G01*
X10864100Y-11860000D02*
G75*
G02*
X10939100Y-11860000I37500J0D01*
G01*
X10864100Y-12022500D02*
X10939100Y-12097500D01*
X10939100Y-12022500D02*
X10864100Y-12097500D01*
X10939100Y-12060000D02*
G75*
G02*
X10864100Y-12060000I-37500J0D01*
G01*
X10864100Y-12060000D02*
G75*
G02*
X10939100Y-12060000I37500J0D01*
G01*
X10864100Y-12922500D02*
X10939100Y-12997500D01*
X10939100Y-12922500D02*
X10864100Y-12997500D01*
X10939100Y-12960000D02*
G75*
G02*
X10864100Y-12960000I-37500J0D01*
G01*
X10864100Y-12960000D02*
G75*
G02*
X10939100Y-12960000I37500J0D01*
G01*
X10864100Y-13122500D02*
X10939100Y-13197500D01*
X10939100Y-13122500D02*
X10864100Y-13197500D01*
X10939100Y-13160000D02*
G75*
G02*
X10864100Y-13160000I-37500J0D01*
G01*
X10864100Y-13160000D02*
G75*
G02*
X10939100Y-13160000I37500J0D01*
G01*
X10864100Y-13322500D02*
X10939100Y-13397500D01*
X10939100Y-13322500D02*
X10864100Y-13397500D01*
X10939100Y-13360000D02*
G75*
G02*
X10864100Y-13360000I-37500J0D01*
G01*
X10864100Y-13360000D02*
G75*
G02*
X10939100Y-13360000I37500J0D01*
G01*
X10864100Y-13522500D02*
X10939100Y-13597500D01*
X10939100Y-13522500D02*
X10864100Y-13597500D01*
X10939100Y-13560000D02*
G75*
G02*
X10864100Y-13560000I-37500J0D01*
G01*
X10864100Y-13560000D02*
G75*
G02*
X10939100Y-13560000I37500J0D01*
G01*
X11562500Y-14292500D02*
X11637500Y-14367500D01*
X11637500Y-14292500D02*
X11562500Y-14367500D01*
X11637500Y-14330000D02*
G75*
G02*
X11562500Y-14330000I-37500J0D01*
G01*
X11562500Y-14330000D02*
G75*
G02*
X11637500Y-14330000I37500J0D01*
G01*
X11762500Y-14292500D02*
X11837500Y-14367500D01*
X11837500Y-14292500D02*
X11762500Y-14367500D01*
X11837500Y-14330000D02*
G75*
G02*
X11762500Y-14330000I-37500J0D01*
G01*
X11762500Y-14330000D02*
G75*
G02*
X11837500Y-14330000I37500J0D01*
G01*
X11962500Y-14292500D02*
X12037500Y-14367500D01*
X12037500Y-14292500D02*
X11962500Y-14367500D01*
X12037500Y-14330000D02*
G75*
G02*
X11962500Y-14330000I-37500J0D01*
G01*
X11962500Y-14330000D02*
G75*
G02*
X12037500Y-14330000I37500J0D01*
G01*
X12162500Y-14292500D02*
X12237500Y-14367500D01*
X12237500Y-14292500D02*
X12162500Y-14367500D01*
X12237500Y-14330000D02*
G75*
G02*
X12162500Y-14330000I-37500J0D01*
G01*
X12162500Y-14330000D02*
G75*
G02*
X12237500Y-14330000I37500J0D01*
G01*
X12362500Y-14292500D02*
X12437500Y-14367500D01*
X12437500Y-14292500D02*
X12362500Y-14367500D01*
X12437500Y-14330000D02*
G75*
G02*
X12362500Y-14330000I-37500J0D01*
G01*
X12362500Y-14330000D02*
G75*
G02*
X12437500Y-14330000I37500J0D01*
G01*
X13062500Y-14292500D02*
X13137500Y-14367500D01*
X13137500Y-14292500D02*
X13062500Y-14367500D01*
X13137500Y-14330000D02*
G75*
G02*
X13062500Y-14330000I-37500J0D01*
G01*
X13062500Y-14330000D02*
G75*
G02*
X13137500Y-14330000I37500J0D01*
G01*
X13262500Y-14292500D02*
X13337500Y-14367500D01*
X13337500Y-14292500D02*
X13262500Y-14367500D01*
X13337500Y-14330000D02*
G75*
G02*
X13262500Y-14330000I-37500J0D01*
G01*
X13262500Y-14330000D02*
G75*
G02*
X13337500Y-14330000I37500J0D01*
G01*
X13462500Y-14292500D02*
X13537500Y-14367500D01*
X13537500Y-14292500D02*
X13462500Y-14367500D01*
X13537500Y-14330000D02*
G75*
G02*
X13462500Y-14330000I-37500J0D01*
G01*
X13462500Y-14330000D02*
G75*
G02*
X13537500Y-14330000I37500J0D01*
G01*
X13662500Y-10642500D02*
X13737500Y-10717500D01*
X13737500Y-10642500D02*
X13662500Y-10717500D01*
X13737500Y-10680000D02*
G75*
G02*
X13662500Y-10680000I-37500J0D01*
G01*
X13662500Y-10680000D02*
G75*
G02*
X13737500Y-10680000I37500J0D01*
G01*
X13662500Y-14292500D02*
X13737500Y-14367500D01*
X13737500Y-14292500D02*
X13662500Y-14367500D01*
X13737500Y-14330000D02*
G75*
G02*
X13662500Y-14330000I-37500J0D01*
G01*
X13662500Y-14330000D02*
G75*
G02*
X13737500Y-14330000I37500J0D01*
G01*
X13862500Y-10642500D02*
X13937500Y-10717500D01*
X13937500Y-10642500D02*
X13862500Y-10717500D01*
X13937500Y-10680000D02*
G75*
G02*
X13862500Y-10680000I-37500J0D01*
G01*
X13862500Y-10680000D02*
G75*
G02*
X13937500Y-10680000I37500J0D01*
G01*
X13862500Y-14292500D02*
X13937500Y-14367500D01*
X13937500Y-14292500D02*
X13862500Y-14367500D01*
X13937500Y-14330000D02*
G75*
G02*
X13862500Y-14330000I-37500J0D01*
G01*
X13862500Y-14330000D02*
G75*
G02*
X13937500Y-14330000I37500J0D01*
G01*
X14062500Y-10642500D02*
X14137500Y-10717500D01*
X14137500Y-10642500D02*
X14062500Y-10717500D01*
X14137500Y-10680000D02*
G75*
G02*
X14062500Y-10680000I-37500J0D01*
G01*
X14062500Y-10680000D02*
G75*
G02*
X14137500Y-10680000I37500J0D01*
G01*
X14262500Y-10642500D02*
X14337500Y-10717500D01*
X14337500Y-10642500D02*
X14262500Y-10717500D01*
X14337500Y-10680000D02*
G75*
G02*
X14262500Y-10680000I-37500J0D01*
G01*
X14262500Y-10680000D02*
G75*
G02*
X14337500Y-10680000I37500J0D01*
G01*
X14462500Y-10642500D02*
X14537500Y-10717500D01*
X14537500Y-10642500D02*
X14462500Y-10717500D01*
X14537500Y-10680000D02*
G75*
G02*
X14462500Y-10680000I-37500J0D01*
G01*
X14462500Y-10680000D02*
G75*
G02*
X14537500Y-10680000I37500J0D01*
G01*
X14564050Y-14010900D02*
X14639050Y-14085900D01*
X14639050Y-14010900D02*
X14564050Y-14085900D01*
X14639050Y-14048400D02*
G75*
G02*
X14564050Y-14048400I-37500J0D01*
G01*
X14564050Y-14048400D02*
G75*
G02*
X14639050Y-14048400I37500J0D01*
G01*
X14564050Y-14210900D02*
X14639050Y-14285900D01*
X14639050Y-14210900D02*
X14564050Y-14285900D01*
X14639050Y-14248400D02*
G75*
G02*
X14564050Y-14248400I-37500J0D01*
G01*
X14564050Y-14248400D02*
G75*
G02*
X14639050Y-14248400I37500J0D01*
G01*
X14764050Y-14010900D02*
X14839050Y-14085900D01*
X14839050Y-14010900D02*
X14764050Y-14085900D01*
X14839050Y-14048400D02*
G75*
G02*
X14764050Y-14048400I-37500J0D01*
G01*
X14764050Y-14048400D02*
G75*
G02*
X14839050Y-14048400I37500J0D01*
G01*
X14764050Y-14210900D02*
X14839050Y-14285900D01*
X14839050Y-14210900D02*
X14764050Y-14285900D01*
X14839050Y-14248400D02*
G75*
G02*
X14764050Y-14248400I-37500J0D01*
G01*
X14764050Y-14248400D02*
G75*
G02*
X14839050Y-14248400I37500J0D01*
G01*
X14964050Y-14010900D02*
X15039050Y-14085900D01*
X15039050Y-14010900D02*
X14964050Y-14085900D01*
X15039050Y-14048400D02*
G75*
G02*
X14964050Y-14048400I-37500J0D01*
G01*
X14964050Y-14048400D02*
G75*
G02*
X15039050Y-14048400I37500J0D01*
G01*
X14964050Y-14210900D02*
X15039050Y-14285900D01*
X15039050Y-14210900D02*
X14964050Y-14285900D01*
X15039050Y-14248400D02*
G75*
G02*
X14964050Y-14248400I-37500J0D01*
G01*
X14964050Y-14248400D02*
G75*
G02*
X15039050Y-14248400I37500J0D01*
G01*
X15164050Y-14010900D02*
X15239050Y-14085900D01*
X15239050Y-14010900D02*
X15164050Y-14085900D01*
X15239050Y-14048400D02*
G75*
G02*
X15164050Y-14048400I-37500J0D01*
G01*
X15164050Y-14048400D02*
G75*
G02*
X15239050Y-14048400I37500J0D01*
G01*
X15164050Y-14210900D02*
X15239050Y-14285900D01*
X15239050Y-14210900D02*
X15164050Y-14285900D01*
X15239050Y-14248400D02*
G75*
G02*
X15164050Y-14248400I-37500J0D01*
G01*
X15164050Y-14248400D02*
G75*
G02*
X15239050Y-14248400I37500J0D01*
G01*
X15412500Y-10642500D02*
X15487500Y-10717500D01*
X15487500Y-10642500D02*
X15412500Y-10717500D01*
X15487500Y-10680000D02*
G75*
G02*
X15412500Y-10680000I-37500J0D01*
G01*
X15412500Y-10680000D02*
G75*
G02*
X15487500Y-10680000I37500J0D01*
G01*
X15612500Y-10642500D02*
X15687500Y-10717500D01*
X15687500Y-10642500D02*
X15612500Y-10717500D01*
X15687500Y-10680000D02*
G75*
G02*
X15612500Y-10680000I-37500J0D01*
G01*
X15612500Y-10680000D02*
G75*
G02*
X15687500Y-10680000I37500J0D01*
G01*
X15812500Y-10642500D02*
X15887500Y-10717500D01*
X15887500Y-10642500D02*
X15812500Y-10717500D01*
X15887500Y-10680000D02*
G75*
G02*
X15812500Y-10680000I-37500J0D01*
G01*
X15812500Y-10680000D02*
G75*
G02*
X15887500Y-10680000I37500J0D01*
G01*
X16012500Y-10642500D02*
X16087500Y-10717500D01*
X16087500Y-10642500D02*
X16012500Y-10717500D01*
X16087500Y-10680000D02*
G75*
G02*
X16012500Y-10680000I-37500J0D01*
G01*
X16012500Y-10680000D02*
G75*
G02*
X16087500Y-10680000I37500J0D01*
G01*
X16212500Y-10642500D02*
X16287500Y-10717500D01*
X16287500Y-10642500D02*
X16212500Y-10717500D01*
X16287500Y-10680000D02*
G75*
G02*
X16212500Y-10680000I-37500J0D01*
G01*
X16212500Y-10680000D02*
G75*
G02*
X16287500Y-10680000I37500J0D01*
G01*
X11459740Y-11707500D02*
X11559740Y-11807500D01*
X11559740Y-11707500D02*
X11459740Y-11807500D01*
X11509740Y-11707500D02*
X11509740Y-11807500D01*
X11459740Y-11757500D02*
X11559740Y-11757500D01*
X11459740Y-11961500D02*
X11559740Y-12061500D01*
X11559740Y-11961500D02*
X11459740Y-12061500D01*
X11509740Y-11961500D02*
X11509740Y-12061500D01*
X11459740Y-12011500D02*
X11559740Y-12011500D01*
X11459740Y-12215500D02*
X11559740Y-12315500D01*
X11559740Y-12215500D02*
X11459740Y-12315500D01*
X11509740Y-12215500D02*
X11509740Y-12315500D01*
X11459740Y-12265500D02*
X11559740Y-12265500D01*
X11459740Y-12469500D02*
X11559740Y-12569500D01*
X11559740Y-12469500D02*
X11459740Y-12569500D01*
X11509740Y-12469500D02*
X11509740Y-12569500D01*
X11459740Y-12519500D02*
X11559740Y-12519500D01*
X11459740Y-12723500D02*
X11559740Y-12823500D01*
X11559740Y-12723500D02*
X11459740Y-12823500D01*
X11509740Y-12723500D02*
X11509740Y-12823500D01*
X11459740Y-12773500D02*
X11559740Y-12773500D01*
X11459740Y-12977500D02*
X11559740Y-13077500D01*
X11559740Y-12977500D02*
X11459740Y-13077500D01*
X11509740Y-12977500D02*
X11509740Y-13077500D01*
X11459740Y-13027500D02*
X11559740Y-13027500D01*
X11459740Y-13231500D02*
X11559740Y-13331500D01*
X11559740Y-13231500D02*
X11459740Y-13331500D01*
X11509740Y-13231500D02*
X11509740Y-13331500D01*
X11459740Y-13281500D02*
X11559740Y-13281500D01*
X11459740Y-13485500D02*
X11559740Y-13585500D01*
X11559740Y-13485500D02*
X11459740Y-13585500D01*
X11509740Y-13485500D02*
X11509740Y-13585500D01*
X11459740Y-13535500D02*
X11559740Y-13535500D01*
X16031740Y-11707500D02*
X16131740Y-11807500D01*
X16131740Y-11707500D02*
X16031740Y-11807500D01*
X16081740Y-11707500D02*
X16081740Y-11807500D01*
X16031740Y-11757500D02*
X16131740Y-11757500D01*
X16031740Y-11961500D02*
X16131740Y-12061500D01*
X16131740Y-11961500D02*
X16031740Y-12061500D01*
X16081740Y-11961500D02*
X16081740Y-12061500D01*
X16031740Y-12011500D02*
X16131740Y-12011500D01*
X16031740Y-12215500D02*
X16131740Y-12315500D01*
X16131740Y-12215500D02*
X16031740Y-12315500D01*
X16081740Y-12215500D02*
X16081740Y-12315500D01*
X16031740Y-12265500D02*
X16131740Y-12265500D01*
X16031740Y-12469500D02*
X16131740Y-12569500D01*
X16131740Y-12469500D02*
X16031740Y-12569500D01*
X16081740Y-12469500D02*
X16081740Y-12569500D01*
X16031740Y-12519500D02*
X16131740Y-12519500D01*
X16031740Y-12723500D02*
X16131740Y-12823500D01*
X16131740Y-12723500D02*
X16031740Y-12823500D01*
X16081740Y-12723500D02*
X16081740Y-12823500D01*
X16031740Y-12773500D02*
X16131740Y-12773500D01*
X16031740Y-12977500D02*
X16131740Y-13077500D01*
X16131740Y-12977500D02*
X16031740Y-13077500D01*
X16081740Y-12977500D02*
X16081740Y-13077500D01*
X16031740Y-13027500D02*
X16131740Y-13027500D01*
X16031740Y-13231500D02*
X16131740Y-13331500D01*
X16131740Y-13231500D02*
X16031740Y-13331500D01*
X16081740Y-13231500D02*
X16081740Y-13331500D01*
X16031740Y-13281500D02*
X16131740Y-13281500D01*
X16031740Y-13485500D02*
X16131740Y-13585500D01*
X16131740Y-13485500D02*
X16031740Y-13585500D01*
X16081740Y-13485500D02*
X16081740Y-13585500D01*
X16031740Y-13535500D02*
X16131740Y-13535500D01*
D12*
X10385000Y-14185000D02*
X10815000Y-14615000D01*
X10815000Y-14185000D02*
X10385000Y-14615000D01*
X10752029Y-14552029D02*
X10752029Y-14247971D01*
X10447971Y-14247971D01*
X10447971Y-14552029D01*
X10752029Y-14552029D01*
X17185000Y-10385000D02*
X17615000Y-10815000D01*
X17615000Y-10385000D02*
X17185000Y-10815000D01*
X17552029Y-10752029D02*
X17552029Y-10447971D01*
X17247971Y-10447971D01*
X17247971Y-10752029D01*
X17552029Y-10752029D01*
X17185000Y-14185000D02*
X17615000Y-14615000D01*
X17615000Y-14185000D02*
X17185000Y-14615000D01*
X17552029Y-14552029D02*
X17552029Y-14247971D01*
X17247971Y-14247971D01*
X17247971Y-14552029D01*
X17552029Y-14552029D01*
D11*
X10255777Y-15316484D02*
X10255777Y-15116484D01*
X10255777Y-15116484D02*
X10303396Y-15116484D01*
X10303396Y-15116484D02*
X10331967Y-15126008D01*
X10331967Y-15126008D02*
X10351015Y-15145055D01*
X10351015Y-15145055D02*
X10360539Y-15164103D01*
X10360539Y-15164103D02*
X10370063Y-15202198D01*
X10370063Y-15202198D02*
X10370063Y-15230769D01*
X10370063Y-15230769D02*
X10360539Y-15268865D01*
X10360539Y-15268865D02*
X10351015Y-15287912D01*
X10351015Y-15287912D02*
X10331967Y-15306960D01*
X10331967Y-15306960D02*
X10303396Y-15316484D01*
X10303396Y-15316484D02*
X10255777Y-15316484D01*
X10455777Y-15316484D02*
X10455777Y-15183150D01*
X10455777Y-15221246D02*
X10465301Y-15202198D01*
X10465301Y-15202198D02*
X10474824Y-15192674D01*
X10474824Y-15192674D02*
X10493872Y-15183150D01*
X10493872Y-15183150D02*
X10512920Y-15183150D01*
X10579586Y-15316484D02*
X10579586Y-15183150D01*
X10579586Y-15116484D02*
X10570063Y-15126008D01*
X10570063Y-15126008D02*
X10579586Y-15135531D01*
X10579586Y-15135531D02*
X10589110Y-15126008D01*
X10589110Y-15126008D02*
X10579586Y-15116484D01*
X10579586Y-15116484D02*
X10579586Y-15135531D01*
X10703396Y-15316484D02*
X10684348Y-15306960D01*
X10684348Y-15306960D02*
X10674824Y-15287912D01*
X10674824Y-15287912D02*
X10674824Y-15116484D01*
X10808158Y-15316484D02*
X10789110Y-15306960D01*
X10789110Y-15306960D02*
X10779586Y-15287912D01*
X10779586Y-15287912D02*
X10779586Y-15116484D01*
X11036729Y-15316484D02*
X11036729Y-15116484D01*
X11036729Y-15116484D02*
X11103396Y-15259341D01*
X11103396Y-15259341D02*
X11170063Y-15116484D01*
X11170063Y-15116484D02*
X11170063Y-15316484D01*
X11351015Y-15316484D02*
X11351015Y-15211722D01*
X11351015Y-15211722D02*
X11341491Y-15192674D01*
X11341491Y-15192674D02*
X11322443Y-15183150D01*
X11322443Y-15183150D02*
X11284348Y-15183150D01*
X11284348Y-15183150D02*
X11265301Y-15192674D01*
X11351015Y-15306960D02*
X11331967Y-15316484D01*
X11331967Y-15316484D02*
X11284348Y-15316484D01*
X11284348Y-15316484D02*
X11265301Y-15306960D01*
X11265301Y-15306960D02*
X11255777Y-15287912D01*
X11255777Y-15287912D02*
X11255777Y-15268865D01*
X11255777Y-15268865D02*
X11265301Y-15249817D01*
X11265301Y-15249817D02*
X11284348Y-15240293D01*
X11284348Y-15240293D02*
X11331967Y-15240293D01*
X11331967Y-15240293D02*
X11351015Y-15230769D01*
X11446253Y-15183150D02*
X11446253Y-15383150D01*
X11446253Y-15192674D02*
X11465301Y-15183150D01*
X11465301Y-15183150D02*
X11503396Y-15183150D01*
X11503396Y-15183150D02*
X11522443Y-15192674D01*
X11522443Y-15192674D02*
X11531967Y-15202198D01*
X11531967Y-15202198D02*
X11541491Y-15221246D01*
X11541491Y-15221246D02*
X11541491Y-15278388D01*
X11541491Y-15278388D02*
X11531967Y-15297436D01*
X11531967Y-15297436D02*
X11522443Y-15306960D01*
X11522443Y-15306960D02*
X11503396Y-15316484D01*
X11503396Y-15316484D02*
X11465301Y-15316484D01*
X11465301Y-15316484D02*
X11446253Y-15306960D01*
X11627205Y-15297436D02*
X11636729Y-15306960D01*
X11636729Y-15306960D02*
X11627205Y-15316484D01*
X11627205Y-15316484D02*
X11617682Y-15306960D01*
X11617682Y-15306960D02*
X11627205Y-15297436D01*
X11627205Y-15297436D02*
X11627205Y-15316484D01*
X11627205Y-15192674D02*
X11636729Y-15202198D01*
X11636729Y-15202198D02*
X11627205Y-15211722D01*
X11627205Y-15211722D02*
X11617682Y-15202198D01*
X11617682Y-15202198D02*
X11627205Y-15192674D01*
X11627205Y-15192674D02*
X11627205Y-15211722D01*
D10*
X9965000Y-15630000D02*
X9995000Y-15660000D01*
X9995000Y-15630000D02*
X9965000Y-15660000D01*
D11*
X10293872Y-15536484D02*
X10312920Y-15536484D01*
X10312920Y-15536484D02*
X10331967Y-15546008D01*
X10331967Y-15546008D02*
X10341491Y-15555531D01*
X10341491Y-15555531D02*
X10351015Y-15574579D01*
X10351015Y-15574579D02*
X10360539Y-15612674D01*
X10360539Y-15612674D02*
X10360539Y-15660293D01*
X10360539Y-15660293D02*
X10351015Y-15698388D01*
X10351015Y-15698388D02*
X10341491Y-15717436D01*
X10341491Y-15717436D02*
X10331967Y-15726960D01*
X10331967Y-15726960D02*
X10312920Y-15736484D01*
X10312920Y-15736484D02*
X10293872Y-15736484D01*
X10293872Y-15736484D02*
X10274824Y-15726960D01*
X10274824Y-15726960D02*
X10265301Y-15717436D01*
X10265301Y-15717436D02*
X10255777Y-15698388D01*
X10255777Y-15698388D02*
X10246253Y-15660293D01*
X10246253Y-15660293D02*
X10246253Y-15612674D01*
X10246253Y-15612674D02*
X10255777Y-15574579D01*
X10255777Y-15574579D02*
X10265301Y-15555531D01*
X10265301Y-15555531D02*
X10274824Y-15546008D01*
X10274824Y-15546008D02*
X10293872Y-15536484D01*
X10446253Y-15717436D02*
X10455777Y-15726960D01*
X10455777Y-15726960D02*
X10446253Y-15736484D01*
X10446253Y-15736484D02*
X10436729Y-15726960D01*
X10436729Y-15726960D02*
X10446253Y-15717436D01*
X10446253Y-15717436D02*
X10446253Y-15736484D01*
X10522444Y-15536484D02*
X10646253Y-15536484D01*
X10646253Y-15536484D02*
X10579586Y-15612674D01*
X10579586Y-15612674D02*
X10608158Y-15612674D01*
X10608158Y-15612674D02*
X10627205Y-15622198D01*
X10627205Y-15622198D02*
X10636729Y-15631722D01*
X10636729Y-15631722D02*
X10646253Y-15650769D01*
X10646253Y-15650769D02*
X10646253Y-15698388D01*
X10646253Y-15698388D02*
X10636729Y-15717436D01*
X10636729Y-15717436D02*
X10627205Y-15726960D01*
X10627205Y-15726960D02*
X10608158Y-15736484D01*
X10608158Y-15736484D02*
X10551015Y-15736484D01*
X10551015Y-15736484D02*
X10531967Y-15726960D01*
X10531967Y-15726960D02*
X10522444Y-15717436D01*
X10770063Y-15536484D02*
X10789110Y-15536484D01*
X10789110Y-15536484D02*
X10808158Y-15546008D01*
X10808158Y-15546008D02*
X10817682Y-15555531D01*
X10817682Y-15555531D02*
X10827205Y-15574579D01*
X10827205Y-15574579D02*
X10836729Y-15612674D01*
X10836729Y-15612674D02*
X10836729Y-15660293D01*
X10836729Y-15660293D02*
X10827205Y-15698388D01*
X10827205Y-15698388D02*
X10817682Y-15717436D01*
X10817682Y-15717436D02*
X10808158Y-15726960D01*
X10808158Y-15726960D02*
X10789110Y-15736484D01*
X10789110Y-15736484D02*
X10770063Y-15736484D01*
X10770063Y-15736484D02*
X10751015Y-15726960D01*
X10751015Y-15726960D02*
X10741491Y-15717436D01*
X10741491Y-15717436D02*
X10731967Y-15698388D01*
X10731967Y-15698388D02*
X10722444Y-15660293D01*
X10722444Y-15660293D02*
X10722444Y-15612674D01*
X10722444Y-15612674D02*
X10731967Y-15574579D01*
X10731967Y-15574579D02*
X10741491Y-15555531D01*
X10741491Y-15555531D02*
X10751015Y-15546008D01*
X10751015Y-15546008D02*
X10770063Y-15536484D01*
X10960539Y-15536484D02*
X10979586Y-15536484D01*
X10979586Y-15536484D02*
X10998634Y-15546008D01*
X10998634Y-15546008D02*
X11008158Y-15555531D01*
X11008158Y-15555531D02*
X11017682Y-15574579D01*
X11017682Y-15574579D02*
X11027205Y-15612674D01*
X11027205Y-15612674D02*
X11027205Y-15660293D01*
X11027205Y-15660293D02*
X11017682Y-15698388D01*
X11017682Y-15698388D02*
X11008158Y-15717436D01*
X11008158Y-15717436D02*
X10998634Y-15726960D01*
X10998634Y-15726960D02*
X10979586Y-15736484D01*
X10979586Y-15736484D02*
X10960539Y-15736484D01*
X10960539Y-15736484D02*
X10941491Y-15726960D01*
X10941491Y-15726960D02*
X10931967Y-15717436D01*
X10931967Y-15717436D02*
X10922444Y-15698388D01*
X10922444Y-15698388D02*
X10912920Y-15660293D01*
X10912920Y-15660293D02*
X10912920Y-15612674D01*
X10912920Y-15612674D02*
X10922444Y-15574579D01*
X10922444Y-15574579D02*
X10931967Y-15555531D01*
X10931967Y-15555531D02*
X10941491Y-15546008D01*
X10941491Y-15546008D02*
X10960539Y-15536484D01*
X11112920Y-15736484D02*
X11112920Y-15603150D01*
X11112920Y-15622198D02*
X11122444Y-15612674D01*
X11122444Y-15612674D02*
X11141491Y-15603150D01*
X11141491Y-15603150D02*
X11170063Y-15603150D01*
X11170063Y-15603150D02*
X11189110Y-15612674D01*
X11189110Y-15612674D02*
X11198634Y-15631722D01*
X11198634Y-15631722D02*
X11198634Y-15736484D01*
X11198634Y-15631722D02*
X11208158Y-15612674D01*
X11208158Y-15612674D02*
X11227205Y-15603150D01*
X11227205Y-15603150D02*
X11255777Y-15603150D01*
X11255777Y-15603150D02*
X11274824Y-15612674D01*
X11274824Y-15612674D02*
X11284348Y-15631722D01*
X11284348Y-15631722D02*
X11284348Y-15736484D01*
X11379586Y-15736484D02*
X11379586Y-15603150D01*
X11379586Y-15622198D02*
X11389110Y-15612674D01*
X11389110Y-15612674D02*
X11408158Y-15603150D01*
X11408158Y-15603150D02*
X11436729Y-15603150D01*
X11436729Y-15603150D02*
X11455777Y-15612674D01*
X11455777Y-15612674D02*
X11465301Y-15631722D01*
X11465301Y-15631722D02*
X11465301Y-15736484D01*
X11465301Y-15631722D02*
X11474824Y-15612674D01*
X11474824Y-15612674D02*
X11493872Y-15603150D01*
X11493872Y-15603150D02*
X11522443Y-15603150D01*
X11522443Y-15603150D02*
X11541491Y-15612674D01*
X11541491Y-15612674D02*
X11551015Y-15631722D01*
X11551015Y-15631722D02*
X11551015Y-15736484D01*
X11941491Y-15526960D02*
X11770063Y-15784103D01*
X12198634Y-15536484D02*
X12217682Y-15536484D01*
X12217682Y-15536484D02*
X12236729Y-15546008D01*
X12236729Y-15546008D02*
X12246253Y-15555531D01*
X12246253Y-15555531D02*
X12255777Y-15574579D01*
X12255777Y-15574579D02*
X12265301Y-15612674D01*
X12265301Y-15612674D02*
X12265301Y-15660293D01*
X12265301Y-15660293D02*
X12255777Y-15698388D01*
X12255777Y-15698388D02*
X12246253Y-15717436D01*
X12246253Y-15717436D02*
X12236729Y-15726960D01*
X12236729Y-15726960D02*
X12217682Y-15736484D01*
X12217682Y-15736484D02*
X12198634Y-15736484D01*
X12198634Y-15736484D02*
X12179586Y-15726960D01*
X12179586Y-15726960D02*
X12170063Y-15717436D01*
X12170063Y-15717436D02*
X12160539Y-15698388D01*
X12160539Y-15698388D02*
X12151015Y-15660293D01*
X12151015Y-15660293D02*
X12151015Y-15612674D01*
X12151015Y-15612674D02*
X12160539Y-15574579D01*
X12160539Y-15574579D02*
X12170063Y-15555531D01*
X12170063Y-15555531D02*
X12179586Y-15546008D01*
X12179586Y-15546008D02*
X12198634Y-15536484D01*
X12351015Y-15717436D02*
X12360539Y-15726960D01*
X12360539Y-15726960D02*
X12351015Y-15736484D01*
X12351015Y-15736484D02*
X12341491Y-15726960D01*
X12341491Y-15726960D02*
X12351015Y-15717436D01*
X12351015Y-15717436D02*
X12351015Y-15736484D01*
X12484348Y-15536484D02*
X12503396Y-15536484D01*
X12503396Y-15536484D02*
X12522444Y-15546008D01*
X12522444Y-15546008D02*
X12531967Y-15555531D01*
X12531967Y-15555531D02*
X12541491Y-15574579D01*
X12541491Y-15574579D02*
X12551015Y-15612674D01*
X12551015Y-15612674D02*
X12551015Y-15660293D01*
X12551015Y-15660293D02*
X12541491Y-15698388D01*
X12541491Y-15698388D02*
X12531967Y-15717436D01*
X12531967Y-15717436D02*
X12522444Y-15726960D01*
X12522444Y-15726960D02*
X12503396Y-15736484D01*
X12503396Y-15736484D02*
X12484348Y-15736484D01*
X12484348Y-15736484D02*
X12465301Y-15726960D01*
X12465301Y-15726960D02*
X12455777Y-15717436D01*
X12455777Y-15717436D02*
X12446253Y-15698388D01*
X12446253Y-15698388D02*
X12436729Y-15660293D01*
X12436729Y-15660293D02*
X12436729Y-15612674D01*
X12436729Y-15612674D02*
X12446253Y-15574579D01*
X12446253Y-15574579D02*
X12455777Y-15555531D01*
X12455777Y-15555531D02*
X12465301Y-15546008D01*
X12465301Y-15546008D02*
X12484348Y-15536484D01*
X12741491Y-15736484D02*
X12627206Y-15736484D01*
X12684348Y-15736484D02*
X12684348Y-15536484D01*
X12684348Y-15536484D02*
X12665301Y-15565055D01*
X12665301Y-15565055D02*
X12646253Y-15584103D01*
X12646253Y-15584103D02*
X12627206Y-15593627D01*
X12931967Y-15736484D02*
X12817682Y-15736484D01*
X12874825Y-15736484D02*
X12874825Y-15536484D01*
X12874825Y-15536484D02*
X12855777Y-15565055D01*
X12855777Y-15565055D02*
X12836729Y-15584103D01*
X12836729Y-15584103D02*
X12817682Y-15593627D01*
X13046253Y-15622198D02*
X13027206Y-15612674D01*
X13027206Y-15612674D02*
X13017682Y-15603150D01*
X13017682Y-15603150D02*
X13008158Y-15584103D01*
X13008158Y-15584103D02*
X13008158Y-15574579D01*
X13008158Y-15574579D02*
X13017682Y-15555531D01*
X13017682Y-15555531D02*
X13027206Y-15546008D01*
X13027206Y-15546008D02*
X13046253Y-15536484D01*
X13046253Y-15536484D02*
X13084348Y-15536484D01*
X13084348Y-15536484D02*
X13103396Y-15546008D01*
X13103396Y-15546008D02*
X13112920Y-15555531D01*
X13112920Y-15555531D02*
X13122444Y-15574579D01*
X13122444Y-15574579D02*
X13122444Y-15584103D01*
X13122444Y-15584103D02*
X13112920Y-15603150D01*
X13112920Y-15603150D02*
X13103396Y-15612674D01*
X13103396Y-15612674D02*
X13084348Y-15622198D01*
X13084348Y-15622198D02*
X13046253Y-15622198D01*
X13046253Y-15622198D02*
X13027206Y-15631722D01*
X13027206Y-15631722D02*
X13017682Y-15641246D01*
X13017682Y-15641246D02*
X13008158Y-15660293D01*
X13008158Y-15660293D02*
X13008158Y-15698388D01*
X13008158Y-15698388D02*
X13017682Y-15717436D01*
X13017682Y-15717436D02*
X13027206Y-15726960D01*
X13027206Y-15726960D02*
X13046253Y-15736484D01*
X13046253Y-15736484D02*
X13084348Y-15736484D01*
X13084348Y-15736484D02*
X13103396Y-15726960D01*
X13103396Y-15726960D02*
X13112920Y-15717436D01*
X13112920Y-15717436D02*
X13122444Y-15698388D01*
X13122444Y-15698388D02*
X13122444Y-15660293D01*
X13122444Y-15660293D02*
X13112920Y-15641246D01*
X13112920Y-15641246D02*
X13103396Y-15631722D01*
X13103396Y-15631722D02*
X13084348Y-15622198D01*
X13198634Y-15536484D02*
X13198634Y-15574579D01*
X13274825Y-15536484D02*
X13274825Y-15574579D01*
X13570063Y-15812674D02*
X13560539Y-15803150D01*
X13560539Y-15803150D02*
X13541491Y-15774579D01*
X13541491Y-15774579D02*
X13531968Y-15755531D01*
X13531968Y-15755531D02*
X13522444Y-15726960D01*
X13522444Y-15726960D02*
X13512920Y-15679341D01*
X13512920Y-15679341D02*
X13512920Y-15641246D01*
X13512920Y-15641246D02*
X13522444Y-15593627D01*
X13522444Y-15593627D02*
X13531968Y-15565055D01*
X13531968Y-15565055D02*
X13541491Y-15546008D01*
X13541491Y-15546008D02*
X13560539Y-15517436D01*
X13560539Y-15517436D02*
X13570063Y-15507912D01*
X13674825Y-15622198D02*
X13655777Y-15612674D01*
X13655777Y-15612674D02*
X13646253Y-15603150D01*
X13646253Y-15603150D02*
X13636729Y-15584103D01*
X13636729Y-15584103D02*
X13636729Y-15574579D01*
X13636729Y-15574579D02*
X13646253Y-15555531D01*
X13646253Y-15555531D02*
X13655777Y-15546008D01*
X13655777Y-15546008D02*
X13674825Y-15536484D01*
X13674825Y-15536484D02*
X13712920Y-15536484D01*
X13712920Y-15536484D02*
X13731968Y-15546008D01*
X13731968Y-15546008D02*
X13741491Y-15555531D01*
X13741491Y-15555531D02*
X13751015Y-15574579D01*
X13751015Y-15574579D02*
X13751015Y-15584103D01*
X13751015Y-15584103D02*
X13741491Y-15603150D01*
X13741491Y-15603150D02*
X13731968Y-15612674D01*
X13731968Y-15612674D02*
X13712920Y-15622198D01*
X13712920Y-15622198D02*
X13674825Y-15622198D01*
X13674825Y-15622198D02*
X13655777Y-15631722D01*
X13655777Y-15631722D02*
X13646253Y-15641246D01*
X13646253Y-15641246D02*
X13636729Y-15660293D01*
X13636729Y-15660293D02*
X13636729Y-15698388D01*
X13636729Y-15698388D02*
X13646253Y-15717436D01*
X13646253Y-15717436D02*
X13655777Y-15726960D01*
X13655777Y-15726960D02*
X13674825Y-15736484D01*
X13674825Y-15736484D02*
X13712920Y-15736484D01*
X13712920Y-15736484D02*
X13731968Y-15726960D01*
X13731968Y-15726960D02*
X13741491Y-15717436D01*
X13741491Y-15717436D02*
X13751015Y-15698388D01*
X13751015Y-15698388D02*
X13751015Y-15660293D01*
X13751015Y-15660293D02*
X13741491Y-15641246D01*
X13741491Y-15641246D02*
X13731968Y-15631722D01*
X13731968Y-15631722D02*
X13712920Y-15622198D01*
X13989110Y-15736484D02*
X13989110Y-15536484D01*
X14074825Y-15736484D02*
X14074825Y-15631722D01*
X14074825Y-15631722D02*
X14065301Y-15612674D01*
X14065301Y-15612674D02*
X14046253Y-15603150D01*
X14046253Y-15603150D02*
X14017682Y-15603150D01*
X14017682Y-15603150D02*
X13998634Y-15612674D01*
X13998634Y-15612674D02*
X13989110Y-15622198D01*
X14198634Y-15736484D02*
X14179587Y-15726960D01*
X14179587Y-15726960D02*
X14170063Y-15717436D01*
X14170063Y-15717436D02*
X14160539Y-15698388D01*
X14160539Y-15698388D02*
X14160539Y-15641246D01*
X14160539Y-15641246D02*
X14170063Y-15622198D01*
X14170063Y-15622198D02*
X14179587Y-15612674D01*
X14179587Y-15612674D02*
X14198634Y-15603150D01*
X14198634Y-15603150D02*
X14227206Y-15603150D01*
X14227206Y-15603150D02*
X14246253Y-15612674D01*
X14246253Y-15612674D02*
X14255777Y-15622198D01*
X14255777Y-15622198D02*
X14265301Y-15641246D01*
X14265301Y-15641246D02*
X14265301Y-15698388D01*
X14265301Y-15698388D02*
X14255777Y-15717436D01*
X14255777Y-15717436D02*
X14246253Y-15726960D01*
X14246253Y-15726960D02*
X14227206Y-15736484D01*
X14227206Y-15736484D02*
X14198634Y-15736484D01*
X14379587Y-15736484D02*
X14360539Y-15726960D01*
X14360539Y-15726960D02*
X14351015Y-15707912D01*
X14351015Y-15707912D02*
X14351015Y-15536484D01*
X14531968Y-15726960D02*
X14512920Y-15736484D01*
X14512920Y-15736484D02*
X14474825Y-15736484D01*
X14474825Y-15736484D02*
X14455777Y-15726960D01*
X14455777Y-15726960D02*
X14446253Y-15707912D01*
X14446253Y-15707912D02*
X14446253Y-15631722D01*
X14446253Y-15631722D02*
X14455777Y-15612674D01*
X14455777Y-15612674D02*
X14474825Y-15603150D01*
X14474825Y-15603150D02*
X14512920Y-15603150D01*
X14512920Y-15603150D02*
X14531968Y-15612674D01*
X14531968Y-15612674D02*
X14541491Y-15631722D01*
X14541491Y-15631722D02*
X14541491Y-15650769D01*
X14541491Y-15650769D02*
X14446253Y-15669817D01*
X14617682Y-15726960D02*
X14636730Y-15736484D01*
X14636730Y-15736484D02*
X14674825Y-15736484D01*
X14674825Y-15736484D02*
X14693872Y-15726960D01*
X14693872Y-15726960D02*
X14703396Y-15707912D01*
X14703396Y-15707912D02*
X14703396Y-15698388D01*
X14703396Y-15698388D02*
X14693872Y-15679341D01*
X14693872Y-15679341D02*
X14674825Y-15669817D01*
X14674825Y-15669817D02*
X14646253Y-15669817D01*
X14646253Y-15669817D02*
X14627206Y-15660293D01*
X14627206Y-15660293D02*
X14617682Y-15641246D01*
X14617682Y-15641246D02*
X14617682Y-15631722D01*
X14617682Y-15631722D02*
X14627206Y-15612674D01*
X14627206Y-15612674D02*
X14646253Y-15603150D01*
X14646253Y-15603150D02*
X14674825Y-15603150D01*
X14674825Y-15603150D02*
X14693872Y-15612674D01*
X14770063Y-15812674D02*
X14779587Y-15803150D01*
X14779587Y-15803150D02*
X14798634Y-15774579D01*
X14798634Y-15774579D02*
X14808158Y-15755531D01*
X14808158Y-15755531D02*
X14817682Y-15726960D01*
X14817682Y-15726960D02*
X14827206Y-15679341D01*
X14827206Y-15679341D02*
X14827206Y-15641246D01*
X14827206Y-15641246D02*
X14817682Y-15593627D01*
X14817682Y-15593627D02*
X14808158Y-15565055D01*
X14808158Y-15565055D02*
X14798634Y-15546008D01*
X14798634Y-15546008D02*
X14779587Y-15517436D01*
X14779587Y-15517436D02*
X14770063Y-15507912D01*
D10*
X9995000Y-15909000D02*
G75*
G02*
X9960000Y-15909000I-17500J0D01*
G01*
X9960000Y-15909000D02*
G75*
G02*
X9995000Y-15909000I17500J0D01*
G01*
D11*
X10293872Y-15800484D02*
X10312920Y-15800484D01*
X10312920Y-15800484D02*
X10331967Y-15810008D01*
X10331967Y-15810008D02*
X10341491Y-15819531D01*
X10341491Y-15819531D02*
X10351015Y-15838579D01*
X10351015Y-15838579D02*
X10360539Y-15876674D01*
X10360539Y-15876674D02*
X10360539Y-15924293D01*
X10360539Y-15924293D02*
X10351015Y-15962388D01*
X10351015Y-15962388D02*
X10341491Y-15981436D01*
X10341491Y-15981436D02*
X10331967Y-15990960D01*
X10331967Y-15990960D02*
X10312920Y-16000484D01*
X10312920Y-16000484D02*
X10293872Y-16000484D01*
X10293872Y-16000484D02*
X10274824Y-15990960D01*
X10274824Y-15990960D02*
X10265301Y-15981436D01*
X10265301Y-15981436D02*
X10255777Y-15962388D01*
X10255777Y-15962388D02*
X10246253Y-15924293D01*
X10246253Y-15924293D02*
X10246253Y-15876674D01*
X10246253Y-15876674D02*
X10255777Y-15838579D01*
X10255777Y-15838579D02*
X10265301Y-15819531D01*
X10265301Y-15819531D02*
X10274824Y-15810008D01*
X10274824Y-15810008D02*
X10293872Y-15800484D01*
X10446253Y-15981436D02*
X10455777Y-15990960D01*
X10455777Y-15990960D02*
X10446253Y-16000484D01*
X10446253Y-16000484D02*
X10436729Y-15990960D01*
X10436729Y-15990960D02*
X10446253Y-15981436D01*
X10446253Y-15981436D02*
X10446253Y-16000484D01*
X10522444Y-15800484D02*
X10646253Y-15800484D01*
X10646253Y-15800484D02*
X10579586Y-15876674D01*
X10579586Y-15876674D02*
X10608158Y-15876674D01*
X10608158Y-15876674D02*
X10627205Y-15886198D01*
X10627205Y-15886198D02*
X10636729Y-15895722D01*
X10636729Y-15895722D02*
X10646253Y-15914769D01*
X10646253Y-15914769D02*
X10646253Y-15962388D01*
X10646253Y-15962388D02*
X10636729Y-15981436D01*
X10636729Y-15981436D02*
X10627205Y-15990960D01*
X10627205Y-15990960D02*
X10608158Y-16000484D01*
X10608158Y-16000484D02*
X10551015Y-16000484D01*
X10551015Y-16000484D02*
X10531967Y-15990960D01*
X10531967Y-15990960D02*
X10522444Y-15981436D01*
X10827205Y-15800484D02*
X10731967Y-15800484D01*
X10731967Y-15800484D02*
X10722444Y-15895722D01*
X10722444Y-15895722D02*
X10731967Y-15886198D01*
X10731967Y-15886198D02*
X10751015Y-15876674D01*
X10751015Y-15876674D02*
X10798634Y-15876674D01*
X10798634Y-15876674D02*
X10817682Y-15886198D01*
X10817682Y-15886198D02*
X10827205Y-15895722D01*
X10827205Y-15895722D02*
X10836729Y-15914769D01*
X10836729Y-15914769D02*
X10836729Y-15962388D01*
X10836729Y-15962388D02*
X10827205Y-15981436D01*
X10827205Y-15981436D02*
X10817682Y-15990960D01*
X10817682Y-15990960D02*
X10798634Y-16000484D01*
X10798634Y-16000484D02*
X10751015Y-16000484D01*
X10751015Y-16000484D02*
X10731967Y-15990960D01*
X10731967Y-15990960D02*
X10722444Y-15981436D01*
X10960539Y-15800484D02*
X10979586Y-15800484D01*
X10979586Y-15800484D02*
X10998634Y-15810008D01*
X10998634Y-15810008D02*
X11008158Y-15819531D01*
X11008158Y-15819531D02*
X11017682Y-15838579D01*
X11017682Y-15838579D02*
X11027205Y-15876674D01*
X11027205Y-15876674D02*
X11027205Y-15924293D01*
X11027205Y-15924293D02*
X11017682Y-15962388D01*
X11017682Y-15962388D02*
X11008158Y-15981436D01*
X11008158Y-15981436D02*
X10998634Y-15990960D01*
X10998634Y-15990960D02*
X10979586Y-16000484D01*
X10979586Y-16000484D02*
X10960539Y-16000484D01*
X10960539Y-16000484D02*
X10941491Y-15990960D01*
X10941491Y-15990960D02*
X10931967Y-15981436D01*
X10931967Y-15981436D02*
X10922444Y-15962388D01*
X10922444Y-15962388D02*
X10912920Y-15924293D01*
X10912920Y-15924293D02*
X10912920Y-15876674D01*
X10912920Y-15876674D02*
X10922444Y-15838579D01*
X10922444Y-15838579D02*
X10931967Y-15819531D01*
X10931967Y-15819531D02*
X10941491Y-15810008D01*
X10941491Y-15810008D02*
X10960539Y-15800484D01*
X11112920Y-16000484D02*
X11112920Y-15867150D01*
X11112920Y-15886198D02*
X11122444Y-15876674D01*
X11122444Y-15876674D02*
X11141491Y-15867150D01*
X11141491Y-15867150D02*
X11170063Y-15867150D01*
X11170063Y-15867150D02*
X11189110Y-15876674D01*
X11189110Y-15876674D02*
X11198634Y-15895722D01*
X11198634Y-15895722D02*
X11198634Y-16000484D01*
X11198634Y-15895722D02*
X11208158Y-15876674D01*
X11208158Y-15876674D02*
X11227205Y-15867150D01*
X11227205Y-15867150D02*
X11255777Y-15867150D01*
X11255777Y-15867150D02*
X11274824Y-15876674D01*
X11274824Y-15876674D02*
X11284348Y-15895722D01*
X11284348Y-15895722D02*
X11284348Y-16000484D01*
X11379586Y-16000484D02*
X11379586Y-15867150D01*
X11379586Y-15886198D02*
X11389110Y-15876674D01*
X11389110Y-15876674D02*
X11408158Y-15867150D01*
X11408158Y-15867150D02*
X11436729Y-15867150D01*
X11436729Y-15867150D02*
X11455777Y-15876674D01*
X11455777Y-15876674D02*
X11465301Y-15895722D01*
X11465301Y-15895722D02*
X11465301Y-16000484D01*
X11465301Y-15895722D02*
X11474824Y-15876674D01*
X11474824Y-15876674D02*
X11493872Y-15867150D01*
X11493872Y-15867150D02*
X11522443Y-15867150D01*
X11522443Y-15867150D02*
X11541491Y-15876674D01*
X11541491Y-15876674D02*
X11551015Y-15895722D01*
X11551015Y-15895722D02*
X11551015Y-16000484D01*
X11941491Y-15790960D02*
X11770063Y-16048103D01*
X12198634Y-15800484D02*
X12217682Y-15800484D01*
X12217682Y-15800484D02*
X12236729Y-15810008D01*
X12236729Y-15810008D02*
X12246253Y-15819531D01*
X12246253Y-15819531D02*
X12255777Y-15838579D01*
X12255777Y-15838579D02*
X12265301Y-15876674D01*
X12265301Y-15876674D02*
X12265301Y-15924293D01*
X12265301Y-15924293D02*
X12255777Y-15962388D01*
X12255777Y-15962388D02*
X12246253Y-15981436D01*
X12246253Y-15981436D02*
X12236729Y-15990960D01*
X12236729Y-15990960D02*
X12217682Y-16000484D01*
X12217682Y-16000484D02*
X12198634Y-16000484D01*
X12198634Y-16000484D02*
X12179586Y-15990960D01*
X12179586Y-15990960D02*
X12170063Y-15981436D01*
X12170063Y-15981436D02*
X12160539Y-15962388D01*
X12160539Y-15962388D02*
X12151015Y-15924293D01*
X12151015Y-15924293D02*
X12151015Y-15876674D01*
X12151015Y-15876674D02*
X12160539Y-15838579D01*
X12160539Y-15838579D02*
X12170063Y-15819531D01*
X12170063Y-15819531D02*
X12179586Y-15810008D01*
X12179586Y-15810008D02*
X12198634Y-15800484D01*
X12351015Y-15981436D02*
X12360539Y-15990960D01*
X12360539Y-15990960D02*
X12351015Y-16000484D01*
X12351015Y-16000484D02*
X12341491Y-15990960D01*
X12341491Y-15990960D02*
X12351015Y-15981436D01*
X12351015Y-15981436D02*
X12351015Y-16000484D01*
X12484348Y-15800484D02*
X12503396Y-15800484D01*
X12503396Y-15800484D02*
X12522444Y-15810008D01*
X12522444Y-15810008D02*
X12531967Y-15819531D01*
X12531967Y-15819531D02*
X12541491Y-15838579D01*
X12541491Y-15838579D02*
X12551015Y-15876674D01*
X12551015Y-15876674D02*
X12551015Y-15924293D01*
X12551015Y-15924293D02*
X12541491Y-15962388D01*
X12541491Y-15962388D02*
X12531967Y-15981436D01*
X12531967Y-15981436D02*
X12522444Y-15990960D01*
X12522444Y-15990960D02*
X12503396Y-16000484D01*
X12503396Y-16000484D02*
X12484348Y-16000484D01*
X12484348Y-16000484D02*
X12465301Y-15990960D01*
X12465301Y-15990960D02*
X12455777Y-15981436D01*
X12455777Y-15981436D02*
X12446253Y-15962388D01*
X12446253Y-15962388D02*
X12436729Y-15924293D01*
X12436729Y-15924293D02*
X12436729Y-15876674D01*
X12436729Y-15876674D02*
X12446253Y-15838579D01*
X12446253Y-15838579D02*
X12455777Y-15819531D01*
X12455777Y-15819531D02*
X12465301Y-15810008D01*
X12465301Y-15810008D02*
X12484348Y-15800484D01*
X12741491Y-16000484D02*
X12627206Y-16000484D01*
X12684348Y-16000484D02*
X12684348Y-15800484D01*
X12684348Y-15800484D02*
X12665301Y-15829055D01*
X12665301Y-15829055D02*
X12646253Y-15848103D01*
X12646253Y-15848103D02*
X12627206Y-15857627D01*
X12808158Y-15800484D02*
X12931967Y-15800484D01*
X12931967Y-15800484D02*
X12865301Y-15876674D01*
X12865301Y-15876674D02*
X12893872Y-15876674D01*
X12893872Y-15876674D02*
X12912920Y-15886198D01*
X12912920Y-15886198D02*
X12922444Y-15895722D01*
X12922444Y-15895722D02*
X12931967Y-15914769D01*
X12931967Y-15914769D02*
X12931967Y-15962388D01*
X12931967Y-15962388D02*
X12922444Y-15981436D01*
X12922444Y-15981436D02*
X12912920Y-15990960D01*
X12912920Y-15990960D02*
X12893872Y-16000484D01*
X12893872Y-16000484D02*
X12836729Y-16000484D01*
X12836729Y-16000484D02*
X12817682Y-15990960D01*
X12817682Y-15990960D02*
X12808158Y-15981436D01*
X13046253Y-15886198D02*
X13027206Y-15876674D01*
X13027206Y-15876674D02*
X13017682Y-15867150D01*
X13017682Y-15867150D02*
X13008158Y-15848103D01*
X13008158Y-15848103D02*
X13008158Y-15838579D01*
X13008158Y-15838579D02*
X13017682Y-15819531D01*
X13017682Y-15819531D02*
X13027206Y-15810008D01*
X13027206Y-15810008D02*
X13046253Y-15800484D01*
X13046253Y-15800484D02*
X13084348Y-15800484D01*
X13084348Y-15800484D02*
X13103396Y-15810008D01*
X13103396Y-15810008D02*
X13112920Y-15819531D01*
X13112920Y-15819531D02*
X13122444Y-15838579D01*
X13122444Y-15838579D02*
X13122444Y-15848103D01*
X13122444Y-15848103D02*
X13112920Y-15867150D01*
X13112920Y-15867150D02*
X13103396Y-15876674D01*
X13103396Y-15876674D02*
X13084348Y-15886198D01*
X13084348Y-15886198D02*
X13046253Y-15886198D01*
X13046253Y-15886198D02*
X13027206Y-15895722D01*
X13027206Y-15895722D02*
X13017682Y-15905246D01*
X13017682Y-15905246D02*
X13008158Y-15924293D01*
X13008158Y-15924293D02*
X13008158Y-15962388D01*
X13008158Y-15962388D02*
X13017682Y-15981436D01*
X13017682Y-15981436D02*
X13027206Y-15990960D01*
X13027206Y-15990960D02*
X13046253Y-16000484D01*
X13046253Y-16000484D02*
X13084348Y-16000484D01*
X13084348Y-16000484D02*
X13103396Y-15990960D01*
X13103396Y-15990960D02*
X13112920Y-15981436D01*
X13112920Y-15981436D02*
X13122444Y-15962388D01*
X13122444Y-15962388D02*
X13122444Y-15924293D01*
X13122444Y-15924293D02*
X13112920Y-15905246D01*
X13112920Y-15905246D02*
X13103396Y-15895722D01*
X13103396Y-15895722D02*
X13084348Y-15886198D01*
X13198634Y-15800484D02*
X13198634Y-15838579D01*
X13274825Y-15800484D02*
X13274825Y-15838579D01*
X13570063Y-16076674D02*
X13560539Y-16067150D01*
X13560539Y-16067150D02*
X13541491Y-16038579D01*
X13541491Y-16038579D02*
X13531968Y-16019531D01*
X13531968Y-16019531D02*
X13522444Y-15990960D01*
X13522444Y-15990960D02*
X13512920Y-15943341D01*
X13512920Y-15943341D02*
X13512920Y-15905246D01*
X13512920Y-15905246D02*
X13522444Y-15857627D01*
X13522444Y-15857627D02*
X13531968Y-15829055D01*
X13531968Y-15829055D02*
X13541491Y-15810008D01*
X13541491Y-15810008D02*
X13560539Y-15781436D01*
X13560539Y-15781436D02*
X13570063Y-15771912D01*
X13731968Y-15800484D02*
X13693872Y-15800484D01*
X13693872Y-15800484D02*
X13674825Y-15810008D01*
X13674825Y-15810008D02*
X13665301Y-15819531D01*
X13665301Y-15819531D02*
X13646253Y-15848103D01*
X13646253Y-15848103D02*
X13636729Y-15886198D01*
X13636729Y-15886198D02*
X13636729Y-15962388D01*
X13636729Y-15962388D02*
X13646253Y-15981436D01*
X13646253Y-15981436D02*
X13655777Y-15990960D01*
X13655777Y-15990960D02*
X13674825Y-16000484D01*
X13674825Y-16000484D02*
X13712920Y-16000484D01*
X13712920Y-16000484D02*
X13731968Y-15990960D01*
X13731968Y-15990960D02*
X13741491Y-15981436D01*
X13741491Y-15981436D02*
X13751015Y-15962388D01*
X13751015Y-15962388D02*
X13751015Y-15914769D01*
X13751015Y-15914769D02*
X13741491Y-15895722D01*
X13741491Y-15895722D02*
X13731968Y-15886198D01*
X13731968Y-15886198D02*
X13712920Y-15876674D01*
X13712920Y-15876674D02*
X13674825Y-15876674D01*
X13674825Y-15876674D02*
X13655777Y-15886198D01*
X13655777Y-15886198D02*
X13646253Y-15895722D01*
X13646253Y-15895722D02*
X13636729Y-15914769D01*
X13941491Y-16000484D02*
X13827206Y-16000484D01*
X13884348Y-16000484D02*
X13884348Y-15800484D01*
X13884348Y-15800484D02*
X13865301Y-15829055D01*
X13865301Y-15829055D02*
X13846253Y-15848103D01*
X13846253Y-15848103D02*
X13827206Y-15857627D01*
X14179587Y-16000484D02*
X14179587Y-15800484D01*
X14265301Y-16000484D02*
X14265301Y-15895722D01*
X14265301Y-15895722D02*
X14255777Y-15876674D01*
X14255777Y-15876674D02*
X14236730Y-15867150D01*
X14236730Y-15867150D02*
X14208158Y-15867150D01*
X14208158Y-15867150D02*
X14189110Y-15876674D01*
X14189110Y-15876674D02*
X14179587Y-15886198D01*
X14389110Y-16000484D02*
X14370063Y-15990960D01*
X14370063Y-15990960D02*
X14360539Y-15981436D01*
X14360539Y-15981436D02*
X14351015Y-15962388D01*
X14351015Y-15962388D02*
X14351015Y-15905246D01*
X14351015Y-15905246D02*
X14360539Y-15886198D01*
X14360539Y-15886198D02*
X14370063Y-15876674D01*
X14370063Y-15876674D02*
X14389110Y-15867150D01*
X14389110Y-15867150D02*
X14417682Y-15867150D01*
X14417682Y-15867150D02*
X14436730Y-15876674D01*
X14436730Y-15876674D02*
X14446253Y-15886198D01*
X14446253Y-15886198D02*
X14455777Y-15905246D01*
X14455777Y-15905246D02*
X14455777Y-15962388D01*
X14455777Y-15962388D02*
X14446253Y-15981436D01*
X14446253Y-15981436D02*
X14436730Y-15990960D01*
X14436730Y-15990960D02*
X14417682Y-16000484D01*
X14417682Y-16000484D02*
X14389110Y-16000484D01*
X14570063Y-16000484D02*
X14551015Y-15990960D01*
X14551015Y-15990960D02*
X14541491Y-15971912D01*
X14541491Y-15971912D02*
X14541491Y-15800484D01*
X14722444Y-15990960D02*
X14703396Y-16000484D01*
X14703396Y-16000484D02*
X14665301Y-16000484D01*
X14665301Y-16000484D02*
X14646253Y-15990960D01*
X14646253Y-15990960D02*
X14636730Y-15971912D01*
X14636730Y-15971912D02*
X14636730Y-15895722D01*
X14636730Y-15895722D02*
X14646253Y-15876674D01*
X14646253Y-15876674D02*
X14665301Y-15867150D01*
X14665301Y-15867150D02*
X14703396Y-15867150D01*
X14703396Y-15867150D02*
X14722444Y-15876674D01*
X14722444Y-15876674D02*
X14731968Y-15895722D01*
X14731968Y-15895722D02*
X14731968Y-15914769D01*
X14731968Y-15914769D02*
X14636730Y-15933817D01*
X14808158Y-15990960D02*
X14827206Y-16000484D01*
X14827206Y-16000484D02*
X14865301Y-16000484D01*
X14865301Y-16000484D02*
X14884349Y-15990960D01*
X14884349Y-15990960D02*
X14893872Y-15971912D01*
X14893872Y-15971912D02*
X14893872Y-15962388D01*
X14893872Y-15962388D02*
X14884349Y-15943341D01*
X14884349Y-15943341D02*
X14865301Y-15933817D01*
X14865301Y-15933817D02*
X14836730Y-15933817D01*
X14836730Y-15933817D02*
X14817682Y-15924293D01*
X14817682Y-15924293D02*
X14808158Y-15905246D01*
X14808158Y-15905246D02*
X14808158Y-15895722D01*
X14808158Y-15895722D02*
X14817682Y-15876674D01*
X14817682Y-15876674D02*
X14836730Y-15867150D01*
X14836730Y-15867150D02*
X14865301Y-15867150D01*
X14865301Y-15867150D02*
X14884349Y-15876674D01*
X14960539Y-16076674D02*
X14970063Y-16067150D01*
X14970063Y-16067150D02*
X14989111Y-16038579D01*
X14989111Y-16038579D02*
X14998634Y-16019531D01*
X14998634Y-16019531D02*
X15008158Y-15990960D01*
X15008158Y-15990960D02*
X15017682Y-15943341D01*
X15017682Y-15943341D02*
X15017682Y-15905246D01*
X15017682Y-15905246D02*
X15008158Y-15857627D01*
X15008158Y-15857627D02*
X14998634Y-15829055D01*
X14998634Y-15829055D02*
X14989111Y-15810008D01*
X14989111Y-15810008D02*
X14970063Y-15781436D01*
X14970063Y-15781436D02*
X14960539Y-15771912D01*
D10*
X9975000Y-16153000D02*
X9975000Y-16193000D01*
X9955000Y-16173000D02*
X9995000Y-16173000D01*
D11*
X10293872Y-16064484D02*
X10312920Y-16064484D01*
X10312920Y-16064484D02*
X10331967Y-16074008D01*
X10331967Y-16074008D02*
X10341491Y-16083531D01*
X10341491Y-16083531D02*
X10351015Y-16102579D01*
X10351015Y-16102579D02*
X10360539Y-16140674D01*
X10360539Y-16140674D02*
X10360539Y-16188293D01*
X10360539Y-16188293D02*
X10351015Y-16226388D01*
X10351015Y-16226388D02*
X10341491Y-16245436D01*
X10341491Y-16245436D02*
X10331967Y-16254960D01*
X10331967Y-16254960D02*
X10312920Y-16264484D01*
X10312920Y-16264484D02*
X10293872Y-16264484D01*
X10293872Y-16264484D02*
X10274824Y-16254960D01*
X10274824Y-16254960D02*
X10265301Y-16245436D01*
X10265301Y-16245436D02*
X10255777Y-16226388D01*
X10255777Y-16226388D02*
X10246253Y-16188293D01*
X10246253Y-16188293D02*
X10246253Y-16140674D01*
X10246253Y-16140674D02*
X10255777Y-16102579D01*
X10255777Y-16102579D02*
X10265301Y-16083531D01*
X10265301Y-16083531D02*
X10274824Y-16074008D01*
X10274824Y-16074008D02*
X10293872Y-16064484D01*
X10446253Y-16245436D02*
X10455777Y-16254960D01*
X10455777Y-16254960D02*
X10446253Y-16264484D01*
X10446253Y-16264484D02*
X10436729Y-16254960D01*
X10436729Y-16254960D02*
X10446253Y-16245436D01*
X10446253Y-16245436D02*
X10446253Y-16264484D01*
X10627205Y-16131150D02*
X10627205Y-16264484D01*
X10579586Y-16054960D02*
X10531967Y-16197817D01*
X10531967Y-16197817D02*
X10655777Y-16197817D01*
X10770063Y-16064484D02*
X10789110Y-16064484D01*
X10789110Y-16064484D02*
X10808158Y-16074008D01*
X10808158Y-16074008D02*
X10817682Y-16083531D01*
X10817682Y-16083531D02*
X10827205Y-16102579D01*
X10827205Y-16102579D02*
X10836729Y-16140674D01*
X10836729Y-16140674D02*
X10836729Y-16188293D01*
X10836729Y-16188293D02*
X10827205Y-16226388D01*
X10827205Y-16226388D02*
X10817682Y-16245436D01*
X10817682Y-16245436D02*
X10808158Y-16254960D01*
X10808158Y-16254960D02*
X10789110Y-16264484D01*
X10789110Y-16264484D02*
X10770063Y-16264484D01*
X10770063Y-16264484D02*
X10751015Y-16254960D01*
X10751015Y-16254960D02*
X10741491Y-16245436D01*
X10741491Y-16245436D02*
X10731967Y-16226388D01*
X10731967Y-16226388D02*
X10722444Y-16188293D01*
X10722444Y-16188293D02*
X10722444Y-16140674D01*
X10722444Y-16140674D02*
X10731967Y-16102579D01*
X10731967Y-16102579D02*
X10741491Y-16083531D01*
X10741491Y-16083531D02*
X10751015Y-16074008D01*
X10751015Y-16074008D02*
X10770063Y-16064484D01*
X10960539Y-16064484D02*
X10979586Y-16064484D01*
X10979586Y-16064484D02*
X10998634Y-16074008D01*
X10998634Y-16074008D02*
X11008158Y-16083531D01*
X11008158Y-16083531D02*
X11017682Y-16102579D01*
X11017682Y-16102579D02*
X11027205Y-16140674D01*
X11027205Y-16140674D02*
X11027205Y-16188293D01*
X11027205Y-16188293D02*
X11017682Y-16226388D01*
X11017682Y-16226388D02*
X11008158Y-16245436D01*
X11008158Y-16245436D02*
X10998634Y-16254960D01*
X10998634Y-16254960D02*
X10979586Y-16264484D01*
X10979586Y-16264484D02*
X10960539Y-16264484D01*
X10960539Y-16264484D02*
X10941491Y-16254960D01*
X10941491Y-16254960D02*
X10931967Y-16245436D01*
X10931967Y-16245436D02*
X10922444Y-16226388D01*
X10922444Y-16226388D02*
X10912920Y-16188293D01*
X10912920Y-16188293D02*
X10912920Y-16140674D01*
X10912920Y-16140674D02*
X10922444Y-16102579D01*
X10922444Y-16102579D02*
X10931967Y-16083531D01*
X10931967Y-16083531D02*
X10941491Y-16074008D01*
X10941491Y-16074008D02*
X10960539Y-16064484D01*
X11112920Y-16264484D02*
X11112920Y-16131150D01*
X11112920Y-16150198D02*
X11122444Y-16140674D01*
X11122444Y-16140674D02*
X11141491Y-16131150D01*
X11141491Y-16131150D02*
X11170063Y-16131150D01*
X11170063Y-16131150D02*
X11189110Y-16140674D01*
X11189110Y-16140674D02*
X11198634Y-16159722D01*
X11198634Y-16159722D02*
X11198634Y-16264484D01*
X11198634Y-16159722D02*
X11208158Y-16140674D01*
X11208158Y-16140674D02*
X11227205Y-16131150D01*
X11227205Y-16131150D02*
X11255777Y-16131150D01*
X11255777Y-16131150D02*
X11274824Y-16140674D01*
X11274824Y-16140674D02*
X11284348Y-16159722D01*
X11284348Y-16159722D02*
X11284348Y-16264484D01*
X11379586Y-16264484D02*
X11379586Y-16131150D01*
X11379586Y-16150198D02*
X11389110Y-16140674D01*
X11389110Y-16140674D02*
X11408158Y-16131150D01*
X11408158Y-16131150D02*
X11436729Y-16131150D01*
X11436729Y-16131150D02*
X11455777Y-16140674D01*
X11455777Y-16140674D02*
X11465301Y-16159722D01*
X11465301Y-16159722D02*
X11465301Y-16264484D01*
X11465301Y-16159722D02*
X11474824Y-16140674D01*
X11474824Y-16140674D02*
X11493872Y-16131150D01*
X11493872Y-16131150D02*
X11522443Y-16131150D01*
X11522443Y-16131150D02*
X11541491Y-16140674D01*
X11541491Y-16140674D02*
X11551015Y-16159722D01*
X11551015Y-16159722D02*
X11551015Y-16264484D01*
X11941491Y-16054960D02*
X11770063Y-16312103D01*
X12198634Y-16064484D02*
X12217682Y-16064484D01*
X12217682Y-16064484D02*
X12236729Y-16074008D01*
X12236729Y-16074008D02*
X12246253Y-16083531D01*
X12246253Y-16083531D02*
X12255777Y-16102579D01*
X12255777Y-16102579D02*
X12265301Y-16140674D01*
X12265301Y-16140674D02*
X12265301Y-16188293D01*
X12265301Y-16188293D02*
X12255777Y-16226388D01*
X12255777Y-16226388D02*
X12246253Y-16245436D01*
X12246253Y-16245436D02*
X12236729Y-16254960D01*
X12236729Y-16254960D02*
X12217682Y-16264484D01*
X12217682Y-16264484D02*
X12198634Y-16264484D01*
X12198634Y-16264484D02*
X12179586Y-16254960D01*
X12179586Y-16254960D02*
X12170063Y-16245436D01*
X12170063Y-16245436D02*
X12160539Y-16226388D01*
X12160539Y-16226388D02*
X12151015Y-16188293D01*
X12151015Y-16188293D02*
X12151015Y-16140674D01*
X12151015Y-16140674D02*
X12160539Y-16102579D01*
X12160539Y-16102579D02*
X12170063Y-16083531D01*
X12170063Y-16083531D02*
X12179586Y-16074008D01*
X12179586Y-16074008D02*
X12198634Y-16064484D01*
X12351015Y-16245436D02*
X12360539Y-16254960D01*
X12360539Y-16254960D02*
X12351015Y-16264484D01*
X12351015Y-16264484D02*
X12341491Y-16254960D01*
X12341491Y-16254960D02*
X12351015Y-16245436D01*
X12351015Y-16245436D02*
X12351015Y-16264484D01*
X12484348Y-16064484D02*
X12503396Y-16064484D01*
X12503396Y-16064484D02*
X12522444Y-16074008D01*
X12522444Y-16074008D02*
X12531967Y-16083531D01*
X12531967Y-16083531D02*
X12541491Y-16102579D01*
X12541491Y-16102579D02*
X12551015Y-16140674D01*
X12551015Y-16140674D02*
X12551015Y-16188293D01*
X12551015Y-16188293D02*
X12541491Y-16226388D01*
X12541491Y-16226388D02*
X12531967Y-16245436D01*
X12531967Y-16245436D02*
X12522444Y-16254960D01*
X12522444Y-16254960D02*
X12503396Y-16264484D01*
X12503396Y-16264484D02*
X12484348Y-16264484D01*
X12484348Y-16264484D02*
X12465301Y-16254960D01*
X12465301Y-16254960D02*
X12455777Y-16245436D01*
X12455777Y-16245436D02*
X12446253Y-16226388D01*
X12446253Y-16226388D02*
X12436729Y-16188293D01*
X12436729Y-16188293D02*
X12436729Y-16140674D01*
X12436729Y-16140674D02*
X12446253Y-16102579D01*
X12446253Y-16102579D02*
X12455777Y-16083531D01*
X12455777Y-16083531D02*
X12465301Y-16074008D01*
X12465301Y-16074008D02*
X12484348Y-16064484D01*
X12741491Y-16264484D02*
X12627206Y-16264484D01*
X12684348Y-16264484D02*
X12684348Y-16064484D01*
X12684348Y-16064484D02*
X12665301Y-16093055D01*
X12665301Y-16093055D02*
X12646253Y-16112103D01*
X12646253Y-16112103D02*
X12627206Y-16121627D01*
X12922444Y-16064484D02*
X12827206Y-16064484D01*
X12827206Y-16064484D02*
X12817682Y-16159722D01*
X12817682Y-16159722D02*
X12827206Y-16150198D01*
X12827206Y-16150198D02*
X12846253Y-16140674D01*
X12846253Y-16140674D02*
X12893872Y-16140674D01*
X12893872Y-16140674D02*
X12912920Y-16150198D01*
X12912920Y-16150198D02*
X12922444Y-16159722D01*
X12922444Y-16159722D02*
X12931967Y-16178769D01*
X12931967Y-16178769D02*
X12931967Y-16226388D01*
X12931967Y-16226388D02*
X12922444Y-16245436D01*
X12922444Y-16245436D02*
X12912920Y-16254960D01*
X12912920Y-16254960D02*
X12893872Y-16264484D01*
X12893872Y-16264484D02*
X12846253Y-16264484D01*
X12846253Y-16264484D02*
X12827206Y-16254960D01*
X12827206Y-16254960D02*
X12817682Y-16245436D01*
X12998634Y-16064484D02*
X13131967Y-16064484D01*
X13131967Y-16064484D02*
X13046253Y-16264484D01*
X13198634Y-16064484D02*
X13198634Y-16102579D01*
X13274825Y-16064484D02*
X13274825Y-16102579D01*
X13570063Y-16340674D02*
X13560539Y-16331150D01*
X13560539Y-16331150D02*
X13541491Y-16302579D01*
X13541491Y-16302579D02*
X13531968Y-16283531D01*
X13531968Y-16283531D02*
X13522444Y-16254960D01*
X13522444Y-16254960D02*
X13512920Y-16207341D01*
X13512920Y-16207341D02*
X13512920Y-16169246D01*
X13512920Y-16169246D02*
X13522444Y-16121627D01*
X13522444Y-16121627D02*
X13531968Y-16093055D01*
X13531968Y-16093055D02*
X13541491Y-16074008D01*
X13541491Y-16074008D02*
X13560539Y-16045436D01*
X13560539Y-16045436D02*
X13570063Y-16035912D01*
X13731968Y-16064484D02*
X13693872Y-16064484D01*
X13693872Y-16064484D02*
X13674825Y-16074008D01*
X13674825Y-16074008D02*
X13665301Y-16083531D01*
X13665301Y-16083531D02*
X13646253Y-16112103D01*
X13646253Y-16112103D02*
X13636729Y-16150198D01*
X13636729Y-16150198D02*
X13636729Y-16226388D01*
X13636729Y-16226388D02*
X13646253Y-16245436D01*
X13646253Y-16245436D02*
X13655777Y-16254960D01*
X13655777Y-16254960D02*
X13674825Y-16264484D01*
X13674825Y-16264484D02*
X13712920Y-16264484D01*
X13712920Y-16264484D02*
X13731968Y-16254960D01*
X13731968Y-16254960D02*
X13741491Y-16245436D01*
X13741491Y-16245436D02*
X13751015Y-16226388D01*
X13751015Y-16226388D02*
X13751015Y-16178769D01*
X13751015Y-16178769D02*
X13741491Y-16159722D01*
X13741491Y-16159722D02*
X13731968Y-16150198D01*
X13731968Y-16150198D02*
X13712920Y-16140674D01*
X13712920Y-16140674D02*
X13674825Y-16140674D01*
X13674825Y-16140674D02*
X13655777Y-16150198D01*
X13655777Y-16150198D02*
X13646253Y-16159722D01*
X13646253Y-16159722D02*
X13636729Y-16178769D01*
X13989110Y-16264484D02*
X13989110Y-16064484D01*
X14074825Y-16264484D02*
X14074825Y-16159722D01*
X14074825Y-16159722D02*
X14065301Y-16140674D01*
X14065301Y-16140674D02*
X14046253Y-16131150D01*
X14046253Y-16131150D02*
X14017682Y-16131150D01*
X14017682Y-16131150D02*
X13998634Y-16140674D01*
X13998634Y-16140674D02*
X13989110Y-16150198D01*
X14198634Y-16264484D02*
X14179587Y-16254960D01*
X14179587Y-16254960D02*
X14170063Y-16245436D01*
X14170063Y-16245436D02*
X14160539Y-16226388D01*
X14160539Y-16226388D02*
X14160539Y-16169246D01*
X14160539Y-16169246D02*
X14170063Y-16150198D01*
X14170063Y-16150198D02*
X14179587Y-16140674D01*
X14179587Y-16140674D02*
X14198634Y-16131150D01*
X14198634Y-16131150D02*
X14227206Y-16131150D01*
X14227206Y-16131150D02*
X14246253Y-16140674D01*
X14246253Y-16140674D02*
X14255777Y-16150198D01*
X14255777Y-16150198D02*
X14265301Y-16169246D01*
X14265301Y-16169246D02*
X14265301Y-16226388D01*
X14265301Y-16226388D02*
X14255777Y-16245436D01*
X14255777Y-16245436D02*
X14246253Y-16254960D01*
X14246253Y-16254960D02*
X14227206Y-16264484D01*
X14227206Y-16264484D02*
X14198634Y-16264484D01*
X14379587Y-16264484D02*
X14360539Y-16254960D01*
X14360539Y-16254960D02*
X14351015Y-16235912D01*
X14351015Y-16235912D02*
X14351015Y-16064484D01*
X14531968Y-16254960D02*
X14512920Y-16264484D01*
X14512920Y-16264484D02*
X14474825Y-16264484D01*
X14474825Y-16264484D02*
X14455777Y-16254960D01*
X14455777Y-16254960D02*
X14446253Y-16235912D01*
X14446253Y-16235912D02*
X14446253Y-16159722D01*
X14446253Y-16159722D02*
X14455777Y-16140674D01*
X14455777Y-16140674D02*
X14474825Y-16131150D01*
X14474825Y-16131150D02*
X14512920Y-16131150D01*
X14512920Y-16131150D02*
X14531968Y-16140674D01*
X14531968Y-16140674D02*
X14541491Y-16159722D01*
X14541491Y-16159722D02*
X14541491Y-16178769D01*
X14541491Y-16178769D02*
X14446253Y-16197817D01*
X14617682Y-16254960D02*
X14636730Y-16264484D01*
X14636730Y-16264484D02*
X14674825Y-16264484D01*
X14674825Y-16264484D02*
X14693872Y-16254960D01*
X14693872Y-16254960D02*
X14703396Y-16235912D01*
X14703396Y-16235912D02*
X14703396Y-16226388D01*
X14703396Y-16226388D02*
X14693872Y-16207341D01*
X14693872Y-16207341D02*
X14674825Y-16197817D01*
X14674825Y-16197817D02*
X14646253Y-16197817D01*
X14646253Y-16197817D02*
X14627206Y-16188293D01*
X14627206Y-16188293D02*
X14617682Y-16169246D01*
X14617682Y-16169246D02*
X14617682Y-16159722D01*
X14617682Y-16159722D02*
X14627206Y-16140674D01*
X14627206Y-16140674D02*
X14646253Y-16131150D01*
X14646253Y-16131150D02*
X14674825Y-16131150D01*
X14674825Y-16131150D02*
X14693872Y-16140674D01*
X14770063Y-16340674D02*
X14779587Y-16331150D01*
X14779587Y-16331150D02*
X14798634Y-16302579D01*
X14798634Y-16302579D02*
X14808158Y-16283531D01*
X14808158Y-16283531D02*
X14817682Y-16254960D01*
X14817682Y-16254960D02*
X14827206Y-16207341D01*
X14827206Y-16207341D02*
X14827206Y-16169246D01*
X14827206Y-16169246D02*
X14817682Y-16121627D01*
X14817682Y-16121627D02*
X14808158Y-16093055D01*
X14808158Y-16093055D02*
X14798634Y-16074008D01*
X14798634Y-16074008D02*
X14779587Y-16045436D01*
X14779587Y-16045436D02*
X14770063Y-16035912D01*
D10*
X9986213Y-16458213D02*
X9986213Y-16415787D01*
X9943787Y-16415787D01*
X9943787Y-16458213D01*
X9986213Y-16458213D01*
D11*
X10293872Y-16328484D02*
X10312920Y-16328484D01*
X10312920Y-16328484D02*
X10331967Y-16338008D01*
X10331967Y-16338008D02*
X10341491Y-16347531D01*
X10341491Y-16347531D02*
X10351015Y-16366579D01*
X10351015Y-16366579D02*
X10360539Y-16404674D01*
X10360539Y-16404674D02*
X10360539Y-16452293D01*
X10360539Y-16452293D02*
X10351015Y-16490388D01*
X10351015Y-16490388D02*
X10341491Y-16509436D01*
X10341491Y-16509436D02*
X10331967Y-16518960D01*
X10331967Y-16518960D02*
X10312920Y-16528484D01*
X10312920Y-16528484D02*
X10293872Y-16528484D01*
X10293872Y-16528484D02*
X10274824Y-16518960D01*
X10274824Y-16518960D02*
X10265301Y-16509436D01*
X10265301Y-16509436D02*
X10255777Y-16490388D01*
X10255777Y-16490388D02*
X10246253Y-16452293D01*
X10246253Y-16452293D02*
X10246253Y-16404674D01*
X10246253Y-16404674D02*
X10255777Y-16366579D01*
X10255777Y-16366579D02*
X10265301Y-16347531D01*
X10265301Y-16347531D02*
X10274824Y-16338008D01*
X10274824Y-16338008D02*
X10293872Y-16328484D01*
X10446253Y-16509436D02*
X10455777Y-16518960D01*
X10455777Y-16518960D02*
X10446253Y-16528484D01*
X10446253Y-16528484D02*
X10436729Y-16518960D01*
X10436729Y-16518960D02*
X10446253Y-16509436D01*
X10446253Y-16509436D02*
X10446253Y-16528484D01*
X10627205Y-16328484D02*
X10589110Y-16328484D01*
X10589110Y-16328484D02*
X10570063Y-16338008D01*
X10570063Y-16338008D02*
X10560539Y-16347531D01*
X10560539Y-16347531D02*
X10541491Y-16376103D01*
X10541491Y-16376103D02*
X10531967Y-16414198D01*
X10531967Y-16414198D02*
X10531967Y-16490388D01*
X10531967Y-16490388D02*
X10541491Y-16509436D01*
X10541491Y-16509436D02*
X10551015Y-16518960D01*
X10551015Y-16518960D02*
X10570063Y-16528484D01*
X10570063Y-16528484D02*
X10608158Y-16528484D01*
X10608158Y-16528484D02*
X10627205Y-16518960D01*
X10627205Y-16518960D02*
X10636729Y-16509436D01*
X10636729Y-16509436D02*
X10646253Y-16490388D01*
X10646253Y-16490388D02*
X10646253Y-16442769D01*
X10646253Y-16442769D02*
X10636729Y-16423722D01*
X10636729Y-16423722D02*
X10627205Y-16414198D01*
X10627205Y-16414198D02*
X10608158Y-16404674D01*
X10608158Y-16404674D02*
X10570063Y-16404674D01*
X10570063Y-16404674D02*
X10551015Y-16414198D01*
X10551015Y-16414198D02*
X10541491Y-16423722D01*
X10541491Y-16423722D02*
X10531967Y-16442769D01*
X10770063Y-16328484D02*
X10789110Y-16328484D01*
X10789110Y-16328484D02*
X10808158Y-16338008D01*
X10808158Y-16338008D02*
X10817682Y-16347531D01*
X10817682Y-16347531D02*
X10827205Y-16366579D01*
X10827205Y-16366579D02*
X10836729Y-16404674D01*
X10836729Y-16404674D02*
X10836729Y-16452293D01*
X10836729Y-16452293D02*
X10827205Y-16490388D01*
X10827205Y-16490388D02*
X10817682Y-16509436D01*
X10817682Y-16509436D02*
X10808158Y-16518960D01*
X10808158Y-16518960D02*
X10789110Y-16528484D01*
X10789110Y-16528484D02*
X10770063Y-16528484D01*
X10770063Y-16528484D02*
X10751015Y-16518960D01*
X10751015Y-16518960D02*
X10741491Y-16509436D01*
X10741491Y-16509436D02*
X10731967Y-16490388D01*
X10731967Y-16490388D02*
X10722444Y-16452293D01*
X10722444Y-16452293D02*
X10722444Y-16404674D01*
X10722444Y-16404674D02*
X10731967Y-16366579D01*
X10731967Y-16366579D02*
X10741491Y-16347531D01*
X10741491Y-16347531D02*
X10751015Y-16338008D01*
X10751015Y-16338008D02*
X10770063Y-16328484D01*
X10960539Y-16328484D02*
X10979586Y-16328484D01*
X10979586Y-16328484D02*
X10998634Y-16338008D01*
X10998634Y-16338008D02*
X11008158Y-16347531D01*
X11008158Y-16347531D02*
X11017682Y-16366579D01*
X11017682Y-16366579D02*
X11027205Y-16404674D01*
X11027205Y-16404674D02*
X11027205Y-16452293D01*
X11027205Y-16452293D02*
X11017682Y-16490388D01*
X11017682Y-16490388D02*
X11008158Y-16509436D01*
X11008158Y-16509436D02*
X10998634Y-16518960D01*
X10998634Y-16518960D02*
X10979586Y-16528484D01*
X10979586Y-16528484D02*
X10960539Y-16528484D01*
X10960539Y-16528484D02*
X10941491Y-16518960D01*
X10941491Y-16518960D02*
X10931967Y-16509436D01*
X10931967Y-16509436D02*
X10922444Y-16490388D01*
X10922444Y-16490388D02*
X10912920Y-16452293D01*
X10912920Y-16452293D02*
X10912920Y-16404674D01*
X10912920Y-16404674D02*
X10922444Y-16366579D01*
X10922444Y-16366579D02*
X10931967Y-16347531D01*
X10931967Y-16347531D02*
X10941491Y-16338008D01*
X10941491Y-16338008D02*
X10960539Y-16328484D01*
X11112920Y-16528484D02*
X11112920Y-16395150D01*
X11112920Y-16414198D02*
X11122444Y-16404674D01*
X11122444Y-16404674D02*
X11141491Y-16395150D01*
X11141491Y-16395150D02*
X11170063Y-16395150D01*
X11170063Y-16395150D02*
X11189110Y-16404674D01*
X11189110Y-16404674D02*
X11198634Y-16423722D01*
X11198634Y-16423722D02*
X11198634Y-16528484D01*
X11198634Y-16423722D02*
X11208158Y-16404674D01*
X11208158Y-16404674D02*
X11227205Y-16395150D01*
X11227205Y-16395150D02*
X11255777Y-16395150D01*
X11255777Y-16395150D02*
X11274824Y-16404674D01*
X11274824Y-16404674D02*
X11284348Y-16423722D01*
X11284348Y-16423722D02*
X11284348Y-16528484D01*
X11379586Y-16528484D02*
X11379586Y-16395150D01*
X11379586Y-16414198D02*
X11389110Y-16404674D01*
X11389110Y-16404674D02*
X11408158Y-16395150D01*
X11408158Y-16395150D02*
X11436729Y-16395150D01*
X11436729Y-16395150D02*
X11455777Y-16404674D01*
X11455777Y-16404674D02*
X11465301Y-16423722D01*
X11465301Y-16423722D02*
X11465301Y-16528484D01*
X11465301Y-16423722D02*
X11474824Y-16404674D01*
X11474824Y-16404674D02*
X11493872Y-16395150D01*
X11493872Y-16395150D02*
X11522443Y-16395150D01*
X11522443Y-16395150D02*
X11541491Y-16404674D01*
X11541491Y-16404674D02*
X11551015Y-16423722D01*
X11551015Y-16423722D02*
X11551015Y-16528484D01*
X11941491Y-16318960D02*
X11770063Y-16576103D01*
X12198634Y-16328484D02*
X12217682Y-16328484D01*
X12217682Y-16328484D02*
X12236729Y-16338008D01*
X12236729Y-16338008D02*
X12246253Y-16347531D01*
X12246253Y-16347531D02*
X12255777Y-16366579D01*
X12255777Y-16366579D02*
X12265301Y-16404674D01*
X12265301Y-16404674D02*
X12265301Y-16452293D01*
X12265301Y-16452293D02*
X12255777Y-16490388D01*
X12255777Y-16490388D02*
X12246253Y-16509436D01*
X12246253Y-16509436D02*
X12236729Y-16518960D01*
X12236729Y-16518960D02*
X12217682Y-16528484D01*
X12217682Y-16528484D02*
X12198634Y-16528484D01*
X12198634Y-16528484D02*
X12179586Y-16518960D01*
X12179586Y-16518960D02*
X12170063Y-16509436D01*
X12170063Y-16509436D02*
X12160539Y-16490388D01*
X12160539Y-16490388D02*
X12151015Y-16452293D01*
X12151015Y-16452293D02*
X12151015Y-16404674D01*
X12151015Y-16404674D02*
X12160539Y-16366579D01*
X12160539Y-16366579D02*
X12170063Y-16347531D01*
X12170063Y-16347531D02*
X12179586Y-16338008D01*
X12179586Y-16338008D02*
X12198634Y-16328484D01*
X12351015Y-16509436D02*
X12360539Y-16518960D01*
X12360539Y-16518960D02*
X12351015Y-16528484D01*
X12351015Y-16528484D02*
X12341491Y-16518960D01*
X12341491Y-16518960D02*
X12351015Y-16509436D01*
X12351015Y-16509436D02*
X12351015Y-16528484D01*
X12484348Y-16328484D02*
X12503396Y-16328484D01*
X12503396Y-16328484D02*
X12522444Y-16338008D01*
X12522444Y-16338008D02*
X12531967Y-16347531D01*
X12531967Y-16347531D02*
X12541491Y-16366579D01*
X12541491Y-16366579D02*
X12551015Y-16404674D01*
X12551015Y-16404674D02*
X12551015Y-16452293D01*
X12551015Y-16452293D02*
X12541491Y-16490388D01*
X12541491Y-16490388D02*
X12531967Y-16509436D01*
X12531967Y-16509436D02*
X12522444Y-16518960D01*
X12522444Y-16518960D02*
X12503396Y-16528484D01*
X12503396Y-16528484D02*
X12484348Y-16528484D01*
X12484348Y-16528484D02*
X12465301Y-16518960D01*
X12465301Y-16518960D02*
X12455777Y-16509436D01*
X12455777Y-16509436D02*
X12446253Y-16490388D01*
X12446253Y-16490388D02*
X12436729Y-16452293D01*
X12436729Y-16452293D02*
X12436729Y-16404674D01*
X12436729Y-16404674D02*
X12446253Y-16366579D01*
X12446253Y-16366579D02*
X12455777Y-16347531D01*
X12455777Y-16347531D02*
X12465301Y-16338008D01*
X12465301Y-16338008D02*
X12484348Y-16328484D01*
X12627206Y-16347531D02*
X12636729Y-16338008D01*
X12636729Y-16338008D02*
X12655777Y-16328484D01*
X12655777Y-16328484D02*
X12703396Y-16328484D01*
X12703396Y-16328484D02*
X12722444Y-16338008D01*
X12722444Y-16338008D02*
X12731967Y-16347531D01*
X12731967Y-16347531D02*
X12741491Y-16366579D01*
X12741491Y-16366579D02*
X12741491Y-16385627D01*
X12741491Y-16385627D02*
X12731967Y-16414198D01*
X12731967Y-16414198D02*
X12617682Y-16528484D01*
X12617682Y-16528484D02*
X12741491Y-16528484D01*
X12808158Y-16328484D02*
X12931967Y-16328484D01*
X12931967Y-16328484D02*
X12865301Y-16404674D01*
X12865301Y-16404674D02*
X12893872Y-16404674D01*
X12893872Y-16404674D02*
X12912920Y-16414198D01*
X12912920Y-16414198D02*
X12922444Y-16423722D01*
X12922444Y-16423722D02*
X12931967Y-16442769D01*
X12931967Y-16442769D02*
X12931967Y-16490388D01*
X12931967Y-16490388D02*
X12922444Y-16509436D01*
X12922444Y-16509436D02*
X12912920Y-16518960D01*
X12912920Y-16518960D02*
X12893872Y-16528484D01*
X12893872Y-16528484D02*
X12836729Y-16528484D01*
X12836729Y-16528484D02*
X12817682Y-16518960D01*
X12817682Y-16518960D02*
X12808158Y-16509436D01*
X13103396Y-16328484D02*
X13065301Y-16328484D01*
X13065301Y-16328484D02*
X13046253Y-16338008D01*
X13046253Y-16338008D02*
X13036729Y-16347531D01*
X13036729Y-16347531D02*
X13017682Y-16376103D01*
X13017682Y-16376103D02*
X13008158Y-16414198D01*
X13008158Y-16414198D02*
X13008158Y-16490388D01*
X13008158Y-16490388D02*
X13017682Y-16509436D01*
X13017682Y-16509436D02*
X13027206Y-16518960D01*
X13027206Y-16518960D02*
X13046253Y-16528484D01*
X13046253Y-16528484D02*
X13084348Y-16528484D01*
X13084348Y-16528484D02*
X13103396Y-16518960D01*
X13103396Y-16518960D02*
X13112920Y-16509436D01*
X13112920Y-16509436D02*
X13122444Y-16490388D01*
X13122444Y-16490388D02*
X13122444Y-16442769D01*
X13122444Y-16442769D02*
X13112920Y-16423722D01*
X13112920Y-16423722D02*
X13103396Y-16414198D01*
X13103396Y-16414198D02*
X13084348Y-16404674D01*
X13084348Y-16404674D02*
X13046253Y-16404674D01*
X13046253Y-16404674D02*
X13027206Y-16414198D01*
X13027206Y-16414198D02*
X13017682Y-16423722D01*
X13017682Y-16423722D02*
X13008158Y-16442769D01*
X13198634Y-16328484D02*
X13198634Y-16366579D01*
X13274825Y-16328484D02*
X13274825Y-16366579D01*
X13570063Y-16604674D02*
X13560539Y-16595150D01*
X13560539Y-16595150D02*
X13541491Y-16566579D01*
X13541491Y-16566579D02*
X13531968Y-16547531D01*
X13531968Y-16547531D02*
X13522444Y-16518960D01*
X13522444Y-16518960D02*
X13512920Y-16471341D01*
X13512920Y-16471341D02*
X13512920Y-16433246D01*
X13512920Y-16433246D02*
X13522444Y-16385627D01*
X13522444Y-16385627D02*
X13531968Y-16357055D01*
X13531968Y-16357055D02*
X13541491Y-16338008D01*
X13541491Y-16338008D02*
X13560539Y-16309436D01*
X13560539Y-16309436D02*
X13570063Y-16299912D01*
X13684348Y-16328484D02*
X13703396Y-16328484D01*
X13703396Y-16328484D02*
X13722444Y-16338008D01*
X13722444Y-16338008D02*
X13731968Y-16347531D01*
X13731968Y-16347531D02*
X13741491Y-16366579D01*
X13741491Y-16366579D02*
X13751015Y-16404674D01*
X13751015Y-16404674D02*
X13751015Y-16452293D01*
X13751015Y-16452293D02*
X13741491Y-16490388D01*
X13741491Y-16490388D02*
X13731968Y-16509436D01*
X13731968Y-16509436D02*
X13722444Y-16518960D01*
X13722444Y-16518960D02*
X13703396Y-16528484D01*
X13703396Y-16528484D02*
X13684348Y-16528484D01*
X13684348Y-16528484D02*
X13665301Y-16518960D01*
X13665301Y-16518960D02*
X13655777Y-16509436D01*
X13655777Y-16509436D02*
X13646253Y-16490388D01*
X13646253Y-16490388D02*
X13636729Y-16452293D01*
X13636729Y-16452293D02*
X13636729Y-16404674D01*
X13636729Y-16404674D02*
X13646253Y-16366579D01*
X13646253Y-16366579D02*
X13655777Y-16347531D01*
X13655777Y-16347531D02*
X13665301Y-16338008D01*
X13665301Y-16338008D02*
X13684348Y-16328484D01*
X13989110Y-16528484D02*
X13989110Y-16328484D01*
X14074825Y-16528484D02*
X14074825Y-16423722D01*
X14074825Y-16423722D02*
X14065301Y-16404674D01*
X14065301Y-16404674D02*
X14046253Y-16395150D01*
X14046253Y-16395150D02*
X14017682Y-16395150D01*
X14017682Y-16395150D02*
X13998634Y-16404674D01*
X13998634Y-16404674D02*
X13989110Y-16414198D01*
X14198634Y-16528484D02*
X14179587Y-16518960D01*
X14179587Y-16518960D02*
X14170063Y-16509436D01*
X14170063Y-16509436D02*
X14160539Y-16490388D01*
X14160539Y-16490388D02*
X14160539Y-16433246D01*
X14160539Y-16433246D02*
X14170063Y-16414198D01*
X14170063Y-16414198D02*
X14179587Y-16404674D01*
X14179587Y-16404674D02*
X14198634Y-16395150D01*
X14198634Y-16395150D02*
X14227206Y-16395150D01*
X14227206Y-16395150D02*
X14246253Y-16404674D01*
X14246253Y-16404674D02*
X14255777Y-16414198D01*
X14255777Y-16414198D02*
X14265301Y-16433246D01*
X14265301Y-16433246D02*
X14265301Y-16490388D01*
X14265301Y-16490388D02*
X14255777Y-16509436D01*
X14255777Y-16509436D02*
X14246253Y-16518960D01*
X14246253Y-16518960D02*
X14227206Y-16528484D01*
X14227206Y-16528484D02*
X14198634Y-16528484D01*
X14379587Y-16528484D02*
X14360539Y-16518960D01*
X14360539Y-16518960D02*
X14351015Y-16499912D01*
X14351015Y-16499912D02*
X14351015Y-16328484D01*
X14531968Y-16518960D02*
X14512920Y-16528484D01*
X14512920Y-16528484D02*
X14474825Y-16528484D01*
X14474825Y-16528484D02*
X14455777Y-16518960D01*
X14455777Y-16518960D02*
X14446253Y-16499912D01*
X14446253Y-16499912D02*
X14446253Y-16423722D01*
X14446253Y-16423722D02*
X14455777Y-16404674D01*
X14455777Y-16404674D02*
X14474825Y-16395150D01*
X14474825Y-16395150D02*
X14512920Y-16395150D01*
X14512920Y-16395150D02*
X14531968Y-16404674D01*
X14531968Y-16404674D02*
X14541491Y-16423722D01*
X14541491Y-16423722D02*
X14541491Y-16442769D01*
X14541491Y-16442769D02*
X14446253Y-16461817D01*
X14617682Y-16518960D02*
X14636730Y-16528484D01*
X14636730Y-16528484D02*
X14674825Y-16528484D01*
X14674825Y-16528484D02*
X14693872Y-16518960D01*
X14693872Y-16518960D02*
X14703396Y-16499912D01*
X14703396Y-16499912D02*
X14703396Y-16490388D01*
X14703396Y-16490388D02*
X14693872Y-16471341D01*
X14693872Y-16471341D02*
X14674825Y-16461817D01*
X14674825Y-16461817D02*
X14646253Y-16461817D01*
X14646253Y-16461817D02*
X14627206Y-16452293D01*
X14627206Y-16452293D02*
X14617682Y-16433246D01*
X14617682Y-16433246D02*
X14617682Y-16423722D01*
X14617682Y-16423722D02*
X14627206Y-16404674D01*
X14627206Y-16404674D02*
X14646253Y-16395150D01*
X14646253Y-16395150D02*
X14674825Y-16395150D01*
X14674825Y-16395150D02*
X14693872Y-16404674D01*
X14941492Y-16452293D02*
X15093873Y-16452293D01*
X15017682Y-16528484D02*
X15017682Y-16376103D01*
X15427206Y-16395150D02*
X15427206Y-16528484D01*
X15379587Y-16318960D02*
X15331968Y-16461817D01*
X15331968Y-16461817D02*
X15455777Y-16461817D01*
X15674825Y-16518960D02*
X15693873Y-16528484D01*
X15693873Y-16528484D02*
X15731968Y-16528484D01*
X15731968Y-16528484D02*
X15751015Y-16518960D01*
X15751015Y-16518960D02*
X15760539Y-16499912D01*
X15760539Y-16499912D02*
X15760539Y-16490388D01*
X15760539Y-16490388D02*
X15751015Y-16471341D01*
X15751015Y-16471341D02*
X15731968Y-16461817D01*
X15731968Y-16461817D02*
X15703396Y-16461817D01*
X15703396Y-16461817D02*
X15684349Y-16452293D01*
X15684349Y-16452293D02*
X15674825Y-16433246D01*
X15674825Y-16433246D02*
X15674825Y-16423722D01*
X15674825Y-16423722D02*
X15684349Y-16404674D01*
X15684349Y-16404674D02*
X15703396Y-16395150D01*
X15703396Y-16395150D02*
X15731968Y-16395150D01*
X15731968Y-16395150D02*
X15751015Y-16404674D01*
X15874825Y-16528484D02*
X15855777Y-16518960D01*
X15855777Y-16518960D02*
X15846254Y-16499912D01*
X15846254Y-16499912D02*
X15846254Y-16328484D01*
X15979587Y-16528484D02*
X15960539Y-16518960D01*
X15960539Y-16518960D02*
X15951015Y-16509436D01*
X15951015Y-16509436D02*
X15941492Y-16490388D01*
X15941492Y-16490388D02*
X15941492Y-16433246D01*
X15941492Y-16433246D02*
X15951015Y-16414198D01*
X15951015Y-16414198D02*
X15960539Y-16404674D01*
X15960539Y-16404674D02*
X15979587Y-16395150D01*
X15979587Y-16395150D02*
X16008158Y-16395150D01*
X16008158Y-16395150D02*
X16027206Y-16404674D01*
X16027206Y-16404674D02*
X16036730Y-16414198D01*
X16036730Y-16414198D02*
X16046254Y-16433246D01*
X16046254Y-16433246D02*
X16046254Y-16490388D01*
X16046254Y-16490388D02*
X16036730Y-16509436D01*
X16036730Y-16509436D02*
X16027206Y-16518960D01*
X16027206Y-16518960D02*
X16008158Y-16528484D01*
X16008158Y-16528484D02*
X15979587Y-16528484D01*
X16103396Y-16395150D02*
X16179587Y-16395150D01*
X16131968Y-16328484D02*
X16131968Y-16499912D01*
X16131968Y-16499912D02*
X16141492Y-16518960D01*
X16141492Y-16518960D02*
X16160539Y-16528484D01*
X16160539Y-16528484D02*
X16179587Y-16528484D01*
X16236730Y-16518960D02*
X16255777Y-16528484D01*
X16255777Y-16528484D02*
X16293873Y-16528484D01*
X16293873Y-16528484D02*
X16312920Y-16518960D01*
X16312920Y-16518960D02*
X16322444Y-16499912D01*
X16322444Y-16499912D02*
X16322444Y-16490388D01*
X16322444Y-16490388D02*
X16312920Y-16471341D01*
X16312920Y-16471341D02*
X16293873Y-16461817D01*
X16293873Y-16461817D02*
X16265301Y-16461817D01*
X16265301Y-16461817D02*
X16246254Y-16452293D01*
X16246254Y-16452293D02*
X16236730Y-16433246D01*
X16236730Y-16433246D02*
X16236730Y-16423722D01*
X16236730Y-16423722D02*
X16246254Y-16404674D01*
X16246254Y-16404674D02*
X16265301Y-16395150D01*
X16265301Y-16395150D02*
X16293873Y-16395150D01*
X16293873Y-16395150D02*
X16312920Y-16404674D01*
X16389111Y-16604674D02*
X16398635Y-16595150D01*
X16398635Y-16595150D02*
X16417682Y-16566579D01*
X16417682Y-16566579D02*
X16427206Y-16547531D01*
X16427206Y-16547531D02*
X16436730Y-16518960D01*
X16436730Y-16518960D02*
X16446254Y-16471341D01*
X16446254Y-16471341D02*
X16446254Y-16433246D01*
X16446254Y-16433246D02*
X16436730Y-16385627D01*
X16436730Y-16385627D02*
X16427206Y-16357055D01*
X16427206Y-16357055D02*
X16417682Y-16338008D01*
X16417682Y-16338008D02*
X16398635Y-16309436D01*
X16398635Y-16309436D02*
X16389111Y-16299912D01*
D10*
X9959300Y-16736700D02*
X9995000Y-16701000D01*
X9959300Y-16665300D01*
X9923600Y-16701000D01*
X9959300Y-16736700D01*
D11*
X10293872Y-16592484D02*
X10312920Y-16592484D01*
X10312920Y-16592484D02*
X10331967Y-16602008D01*
X10331967Y-16602008D02*
X10341491Y-16611531D01*
X10341491Y-16611531D02*
X10351015Y-16630579D01*
X10351015Y-16630579D02*
X10360539Y-16668674D01*
X10360539Y-16668674D02*
X10360539Y-16716293D01*
X10360539Y-16716293D02*
X10351015Y-16754388D01*
X10351015Y-16754388D02*
X10341491Y-16773436D01*
X10341491Y-16773436D02*
X10331967Y-16782960D01*
X10331967Y-16782960D02*
X10312920Y-16792484D01*
X10312920Y-16792484D02*
X10293872Y-16792484D01*
X10293872Y-16792484D02*
X10274824Y-16782960D01*
X10274824Y-16782960D02*
X10265301Y-16773436D01*
X10265301Y-16773436D02*
X10255777Y-16754388D01*
X10255777Y-16754388D02*
X10246253Y-16716293D01*
X10246253Y-16716293D02*
X10246253Y-16668674D01*
X10246253Y-16668674D02*
X10255777Y-16630579D01*
X10255777Y-16630579D02*
X10265301Y-16611531D01*
X10265301Y-16611531D02*
X10274824Y-16602008D01*
X10274824Y-16602008D02*
X10293872Y-16592484D01*
X10446253Y-16773436D02*
X10455777Y-16782960D01*
X10455777Y-16782960D02*
X10446253Y-16792484D01*
X10446253Y-16792484D02*
X10436729Y-16782960D01*
X10436729Y-16782960D02*
X10446253Y-16773436D01*
X10446253Y-16773436D02*
X10446253Y-16792484D01*
X10522444Y-16592484D02*
X10655777Y-16592484D01*
X10655777Y-16592484D02*
X10570063Y-16792484D01*
X10836729Y-16792484D02*
X10722444Y-16792484D01*
X10779586Y-16792484D02*
X10779586Y-16592484D01*
X10779586Y-16592484D02*
X10760539Y-16621055D01*
X10760539Y-16621055D02*
X10741491Y-16640103D01*
X10741491Y-16640103D02*
X10722444Y-16649627D01*
X11008158Y-16659150D02*
X11008158Y-16792484D01*
X10960539Y-16582960D02*
X10912920Y-16725817D01*
X10912920Y-16725817D02*
X11036729Y-16725817D01*
X11112920Y-16792484D02*
X11112920Y-16659150D01*
X11112920Y-16678198D02*
X11122444Y-16668674D01*
X11122444Y-16668674D02*
X11141491Y-16659150D01*
X11141491Y-16659150D02*
X11170063Y-16659150D01*
X11170063Y-16659150D02*
X11189110Y-16668674D01*
X11189110Y-16668674D02*
X11198634Y-16687722D01*
X11198634Y-16687722D02*
X11198634Y-16792484D01*
X11198634Y-16687722D02*
X11208158Y-16668674D01*
X11208158Y-16668674D02*
X11227205Y-16659150D01*
X11227205Y-16659150D02*
X11255777Y-16659150D01*
X11255777Y-16659150D02*
X11274824Y-16668674D01*
X11274824Y-16668674D02*
X11284348Y-16687722D01*
X11284348Y-16687722D02*
X11284348Y-16792484D01*
X11379586Y-16792484D02*
X11379586Y-16659150D01*
X11379586Y-16678198D02*
X11389110Y-16668674D01*
X11389110Y-16668674D02*
X11408158Y-16659150D01*
X11408158Y-16659150D02*
X11436729Y-16659150D01*
X11436729Y-16659150D02*
X11455777Y-16668674D01*
X11455777Y-16668674D02*
X11465301Y-16687722D01*
X11465301Y-16687722D02*
X11465301Y-16792484D01*
X11465301Y-16687722D02*
X11474824Y-16668674D01*
X11474824Y-16668674D02*
X11493872Y-16659150D01*
X11493872Y-16659150D02*
X11522443Y-16659150D01*
X11522443Y-16659150D02*
X11541491Y-16668674D01*
X11541491Y-16668674D02*
X11551015Y-16687722D01*
X11551015Y-16687722D02*
X11551015Y-16792484D01*
X11941491Y-16582960D02*
X11770063Y-16840103D01*
X12198634Y-16592484D02*
X12217682Y-16592484D01*
X12217682Y-16592484D02*
X12236729Y-16602008D01*
X12236729Y-16602008D02*
X12246253Y-16611531D01*
X12246253Y-16611531D02*
X12255777Y-16630579D01*
X12255777Y-16630579D02*
X12265301Y-16668674D01*
X12265301Y-16668674D02*
X12265301Y-16716293D01*
X12265301Y-16716293D02*
X12255777Y-16754388D01*
X12255777Y-16754388D02*
X12246253Y-16773436D01*
X12246253Y-16773436D02*
X12236729Y-16782960D01*
X12236729Y-16782960D02*
X12217682Y-16792484D01*
X12217682Y-16792484D02*
X12198634Y-16792484D01*
X12198634Y-16792484D02*
X12179586Y-16782960D01*
X12179586Y-16782960D02*
X12170063Y-16773436D01*
X12170063Y-16773436D02*
X12160539Y-16754388D01*
X12160539Y-16754388D02*
X12151015Y-16716293D01*
X12151015Y-16716293D02*
X12151015Y-16668674D01*
X12151015Y-16668674D02*
X12160539Y-16630579D01*
X12160539Y-16630579D02*
X12170063Y-16611531D01*
X12170063Y-16611531D02*
X12179586Y-16602008D01*
X12179586Y-16602008D02*
X12198634Y-16592484D01*
X12351015Y-16773436D02*
X12360539Y-16782960D01*
X12360539Y-16782960D02*
X12351015Y-16792484D01*
X12351015Y-16792484D02*
X12341491Y-16782960D01*
X12341491Y-16782960D02*
X12351015Y-16773436D01*
X12351015Y-16773436D02*
X12351015Y-16792484D01*
X12484348Y-16592484D02*
X12503396Y-16592484D01*
X12503396Y-16592484D02*
X12522444Y-16602008D01*
X12522444Y-16602008D02*
X12531967Y-16611531D01*
X12531967Y-16611531D02*
X12541491Y-16630579D01*
X12541491Y-16630579D02*
X12551015Y-16668674D01*
X12551015Y-16668674D02*
X12551015Y-16716293D01*
X12551015Y-16716293D02*
X12541491Y-16754388D01*
X12541491Y-16754388D02*
X12531967Y-16773436D01*
X12531967Y-16773436D02*
X12522444Y-16782960D01*
X12522444Y-16782960D02*
X12503396Y-16792484D01*
X12503396Y-16792484D02*
X12484348Y-16792484D01*
X12484348Y-16792484D02*
X12465301Y-16782960D01*
X12465301Y-16782960D02*
X12455777Y-16773436D01*
X12455777Y-16773436D02*
X12446253Y-16754388D01*
X12446253Y-16754388D02*
X12436729Y-16716293D01*
X12436729Y-16716293D02*
X12436729Y-16668674D01*
X12436729Y-16668674D02*
X12446253Y-16630579D01*
X12446253Y-16630579D02*
X12455777Y-16611531D01*
X12455777Y-16611531D02*
X12465301Y-16602008D01*
X12465301Y-16602008D02*
X12484348Y-16592484D01*
X12627206Y-16611531D02*
X12636729Y-16602008D01*
X12636729Y-16602008D02*
X12655777Y-16592484D01*
X12655777Y-16592484D02*
X12703396Y-16592484D01*
X12703396Y-16592484D02*
X12722444Y-16602008D01*
X12722444Y-16602008D02*
X12731967Y-16611531D01*
X12731967Y-16611531D02*
X12741491Y-16630579D01*
X12741491Y-16630579D02*
X12741491Y-16649627D01*
X12741491Y-16649627D02*
X12731967Y-16678198D01*
X12731967Y-16678198D02*
X12617682Y-16792484D01*
X12617682Y-16792484D02*
X12741491Y-16792484D01*
X12855777Y-16678198D02*
X12836729Y-16668674D01*
X12836729Y-16668674D02*
X12827206Y-16659150D01*
X12827206Y-16659150D02*
X12817682Y-16640103D01*
X12817682Y-16640103D02*
X12817682Y-16630579D01*
X12817682Y-16630579D02*
X12827206Y-16611531D01*
X12827206Y-16611531D02*
X12836729Y-16602008D01*
X12836729Y-16602008D02*
X12855777Y-16592484D01*
X12855777Y-16592484D02*
X12893872Y-16592484D01*
X12893872Y-16592484D02*
X12912920Y-16602008D01*
X12912920Y-16602008D02*
X12922444Y-16611531D01*
X12922444Y-16611531D02*
X12931967Y-16630579D01*
X12931967Y-16630579D02*
X12931967Y-16640103D01*
X12931967Y-16640103D02*
X12922444Y-16659150D01*
X12922444Y-16659150D02*
X12912920Y-16668674D01*
X12912920Y-16668674D02*
X12893872Y-16678198D01*
X12893872Y-16678198D02*
X12855777Y-16678198D01*
X12855777Y-16678198D02*
X12836729Y-16687722D01*
X12836729Y-16687722D02*
X12827206Y-16697246D01*
X12827206Y-16697246D02*
X12817682Y-16716293D01*
X12817682Y-16716293D02*
X12817682Y-16754388D01*
X12817682Y-16754388D02*
X12827206Y-16773436D01*
X12827206Y-16773436D02*
X12836729Y-16782960D01*
X12836729Y-16782960D02*
X12855777Y-16792484D01*
X12855777Y-16792484D02*
X12893872Y-16792484D01*
X12893872Y-16792484D02*
X12912920Y-16782960D01*
X12912920Y-16782960D02*
X12922444Y-16773436D01*
X12922444Y-16773436D02*
X12931967Y-16754388D01*
X12931967Y-16754388D02*
X12931967Y-16716293D01*
X12931967Y-16716293D02*
X12922444Y-16697246D01*
X12922444Y-16697246D02*
X12912920Y-16687722D01*
X12912920Y-16687722D02*
X12893872Y-16678198D01*
X13122444Y-16792484D02*
X13008158Y-16792484D01*
X13065301Y-16792484D02*
X13065301Y-16592484D01*
X13065301Y-16592484D02*
X13046253Y-16621055D01*
X13046253Y-16621055D02*
X13027206Y-16640103D01*
X13027206Y-16640103D02*
X13008158Y-16649627D01*
X13198634Y-16592484D02*
X13198634Y-16630579D01*
X13274825Y-16592484D02*
X13274825Y-16630579D01*
X13570063Y-16868674D02*
X13560539Y-16859150D01*
X13560539Y-16859150D02*
X13541491Y-16830579D01*
X13541491Y-16830579D02*
X13531968Y-16811531D01*
X13531968Y-16811531D02*
X13522444Y-16782960D01*
X13522444Y-16782960D02*
X13512920Y-16735341D01*
X13512920Y-16735341D02*
X13512920Y-16697246D01*
X13512920Y-16697246D02*
X13522444Y-16649627D01*
X13522444Y-16649627D02*
X13531968Y-16621055D01*
X13531968Y-16621055D02*
X13541491Y-16602008D01*
X13541491Y-16602008D02*
X13560539Y-16573436D01*
X13560539Y-16573436D02*
X13570063Y-16563912D01*
X13731968Y-16592484D02*
X13693872Y-16592484D01*
X13693872Y-16592484D02*
X13674825Y-16602008D01*
X13674825Y-16602008D02*
X13665301Y-16611531D01*
X13665301Y-16611531D02*
X13646253Y-16640103D01*
X13646253Y-16640103D02*
X13636729Y-16678198D01*
X13636729Y-16678198D02*
X13636729Y-16754388D01*
X13636729Y-16754388D02*
X13646253Y-16773436D01*
X13646253Y-16773436D02*
X13655777Y-16782960D01*
X13655777Y-16782960D02*
X13674825Y-16792484D01*
X13674825Y-16792484D02*
X13712920Y-16792484D01*
X13712920Y-16792484D02*
X13731968Y-16782960D01*
X13731968Y-16782960D02*
X13741491Y-16773436D01*
X13741491Y-16773436D02*
X13751015Y-16754388D01*
X13751015Y-16754388D02*
X13751015Y-16706769D01*
X13751015Y-16706769D02*
X13741491Y-16687722D01*
X13741491Y-16687722D02*
X13731968Y-16678198D01*
X13731968Y-16678198D02*
X13712920Y-16668674D01*
X13712920Y-16668674D02*
X13674825Y-16668674D01*
X13674825Y-16668674D02*
X13655777Y-16678198D01*
X13655777Y-16678198D02*
X13646253Y-16687722D01*
X13646253Y-16687722D02*
X13636729Y-16706769D01*
X13989110Y-16792484D02*
X13989110Y-16592484D01*
X14074825Y-16792484D02*
X14074825Y-16687722D01*
X14074825Y-16687722D02*
X14065301Y-16668674D01*
X14065301Y-16668674D02*
X14046253Y-16659150D01*
X14046253Y-16659150D02*
X14017682Y-16659150D01*
X14017682Y-16659150D02*
X13998634Y-16668674D01*
X13998634Y-16668674D02*
X13989110Y-16678198D01*
X14198634Y-16792484D02*
X14179587Y-16782960D01*
X14179587Y-16782960D02*
X14170063Y-16773436D01*
X14170063Y-16773436D02*
X14160539Y-16754388D01*
X14160539Y-16754388D02*
X14160539Y-16697246D01*
X14160539Y-16697246D02*
X14170063Y-16678198D01*
X14170063Y-16678198D02*
X14179587Y-16668674D01*
X14179587Y-16668674D02*
X14198634Y-16659150D01*
X14198634Y-16659150D02*
X14227206Y-16659150D01*
X14227206Y-16659150D02*
X14246253Y-16668674D01*
X14246253Y-16668674D02*
X14255777Y-16678198D01*
X14255777Y-16678198D02*
X14265301Y-16697246D01*
X14265301Y-16697246D02*
X14265301Y-16754388D01*
X14265301Y-16754388D02*
X14255777Y-16773436D01*
X14255777Y-16773436D02*
X14246253Y-16782960D01*
X14246253Y-16782960D02*
X14227206Y-16792484D01*
X14227206Y-16792484D02*
X14198634Y-16792484D01*
X14379587Y-16792484D02*
X14360539Y-16782960D01*
X14360539Y-16782960D02*
X14351015Y-16763912D01*
X14351015Y-16763912D02*
X14351015Y-16592484D01*
X14531968Y-16782960D02*
X14512920Y-16792484D01*
X14512920Y-16792484D02*
X14474825Y-16792484D01*
X14474825Y-16792484D02*
X14455777Y-16782960D01*
X14455777Y-16782960D02*
X14446253Y-16763912D01*
X14446253Y-16763912D02*
X14446253Y-16687722D01*
X14446253Y-16687722D02*
X14455777Y-16668674D01*
X14455777Y-16668674D02*
X14474825Y-16659150D01*
X14474825Y-16659150D02*
X14512920Y-16659150D01*
X14512920Y-16659150D02*
X14531968Y-16668674D01*
X14531968Y-16668674D02*
X14541491Y-16687722D01*
X14541491Y-16687722D02*
X14541491Y-16706769D01*
X14541491Y-16706769D02*
X14446253Y-16725817D01*
X14617682Y-16782960D02*
X14636730Y-16792484D01*
X14636730Y-16792484D02*
X14674825Y-16792484D01*
X14674825Y-16792484D02*
X14693872Y-16782960D01*
X14693872Y-16782960D02*
X14703396Y-16763912D01*
X14703396Y-16763912D02*
X14703396Y-16754388D01*
X14703396Y-16754388D02*
X14693872Y-16735341D01*
X14693872Y-16735341D02*
X14674825Y-16725817D01*
X14674825Y-16725817D02*
X14646253Y-16725817D01*
X14646253Y-16725817D02*
X14627206Y-16716293D01*
X14627206Y-16716293D02*
X14617682Y-16697246D01*
X14617682Y-16697246D02*
X14617682Y-16687722D01*
X14617682Y-16687722D02*
X14627206Y-16668674D01*
X14627206Y-16668674D02*
X14646253Y-16659150D01*
X14646253Y-16659150D02*
X14674825Y-16659150D01*
X14674825Y-16659150D02*
X14693872Y-16668674D01*
X14770063Y-16868674D02*
X14779587Y-16859150D01*
X14779587Y-16859150D02*
X14798634Y-16830579D01*
X14798634Y-16830579D02*
X14808158Y-16811531D01*
X14808158Y-16811531D02*
X14817682Y-16782960D01*
X14817682Y-16782960D02*
X14827206Y-16735341D01*
X14827206Y-16735341D02*
X14827206Y-16697246D01*
X14827206Y-16697246D02*
X14817682Y-16649627D01*
X14817682Y-16649627D02*
X14808158Y-16621055D01*
X14808158Y-16621055D02*
X14798634Y-16602008D01*
X14798634Y-16602008D02*
X14779587Y-16573436D01*
X14779587Y-16573436D02*
X14770063Y-16563912D01*
D10*
X9920000Y-16927500D02*
X9995000Y-17002500D01*
X9995000Y-16927500D02*
X9920000Y-17002500D01*
X9995000Y-16965000D02*
G75*
G02*
X9920000Y-16965000I-37500J0D01*
G01*
X9920000Y-16965000D02*
G75*
G02*
X9995000Y-16965000I37500J0D01*
G01*
D11*
X10293872Y-16856484D02*
X10312920Y-16856484D01*
X10312920Y-16856484D02*
X10331967Y-16866008D01*
X10331967Y-16866008D02*
X10341491Y-16875531D01*
X10341491Y-16875531D02*
X10351015Y-16894579D01*
X10351015Y-16894579D02*
X10360539Y-16932674D01*
X10360539Y-16932674D02*
X10360539Y-16980293D01*
X10360539Y-16980293D02*
X10351015Y-17018389D01*
X10351015Y-17018389D02*
X10341491Y-17037436D01*
X10341491Y-17037436D02*
X10331967Y-17046960D01*
X10331967Y-17046960D02*
X10312920Y-17056484D01*
X10312920Y-17056484D02*
X10293872Y-17056484D01*
X10293872Y-17056484D02*
X10274824Y-17046960D01*
X10274824Y-17046960D02*
X10265301Y-17037436D01*
X10265301Y-17037436D02*
X10255777Y-17018389D01*
X10255777Y-17018389D02*
X10246253Y-16980293D01*
X10246253Y-16980293D02*
X10246253Y-16932674D01*
X10246253Y-16932674D02*
X10255777Y-16894579D01*
X10255777Y-16894579D02*
X10265301Y-16875531D01*
X10265301Y-16875531D02*
X10274824Y-16866008D01*
X10274824Y-16866008D02*
X10293872Y-16856484D01*
X10446253Y-17037436D02*
X10455777Y-17046960D01*
X10455777Y-17046960D02*
X10446253Y-17056484D01*
X10446253Y-17056484D02*
X10436729Y-17046960D01*
X10436729Y-17046960D02*
X10446253Y-17037436D01*
X10446253Y-17037436D02*
X10446253Y-17056484D01*
X10522444Y-16856484D02*
X10655777Y-16856484D01*
X10655777Y-16856484D02*
X10570063Y-17056484D01*
X10827205Y-16856484D02*
X10731967Y-16856484D01*
X10731967Y-16856484D02*
X10722444Y-16951722D01*
X10722444Y-16951722D02*
X10731967Y-16942198D01*
X10731967Y-16942198D02*
X10751015Y-16932674D01*
X10751015Y-16932674D02*
X10798634Y-16932674D01*
X10798634Y-16932674D02*
X10817682Y-16942198D01*
X10817682Y-16942198D02*
X10827205Y-16951722D01*
X10827205Y-16951722D02*
X10836729Y-16970770D01*
X10836729Y-16970770D02*
X10836729Y-17018389D01*
X10836729Y-17018389D02*
X10827205Y-17037436D01*
X10827205Y-17037436D02*
X10817682Y-17046960D01*
X10817682Y-17046960D02*
X10798634Y-17056484D01*
X10798634Y-17056484D02*
X10751015Y-17056484D01*
X10751015Y-17056484D02*
X10731967Y-17046960D01*
X10731967Y-17046960D02*
X10722444Y-17037436D01*
X10960539Y-16856484D02*
X10979586Y-16856484D01*
X10979586Y-16856484D02*
X10998634Y-16866008D01*
X10998634Y-16866008D02*
X11008158Y-16875531D01*
X11008158Y-16875531D02*
X11017682Y-16894579D01*
X11017682Y-16894579D02*
X11027205Y-16932674D01*
X11027205Y-16932674D02*
X11027205Y-16980293D01*
X11027205Y-16980293D02*
X11017682Y-17018389D01*
X11017682Y-17018389D02*
X11008158Y-17037436D01*
X11008158Y-17037436D02*
X10998634Y-17046960D01*
X10998634Y-17046960D02*
X10979586Y-17056484D01*
X10979586Y-17056484D02*
X10960539Y-17056484D01*
X10960539Y-17056484D02*
X10941491Y-17046960D01*
X10941491Y-17046960D02*
X10931967Y-17037436D01*
X10931967Y-17037436D02*
X10922444Y-17018389D01*
X10922444Y-17018389D02*
X10912920Y-16980293D01*
X10912920Y-16980293D02*
X10912920Y-16932674D01*
X10912920Y-16932674D02*
X10922444Y-16894579D01*
X10922444Y-16894579D02*
X10931967Y-16875531D01*
X10931967Y-16875531D02*
X10941491Y-16866008D01*
X10941491Y-16866008D02*
X10960539Y-16856484D01*
X11112920Y-17056484D02*
X11112920Y-16923150D01*
X11112920Y-16942198D02*
X11122444Y-16932674D01*
X11122444Y-16932674D02*
X11141491Y-16923150D01*
X11141491Y-16923150D02*
X11170063Y-16923150D01*
X11170063Y-16923150D02*
X11189110Y-16932674D01*
X11189110Y-16932674D02*
X11198634Y-16951722D01*
X11198634Y-16951722D02*
X11198634Y-17056484D01*
X11198634Y-16951722D02*
X11208158Y-16932674D01*
X11208158Y-16932674D02*
X11227205Y-16923150D01*
X11227205Y-16923150D02*
X11255777Y-16923150D01*
X11255777Y-16923150D02*
X11274824Y-16932674D01*
X11274824Y-16932674D02*
X11284348Y-16951722D01*
X11284348Y-16951722D02*
X11284348Y-17056484D01*
X11379586Y-17056484D02*
X11379586Y-16923150D01*
X11379586Y-16942198D02*
X11389110Y-16932674D01*
X11389110Y-16932674D02*
X11408158Y-16923150D01*
X11408158Y-16923150D02*
X11436729Y-16923150D01*
X11436729Y-16923150D02*
X11455777Y-16932674D01*
X11455777Y-16932674D02*
X11465301Y-16951722D01*
X11465301Y-16951722D02*
X11465301Y-17056484D01*
X11465301Y-16951722D02*
X11474824Y-16932674D01*
X11474824Y-16932674D02*
X11493872Y-16923150D01*
X11493872Y-16923150D02*
X11522443Y-16923150D01*
X11522443Y-16923150D02*
X11541491Y-16932674D01*
X11541491Y-16932674D02*
X11551015Y-16951722D01*
X11551015Y-16951722D02*
X11551015Y-17056484D01*
X11941491Y-16846960D02*
X11770063Y-17104103D01*
X12198634Y-16856484D02*
X12217682Y-16856484D01*
X12217682Y-16856484D02*
X12236729Y-16866008D01*
X12236729Y-16866008D02*
X12246253Y-16875531D01*
X12246253Y-16875531D02*
X12255777Y-16894579D01*
X12255777Y-16894579D02*
X12265301Y-16932674D01*
X12265301Y-16932674D02*
X12265301Y-16980293D01*
X12265301Y-16980293D02*
X12255777Y-17018389D01*
X12255777Y-17018389D02*
X12246253Y-17037436D01*
X12246253Y-17037436D02*
X12236729Y-17046960D01*
X12236729Y-17046960D02*
X12217682Y-17056484D01*
X12217682Y-17056484D02*
X12198634Y-17056484D01*
X12198634Y-17056484D02*
X12179586Y-17046960D01*
X12179586Y-17046960D02*
X12170063Y-17037436D01*
X12170063Y-17037436D02*
X12160539Y-17018389D01*
X12160539Y-17018389D02*
X12151015Y-16980293D01*
X12151015Y-16980293D02*
X12151015Y-16932674D01*
X12151015Y-16932674D02*
X12160539Y-16894579D01*
X12160539Y-16894579D02*
X12170063Y-16875531D01*
X12170063Y-16875531D02*
X12179586Y-16866008D01*
X12179586Y-16866008D02*
X12198634Y-16856484D01*
X12351015Y-17037436D02*
X12360539Y-17046960D01*
X12360539Y-17046960D02*
X12351015Y-17056484D01*
X12351015Y-17056484D02*
X12341491Y-17046960D01*
X12341491Y-17046960D02*
X12351015Y-17037436D01*
X12351015Y-17037436D02*
X12351015Y-17056484D01*
X12484348Y-16856484D02*
X12503396Y-16856484D01*
X12503396Y-16856484D02*
X12522444Y-16866008D01*
X12522444Y-16866008D02*
X12531967Y-16875531D01*
X12531967Y-16875531D02*
X12541491Y-16894579D01*
X12541491Y-16894579D02*
X12551015Y-16932674D01*
X12551015Y-16932674D02*
X12551015Y-16980293D01*
X12551015Y-16980293D02*
X12541491Y-17018389D01*
X12541491Y-17018389D02*
X12531967Y-17037436D01*
X12531967Y-17037436D02*
X12522444Y-17046960D01*
X12522444Y-17046960D02*
X12503396Y-17056484D01*
X12503396Y-17056484D02*
X12484348Y-17056484D01*
X12484348Y-17056484D02*
X12465301Y-17046960D01*
X12465301Y-17046960D02*
X12455777Y-17037436D01*
X12455777Y-17037436D02*
X12446253Y-17018389D01*
X12446253Y-17018389D02*
X12436729Y-16980293D01*
X12436729Y-16980293D02*
X12436729Y-16932674D01*
X12436729Y-16932674D02*
X12446253Y-16894579D01*
X12446253Y-16894579D02*
X12455777Y-16875531D01*
X12455777Y-16875531D02*
X12465301Y-16866008D01*
X12465301Y-16866008D02*
X12484348Y-16856484D01*
X12627206Y-16875531D02*
X12636729Y-16866008D01*
X12636729Y-16866008D02*
X12655777Y-16856484D01*
X12655777Y-16856484D02*
X12703396Y-16856484D01*
X12703396Y-16856484D02*
X12722444Y-16866008D01*
X12722444Y-16866008D02*
X12731967Y-16875531D01*
X12731967Y-16875531D02*
X12741491Y-16894579D01*
X12741491Y-16894579D02*
X12741491Y-16913627D01*
X12741491Y-16913627D02*
X12731967Y-16942198D01*
X12731967Y-16942198D02*
X12617682Y-17056484D01*
X12617682Y-17056484D02*
X12741491Y-17056484D01*
X12836729Y-17056484D02*
X12874825Y-17056484D01*
X12874825Y-17056484D02*
X12893872Y-17046960D01*
X12893872Y-17046960D02*
X12903396Y-17037436D01*
X12903396Y-17037436D02*
X12922444Y-17008865D01*
X12922444Y-17008865D02*
X12931967Y-16970770D01*
X12931967Y-16970770D02*
X12931967Y-16894579D01*
X12931967Y-16894579D02*
X12922444Y-16875531D01*
X12922444Y-16875531D02*
X12912920Y-16866008D01*
X12912920Y-16866008D02*
X12893872Y-16856484D01*
X12893872Y-16856484D02*
X12855777Y-16856484D01*
X12855777Y-16856484D02*
X12836729Y-16866008D01*
X12836729Y-16866008D02*
X12827206Y-16875531D01*
X12827206Y-16875531D02*
X12817682Y-16894579D01*
X12817682Y-16894579D02*
X12817682Y-16942198D01*
X12817682Y-16942198D02*
X12827206Y-16961246D01*
X12827206Y-16961246D02*
X12836729Y-16970770D01*
X12836729Y-16970770D02*
X12855777Y-16980293D01*
X12855777Y-16980293D02*
X12893872Y-16980293D01*
X12893872Y-16980293D02*
X12912920Y-16970770D01*
X12912920Y-16970770D02*
X12922444Y-16961246D01*
X12922444Y-16961246D02*
X12931967Y-16942198D01*
X13112920Y-16856484D02*
X13017682Y-16856484D01*
X13017682Y-16856484D02*
X13008158Y-16951722D01*
X13008158Y-16951722D02*
X13017682Y-16942198D01*
X13017682Y-16942198D02*
X13036729Y-16932674D01*
X13036729Y-16932674D02*
X13084348Y-16932674D01*
X13084348Y-16932674D02*
X13103396Y-16942198D01*
X13103396Y-16942198D02*
X13112920Y-16951722D01*
X13112920Y-16951722D02*
X13122444Y-16970770D01*
X13122444Y-16970770D02*
X13122444Y-17018389D01*
X13122444Y-17018389D02*
X13112920Y-17037436D01*
X13112920Y-17037436D02*
X13103396Y-17046960D01*
X13103396Y-17046960D02*
X13084348Y-17056484D01*
X13084348Y-17056484D02*
X13036729Y-17056484D01*
X13036729Y-17056484D02*
X13017682Y-17046960D01*
X13017682Y-17046960D02*
X13008158Y-17037436D01*
X13198634Y-16856484D02*
X13198634Y-16894579D01*
X13274825Y-16856484D02*
X13274825Y-16894579D01*
X13570063Y-17132674D02*
X13560539Y-17123150D01*
X13560539Y-17123150D02*
X13541491Y-17094579D01*
X13541491Y-17094579D02*
X13531968Y-17075531D01*
X13531968Y-17075531D02*
X13522444Y-17046960D01*
X13522444Y-17046960D02*
X13512920Y-16999341D01*
X13512920Y-16999341D02*
X13512920Y-16961246D01*
X13512920Y-16961246D02*
X13522444Y-16913627D01*
X13522444Y-16913627D02*
X13531968Y-16885055D01*
X13531968Y-16885055D02*
X13541491Y-16866008D01*
X13541491Y-16866008D02*
X13560539Y-16837436D01*
X13560539Y-16837436D02*
X13570063Y-16827912D01*
X13731968Y-16923150D02*
X13731968Y-17056484D01*
X13684348Y-16846960D02*
X13636729Y-16989817D01*
X13636729Y-16989817D02*
X13760539Y-16989817D01*
X13922444Y-16923150D02*
X13922444Y-17056484D01*
X13874825Y-16846960D02*
X13827206Y-16989817D01*
X13827206Y-16989817D02*
X13951015Y-16989817D01*
X14179587Y-17056484D02*
X14179587Y-16856484D01*
X14265301Y-17056484D02*
X14265301Y-16951722D01*
X14265301Y-16951722D02*
X14255777Y-16932674D01*
X14255777Y-16932674D02*
X14236730Y-16923150D01*
X14236730Y-16923150D02*
X14208158Y-16923150D01*
X14208158Y-16923150D02*
X14189110Y-16932674D01*
X14189110Y-16932674D02*
X14179587Y-16942198D01*
X14389110Y-17056484D02*
X14370063Y-17046960D01*
X14370063Y-17046960D02*
X14360539Y-17037436D01*
X14360539Y-17037436D02*
X14351015Y-17018389D01*
X14351015Y-17018389D02*
X14351015Y-16961246D01*
X14351015Y-16961246D02*
X14360539Y-16942198D01*
X14360539Y-16942198D02*
X14370063Y-16932674D01*
X14370063Y-16932674D02*
X14389110Y-16923150D01*
X14389110Y-16923150D02*
X14417682Y-16923150D01*
X14417682Y-16923150D02*
X14436730Y-16932674D01*
X14436730Y-16932674D02*
X14446253Y-16942198D01*
X14446253Y-16942198D02*
X14455777Y-16961246D01*
X14455777Y-16961246D02*
X14455777Y-17018389D01*
X14455777Y-17018389D02*
X14446253Y-17037436D01*
X14446253Y-17037436D02*
X14436730Y-17046960D01*
X14436730Y-17046960D02*
X14417682Y-17056484D01*
X14417682Y-17056484D02*
X14389110Y-17056484D01*
X14570063Y-17056484D02*
X14551015Y-17046960D01*
X14551015Y-17046960D02*
X14541491Y-17027912D01*
X14541491Y-17027912D02*
X14541491Y-16856484D01*
X14722444Y-17046960D02*
X14703396Y-17056484D01*
X14703396Y-17056484D02*
X14665301Y-17056484D01*
X14665301Y-17056484D02*
X14646253Y-17046960D01*
X14646253Y-17046960D02*
X14636730Y-17027912D01*
X14636730Y-17027912D02*
X14636730Y-16951722D01*
X14636730Y-16951722D02*
X14646253Y-16932674D01*
X14646253Y-16932674D02*
X14665301Y-16923150D01*
X14665301Y-16923150D02*
X14703396Y-16923150D01*
X14703396Y-16923150D02*
X14722444Y-16932674D01*
X14722444Y-16932674D02*
X14731968Y-16951722D01*
X14731968Y-16951722D02*
X14731968Y-16970770D01*
X14731968Y-16970770D02*
X14636730Y-16989817D01*
X14808158Y-17046960D02*
X14827206Y-17056484D01*
X14827206Y-17056484D02*
X14865301Y-17056484D01*
X14865301Y-17056484D02*
X14884349Y-17046960D01*
X14884349Y-17046960D02*
X14893872Y-17027912D01*
X14893872Y-17027912D02*
X14893872Y-17018389D01*
X14893872Y-17018389D02*
X14884349Y-16999341D01*
X14884349Y-16999341D02*
X14865301Y-16989817D01*
X14865301Y-16989817D02*
X14836730Y-16989817D01*
X14836730Y-16989817D02*
X14817682Y-16980293D01*
X14817682Y-16980293D02*
X14808158Y-16961246D01*
X14808158Y-16961246D02*
X14808158Y-16951722D01*
X14808158Y-16951722D02*
X14817682Y-16932674D01*
X14817682Y-16932674D02*
X14836730Y-16923150D01*
X14836730Y-16923150D02*
X14865301Y-16923150D01*
X14865301Y-16923150D02*
X14884349Y-16932674D01*
X14960539Y-17132674D02*
X14970063Y-17123150D01*
X14970063Y-17123150D02*
X14989111Y-17094579D01*
X14989111Y-17094579D02*
X14998634Y-17075531D01*
X14998634Y-17075531D02*
X15008158Y-17046960D01*
X15008158Y-17046960D02*
X15017682Y-16999341D01*
X15017682Y-16999341D02*
X15017682Y-16961246D01*
X15017682Y-16961246D02*
X15008158Y-16913627D01*
X15008158Y-16913627D02*
X14998634Y-16885055D01*
X14998634Y-16885055D02*
X14989111Y-16866008D01*
X14989111Y-16866008D02*
X14970063Y-16837436D01*
X14970063Y-16837436D02*
X14960539Y-16827912D01*
D10*
X9895000Y-17179000D02*
X9995000Y-17279000D01*
X9995000Y-17179000D02*
X9895000Y-17279000D01*
X9945000Y-17179000D02*
X9945000Y-17279000D01*
X9895000Y-17229000D02*
X9995000Y-17229000D01*
D11*
X10360539Y-17320484D02*
X10246253Y-17320484D01*
X10303396Y-17320484D02*
X10303396Y-17120484D01*
X10303396Y-17120484D02*
X10284348Y-17149055D01*
X10284348Y-17149055D02*
X10265301Y-17168103D01*
X10265301Y-17168103D02*
X10246253Y-17177627D01*
X10446253Y-17301436D02*
X10455777Y-17310960D01*
X10455777Y-17310960D02*
X10446253Y-17320484D01*
X10446253Y-17320484D02*
X10436729Y-17310960D01*
X10436729Y-17310960D02*
X10446253Y-17301436D01*
X10446253Y-17301436D02*
X10446253Y-17320484D01*
X10579586Y-17120484D02*
X10598634Y-17120484D01*
X10598634Y-17120484D02*
X10617682Y-17130008D01*
X10617682Y-17130008D02*
X10627205Y-17139531D01*
X10627205Y-17139531D02*
X10636729Y-17158579D01*
X10636729Y-17158579D02*
X10646253Y-17196674D01*
X10646253Y-17196674D02*
X10646253Y-17244293D01*
X10646253Y-17244293D02*
X10636729Y-17282389D01*
X10636729Y-17282389D02*
X10627205Y-17301436D01*
X10627205Y-17301436D02*
X10617682Y-17310960D01*
X10617682Y-17310960D02*
X10598634Y-17320484D01*
X10598634Y-17320484D02*
X10579586Y-17320484D01*
X10579586Y-17320484D02*
X10560539Y-17310960D01*
X10560539Y-17310960D02*
X10551015Y-17301436D01*
X10551015Y-17301436D02*
X10541491Y-17282389D01*
X10541491Y-17282389D02*
X10531967Y-17244293D01*
X10531967Y-17244293D02*
X10531967Y-17196674D01*
X10531967Y-17196674D02*
X10541491Y-17158579D01*
X10541491Y-17158579D02*
X10551015Y-17139531D01*
X10551015Y-17139531D02*
X10560539Y-17130008D01*
X10560539Y-17130008D02*
X10579586Y-17120484D01*
X10770063Y-17120484D02*
X10789110Y-17120484D01*
X10789110Y-17120484D02*
X10808158Y-17130008D01*
X10808158Y-17130008D02*
X10817682Y-17139531D01*
X10817682Y-17139531D02*
X10827205Y-17158579D01*
X10827205Y-17158579D02*
X10836729Y-17196674D01*
X10836729Y-17196674D02*
X10836729Y-17244293D01*
X10836729Y-17244293D02*
X10827205Y-17282389D01*
X10827205Y-17282389D02*
X10817682Y-17301436D01*
X10817682Y-17301436D02*
X10808158Y-17310960D01*
X10808158Y-17310960D02*
X10789110Y-17320484D01*
X10789110Y-17320484D02*
X10770063Y-17320484D01*
X10770063Y-17320484D02*
X10751015Y-17310960D01*
X10751015Y-17310960D02*
X10741491Y-17301436D01*
X10741491Y-17301436D02*
X10731967Y-17282389D01*
X10731967Y-17282389D02*
X10722444Y-17244293D01*
X10722444Y-17244293D02*
X10722444Y-17196674D01*
X10722444Y-17196674D02*
X10731967Y-17158579D01*
X10731967Y-17158579D02*
X10741491Y-17139531D01*
X10741491Y-17139531D02*
X10751015Y-17130008D01*
X10751015Y-17130008D02*
X10770063Y-17120484D01*
X10960539Y-17120484D02*
X10979586Y-17120484D01*
X10979586Y-17120484D02*
X10998634Y-17130008D01*
X10998634Y-17130008D02*
X11008158Y-17139531D01*
X11008158Y-17139531D02*
X11017682Y-17158579D01*
X11017682Y-17158579D02*
X11027205Y-17196674D01*
X11027205Y-17196674D02*
X11027205Y-17244293D01*
X11027205Y-17244293D02*
X11017682Y-17282389D01*
X11017682Y-17282389D02*
X11008158Y-17301436D01*
X11008158Y-17301436D02*
X10998634Y-17310960D01*
X10998634Y-17310960D02*
X10979586Y-17320484D01*
X10979586Y-17320484D02*
X10960539Y-17320484D01*
X10960539Y-17320484D02*
X10941491Y-17310960D01*
X10941491Y-17310960D02*
X10931967Y-17301436D01*
X10931967Y-17301436D02*
X10922444Y-17282389D01*
X10922444Y-17282389D02*
X10912920Y-17244293D01*
X10912920Y-17244293D02*
X10912920Y-17196674D01*
X10912920Y-17196674D02*
X10922444Y-17158579D01*
X10922444Y-17158579D02*
X10931967Y-17139531D01*
X10931967Y-17139531D02*
X10941491Y-17130008D01*
X10941491Y-17130008D02*
X10960539Y-17120484D01*
X11112920Y-17320484D02*
X11112920Y-17187150D01*
X11112920Y-17206198D02*
X11122444Y-17196674D01*
X11122444Y-17196674D02*
X11141491Y-17187150D01*
X11141491Y-17187150D02*
X11170063Y-17187150D01*
X11170063Y-17187150D02*
X11189110Y-17196674D01*
X11189110Y-17196674D02*
X11198634Y-17215722D01*
X11198634Y-17215722D02*
X11198634Y-17320484D01*
X11198634Y-17215722D02*
X11208158Y-17196674D01*
X11208158Y-17196674D02*
X11227205Y-17187150D01*
X11227205Y-17187150D02*
X11255777Y-17187150D01*
X11255777Y-17187150D02*
X11274824Y-17196674D01*
X11274824Y-17196674D02*
X11284348Y-17215722D01*
X11284348Y-17215722D02*
X11284348Y-17320484D01*
X11379586Y-17320484D02*
X11379586Y-17187150D01*
X11379586Y-17206198D02*
X11389110Y-17196674D01*
X11389110Y-17196674D02*
X11408158Y-17187150D01*
X11408158Y-17187150D02*
X11436729Y-17187150D01*
X11436729Y-17187150D02*
X11455777Y-17196674D01*
X11455777Y-17196674D02*
X11465301Y-17215722D01*
X11465301Y-17215722D02*
X11465301Y-17320484D01*
X11465301Y-17215722D02*
X11474824Y-17196674D01*
X11474824Y-17196674D02*
X11493872Y-17187150D01*
X11493872Y-17187150D02*
X11522443Y-17187150D01*
X11522443Y-17187150D02*
X11541491Y-17196674D01*
X11541491Y-17196674D02*
X11551015Y-17215722D01*
X11551015Y-17215722D02*
X11551015Y-17320484D01*
X11941491Y-17110960D02*
X11770063Y-17368103D01*
X12198634Y-17120484D02*
X12217682Y-17120484D01*
X12217682Y-17120484D02*
X12236729Y-17130008D01*
X12236729Y-17130008D02*
X12246253Y-17139531D01*
X12246253Y-17139531D02*
X12255777Y-17158579D01*
X12255777Y-17158579D02*
X12265301Y-17196674D01*
X12265301Y-17196674D02*
X12265301Y-17244293D01*
X12265301Y-17244293D02*
X12255777Y-17282389D01*
X12255777Y-17282389D02*
X12246253Y-17301436D01*
X12246253Y-17301436D02*
X12236729Y-17310960D01*
X12236729Y-17310960D02*
X12217682Y-17320484D01*
X12217682Y-17320484D02*
X12198634Y-17320484D01*
X12198634Y-17320484D02*
X12179586Y-17310960D01*
X12179586Y-17310960D02*
X12170063Y-17301436D01*
X12170063Y-17301436D02*
X12160539Y-17282389D01*
X12160539Y-17282389D02*
X12151015Y-17244293D01*
X12151015Y-17244293D02*
X12151015Y-17196674D01*
X12151015Y-17196674D02*
X12160539Y-17158579D01*
X12160539Y-17158579D02*
X12170063Y-17139531D01*
X12170063Y-17139531D02*
X12179586Y-17130008D01*
X12179586Y-17130008D02*
X12198634Y-17120484D01*
X12351015Y-17301436D02*
X12360539Y-17310960D01*
X12360539Y-17310960D02*
X12351015Y-17320484D01*
X12351015Y-17320484D02*
X12341491Y-17310960D01*
X12341491Y-17310960D02*
X12351015Y-17301436D01*
X12351015Y-17301436D02*
X12351015Y-17320484D01*
X12484348Y-17120484D02*
X12503396Y-17120484D01*
X12503396Y-17120484D02*
X12522444Y-17130008D01*
X12522444Y-17130008D02*
X12531967Y-17139531D01*
X12531967Y-17139531D02*
X12541491Y-17158579D01*
X12541491Y-17158579D02*
X12551015Y-17196674D01*
X12551015Y-17196674D02*
X12551015Y-17244293D01*
X12551015Y-17244293D02*
X12541491Y-17282389D01*
X12541491Y-17282389D02*
X12531967Y-17301436D01*
X12531967Y-17301436D02*
X12522444Y-17310960D01*
X12522444Y-17310960D02*
X12503396Y-17320484D01*
X12503396Y-17320484D02*
X12484348Y-17320484D01*
X12484348Y-17320484D02*
X12465301Y-17310960D01*
X12465301Y-17310960D02*
X12455777Y-17301436D01*
X12455777Y-17301436D02*
X12446253Y-17282389D01*
X12446253Y-17282389D02*
X12436729Y-17244293D01*
X12436729Y-17244293D02*
X12436729Y-17196674D01*
X12436729Y-17196674D02*
X12446253Y-17158579D01*
X12446253Y-17158579D02*
X12455777Y-17139531D01*
X12455777Y-17139531D02*
X12465301Y-17130008D01*
X12465301Y-17130008D02*
X12484348Y-17120484D01*
X12617682Y-17120484D02*
X12741491Y-17120484D01*
X12741491Y-17120484D02*
X12674825Y-17196674D01*
X12674825Y-17196674D02*
X12703396Y-17196674D01*
X12703396Y-17196674D02*
X12722444Y-17206198D01*
X12722444Y-17206198D02*
X12731967Y-17215722D01*
X12731967Y-17215722D02*
X12741491Y-17234770D01*
X12741491Y-17234770D02*
X12741491Y-17282389D01*
X12741491Y-17282389D02*
X12731967Y-17301436D01*
X12731967Y-17301436D02*
X12722444Y-17310960D01*
X12722444Y-17310960D02*
X12703396Y-17320484D01*
X12703396Y-17320484D02*
X12646253Y-17320484D01*
X12646253Y-17320484D02*
X12627206Y-17310960D01*
X12627206Y-17310960D02*
X12617682Y-17301436D01*
X12836729Y-17320484D02*
X12874825Y-17320484D01*
X12874825Y-17320484D02*
X12893872Y-17310960D01*
X12893872Y-17310960D02*
X12903396Y-17301436D01*
X12903396Y-17301436D02*
X12922444Y-17272865D01*
X12922444Y-17272865D02*
X12931967Y-17234770D01*
X12931967Y-17234770D02*
X12931967Y-17158579D01*
X12931967Y-17158579D02*
X12922444Y-17139531D01*
X12922444Y-17139531D02*
X12912920Y-17130008D01*
X12912920Y-17130008D02*
X12893872Y-17120484D01*
X12893872Y-17120484D02*
X12855777Y-17120484D01*
X12855777Y-17120484D02*
X12836729Y-17130008D01*
X12836729Y-17130008D02*
X12827206Y-17139531D01*
X12827206Y-17139531D02*
X12817682Y-17158579D01*
X12817682Y-17158579D02*
X12817682Y-17206198D01*
X12817682Y-17206198D02*
X12827206Y-17225246D01*
X12827206Y-17225246D02*
X12836729Y-17234770D01*
X12836729Y-17234770D02*
X12855777Y-17244293D01*
X12855777Y-17244293D02*
X12893872Y-17244293D01*
X12893872Y-17244293D02*
X12912920Y-17234770D01*
X12912920Y-17234770D02*
X12922444Y-17225246D01*
X12922444Y-17225246D02*
X12931967Y-17206198D01*
X13103396Y-17187150D02*
X13103396Y-17320484D01*
X13055777Y-17110960D02*
X13008158Y-17253817D01*
X13008158Y-17253817D02*
X13131967Y-17253817D01*
X13198634Y-17120484D02*
X13198634Y-17158579D01*
X13274825Y-17120484D02*
X13274825Y-17158579D01*
X13570063Y-17396674D02*
X13560539Y-17387150D01*
X13560539Y-17387150D02*
X13541491Y-17358579D01*
X13541491Y-17358579D02*
X13531968Y-17339531D01*
X13531968Y-17339531D02*
X13522444Y-17310960D01*
X13522444Y-17310960D02*
X13512920Y-17263341D01*
X13512920Y-17263341D02*
X13512920Y-17225246D01*
X13512920Y-17225246D02*
X13522444Y-17177627D01*
X13522444Y-17177627D02*
X13531968Y-17149055D01*
X13531968Y-17149055D02*
X13541491Y-17130008D01*
X13541491Y-17130008D02*
X13560539Y-17101436D01*
X13560539Y-17101436D02*
X13570063Y-17091912D01*
X13751015Y-17320484D02*
X13636729Y-17320484D01*
X13693872Y-17320484D02*
X13693872Y-17120484D01*
X13693872Y-17120484D02*
X13674825Y-17149055D01*
X13674825Y-17149055D02*
X13655777Y-17168103D01*
X13655777Y-17168103D02*
X13636729Y-17177627D01*
X13922444Y-17120484D02*
X13884348Y-17120484D01*
X13884348Y-17120484D02*
X13865301Y-17130008D01*
X13865301Y-17130008D02*
X13855777Y-17139531D01*
X13855777Y-17139531D02*
X13836729Y-17168103D01*
X13836729Y-17168103D02*
X13827206Y-17206198D01*
X13827206Y-17206198D02*
X13827206Y-17282389D01*
X13827206Y-17282389D02*
X13836729Y-17301436D01*
X13836729Y-17301436D02*
X13846253Y-17310960D01*
X13846253Y-17310960D02*
X13865301Y-17320484D01*
X13865301Y-17320484D02*
X13903396Y-17320484D01*
X13903396Y-17320484D02*
X13922444Y-17310960D01*
X13922444Y-17310960D02*
X13931968Y-17301436D01*
X13931968Y-17301436D02*
X13941491Y-17282389D01*
X13941491Y-17282389D02*
X13941491Y-17234770D01*
X13941491Y-17234770D02*
X13931968Y-17215722D01*
X13931968Y-17215722D02*
X13922444Y-17206198D01*
X13922444Y-17206198D02*
X13903396Y-17196674D01*
X13903396Y-17196674D02*
X13865301Y-17196674D01*
X13865301Y-17196674D02*
X13846253Y-17206198D01*
X13846253Y-17206198D02*
X13836729Y-17215722D01*
X13836729Y-17215722D02*
X13827206Y-17234770D01*
X14179587Y-17320484D02*
X14179587Y-17120484D01*
X14265301Y-17320484D02*
X14265301Y-17215722D01*
X14265301Y-17215722D02*
X14255777Y-17196674D01*
X14255777Y-17196674D02*
X14236730Y-17187150D01*
X14236730Y-17187150D02*
X14208158Y-17187150D01*
X14208158Y-17187150D02*
X14189110Y-17196674D01*
X14189110Y-17196674D02*
X14179587Y-17206198D01*
X14389110Y-17320484D02*
X14370063Y-17310960D01*
X14370063Y-17310960D02*
X14360539Y-17301436D01*
X14360539Y-17301436D02*
X14351015Y-17282389D01*
X14351015Y-17282389D02*
X14351015Y-17225246D01*
X14351015Y-17225246D02*
X14360539Y-17206198D01*
X14360539Y-17206198D02*
X14370063Y-17196674D01*
X14370063Y-17196674D02*
X14389110Y-17187150D01*
X14389110Y-17187150D02*
X14417682Y-17187150D01*
X14417682Y-17187150D02*
X14436730Y-17196674D01*
X14436730Y-17196674D02*
X14446253Y-17206198D01*
X14446253Y-17206198D02*
X14455777Y-17225246D01*
X14455777Y-17225246D02*
X14455777Y-17282389D01*
X14455777Y-17282389D02*
X14446253Y-17301436D01*
X14446253Y-17301436D02*
X14436730Y-17310960D01*
X14436730Y-17310960D02*
X14417682Y-17320484D01*
X14417682Y-17320484D02*
X14389110Y-17320484D01*
X14570063Y-17320484D02*
X14551015Y-17310960D01*
X14551015Y-17310960D02*
X14541491Y-17291912D01*
X14541491Y-17291912D02*
X14541491Y-17120484D01*
X14722444Y-17310960D02*
X14703396Y-17320484D01*
X14703396Y-17320484D02*
X14665301Y-17320484D01*
X14665301Y-17320484D02*
X14646253Y-17310960D01*
X14646253Y-17310960D02*
X14636730Y-17291912D01*
X14636730Y-17291912D02*
X14636730Y-17215722D01*
X14636730Y-17215722D02*
X14646253Y-17196674D01*
X14646253Y-17196674D02*
X14665301Y-17187150D01*
X14665301Y-17187150D02*
X14703396Y-17187150D01*
X14703396Y-17187150D02*
X14722444Y-17196674D01*
X14722444Y-17196674D02*
X14731968Y-17215722D01*
X14731968Y-17215722D02*
X14731968Y-17234770D01*
X14731968Y-17234770D02*
X14636730Y-17253817D01*
X14808158Y-17310960D02*
X14827206Y-17320484D01*
X14827206Y-17320484D02*
X14865301Y-17320484D01*
X14865301Y-17320484D02*
X14884349Y-17310960D01*
X14884349Y-17310960D02*
X14893872Y-17291912D01*
X14893872Y-17291912D02*
X14893872Y-17282389D01*
X14893872Y-17282389D02*
X14884349Y-17263341D01*
X14884349Y-17263341D02*
X14865301Y-17253817D01*
X14865301Y-17253817D02*
X14836730Y-17253817D01*
X14836730Y-17253817D02*
X14817682Y-17244293D01*
X14817682Y-17244293D02*
X14808158Y-17225246D01*
X14808158Y-17225246D02*
X14808158Y-17215722D01*
X14808158Y-17215722D02*
X14817682Y-17196674D01*
X14817682Y-17196674D02*
X14836730Y-17187150D01*
X14836730Y-17187150D02*
X14865301Y-17187150D01*
X14865301Y-17187150D02*
X14884349Y-17196674D01*
X14960539Y-17396674D02*
X14970063Y-17387150D01*
X14970063Y-17387150D02*
X14989111Y-17358579D01*
X14989111Y-17358579D02*
X14998634Y-17339531D01*
X14998634Y-17339531D02*
X15008158Y-17310960D01*
X15008158Y-17310960D02*
X15017682Y-17263341D01*
X15017682Y-17263341D02*
X15017682Y-17225246D01*
X15017682Y-17225246D02*
X15008158Y-17177627D01*
X15008158Y-17177627D02*
X14998634Y-17149055D01*
X14998634Y-17149055D02*
X14989111Y-17130008D01*
X14989111Y-17130008D02*
X14970063Y-17101436D01*
X14970063Y-17101436D02*
X14960539Y-17091912D01*
X9795000Y-17393000D02*
X9995000Y-17593000D01*
X9995000Y-17393000D02*
X9795000Y-17593000D01*
X9965711Y-17563711D02*
X9965711Y-17422289D01*
X9824289Y-17422289D01*
X9824289Y-17563711D01*
X9965711Y-17563711D01*
X10341491Y-17451150D02*
X10341491Y-17584484D01*
X10293872Y-17374960D02*
X10246253Y-17517817D01*
X10246253Y-17517817D02*
X10370063Y-17517817D01*
X10446253Y-17565436D02*
X10455777Y-17574960D01*
X10455777Y-17574960D02*
X10446253Y-17584484D01*
X10446253Y-17584484D02*
X10436729Y-17574960D01*
X10436729Y-17574960D02*
X10446253Y-17565436D01*
X10446253Y-17565436D02*
X10446253Y-17584484D01*
X10522444Y-17384484D02*
X10646253Y-17384484D01*
X10646253Y-17384484D02*
X10579586Y-17460674D01*
X10579586Y-17460674D02*
X10608158Y-17460674D01*
X10608158Y-17460674D02*
X10627205Y-17470198D01*
X10627205Y-17470198D02*
X10636729Y-17479722D01*
X10636729Y-17479722D02*
X10646253Y-17498770D01*
X10646253Y-17498770D02*
X10646253Y-17546389D01*
X10646253Y-17546389D02*
X10636729Y-17565436D01*
X10636729Y-17565436D02*
X10627205Y-17574960D01*
X10627205Y-17574960D02*
X10608158Y-17584484D01*
X10608158Y-17584484D02*
X10551015Y-17584484D01*
X10551015Y-17584484D02*
X10531967Y-17574960D01*
X10531967Y-17574960D02*
X10522444Y-17565436D01*
X10770063Y-17384484D02*
X10789110Y-17384484D01*
X10789110Y-17384484D02*
X10808158Y-17394008D01*
X10808158Y-17394008D02*
X10817682Y-17403531D01*
X10817682Y-17403531D02*
X10827205Y-17422579D01*
X10827205Y-17422579D02*
X10836729Y-17460674D01*
X10836729Y-17460674D02*
X10836729Y-17508293D01*
X10836729Y-17508293D02*
X10827205Y-17546389D01*
X10827205Y-17546389D02*
X10817682Y-17565436D01*
X10817682Y-17565436D02*
X10808158Y-17574960D01*
X10808158Y-17574960D02*
X10789110Y-17584484D01*
X10789110Y-17584484D02*
X10770063Y-17584484D01*
X10770063Y-17584484D02*
X10751015Y-17574960D01*
X10751015Y-17574960D02*
X10741491Y-17565436D01*
X10741491Y-17565436D02*
X10731967Y-17546389D01*
X10731967Y-17546389D02*
X10722444Y-17508293D01*
X10722444Y-17508293D02*
X10722444Y-17460674D01*
X10722444Y-17460674D02*
X10731967Y-17422579D01*
X10731967Y-17422579D02*
X10741491Y-17403531D01*
X10741491Y-17403531D02*
X10751015Y-17394008D01*
X10751015Y-17394008D02*
X10770063Y-17384484D01*
X10960539Y-17384484D02*
X10979586Y-17384484D01*
X10979586Y-17384484D02*
X10998634Y-17394008D01*
X10998634Y-17394008D02*
X11008158Y-17403531D01*
X11008158Y-17403531D02*
X11017682Y-17422579D01*
X11017682Y-17422579D02*
X11027205Y-17460674D01*
X11027205Y-17460674D02*
X11027205Y-17508293D01*
X11027205Y-17508293D02*
X11017682Y-17546389D01*
X11017682Y-17546389D02*
X11008158Y-17565436D01*
X11008158Y-17565436D02*
X10998634Y-17574960D01*
X10998634Y-17574960D02*
X10979586Y-17584484D01*
X10979586Y-17584484D02*
X10960539Y-17584484D01*
X10960539Y-17584484D02*
X10941491Y-17574960D01*
X10941491Y-17574960D02*
X10931967Y-17565436D01*
X10931967Y-17565436D02*
X10922444Y-17546389D01*
X10922444Y-17546389D02*
X10912920Y-17508293D01*
X10912920Y-17508293D02*
X10912920Y-17460674D01*
X10912920Y-17460674D02*
X10922444Y-17422579D01*
X10922444Y-17422579D02*
X10931967Y-17403531D01*
X10931967Y-17403531D02*
X10941491Y-17394008D01*
X10941491Y-17394008D02*
X10960539Y-17384484D01*
X11112920Y-17584484D02*
X11112920Y-17451150D01*
X11112920Y-17470198D02*
X11122444Y-17460674D01*
X11122444Y-17460674D02*
X11141491Y-17451150D01*
X11141491Y-17451150D02*
X11170063Y-17451150D01*
X11170063Y-17451150D02*
X11189110Y-17460674D01*
X11189110Y-17460674D02*
X11198634Y-17479722D01*
X11198634Y-17479722D02*
X11198634Y-17584484D01*
X11198634Y-17479722D02*
X11208158Y-17460674D01*
X11208158Y-17460674D02*
X11227205Y-17451150D01*
X11227205Y-17451150D02*
X11255777Y-17451150D01*
X11255777Y-17451150D02*
X11274824Y-17460674D01*
X11274824Y-17460674D02*
X11284348Y-17479722D01*
X11284348Y-17479722D02*
X11284348Y-17584484D01*
X11379586Y-17584484D02*
X11379586Y-17451150D01*
X11379586Y-17470198D02*
X11389110Y-17460674D01*
X11389110Y-17460674D02*
X11408158Y-17451150D01*
X11408158Y-17451150D02*
X11436729Y-17451150D01*
X11436729Y-17451150D02*
X11455777Y-17460674D01*
X11455777Y-17460674D02*
X11465301Y-17479722D01*
X11465301Y-17479722D02*
X11465301Y-17584484D01*
X11465301Y-17479722D02*
X11474824Y-17460674D01*
X11474824Y-17460674D02*
X11493872Y-17451150D01*
X11493872Y-17451150D02*
X11522443Y-17451150D01*
X11522443Y-17451150D02*
X11541491Y-17460674D01*
X11541491Y-17460674D02*
X11551015Y-17479722D01*
X11551015Y-17479722D02*
X11551015Y-17584484D01*
X11941491Y-17374960D02*
X11770063Y-17632103D01*
X12198634Y-17384484D02*
X12217682Y-17384484D01*
X12217682Y-17384484D02*
X12236729Y-17394008D01*
X12236729Y-17394008D02*
X12246253Y-17403531D01*
X12246253Y-17403531D02*
X12255777Y-17422579D01*
X12255777Y-17422579D02*
X12265301Y-17460674D01*
X12265301Y-17460674D02*
X12265301Y-17508293D01*
X12265301Y-17508293D02*
X12255777Y-17546389D01*
X12255777Y-17546389D02*
X12246253Y-17565436D01*
X12246253Y-17565436D02*
X12236729Y-17574960D01*
X12236729Y-17574960D02*
X12217682Y-17584484D01*
X12217682Y-17584484D02*
X12198634Y-17584484D01*
X12198634Y-17584484D02*
X12179586Y-17574960D01*
X12179586Y-17574960D02*
X12170063Y-17565436D01*
X12170063Y-17565436D02*
X12160539Y-17546389D01*
X12160539Y-17546389D02*
X12151015Y-17508293D01*
X12151015Y-17508293D02*
X12151015Y-17460674D01*
X12151015Y-17460674D02*
X12160539Y-17422579D01*
X12160539Y-17422579D02*
X12170063Y-17403531D01*
X12170063Y-17403531D02*
X12179586Y-17394008D01*
X12179586Y-17394008D02*
X12198634Y-17384484D01*
X12351015Y-17565436D02*
X12360539Y-17574960D01*
X12360539Y-17574960D02*
X12351015Y-17584484D01*
X12351015Y-17584484D02*
X12341491Y-17574960D01*
X12341491Y-17574960D02*
X12351015Y-17565436D01*
X12351015Y-17565436D02*
X12351015Y-17584484D01*
X12551015Y-17584484D02*
X12436729Y-17584484D01*
X12493872Y-17584484D02*
X12493872Y-17384484D01*
X12493872Y-17384484D02*
X12474825Y-17413055D01*
X12474825Y-17413055D02*
X12455777Y-17432103D01*
X12455777Y-17432103D02*
X12436729Y-17441627D01*
X12722444Y-17384484D02*
X12684348Y-17384484D01*
X12684348Y-17384484D02*
X12665301Y-17394008D01*
X12665301Y-17394008D02*
X12655777Y-17403531D01*
X12655777Y-17403531D02*
X12636729Y-17432103D01*
X12636729Y-17432103D02*
X12627206Y-17470198D01*
X12627206Y-17470198D02*
X12627206Y-17546389D01*
X12627206Y-17546389D02*
X12636729Y-17565436D01*
X12636729Y-17565436D02*
X12646253Y-17574960D01*
X12646253Y-17574960D02*
X12665301Y-17584484D01*
X12665301Y-17584484D02*
X12703396Y-17584484D01*
X12703396Y-17584484D02*
X12722444Y-17574960D01*
X12722444Y-17574960D02*
X12731967Y-17565436D01*
X12731967Y-17565436D02*
X12741491Y-17546389D01*
X12741491Y-17546389D02*
X12741491Y-17498770D01*
X12741491Y-17498770D02*
X12731967Y-17479722D01*
X12731967Y-17479722D02*
X12722444Y-17470198D01*
X12722444Y-17470198D02*
X12703396Y-17460674D01*
X12703396Y-17460674D02*
X12665301Y-17460674D01*
X12665301Y-17460674D02*
X12646253Y-17470198D01*
X12646253Y-17470198D02*
X12636729Y-17479722D01*
X12636729Y-17479722D02*
X12627206Y-17498770D01*
X12836729Y-17584484D02*
X12874825Y-17584484D01*
X12874825Y-17584484D02*
X12893872Y-17574960D01*
X12893872Y-17574960D02*
X12903396Y-17565436D01*
X12903396Y-17565436D02*
X12922444Y-17536865D01*
X12922444Y-17536865D02*
X12931967Y-17498770D01*
X12931967Y-17498770D02*
X12931967Y-17422579D01*
X12931967Y-17422579D02*
X12922444Y-17403531D01*
X12922444Y-17403531D02*
X12912920Y-17394008D01*
X12912920Y-17394008D02*
X12893872Y-17384484D01*
X12893872Y-17384484D02*
X12855777Y-17384484D01*
X12855777Y-17384484D02*
X12836729Y-17394008D01*
X12836729Y-17394008D02*
X12827206Y-17403531D01*
X12827206Y-17403531D02*
X12817682Y-17422579D01*
X12817682Y-17422579D02*
X12817682Y-17470198D01*
X12817682Y-17470198D02*
X12827206Y-17489246D01*
X12827206Y-17489246D02*
X12836729Y-17498770D01*
X12836729Y-17498770D02*
X12855777Y-17508293D01*
X12855777Y-17508293D02*
X12893872Y-17508293D01*
X12893872Y-17508293D02*
X12912920Y-17498770D01*
X12912920Y-17498770D02*
X12922444Y-17489246D01*
X12922444Y-17489246D02*
X12931967Y-17470198D01*
X12998634Y-17384484D02*
X13122444Y-17384484D01*
X13122444Y-17384484D02*
X13055777Y-17460674D01*
X13055777Y-17460674D02*
X13084348Y-17460674D01*
X13084348Y-17460674D02*
X13103396Y-17470198D01*
X13103396Y-17470198D02*
X13112920Y-17479722D01*
X13112920Y-17479722D02*
X13122444Y-17498770D01*
X13122444Y-17498770D02*
X13122444Y-17546389D01*
X13122444Y-17546389D02*
X13112920Y-17565436D01*
X13112920Y-17565436D02*
X13103396Y-17574960D01*
X13103396Y-17574960D02*
X13084348Y-17584484D01*
X13084348Y-17584484D02*
X13027206Y-17584484D01*
X13027206Y-17584484D02*
X13008158Y-17574960D01*
X13008158Y-17574960D02*
X12998634Y-17565436D01*
X13198634Y-17384484D02*
X13198634Y-17422579D01*
X13274825Y-17384484D02*
X13274825Y-17422579D01*
X13570063Y-17660674D02*
X13560539Y-17651150D01*
X13560539Y-17651150D02*
X13541491Y-17622579D01*
X13541491Y-17622579D02*
X13531968Y-17603531D01*
X13531968Y-17603531D02*
X13522444Y-17574960D01*
X13522444Y-17574960D02*
X13512920Y-17527341D01*
X13512920Y-17527341D02*
X13512920Y-17489246D01*
X13512920Y-17489246D02*
X13522444Y-17441627D01*
X13522444Y-17441627D02*
X13531968Y-17413055D01*
X13531968Y-17413055D02*
X13541491Y-17394008D01*
X13541491Y-17394008D02*
X13560539Y-17365436D01*
X13560539Y-17365436D02*
X13570063Y-17355912D01*
X13627206Y-17384484D02*
X13751015Y-17384484D01*
X13751015Y-17384484D02*
X13684348Y-17460674D01*
X13684348Y-17460674D02*
X13712920Y-17460674D01*
X13712920Y-17460674D02*
X13731968Y-17470198D01*
X13731968Y-17470198D02*
X13741491Y-17479722D01*
X13741491Y-17479722D02*
X13751015Y-17498770D01*
X13751015Y-17498770D02*
X13751015Y-17546389D01*
X13751015Y-17546389D02*
X13741491Y-17565436D01*
X13741491Y-17565436D02*
X13731968Y-17574960D01*
X13731968Y-17574960D02*
X13712920Y-17584484D01*
X13712920Y-17584484D02*
X13655777Y-17584484D01*
X13655777Y-17584484D02*
X13636729Y-17574960D01*
X13636729Y-17574960D02*
X13627206Y-17565436D01*
X13989110Y-17584484D02*
X13989110Y-17384484D01*
X14074825Y-17584484D02*
X14074825Y-17479722D01*
X14074825Y-17479722D02*
X14065301Y-17460674D01*
X14065301Y-17460674D02*
X14046253Y-17451150D01*
X14046253Y-17451150D02*
X14017682Y-17451150D01*
X14017682Y-17451150D02*
X13998634Y-17460674D01*
X13998634Y-17460674D02*
X13989110Y-17470198D01*
X14198634Y-17584484D02*
X14179587Y-17574960D01*
X14179587Y-17574960D02*
X14170063Y-17565436D01*
X14170063Y-17565436D02*
X14160539Y-17546389D01*
X14160539Y-17546389D02*
X14160539Y-17489246D01*
X14160539Y-17489246D02*
X14170063Y-17470198D01*
X14170063Y-17470198D02*
X14179587Y-17460674D01*
X14179587Y-17460674D02*
X14198634Y-17451150D01*
X14198634Y-17451150D02*
X14227206Y-17451150D01*
X14227206Y-17451150D02*
X14246253Y-17460674D01*
X14246253Y-17460674D02*
X14255777Y-17470198D01*
X14255777Y-17470198D02*
X14265301Y-17489246D01*
X14265301Y-17489246D02*
X14265301Y-17546389D01*
X14265301Y-17546389D02*
X14255777Y-17565436D01*
X14255777Y-17565436D02*
X14246253Y-17574960D01*
X14246253Y-17574960D02*
X14227206Y-17584484D01*
X14227206Y-17584484D02*
X14198634Y-17584484D01*
X14379587Y-17584484D02*
X14360539Y-17574960D01*
X14360539Y-17574960D02*
X14351015Y-17555912D01*
X14351015Y-17555912D02*
X14351015Y-17384484D01*
X14531968Y-17574960D02*
X14512920Y-17584484D01*
X14512920Y-17584484D02*
X14474825Y-17584484D01*
X14474825Y-17584484D02*
X14455777Y-17574960D01*
X14455777Y-17574960D02*
X14446253Y-17555912D01*
X14446253Y-17555912D02*
X14446253Y-17479722D01*
X14446253Y-17479722D02*
X14455777Y-17460674D01*
X14455777Y-17460674D02*
X14474825Y-17451150D01*
X14474825Y-17451150D02*
X14512920Y-17451150D01*
X14512920Y-17451150D02*
X14531968Y-17460674D01*
X14531968Y-17460674D02*
X14541491Y-17479722D01*
X14541491Y-17479722D02*
X14541491Y-17498770D01*
X14541491Y-17498770D02*
X14446253Y-17517817D01*
X14617682Y-17574960D02*
X14636730Y-17584484D01*
X14636730Y-17584484D02*
X14674825Y-17584484D01*
X14674825Y-17584484D02*
X14693872Y-17574960D01*
X14693872Y-17574960D02*
X14703396Y-17555912D01*
X14703396Y-17555912D02*
X14703396Y-17546389D01*
X14703396Y-17546389D02*
X14693872Y-17527341D01*
X14693872Y-17527341D02*
X14674825Y-17517817D01*
X14674825Y-17517817D02*
X14646253Y-17517817D01*
X14646253Y-17517817D02*
X14627206Y-17508293D01*
X14627206Y-17508293D02*
X14617682Y-17489246D01*
X14617682Y-17489246D02*
X14617682Y-17479722D01*
X14617682Y-17479722D02*
X14627206Y-17460674D01*
X14627206Y-17460674D02*
X14646253Y-17451150D01*
X14646253Y-17451150D02*
X14674825Y-17451150D01*
X14674825Y-17451150D02*
X14693872Y-17460674D01*
X14770063Y-17660674D02*
X14779587Y-17651150D01*
X14779587Y-17651150D02*
X14798634Y-17622579D01*
X14798634Y-17622579D02*
X14808158Y-17603531D01*
X14808158Y-17603531D02*
X14817682Y-17574960D01*
X14817682Y-17574960D02*
X14827206Y-17527341D01*
X14827206Y-17527341D02*
X14827206Y-17489246D01*
X14827206Y-17489246D02*
X14817682Y-17441627D01*
X14817682Y-17441627D02*
X14808158Y-17413055D01*
X14808158Y-17413055D02*
X14798634Y-17394008D01*
X14798634Y-17394008D02*
X14779587Y-17365436D01*
X14779587Y-17365436D02*
X14770063Y-17355912D01*
M02*
