%TF.GenerationSoftware,KiCad,Pcbnew,8.0.1*%
%TF.CreationDate,2024-03-19T23:03:32+08:00*%
%TF.ProjectId,SmallGeneral,536d616c-6c47-4656-9e65-72616c2e6b69,4*%
%TF.SameCoordinates,Original*%
%TF.FileFunction,Legend,Bot*%
%TF.FilePolarity,Positive*%
%FSLAX46Y46*%
G04 Gerber Fmt 4.6, Leading zero omitted, Abs format (unit mm)*
G04 Created by KiCad (PCBNEW 8.0.1) date 2024-03-19 23:03:32*
%MOMM*%
%LPD*%
G01*
G04 APERTURE LIST*
%ADD10C,0.100000*%
%ADD11C,0.150000*%
%ADD12C,0.300000*%
%ADD13C,0.400000*%
%ADD14C,0.000000*%
%TA.AperFunction,Profile*%
%ADD15C,0.100000*%
%TD*%
G04 APERTURE END LIST*
D10*
D11*
X177002200Y-166007200D02*
X285002200Y-166007200D01*
X285002200Y-198007200D01*
X177002200Y-198007200D01*
X177002200Y-166007200D01*
D10*
D11*
X10000000Y-10000000D02*
X287002200Y-10000000D01*
X287002200Y-200007200D01*
X10000000Y-200007200D01*
X10000000Y-10000000D01*
D10*
D11*
X12000000Y-12000000D02*
X285002200Y-12000000D01*
X285002200Y-198007200D01*
X12000000Y-198007200D01*
X12000000Y-12000000D01*
D10*
D11*
X60000000Y-12000000D02*
X60000000Y-10000000D01*
D10*
D11*
X110000000Y-12000000D02*
X110000000Y-10000000D01*
D10*
D11*
X160000000Y-12000000D02*
X160000000Y-10000000D01*
D10*
D11*
X210000000Y-12000000D02*
X210000000Y-10000000D01*
D10*
D11*
X260000000Y-12000000D02*
X260000000Y-10000000D01*
D10*
D11*
X36089160Y-11593604D02*
X35346303Y-11593604D01*
X35717731Y-11593604D02*
X35717731Y-10293604D01*
X35717731Y-10293604D02*
X35593922Y-10479319D01*
X35593922Y-10479319D02*
X35470112Y-10603128D01*
X35470112Y-10603128D02*
X35346303Y-10665033D01*
D10*
D11*
X85346303Y-10417414D02*
X85408207Y-10355509D01*
X85408207Y-10355509D02*
X85532017Y-10293604D01*
X85532017Y-10293604D02*
X85841541Y-10293604D01*
X85841541Y-10293604D02*
X85965350Y-10355509D01*
X85965350Y-10355509D02*
X86027255Y-10417414D01*
X86027255Y-10417414D02*
X86089160Y-10541223D01*
X86089160Y-10541223D02*
X86089160Y-10665033D01*
X86089160Y-10665033D02*
X86027255Y-10850747D01*
X86027255Y-10850747D02*
X85284398Y-11593604D01*
X85284398Y-11593604D02*
X86089160Y-11593604D01*
D10*
D11*
X135284398Y-10293604D02*
X136089160Y-10293604D01*
X136089160Y-10293604D02*
X135655826Y-10788842D01*
X135655826Y-10788842D02*
X135841541Y-10788842D01*
X135841541Y-10788842D02*
X135965350Y-10850747D01*
X135965350Y-10850747D02*
X136027255Y-10912652D01*
X136027255Y-10912652D02*
X136089160Y-11036461D01*
X136089160Y-11036461D02*
X136089160Y-11345985D01*
X136089160Y-11345985D02*
X136027255Y-11469795D01*
X136027255Y-11469795D02*
X135965350Y-11531700D01*
X135965350Y-11531700D02*
X135841541Y-11593604D01*
X135841541Y-11593604D02*
X135470112Y-11593604D01*
X135470112Y-11593604D02*
X135346303Y-11531700D01*
X135346303Y-11531700D02*
X135284398Y-11469795D01*
D10*
D11*
X185965350Y-10726938D02*
X185965350Y-11593604D01*
X185655826Y-10231700D02*
X185346303Y-11160271D01*
X185346303Y-11160271D02*
X186151064Y-11160271D01*
D10*
D11*
X236027255Y-10293604D02*
X235408207Y-10293604D01*
X235408207Y-10293604D02*
X235346303Y-10912652D01*
X235346303Y-10912652D02*
X235408207Y-10850747D01*
X235408207Y-10850747D02*
X235532017Y-10788842D01*
X235532017Y-10788842D02*
X235841541Y-10788842D01*
X235841541Y-10788842D02*
X235965350Y-10850747D01*
X235965350Y-10850747D02*
X236027255Y-10912652D01*
X236027255Y-10912652D02*
X236089160Y-11036461D01*
X236089160Y-11036461D02*
X236089160Y-11345985D01*
X236089160Y-11345985D02*
X236027255Y-11469795D01*
X236027255Y-11469795D02*
X235965350Y-11531700D01*
X235965350Y-11531700D02*
X235841541Y-11593604D01*
X235841541Y-11593604D02*
X235532017Y-11593604D01*
X235532017Y-11593604D02*
X235408207Y-11531700D01*
X235408207Y-11531700D02*
X235346303Y-11469795D01*
D10*
D11*
X285965350Y-10293604D02*
X285717731Y-10293604D01*
X285717731Y-10293604D02*
X285593922Y-10355509D01*
X285593922Y-10355509D02*
X285532017Y-10417414D01*
X285532017Y-10417414D02*
X285408207Y-10603128D01*
X285408207Y-10603128D02*
X285346303Y-10850747D01*
X285346303Y-10850747D02*
X285346303Y-11345985D01*
X285346303Y-11345985D02*
X285408207Y-11469795D01*
X285408207Y-11469795D02*
X285470112Y-11531700D01*
X285470112Y-11531700D02*
X285593922Y-11593604D01*
X285593922Y-11593604D02*
X285841541Y-11593604D01*
X285841541Y-11593604D02*
X285965350Y-11531700D01*
X285965350Y-11531700D02*
X286027255Y-11469795D01*
X286027255Y-11469795D02*
X286089160Y-11345985D01*
X286089160Y-11345985D02*
X286089160Y-11036461D01*
X286089160Y-11036461D02*
X286027255Y-10912652D01*
X286027255Y-10912652D02*
X285965350Y-10850747D01*
X285965350Y-10850747D02*
X285841541Y-10788842D01*
X285841541Y-10788842D02*
X285593922Y-10788842D01*
X285593922Y-10788842D02*
X285470112Y-10850747D01*
X285470112Y-10850747D02*
X285408207Y-10912652D01*
X285408207Y-10912652D02*
X285346303Y-11036461D01*
D10*
D11*
X60000000Y-198007200D02*
X60000000Y-200007200D01*
D10*
D11*
X110000000Y-198007200D02*
X110000000Y-200007200D01*
D10*
D11*
X160000000Y-198007200D02*
X160000000Y-200007200D01*
D10*
D11*
X210000000Y-198007200D02*
X210000000Y-200007200D01*
D10*
D11*
X260000000Y-198007200D02*
X260000000Y-200007200D01*
D10*
D11*
X36089160Y-199600804D02*
X35346303Y-199600804D01*
X35717731Y-199600804D02*
X35717731Y-198300804D01*
X35717731Y-198300804D02*
X35593922Y-198486519D01*
X35593922Y-198486519D02*
X35470112Y-198610328D01*
X35470112Y-198610328D02*
X35346303Y-198672233D01*
D10*
D11*
X85346303Y-198424614D02*
X85408207Y-198362709D01*
X85408207Y-198362709D02*
X85532017Y-198300804D01*
X85532017Y-198300804D02*
X85841541Y-198300804D01*
X85841541Y-198300804D02*
X85965350Y-198362709D01*
X85965350Y-198362709D02*
X86027255Y-198424614D01*
X86027255Y-198424614D02*
X86089160Y-198548423D01*
X86089160Y-198548423D02*
X86089160Y-198672233D01*
X86089160Y-198672233D02*
X86027255Y-198857947D01*
X86027255Y-198857947D02*
X85284398Y-199600804D01*
X85284398Y-199600804D02*
X86089160Y-199600804D01*
D10*
D11*
X135284398Y-198300804D02*
X136089160Y-198300804D01*
X136089160Y-198300804D02*
X135655826Y-198796042D01*
X135655826Y-198796042D02*
X135841541Y-198796042D01*
X135841541Y-198796042D02*
X135965350Y-198857947D01*
X135965350Y-198857947D02*
X136027255Y-198919852D01*
X136027255Y-198919852D02*
X136089160Y-199043661D01*
X136089160Y-199043661D02*
X136089160Y-199353185D01*
X136089160Y-199353185D02*
X136027255Y-199476995D01*
X136027255Y-199476995D02*
X135965350Y-199538900D01*
X135965350Y-199538900D02*
X135841541Y-199600804D01*
X135841541Y-199600804D02*
X135470112Y-199600804D01*
X135470112Y-199600804D02*
X135346303Y-199538900D01*
X135346303Y-199538900D02*
X135284398Y-199476995D01*
D10*
D11*
X185965350Y-198734138D02*
X185965350Y-199600804D01*
X185655826Y-198238900D02*
X185346303Y-199167471D01*
X185346303Y-199167471D02*
X186151064Y-199167471D01*
D10*
D11*
X236027255Y-198300804D02*
X235408207Y-198300804D01*
X235408207Y-198300804D02*
X235346303Y-198919852D01*
X235346303Y-198919852D02*
X235408207Y-198857947D01*
X235408207Y-198857947D02*
X235532017Y-198796042D01*
X235532017Y-198796042D02*
X235841541Y-198796042D01*
X235841541Y-198796042D02*
X235965350Y-198857947D01*
X235965350Y-198857947D02*
X236027255Y-198919852D01*
X236027255Y-198919852D02*
X236089160Y-199043661D01*
X236089160Y-199043661D02*
X236089160Y-199353185D01*
X236089160Y-199353185D02*
X236027255Y-199476995D01*
X236027255Y-199476995D02*
X235965350Y-199538900D01*
X235965350Y-199538900D02*
X235841541Y-199600804D01*
X235841541Y-199600804D02*
X235532017Y-199600804D01*
X235532017Y-199600804D02*
X235408207Y-199538900D01*
X235408207Y-199538900D02*
X235346303Y-199476995D01*
D10*
D11*
X285965350Y-198300804D02*
X285717731Y-198300804D01*
X285717731Y-198300804D02*
X285593922Y-198362709D01*
X285593922Y-198362709D02*
X285532017Y-198424614D01*
X285532017Y-198424614D02*
X285408207Y-198610328D01*
X285408207Y-198610328D02*
X285346303Y-198857947D01*
X285346303Y-198857947D02*
X285346303Y-199353185D01*
X285346303Y-199353185D02*
X285408207Y-199476995D01*
X285408207Y-199476995D02*
X285470112Y-199538900D01*
X285470112Y-199538900D02*
X285593922Y-199600804D01*
X285593922Y-199600804D02*
X285841541Y-199600804D01*
X285841541Y-199600804D02*
X285965350Y-199538900D01*
X285965350Y-199538900D02*
X286027255Y-199476995D01*
X286027255Y-199476995D02*
X286089160Y-199353185D01*
X286089160Y-199353185D02*
X286089160Y-199043661D01*
X286089160Y-199043661D02*
X286027255Y-198919852D01*
X286027255Y-198919852D02*
X285965350Y-198857947D01*
X285965350Y-198857947D02*
X285841541Y-198796042D01*
X285841541Y-198796042D02*
X285593922Y-198796042D01*
X285593922Y-198796042D02*
X285470112Y-198857947D01*
X285470112Y-198857947D02*
X285408207Y-198919852D01*
X285408207Y-198919852D02*
X285346303Y-199043661D01*
D10*
D11*
X10000000Y-60000000D02*
X12000000Y-60000000D01*
D10*
D11*
X10000000Y-110000000D02*
X12000000Y-110000000D01*
D10*
D11*
X10000000Y-160000000D02*
X12000000Y-160000000D01*
D10*
D11*
X10690476Y-35222176D02*
X11309523Y-35222176D01*
X10566666Y-35593604D02*
X10999999Y-34293604D01*
X10999999Y-34293604D02*
X11433333Y-35593604D01*
D10*
D11*
X11092857Y-84912652D02*
X11278571Y-84974557D01*
X11278571Y-84974557D02*
X11340476Y-85036461D01*
X11340476Y-85036461D02*
X11402380Y-85160271D01*
X11402380Y-85160271D02*
X11402380Y-85345985D01*
X11402380Y-85345985D02*
X11340476Y-85469795D01*
X11340476Y-85469795D02*
X11278571Y-85531700D01*
X11278571Y-85531700D02*
X11154761Y-85593604D01*
X11154761Y-85593604D02*
X10659523Y-85593604D01*
X10659523Y-85593604D02*
X10659523Y-84293604D01*
X10659523Y-84293604D02*
X11092857Y-84293604D01*
X11092857Y-84293604D02*
X11216666Y-84355509D01*
X11216666Y-84355509D02*
X11278571Y-84417414D01*
X11278571Y-84417414D02*
X11340476Y-84541223D01*
X11340476Y-84541223D02*
X11340476Y-84665033D01*
X11340476Y-84665033D02*
X11278571Y-84788842D01*
X11278571Y-84788842D02*
X11216666Y-84850747D01*
X11216666Y-84850747D02*
X11092857Y-84912652D01*
X11092857Y-84912652D02*
X10659523Y-84912652D01*
D10*
D11*
X11402380Y-135469795D02*
X11340476Y-135531700D01*
X11340476Y-135531700D02*
X11154761Y-135593604D01*
X11154761Y-135593604D02*
X11030952Y-135593604D01*
X11030952Y-135593604D02*
X10845238Y-135531700D01*
X10845238Y-135531700D02*
X10721428Y-135407890D01*
X10721428Y-135407890D02*
X10659523Y-135284080D01*
X10659523Y-135284080D02*
X10597619Y-135036461D01*
X10597619Y-135036461D02*
X10597619Y-134850747D01*
X10597619Y-134850747D02*
X10659523Y-134603128D01*
X10659523Y-134603128D02*
X10721428Y-134479319D01*
X10721428Y-134479319D02*
X10845238Y-134355509D01*
X10845238Y-134355509D02*
X11030952Y-134293604D01*
X11030952Y-134293604D02*
X11154761Y-134293604D01*
X11154761Y-134293604D02*
X11340476Y-134355509D01*
X11340476Y-134355509D02*
X11402380Y-134417414D01*
D10*
D11*
X10659523Y-185593604D02*
X10659523Y-184293604D01*
X10659523Y-184293604D02*
X10969047Y-184293604D01*
X10969047Y-184293604D02*
X11154761Y-184355509D01*
X11154761Y-184355509D02*
X11278571Y-184479319D01*
X11278571Y-184479319D02*
X11340476Y-184603128D01*
X11340476Y-184603128D02*
X11402380Y-184850747D01*
X11402380Y-184850747D02*
X11402380Y-185036461D01*
X11402380Y-185036461D02*
X11340476Y-185284080D01*
X11340476Y-185284080D02*
X11278571Y-185407890D01*
X11278571Y-185407890D02*
X11154761Y-185531700D01*
X11154761Y-185531700D02*
X10969047Y-185593604D01*
X10969047Y-185593604D02*
X10659523Y-185593604D01*
D10*
D11*
X287002200Y-60000000D02*
X285002200Y-60000000D01*
D10*
D11*
X287002200Y-110000000D02*
X285002200Y-110000000D01*
D10*
D11*
X287002200Y-160000000D02*
X285002200Y-160000000D01*
D10*
D11*
X285692676Y-35222176D02*
X286311723Y-35222176D01*
X285568866Y-35593604D02*
X286002199Y-34293604D01*
X286002199Y-34293604D02*
X286435533Y-35593604D01*
D10*
D11*
X286095057Y-84912652D02*
X286280771Y-84974557D01*
X286280771Y-84974557D02*
X286342676Y-85036461D01*
X286342676Y-85036461D02*
X286404580Y-85160271D01*
X286404580Y-85160271D02*
X286404580Y-85345985D01*
X286404580Y-85345985D02*
X286342676Y-85469795D01*
X286342676Y-85469795D02*
X286280771Y-85531700D01*
X286280771Y-85531700D02*
X286156961Y-85593604D01*
X286156961Y-85593604D02*
X285661723Y-85593604D01*
X285661723Y-85593604D02*
X285661723Y-84293604D01*
X285661723Y-84293604D02*
X286095057Y-84293604D01*
X286095057Y-84293604D02*
X286218866Y-84355509D01*
X286218866Y-84355509D02*
X286280771Y-84417414D01*
X286280771Y-84417414D02*
X286342676Y-84541223D01*
X286342676Y-84541223D02*
X286342676Y-84665033D01*
X286342676Y-84665033D02*
X286280771Y-84788842D01*
X286280771Y-84788842D02*
X286218866Y-84850747D01*
X286218866Y-84850747D02*
X286095057Y-84912652D01*
X286095057Y-84912652D02*
X285661723Y-84912652D01*
D10*
D11*
X286404580Y-135469795D02*
X286342676Y-135531700D01*
X286342676Y-135531700D02*
X286156961Y-135593604D01*
X286156961Y-135593604D02*
X286033152Y-135593604D01*
X286033152Y-135593604D02*
X285847438Y-135531700D01*
X285847438Y-135531700D02*
X285723628Y-135407890D01*
X285723628Y-135407890D02*
X285661723Y-135284080D01*
X285661723Y-135284080D02*
X285599819Y-135036461D01*
X285599819Y-135036461D02*
X285599819Y-134850747D01*
X285599819Y-134850747D02*
X285661723Y-134603128D01*
X285661723Y-134603128D02*
X285723628Y-134479319D01*
X285723628Y-134479319D02*
X285847438Y-134355509D01*
X285847438Y-134355509D02*
X286033152Y-134293604D01*
X286033152Y-134293604D02*
X286156961Y-134293604D01*
X286156961Y-134293604D02*
X286342676Y-134355509D01*
X286342676Y-134355509D02*
X286404580Y-134417414D01*
D10*
D11*
X285661723Y-185593604D02*
X285661723Y-184293604D01*
X285661723Y-184293604D02*
X285971247Y-184293604D01*
X285971247Y-184293604D02*
X286156961Y-184355509D01*
X286156961Y-184355509D02*
X286280771Y-184479319D01*
X286280771Y-184479319D02*
X286342676Y-184603128D01*
X286342676Y-184603128D02*
X286404580Y-184850747D01*
X286404580Y-184850747D02*
X286404580Y-185036461D01*
X286404580Y-185036461D02*
X286342676Y-185284080D01*
X286342676Y-185284080D02*
X286280771Y-185407890D01*
X286280771Y-185407890D02*
X286156961Y-185531700D01*
X286156961Y-185531700D02*
X285971247Y-185593604D01*
X285971247Y-185593604D02*
X285661723Y-185593604D01*
D10*
D11*
X200458026Y-193793328D02*
X200458026Y-192293328D01*
X200458026Y-192293328D02*
X200815169Y-192293328D01*
X200815169Y-192293328D02*
X201029455Y-192364757D01*
X201029455Y-192364757D02*
X201172312Y-192507614D01*
X201172312Y-192507614D02*
X201243741Y-192650471D01*
X201243741Y-192650471D02*
X201315169Y-192936185D01*
X201315169Y-192936185D02*
X201315169Y-193150471D01*
X201315169Y-193150471D02*
X201243741Y-193436185D01*
X201243741Y-193436185D02*
X201172312Y-193579042D01*
X201172312Y-193579042D02*
X201029455Y-193721900D01*
X201029455Y-193721900D02*
X200815169Y-193793328D01*
X200815169Y-193793328D02*
X200458026Y-193793328D01*
X202600884Y-193793328D02*
X202600884Y-193007614D01*
X202600884Y-193007614D02*
X202529455Y-192864757D01*
X202529455Y-192864757D02*
X202386598Y-192793328D01*
X202386598Y-192793328D02*
X202100884Y-192793328D01*
X202100884Y-192793328D02*
X201958026Y-192864757D01*
X202600884Y-193721900D02*
X202458026Y-193793328D01*
X202458026Y-193793328D02*
X202100884Y-193793328D01*
X202100884Y-193793328D02*
X201958026Y-193721900D01*
X201958026Y-193721900D02*
X201886598Y-193579042D01*
X201886598Y-193579042D02*
X201886598Y-193436185D01*
X201886598Y-193436185D02*
X201958026Y-193293328D01*
X201958026Y-193293328D02*
X202100884Y-193221900D01*
X202100884Y-193221900D02*
X202458026Y-193221900D01*
X202458026Y-193221900D02*
X202600884Y-193150471D01*
X203100884Y-192793328D02*
X203672312Y-192793328D01*
X203315169Y-192293328D02*
X203315169Y-193579042D01*
X203315169Y-193579042D02*
X203386598Y-193721900D01*
X203386598Y-193721900D02*
X203529455Y-193793328D01*
X203529455Y-193793328D02*
X203672312Y-193793328D01*
X204743741Y-193721900D02*
X204600884Y-193793328D01*
X204600884Y-193793328D02*
X204315170Y-193793328D01*
X204315170Y-193793328D02*
X204172312Y-193721900D01*
X204172312Y-193721900D02*
X204100884Y-193579042D01*
X204100884Y-193579042D02*
X204100884Y-193007614D01*
X204100884Y-193007614D02*
X204172312Y-192864757D01*
X204172312Y-192864757D02*
X204315170Y-192793328D01*
X204315170Y-192793328D02*
X204600884Y-192793328D01*
X204600884Y-192793328D02*
X204743741Y-192864757D01*
X204743741Y-192864757D02*
X204815170Y-193007614D01*
X204815170Y-193007614D02*
X204815170Y-193150471D01*
X204815170Y-193150471D02*
X204100884Y-193293328D01*
X205458026Y-193650471D02*
X205529455Y-193721900D01*
X205529455Y-193721900D02*
X205458026Y-193793328D01*
X205458026Y-193793328D02*
X205386598Y-193721900D01*
X205386598Y-193721900D02*
X205458026Y-193650471D01*
X205458026Y-193650471D02*
X205458026Y-193793328D01*
X205458026Y-192864757D02*
X205529455Y-192936185D01*
X205529455Y-192936185D02*
X205458026Y-193007614D01*
X205458026Y-193007614D02*
X205386598Y-192936185D01*
X205386598Y-192936185D02*
X205458026Y-192864757D01*
X205458026Y-192864757D02*
X205458026Y-193007614D01*
X207243741Y-192436185D02*
X207315169Y-192364757D01*
X207315169Y-192364757D02*
X207458027Y-192293328D01*
X207458027Y-192293328D02*
X207815169Y-192293328D01*
X207815169Y-192293328D02*
X207958027Y-192364757D01*
X207958027Y-192364757D02*
X208029455Y-192436185D01*
X208029455Y-192436185D02*
X208100884Y-192579042D01*
X208100884Y-192579042D02*
X208100884Y-192721900D01*
X208100884Y-192721900D02*
X208029455Y-192936185D01*
X208029455Y-192936185D02*
X207172312Y-193793328D01*
X207172312Y-193793328D02*
X208100884Y-193793328D01*
X209029455Y-192293328D02*
X209172312Y-192293328D01*
X209172312Y-192293328D02*
X209315169Y-192364757D01*
X209315169Y-192364757D02*
X209386598Y-192436185D01*
X209386598Y-192436185D02*
X209458026Y-192579042D01*
X209458026Y-192579042D02*
X209529455Y-192864757D01*
X209529455Y-192864757D02*
X209529455Y-193221900D01*
X209529455Y-193221900D02*
X209458026Y-193507614D01*
X209458026Y-193507614D02*
X209386598Y-193650471D01*
X209386598Y-193650471D02*
X209315169Y-193721900D01*
X209315169Y-193721900D02*
X209172312Y-193793328D01*
X209172312Y-193793328D02*
X209029455Y-193793328D01*
X209029455Y-193793328D02*
X208886598Y-193721900D01*
X208886598Y-193721900D02*
X208815169Y-193650471D01*
X208815169Y-193650471D02*
X208743740Y-193507614D01*
X208743740Y-193507614D02*
X208672312Y-193221900D01*
X208672312Y-193221900D02*
X208672312Y-192864757D01*
X208672312Y-192864757D02*
X208743740Y-192579042D01*
X208743740Y-192579042D02*
X208815169Y-192436185D01*
X208815169Y-192436185D02*
X208886598Y-192364757D01*
X208886598Y-192364757D02*
X209029455Y-192293328D01*
X210100883Y-192436185D02*
X210172311Y-192364757D01*
X210172311Y-192364757D02*
X210315169Y-192293328D01*
X210315169Y-192293328D02*
X210672311Y-192293328D01*
X210672311Y-192293328D02*
X210815169Y-192364757D01*
X210815169Y-192364757D02*
X210886597Y-192436185D01*
X210886597Y-192436185D02*
X210958026Y-192579042D01*
X210958026Y-192579042D02*
X210958026Y-192721900D01*
X210958026Y-192721900D02*
X210886597Y-192936185D01*
X210886597Y-192936185D02*
X210029454Y-193793328D01*
X210029454Y-193793328D02*
X210958026Y-193793328D01*
X212243740Y-192793328D02*
X212243740Y-193793328D01*
X211886597Y-192221900D02*
X211529454Y-193293328D01*
X211529454Y-193293328D02*
X212458025Y-193293328D01*
X213029453Y-193221900D02*
X214172311Y-193221900D01*
X215172311Y-192293328D02*
X215315168Y-192293328D01*
X215315168Y-192293328D02*
X215458025Y-192364757D01*
X215458025Y-192364757D02*
X215529454Y-192436185D01*
X215529454Y-192436185D02*
X215600882Y-192579042D01*
X215600882Y-192579042D02*
X215672311Y-192864757D01*
X215672311Y-192864757D02*
X215672311Y-193221900D01*
X215672311Y-193221900D02*
X215600882Y-193507614D01*
X215600882Y-193507614D02*
X215529454Y-193650471D01*
X215529454Y-193650471D02*
X215458025Y-193721900D01*
X215458025Y-193721900D02*
X215315168Y-193793328D01*
X215315168Y-193793328D02*
X215172311Y-193793328D01*
X215172311Y-193793328D02*
X215029454Y-193721900D01*
X215029454Y-193721900D02*
X214958025Y-193650471D01*
X214958025Y-193650471D02*
X214886596Y-193507614D01*
X214886596Y-193507614D02*
X214815168Y-193221900D01*
X214815168Y-193221900D02*
X214815168Y-192864757D01*
X214815168Y-192864757D02*
X214886596Y-192579042D01*
X214886596Y-192579042D02*
X214958025Y-192436185D01*
X214958025Y-192436185D02*
X215029454Y-192364757D01*
X215029454Y-192364757D02*
X215172311Y-192293328D01*
X216243739Y-192436185D02*
X216315167Y-192364757D01*
X216315167Y-192364757D02*
X216458025Y-192293328D01*
X216458025Y-192293328D02*
X216815167Y-192293328D01*
X216815167Y-192293328D02*
X216958025Y-192364757D01*
X216958025Y-192364757D02*
X217029453Y-192436185D01*
X217029453Y-192436185D02*
X217100882Y-192579042D01*
X217100882Y-192579042D02*
X217100882Y-192721900D01*
X217100882Y-192721900D02*
X217029453Y-192936185D01*
X217029453Y-192936185D02*
X216172310Y-193793328D01*
X216172310Y-193793328D02*
X217100882Y-193793328D01*
X217743738Y-193221900D02*
X218886596Y-193221900D01*
X219529453Y-192436185D02*
X219600881Y-192364757D01*
X219600881Y-192364757D02*
X219743739Y-192293328D01*
X219743739Y-192293328D02*
X220100881Y-192293328D01*
X220100881Y-192293328D02*
X220243739Y-192364757D01*
X220243739Y-192364757D02*
X220315167Y-192436185D01*
X220315167Y-192436185D02*
X220386596Y-192579042D01*
X220386596Y-192579042D02*
X220386596Y-192721900D01*
X220386596Y-192721900D02*
X220315167Y-192936185D01*
X220315167Y-192936185D02*
X219458024Y-193793328D01*
X219458024Y-193793328D02*
X220386596Y-193793328D01*
X221815167Y-193793328D02*
X220958024Y-193793328D01*
X221386595Y-193793328D02*
X221386595Y-192293328D01*
X221386595Y-192293328D02*
X221243738Y-192507614D01*
X221243738Y-192507614D02*
X221100881Y-192650471D01*
X221100881Y-192650471D02*
X220958024Y-192721900D01*
D10*
D11*
X177002200Y-194507200D02*
X285002200Y-194507200D01*
D10*
D11*
X178458026Y-196593328D02*
X178458026Y-195093328D01*
X179315169Y-196593328D02*
X178672312Y-195736185D01*
X179315169Y-195093328D02*
X178458026Y-195950471D01*
X179958026Y-196593328D02*
X179958026Y-195593328D01*
X179958026Y-195093328D02*
X179886598Y-195164757D01*
X179886598Y-195164757D02*
X179958026Y-195236185D01*
X179958026Y-195236185D02*
X180029455Y-195164757D01*
X180029455Y-195164757D02*
X179958026Y-195093328D01*
X179958026Y-195093328D02*
X179958026Y-195236185D01*
X181529455Y-196450471D02*
X181458027Y-196521900D01*
X181458027Y-196521900D02*
X181243741Y-196593328D01*
X181243741Y-196593328D02*
X181100884Y-196593328D01*
X181100884Y-196593328D02*
X180886598Y-196521900D01*
X180886598Y-196521900D02*
X180743741Y-196379042D01*
X180743741Y-196379042D02*
X180672312Y-196236185D01*
X180672312Y-196236185D02*
X180600884Y-195950471D01*
X180600884Y-195950471D02*
X180600884Y-195736185D01*
X180600884Y-195736185D02*
X180672312Y-195450471D01*
X180672312Y-195450471D02*
X180743741Y-195307614D01*
X180743741Y-195307614D02*
X180886598Y-195164757D01*
X180886598Y-195164757D02*
X181100884Y-195093328D01*
X181100884Y-195093328D02*
X181243741Y-195093328D01*
X181243741Y-195093328D02*
X181458027Y-195164757D01*
X181458027Y-195164757D02*
X181529455Y-195236185D01*
X182815170Y-196593328D02*
X182815170Y-195807614D01*
X182815170Y-195807614D02*
X182743741Y-195664757D01*
X182743741Y-195664757D02*
X182600884Y-195593328D01*
X182600884Y-195593328D02*
X182315170Y-195593328D01*
X182315170Y-195593328D02*
X182172312Y-195664757D01*
X182815170Y-196521900D02*
X182672312Y-196593328D01*
X182672312Y-196593328D02*
X182315170Y-196593328D01*
X182315170Y-196593328D02*
X182172312Y-196521900D01*
X182172312Y-196521900D02*
X182100884Y-196379042D01*
X182100884Y-196379042D02*
X182100884Y-196236185D01*
X182100884Y-196236185D02*
X182172312Y-196093328D01*
X182172312Y-196093328D02*
X182315170Y-196021900D01*
X182315170Y-196021900D02*
X182672312Y-196021900D01*
X182672312Y-196021900D02*
X182815170Y-195950471D01*
X184172313Y-196593328D02*
X184172313Y-195093328D01*
X184172313Y-196521900D02*
X184029455Y-196593328D01*
X184029455Y-196593328D02*
X183743741Y-196593328D01*
X183743741Y-196593328D02*
X183600884Y-196521900D01*
X183600884Y-196521900D02*
X183529455Y-196450471D01*
X183529455Y-196450471D02*
X183458027Y-196307614D01*
X183458027Y-196307614D02*
X183458027Y-195879042D01*
X183458027Y-195879042D02*
X183529455Y-195736185D01*
X183529455Y-195736185D02*
X183600884Y-195664757D01*
X183600884Y-195664757D02*
X183743741Y-195593328D01*
X183743741Y-195593328D02*
X184029455Y-195593328D01*
X184029455Y-195593328D02*
X184172313Y-195664757D01*
X186029455Y-195807614D02*
X186529455Y-195807614D01*
X186743741Y-196593328D02*
X186029455Y-196593328D01*
X186029455Y-196593328D02*
X186029455Y-195093328D01*
X186029455Y-195093328D02*
X186743741Y-195093328D01*
X187386598Y-196450471D02*
X187458027Y-196521900D01*
X187458027Y-196521900D02*
X187386598Y-196593328D01*
X187386598Y-196593328D02*
X187315170Y-196521900D01*
X187315170Y-196521900D02*
X187386598Y-196450471D01*
X187386598Y-196450471D02*
X187386598Y-196593328D01*
X188100884Y-196593328D02*
X188100884Y-195093328D01*
X188100884Y-195093328D02*
X188458027Y-195093328D01*
X188458027Y-195093328D02*
X188672313Y-195164757D01*
X188672313Y-195164757D02*
X188815170Y-195307614D01*
X188815170Y-195307614D02*
X188886599Y-195450471D01*
X188886599Y-195450471D02*
X188958027Y-195736185D01*
X188958027Y-195736185D02*
X188958027Y-195950471D01*
X188958027Y-195950471D02*
X188886599Y-196236185D01*
X188886599Y-196236185D02*
X188815170Y-196379042D01*
X188815170Y-196379042D02*
X188672313Y-196521900D01*
X188672313Y-196521900D02*
X188458027Y-196593328D01*
X188458027Y-196593328D02*
X188100884Y-196593328D01*
X189600884Y-196450471D02*
X189672313Y-196521900D01*
X189672313Y-196521900D02*
X189600884Y-196593328D01*
X189600884Y-196593328D02*
X189529456Y-196521900D01*
X189529456Y-196521900D02*
X189600884Y-196450471D01*
X189600884Y-196450471D02*
X189600884Y-196593328D01*
X190243742Y-196164757D02*
X190958028Y-196164757D01*
X190100885Y-196593328D02*
X190600885Y-195093328D01*
X190600885Y-195093328D02*
X191100885Y-196593328D01*
X191600884Y-196450471D02*
X191672313Y-196521900D01*
X191672313Y-196521900D02*
X191600884Y-196593328D01*
X191600884Y-196593328D02*
X191529456Y-196521900D01*
X191529456Y-196521900D02*
X191600884Y-196450471D01*
X191600884Y-196450471D02*
X191600884Y-196593328D01*
X193672313Y-195736185D02*
X193529456Y-195664757D01*
X193529456Y-195664757D02*
X193458027Y-195593328D01*
X193458027Y-195593328D02*
X193386599Y-195450471D01*
X193386599Y-195450471D02*
X193386599Y-195379042D01*
X193386599Y-195379042D02*
X193458027Y-195236185D01*
X193458027Y-195236185D02*
X193529456Y-195164757D01*
X193529456Y-195164757D02*
X193672313Y-195093328D01*
X193672313Y-195093328D02*
X193958027Y-195093328D01*
X193958027Y-195093328D02*
X194100885Y-195164757D01*
X194100885Y-195164757D02*
X194172313Y-195236185D01*
X194172313Y-195236185D02*
X194243742Y-195379042D01*
X194243742Y-195379042D02*
X194243742Y-195450471D01*
X194243742Y-195450471D02*
X194172313Y-195593328D01*
X194172313Y-195593328D02*
X194100885Y-195664757D01*
X194100885Y-195664757D02*
X193958027Y-195736185D01*
X193958027Y-195736185D02*
X193672313Y-195736185D01*
X193672313Y-195736185D02*
X193529456Y-195807614D01*
X193529456Y-195807614D02*
X193458027Y-195879042D01*
X193458027Y-195879042D02*
X193386599Y-196021900D01*
X193386599Y-196021900D02*
X193386599Y-196307614D01*
X193386599Y-196307614D02*
X193458027Y-196450471D01*
X193458027Y-196450471D02*
X193529456Y-196521900D01*
X193529456Y-196521900D02*
X193672313Y-196593328D01*
X193672313Y-196593328D02*
X193958027Y-196593328D01*
X193958027Y-196593328D02*
X194100885Y-196521900D01*
X194100885Y-196521900D02*
X194172313Y-196450471D01*
X194172313Y-196450471D02*
X194243742Y-196307614D01*
X194243742Y-196307614D02*
X194243742Y-196021900D01*
X194243742Y-196021900D02*
X194172313Y-195879042D01*
X194172313Y-195879042D02*
X194100885Y-195807614D01*
X194100885Y-195807614D02*
X193958027Y-195736185D01*
X194886598Y-196450471D02*
X194958027Y-196521900D01*
X194958027Y-196521900D02*
X194886598Y-196593328D01*
X194886598Y-196593328D02*
X194815170Y-196521900D01*
X194815170Y-196521900D02*
X194886598Y-196450471D01*
X194886598Y-196450471D02*
X194886598Y-196593328D01*
X195886599Y-195093328D02*
X196029456Y-195093328D01*
X196029456Y-195093328D02*
X196172313Y-195164757D01*
X196172313Y-195164757D02*
X196243742Y-195236185D01*
X196243742Y-195236185D02*
X196315170Y-195379042D01*
X196315170Y-195379042D02*
X196386599Y-195664757D01*
X196386599Y-195664757D02*
X196386599Y-196021900D01*
X196386599Y-196021900D02*
X196315170Y-196307614D01*
X196315170Y-196307614D02*
X196243742Y-196450471D01*
X196243742Y-196450471D02*
X196172313Y-196521900D01*
X196172313Y-196521900D02*
X196029456Y-196593328D01*
X196029456Y-196593328D02*
X195886599Y-196593328D01*
X195886599Y-196593328D02*
X195743742Y-196521900D01*
X195743742Y-196521900D02*
X195672313Y-196450471D01*
X195672313Y-196450471D02*
X195600884Y-196307614D01*
X195600884Y-196307614D02*
X195529456Y-196021900D01*
X195529456Y-196021900D02*
X195529456Y-195664757D01*
X195529456Y-195664757D02*
X195600884Y-195379042D01*
X195600884Y-195379042D02*
X195672313Y-195236185D01*
X195672313Y-195236185D02*
X195743742Y-195164757D01*
X195743742Y-195164757D02*
X195886599Y-195093328D01*
X197029455Y-196450471D02*
X197100884Y-196521900D01*
X197100884Y-196521900D02*
X197029455Y-196593328D01*
X197029455Y-196593328D02*
X196958027Y-196521900D01*
X196958027Y-196521900D02*
X197029455Y-196450471D01*
X197029455Y-196450471D02*
X197029455Y-196593328D01*
X198529456Y-196593328D02*
X197672313Y-196593328D01*
X198100884Y-196593328D02*
X198100884Y-195093328D01*
X198100884Y-195093328D02*
X197958027Y-195307614D01*
X197958027Y-195307614D02*
X197815170Y-195450471D01*
X197815170Y-195450471D02*
X197672313Y-195521900D01*
D10*
D11*
X177002200Y-191507200D02*
X285002200Y-191507200D01*
D10*
D12*
X264413853Y-193785528D02*
X263913853Y-193071242D01*
X263556710Y-193785528D02*
X263556710Y-192285528D01*
X263556710Y-192285528D02*
X264128139Y-192285528D01*
X264128139Y-192285528D02*
X264270996Y-192356957D01*
X264270996Y-192356957D02*
X264342425Y-192428385D01*
X264342425Y-192428385D02*
X264413853Y-192571242D01*
X264413853Y-192571242D02*
X264413853Y-192785528D01*
X264413853Y-192785528D02*
X264342425Y-192928385D01*
X264342425Y-192928385D02*
X264270996Y-192999814D01*
X264270996Y-192999814D02*
X264128139Y-193071242D01*
X264128139Y-193071242D02*
X263556710Y-193071242D01*
X265628139Y-193714100D02*
X265485282Y-193785528D01*
X265485282Y-193785528D02*
X265199568Y-193785528D01*
X265199568Y-193785528D02*
X265056710Y-193714100D01*
X265056710Y-193714100D02*
X264985282Y-193571242D01*
X264985282Y-193571242D02*
X264985282Y-192999814D01*
X264985282Y-192999814D02*
X265056710Y-192856957D01*
X265056710Y-192856957D02*
X265199568Y-192785528D01*
X265199568Y-192785528D02*
X265485282Y-192785528D01*
X265485282Y-192785528D02*
X265628139Y-192856957D01*
X265628139Y-192856957D02*
X265699568Y-192999814D01*
X265699568Y-192999814D02*
X265699568Y-193142671D01*
X265699568Y-193142671D02*
X264985282Y-193285528D01*
X266199567Y-192785528D02*
X266556710Y-193785528D01*
X266556710Y-193785528D02*
X266913853Y-192785528D01*
X267485281Y-193642671D02*
X267556710Y-193714100D01*
X267556710Y-193714100D02*
X267485281Y-193785528D01*
X267485281Y-193785528D02*
X267413853Y-193714100D01*
X267413853Y-193714100D02*
X267485281Y-193642671D01*
X267485281Y-193642671D02*
X267485281Y-193785528D01*
X267485281Y-192856957D02*
X267556710Y-192928385D01*
X267556710Y-192928385D02*
X267485281Y-192999814D01*
X267485281Y-192999814D02*
X267413853Y-192928385D01*
X267413853Y-192928385D02*
X267485281Y-192856957D01*
X267485281Y-192856957D02*
X267485281Y-192999814D01*
X269985282Y-192785528D02*
X269985282Y-193785528D01*
X269628139Y-192214100D02*
X269270996Y-193285528D01*
X269270996Y-193285528D02*
X270199567Y-193285528D01*
D10*
D11*
X178386598Y-193721900D02*
X178600884Y-193793328D01*
X178600884Y-193793328D02*
X178958026Y-193793328D01*
X178958026Y-193793328D02*
X179100884Y-193721900D01*
X179100884Y-193721900D02*
X179172312Y-193650471D01*
X179172312Y-193650471D02*
X179243741Y-193507614D01*
X179243741Y-193507614D02*
X179243741Y-193364757D01*
X179243741Y-193364757D02*
X179172312Y-193221900D01*
X179172312Y-193221900D02*
X179100884Y-193150471D01*
X179100884Y-193150471D02*
X178958026Y-193079042D01*
X178958026Y-193079042D02*
X178672312Y-193007614D01*
X178672312Y-193007614D02*
X178529455Y-192936185D01*
X178529455Y-192936185D02*
X178458026Y-192864757D01*
X178458026Y-192864757D02*
X178386598Y-192721900D01*
X178386598Y-192721900D02*
X178386598Y-192579042D01*
X178386598Y-192579042D02*
X178458026Y-192436185D01*
X178458026Y-192436185D02*
X178529455Y-192364757D01*
X178529455Y-192364757D02*
X178672312Y-192293328D01*
X178672312Y-192293328D02*
X179029455Y-192293328D01*
X179029455Y-192293328D02*
X179243741Y-192364757D01*
X179886597Y-193793328D02*
X179886597Y-192793328D01*
X179886597Y-192293328D02*
X179815169Y-192364757D01*
X179815169Y-192364757D02*
X179886597Y-192436185D01*
X179886597Y-192436185D02*
X179958026Y-192364757D01*
X179958026Y-192364757D02*
X179886597Y-192293328D01*
X179886597Y-192293328D02*
X179886597Y-192436185D01*
X180458026Y-192793328D02*
X181243741Y-192793328D01*
X181243741Y-192793328D02*
X180458026Y-193793328D01*
X180458026Y-193793328D02*
X181243741Y-193793328D01*
X182386598Y-193721900D02*
X182243741Y-193793328D01*
X182243741Y-193793328D02*
X181958027Y-193793328D01*
X181958027Y-193793328D02*
X181815169Y-193721900D01*
X181815169Y-193721900D02*
X181743741Y-193579042D01*
X181743741Y-193579042D02*
X181743741Y-193007614D01*
X181743741Y-193007614D02*
X181815169Y-192864757D01*
X181815169Y-192864757D02*
X181958027Y-192793328D01*
X181958027Y-192793328D02*
X182243741Y-192793328D01*
X182243741Y-192793328D02*
X182386598Y-192864757D01*
X182386598Y-192864757D02*
X182458027Y-193007614D01*
X182458027Y-193007614D02*
X182458027Y-193150471D01*
X182458027Y-193150471D02*
X181743741Y-193293328D01*
X183100883Y-193650471D02*
X183172312Y-193721900D01*
X183172312Y-193721900D02*
X183100883Y-193793328D01*
X183100883Y-193793328D02*
X183029455Y-193721900D01*
X183029455Y-193721900D02*
X183100883Y-193650471D01*
X183100883Y-193650471D02*
X183100883Y-193793328D01*
X183100883Y-192864757D02*
X183172312Y-192936185D01*
X183172312Y-192936185D02*
X183100883Y-193007614D01*
X183100883Y-193007614D02*
X183029455Y-192936185D01*
X183029455Y-192936185D02*
X183100883Y-192864757D01*
X183100883Y-192864757D02*
X183100883Y-193007614D01*
X184886598Y-193364757D02*
X185600884Y-193364757D01*
X184743741Y-193793328D02*
X185243741Y-192293328D01*
X185243741Y-192293328D02*
X185743741Y-193793328D01*
X186886598Y-192793328D02*
X186886598Y-193793328D01*
X186529455Y-192221900D02*
X186172312Y-193293328D01*
X186172312Y-193293328D02*
X187100883Y-193293328D01*
D10*
D11*
X263458026Y-196593328D02*
X263458026Y-195093328D01*
X264815170Y-196593328D02*
X264815170Y-195093328D01*
X264815170Y-196521900D02*
X264672312Y-196593328D01*
X264672312Y-196593328D02*
X264386598Y-196593328D01*
X264386598Y-196593328D02*
X264243741Y-196521900D01*
X264243741Y-196521900D02*
X264172312Y-196450471D01*
X264172312Y-196450471D02*
X264100884Y-196307614D01*
X264100884Y-196307614D02*
X264100884Y-195879042D01*
X264100884Y-195879042D02*
X264172312Y-195736185D01*
X264172312Y-195736185D02*
X264243741Y-195664757D01*
X264243741Y-195664757D02*
X264386598Y-195593328D01*
X264386598Y-195593328D02*
X264672312Y-195593328D01*
X264672312Y-195593328D02*
X264815170Y-195664757D01*
X265529455Y-196450471D02*
X265600884Y-196521900D01*
X265600884Y-196521900D02*
X265529455Y-196593328D01*
X265529455Y-196593328D02*
X265458027Y-196521900D01*
X265458027Y-196521900D02*
X265529455Y-196450471D01*
X265529455Y-196450471D02*
X265529455Y-196593328D01*
X265529455Y-195664757D02*
X265600884Y-195736185D01*
X265600884Y-195736185D02*
X265529455Y-195807614D01*
X265529455Y-195807614D02*
X265458027Y-195736185D01*
X265458027Y-195736185D02*
X265529455Y-195664757D01*
X265529455Y-195664757D02*
X265529455Y-195807614D01*
X268172313Y-196593328D02*
X267315170Y-196593328D01*
X267743741Y-196593328D02*
X267743741Y-195093328D01*
X267743741Y-195093328D02*
X267600884Y-195307614D01*
X267600884Y-195307614D02*
X267458027Y-195450471D01*
X267458027Y-195450471D02*
X267315170Y-195521900D01*
X269886598Y-195021900D02*
X268600884Y-196950471D01*
X271172313Y-196593328D02*
X270315170Y-196593328D01*
X270743741Y-196593328D02*
X270743741Y-195093328D01*
X270743741Y-195093328D02*
X270600884Y-195307614D01*
X270600884Y-195307614D02*
X270458027Y-195450471D01*
X270458027Y-195450471D02*
X270315170Y-195521900D01*
D10*
D11*
X177002200Y-187507200D02*
X285002200Y-187507200D01*
D10*
D13*
X178693928Y-188211638D02*
X179836785Y-188211638D01*
X179015357Y-190211638D02*
X179265357Y-188211638D01*
X180253452Y-190211638D02*
X180420119Y-188878304D01*
X180503452Y-188211638D02*
X180396309Y-188306876D01*
X180396309Y-188306876D02*
X180479643Y-188402114D01*
X180479643Y-188402114D02*
X180586786Y-188306876D01*
X180586786Y-188306876D02*
X180503452Y-188211638D01*
X180503452Y-188211638D02*
X180479643Y-188402114D01*
X181086786Y-188878304D02*
X181848690Y-188878304D01*
X181455833Y-188211638D02*
X181241548Y-189925923D01*
X181241548Y-189925923D02*
X181312976Y-190116400D01*
X181312976Y-190116400D02*
X181491548Y-190211638D01*
X181491548Y-190211638D02*
X181682024Y-190211638D01*
X182634405Y-190211638D02*
X182455833Y-190116400D01*
X182455833Y-190116400D02*
X182384405Y-189925923D01*
X182384405Y-189925923D02*
X182598690Y-188211638D01*
X184170119Y-190116400D02*
X183967738Y-190211638D01*
X183967738Y-190211638D02*
X183586785Y-190211638D01*
X183586785Y-190211638D02*
X183408214Y-190116400D01*
X183408214Y-190116400D02*
X183336785Y-189925923D01*
X183336785Y-189925923D02*
X183432024Y-189164019D01*
X183432024Y-189164019D02*
X183551071Y-188973542D01*
X183551071Y-188973542D02*
X183753452Y-188878304D01*
X183753452Y-188878304D02*
X184134404Y-188878304D01*
X184134404Y-188878304D02*
X184312976Y-188973542D01*
X184312976Y-188973542D02*
X184384404Y-189164019D01*
X184384404Y-189164019D02*
X184360595Y-189354495D01*
X184360595Y-189354495D02*
X183384404Y-189544971D01*
X185134405Y-190021161D02*
X185217738Y-190116400D01*
X185217738Y-190116400D02*
X185110595Y-190211638D01*
X185110595Y-190211638D02*
X185027262Y-190116400D01*
X185027262Y-190116400D02*
X185134405Y-190021161D01*
X185134405Y-190021161D02*
X185110595Y-190211638D01*
X185265357Y-188973542D02*
X185348690Y-189068780D01*
X185348690Y-189068780D02*
X185241548Y-189164019D01*
X185241548Y-189164019D02*
X185158214Y-189068780D01*
X185158214Y-189068780D02*
X185265357Y-188973542D01*
X185265357Y-188973542D02*
X185241548Y-189164019D01*
X187503453Y-190116400D02*
X187777262Y-190211638D01*
X187777262Y-190211638D02*
X188253453Y-190211638D01*
X188253453Y-190211638D02*
X188455834Y-190116400D01*
X188455834Y-190116400D02*
X188562977Y-190021161D01*
X188562977Y-190021161D02*
X188682024Y-189830685D01*
X188682024Y-189830685D02*
X188705834Y-189640209D01*
X188705834Y-189640209D02*
X188634405Y-189449733D01*
X188634405Y-189449733D02*
X188551072Y-189354495D01*
X188551072Y-189354495D02*
X188372501Y-189259257D01*
X188372501Y-189259257D02*
X188003453Y-189164019D01*
X188003453Y-189164019D02*
X187824881Y-189068780D01*
X187824881Y-189068780D02*
X187741548Y-188973542D01*
X187741548Y-188973542D02*
X187670120Y-188783066D01*
X187670120Y-188783066D02*
X187693929Y-188592590D01*
X187693929Y-188592590D02*
X187812977Y-188402114D01*
X187812977Y-188402114D02*
X187920120Y-188306876D01*
X187920120Y-188306876D02*
X188122501Y-188211638D01*
X188122501Y-188211638D02*
X188598691Y-188211638D01*
X188598691Y-188211638D02*
X188872501Y-188306876D01*
X189491548Y-190211638D02*
X189658215Y-188878304D01*
X189634405Y-189068780D02*
X189741548Y-188973542D01*
X189741548Y-188973542D02*
X189943929Y-188878304D01*
X189943929Y-188878304D02*
X190229643Y-188878304D01*
X190229643Y-188878304D02*
X190408215Y-188973542D01*
X190408215Y-188973542D02*
X190479643Y-189164019D01*
X190479643Y-189164019D02*
X190348691Y-190211638D01*
X190479643Y-189164019D02*
X190598691Y-188973542D01*
X190598691Y-188973542D02*
X190801072Y-188878304D01*
X190801072Y-188878304D02*
X191086786Y-188878304D01*
X191086786Y-188878304D02*
X191265358Y-188973542D01*
X191265358Y-188973542D02*
X191336786Y-189164019D01*
X191336786Y-189164019D02*
X191205834Y-190211638D01*
X193015358Y-190211638D02*
X193146310Y-189164019D01*
X193146310Y-189164019D02*
X193074882Y-188973542D01*
X193074882Y-188973542D02*
X192896310Y-188878304D01*
X192896310Y-188878304D02*
X192515358Y-188878304D01*
X192515358Y-188878304D02*
X192312977Y-188973542D01*
X193027263Y-190116400D02*
X192824882Y-190211638D01*
X192824882Y-190211638D02*
X192348691Y-190211638D01*
X192348691Y-190211638D02*
X192170120Y-190116400D01*
X192170120Y-190116400D02*
X192098691Y-189925923D01*
X192098691Y-189925923D02*
X192122501Y-189735447D01*
X192122501Y-189735447D02*
X192241549Y-189544971D01*
X192241549Y-189544971D02*
X192443930Y-189449733D01*
X192443930Y-189449733D02*
X192920120Y-189449733D01*
X192920120Y-189449733D02*
X193122501Y-189354495D01*
X194253454Y-190211638D02*
X194074882Y-190116400D01*
X194074882Y-190116400D02*
X194003454Y-189925923D01*
X194003454Y-189925923D02*
X194217739Y-188211638D01*
X195301073Y-190211638D02*
X195122501Y-190116400D01*
X195122501Y-190116400D02*
X195051073Y-189925923D01*
X195051073Y-189925923D02*
X195265358Y-188211638D01*
X198872502Y-188306876D02*
X198693930Y-188211638D01*
X198693930Y-188211638D02*
X198408216Y-188211638D01*
X198408216Y-188211638D02*
X198110597Y-188306876D01*
X198110597Y-188306876D02*
X197896311Y-188497352D01*
X197896311Y-188497352D02*
X197777263Y-188687828D01*
X197777263Y-188687828D02*
X197634406Y-189068780D01*
X197634406Y-189068780D02*
X197598692Y-189354495D01*
X197598692Y-189354495D02*
X197646311Y-189735447D01*
X197646311Y-189735447D02*
X197717740Y-189925923D01*
X197717740Y-189925923D02*
X197884406Y-190116400D01*
X197884406Y-190116400D02*
X198158216Y-190211638D01*
X198158216Y-190211638D02*
X198348692Y-190211638D01*
X198348692Y-190211638D02*
X198646311Y-190116400D01*
X198646311Y-190116400D02*
X198753454Y-190021161D01*
X198753454Y-190021161D02*
X198836787Y-189354495D01*
X198836787Y-189354495D02*
X198455835Y-189354495D01*
X200360597Y-190116400D02*
X200158216Y-190211638D01*
X200158216Y-190211638D02*
X199777263Y-190211638D01*
X199777263Y-190211638D02*
X199598692Y-190116400D01*
X199598692Y-190116400D02*
X199527263Y-189925923D01*
X199527263Y-189925923D02*
X199622502Y-189164019D01*
X199622502Y-189164019D02*
X199741549Y-188973542D01*
X199741549Y-188973542D02*
X199943930Y-188878304D01*
X199943930Y-188878304D02*
X200324882Y-188878304D01*
X200324882Y-188878304D02*
X200503454Y-188973542D01*
X200503454Y-188973542D02*
X200574882Y-189164019D01*
X200574882Y-189164019D02*
X200551073Y-189354495D01*
X200551073Y-189354495D02*
X199574882Y-189544971D01*
X201467740Y-188878304D02*
X201301073Y-190211638D01*
X201443930Y-189068780D02*
X201551073Y-188973542D01*
X201551073Y-188973542D02*
X201753454Y-188878304D01*
X201753454Y-188878304D02*
X202039168Y-188878304D01*
X202039168Y-188878304D02*
X202217740Y-188973542D01*
X202217740Y-188973542D02*
X202289168Y-189164019D01*
X202289168Y-189164019D02*
X202158216Y-190211638D01*
X203884407Y-190116400D02*
X203682026Y-190211638D01*
X203682026Y-190211638D02*
X203301073Y-190211638D01*
X203301073Y-190211638D02*
X203122502Y-190116400D01*
X203122502Y-190116400D02*
X203051073Y-189925923D01*
X203051073Y-189925923D02*
X203146312Y-189164019D01*
X203146312Y-189164019D02*
X203265359Y-188973542D01*
X203265359Y-188973542D02*
X203467740Y-188878304D01*
X203467740Y-188878304D02*
X203848692Y-188878304D01*
X203848692Y-188878304D02*
X204027264Y-188973542D01*
X204027264Y-188973542D02*
X204098692Y-189164019D01*
X204098692Y-189164019D02*
X204074883Y-189354495D01*
X204074883Y-189354495D02*
X203098692Y-189544971D01*
X204824883Y-190211638D02*
X204991550Y-188878304D01*
X204943931Y-189259257D02*
X205062978Y-189068780D01*
X205062978Y-189068780D02*
X205170121Y-188973542D01*
X205170121Y-188973542D02*
X205372502Y-188878304D01*
X205372502Y-188878304D02*
X205562978Y-188878304D01*
X206920121Y-190211638D02*
X207051073Y-189164019D01*
X207051073Y-189164019D02*
X206979645Y-188973542D01*
X206979645Y-188973542D02*
X206801073Y-188878304D01*
X206801073Y-188878304D02*
X206420121Y-188878304D01*
X206420121Y-188878304D02*
X206217740Y-188973542D01*
X206932026Y-190116400D02*
X206729645Y-190211638D01*
X206729645Y-190211638D02*
X206253454Y-190211638D01*
X206253454Y-190211638D02*
X206074883Y-190116400D01*
X206074883Y-190116400D02*
X206003454Y-189925923D01*
X206003454Y-189925923D02*
X206027264Y-189735447D01*
X206027264Y-189735447D02*
X206146312Y-189544971D01*
X206146312Y-189544971D02*
X206348693Y-189449733D01*
X206348693Y-189449733D02*
X206824883Y-189449733D01*
X206824883Y-189449733D02*
X207027264Y-189354495D01*
X208158217Y-190211638D02*
X207979645Y-190116400D01*
X207979645Y-190116400D02*
X207908217Y-189925923D01*
X207908217Y-189925923D02*
X208122502Y-188211638D01*
D10*
D11*
X178958026Y-185607614D02*
X178458026Y-185607614D01*
X178458026Y-186393328D02*
X178458026Y-184893328D01*
X178458026Y-184893328D02*
X179172312Y-184893328D01*
X179743740Y-186393328D02*
X179743740Y-185393328D01*
X179743740Y-184893328D02*
X179672312Y-184964757D01*
X179672312Y-184964757D02*
X179743740Y-185036185D01*
X179743740Y-185036185D02*
X179815169Y-184964757D01*
X179815169Y-184964757D02*
X179743740Y-184893328D01*
X179743740Y-184893328D02*
X179743740Y-185036185D01*
X180672312Y-186393328D02*
X180529455Y-186321900D01*
X180529455Y-186321900D02*
X180458026Y-186179042D01*
X180458026Y-186179042D02*
X180458026Y-184893328D01*
X181815169Y-186321900D02*
X181672312Y-186393328D01*
X181672312Y-186393328D02*
X181386598Y-186393328D01*
X181386598Y-186393328D02*
X181243740Y-186321900D01*
X181243740Y-186321900D02*
X181172312Y-186179042D01*
X181172312Y-186179042D02*
X181172312Y-185607614D01*
X181172312Y-185607614D02*
X181243740Y-185464757D01*
X181243740Y-185464757D02*
X181386598Y-185393328D01*
X181386598Y-185393328D02*
X181672312Y-185393328D01*
X181672312Y-185393328D02*
X181815169Y-185464757D01*
X181815169Y-185464757D02*
X181886598Y-185607614D01*
X181886598Y-185607614D02*
X181886598Y-185750471D01*
X181886598Y-185750471D02*
X181172312Y-185893328D01*
X182529454Y-186250471D02*
X182600883Y-186321900D01*
X182600883Y-186321900D02*
X182529454Y-186393328D01*
X182529454Y-186393328D02*
X182458026Y-186321900D01*
X182458026Y-186321900D02*
X182529454Y-186250471D01*
X182529454Y-186250471D02*
X182529454Y-186393328D01*
X182529454Y-185464757D02*
X182600883Y-185536185D01*
X182600883Y-185536185D02*
X182529454Y-185607614D01*
X182529454Y-185607614D02*
X182458026Y-185536185D01*
X182458026Y-185536185D02*
X182529454Y-185464757D01*
X182529454Y-185464757D02*
X182529454Y-185607614D01*
X184315169Y-186321900D02*
X184529455Y-186393328D01*
X184529455Y-186393328D02*
X184886597Y-186393328D01*
X184886597Y-186393328D02*
X185029455Y-186321900D01*
X185029455Y-186321900D02*
X185100883Y-186250471D01*
X185100883Y-186250471D02*
X185172312Y-186107614D01*
X185172312Y-186107614D02*
X185172312Y-185964757D01*
X185172312Y-185964757D02*
X185100883Y-185821900D01*
X185100883Y-185821900D02*
X185029455Y-185750471D01*
X185029455Y-185750471D02*
X184886597Y-185679042D01*
X184886597Y-185679042D02*
X184600883Y-185607614D01*
X184600883Y-185607614D02*
X184458026Y-185536185D01*
X184458026Y-185536185D02*
X184386597Y-185464757D01*
X184386597Y-185464757D02*
X184315169Y-185321900D01*
X184315169Y-185321900D02*
X184315169Y-185179042D01*
X184315169Y-185179042D02*
X184386597Y-185036185D01*
X184386597Y-185036185D02*
X184458026Y-184964757D01*
X184458026Y-184964757D02*
X184600883Y-184893328D01*
X184600883Y-184893328D02*
X184958026Y-184893328D01*
X184958026Y-184893328D02*
X185172312Y-184964757D01*
X185815168Y-186393328D02*
X185815168Y-185393328D01*
X185815168Y-185536185D02*
X185886597Y-185464757D01*
X185886597Y-185464757D02*
X186029454Y-185393328D01*
X186029454Y-185393328D02*
X186243740Y-185393328D01*
X186243740Y-185393328D02*
X186386597Y-185464757D01*
X186386597Y-185464757D02*
X186458026Y-185607614D01*
X186458026Y-185607614D02*
X186458026Y-186393328D01*
X186458026Y-185607614D02*
X186529454Y-185464757D01*
X186529454Y-185464757D02*
X186672311Y-185393328D01*
X186672311Y-185393328D02*
X186886597Y-185393328D01*
X186886597Y-185393328D02*
X187029454Y-185464757D01*
X187029454Y-185464757D02*
X187100883Y-185607614D01*
X187100883Y-185607614D02*
X187100883Y-186393328D01*
X188458026Y-186393328D02*
X188458026Y-185607614D01*
X188458026Y-185607614D02*
X188386597Y-185464757D01*
X188386597Y-185464757D02*
X188243740Y-185393328D01*
X188243740Y-185393328D02*
X187958026Y-185393328D01*
X187958026Y-185393328D02*
X187815168Y-185464757D01*
X188458026Y-186321900D02*
X188315168Y-186393328D01*
X188315168Y-186393328D02*
X187958026Y-186393328D01*
X187958026Y-186393328D02*
X187815168Y-186321900D01*
X187815168Y-186321900D02*
X187743740Y-186179042D01*
X187743740Y-186179042D02*
X187743740Y-186036185D01*
X187743740Y-186036185D02*
X187815168Y-185893328D01*
X187815168Y-185893328D02*
X187958026Y-185821900D01*
X187958026Y-185821900D02*
X188315168Y-185821900D01*
X188315168Y-185821900D02*
X188458026Y-185750471D01*
X189386597Y-186393328D02*
X189243740Y-186321900D01*
X189243740Y-186321900D02*
X189172311Y-186179042D01*
X189172311Y-186179042D02*
X189172311Y-184893328D01*
X190172311Y-186393328D02*
X190029454Y-186321900D01*
X190029454Y-186321900D02*
X189958025Y-186179042D01*
X189958025Y-186179042D02*
X189958025Y-184893328D01*
X191529454Y-184964757D02*
X191386597Y-184893328D01*
X191386597Y-184893328D02*
X191172311Y-184893328D01*
X191172311Y-184893328D02*
X190958025Y-184964757D01*
X190958025Y-184964757D02*
X190815168Y-185107614D01*
X190815168Y-185107614D02*
X190743739Y-185250471D01*
X190743739Y-185250471D02*
X190672311Y-185536185D01*
X190672311Y-185536185D02*
X190672311Y-185750471D01*
X190672311Y-185750471D02*
X190743739Y-186036185D01*
X190743739Y-186036185D02*
X190815168Y-186179042D01*
X190815168Y-186179042D02*
X190958025Y-186321900D01*
X190958025Y-186321900D02*
X191172311Y-186393328D01*
X191172311Y-186393328D02*
X191315168Y-186393328D01*
X191315168Y-186393328D02*
X191529454Y-186321900D01*
X191529454Y-186321900D02*
X191600882Y-186250471D01*
X191600882Y-186250471D02*
X191600882Y-185750471D01*
X191600882Y-185750471D02*
X191315168Y-185750471D01*
X192815168Y-186321900D02*
X192672311Y-186393328D01*
X192672311Y-186393328D02*
X192386597Y-186393328D01*
X192386597Y-186393328D02*
X192243739Y-186321900D01*
X192243739Y-186321900D02*
X192172311Y-186179042D01*
X192172311Y-186179042D02*
X192172311Y-185607614D01*
X192172311Y-185607614D02*
X192243739Y-185464757D01*
X192243739Y-185464757D02*
X192386597Y-185393328D01*
X192386597Y-185393328D02*
X192672311Y-185393328D01*
X192672311Y-185393328D02*
X192815168Y-185464757D01*
X192815168Y-185464757D02*
X192886597Y-185607614D01*
X192886597Y-185607614D02*
X192886597Y-185750471D01*
X192886597Y-185750471D02*
X192172311Y-185893328D01*
X193529453Y-185393328D02*
X193529453Y-186393328D01*
X193529453Y-185536185D02*
X193600882Y-185464757D01*
X193600882Y-185464757D02*
X193743739Y-185393328D01*
X193743739Y-185393328D02*
X193958025Y-185393328D01*
X193958025Y-185393328D02*
X194100882Y-185464757D01*
X194100882Y-185464757D02*
X194172311Y-185607614D01*
X194172311Y-185607614D02*
X194172311Y-186393328D01*
X195458025Y-186321900D02*
X195315168Y-186393328D01*
X195315168Y-186393328D02*
X195029454Y-186393328D01*
X195029454Y-186393328D02*
X194886596Y-186321900D01*
X194886596Y-186321900D02*
X194815168Y-186179042D01*
X194815168Y-186179042D02*
X194815168Y-185607614D01*
X194815168Y-185607614D02*
X194886596Y-185464757D01*
X194886596Y-185464757D02*
X195029454Y-185393328D01*
X195029454Y-185393328D02*
X195315168Y-185393328D01*
X195315168Y-185393328D02*
X195458025Y-185464757D01*
X195458025Y-185464757D02*
X195529454Y-185607614D01*
X195529454Y-185607614D02*
X195529454Y-185750471D01*
X195529454Y-185750471D02*
X194815168Y-185893328D01*
X196172310Y-186393328D02*
X196172310Y-185393328D01*
X196172310Y-185679042D02*
X196243739Y-185536185D01*
X196243739Y-185536185D02*
X196315168Y-185464757D01*
X196315168Y-185464757D02*
X196458025Y-185393328D01*
X196458025Y-185393328D02*
X196600882Y-185393328D01*
X197743739Y-186393328D02*
X197743739Y-185607614D01*
X197743739Y-185607614D02*
X197672310Y-185464757D01*
X197672310Y-185464757D02*
X197529453Y-185393328D01*
X197529453Y-185393328D02*
X197243739Y-185393328D01*
X197243739Y-185393328D02*
X197100881Y-185464757D01*
X197743739Y-186321900D02*
X197600881Y-186393328D01*
X197600881Y-186393328D02*
X197243739Y-186393328D01*
X197243739Y-186393328D02*
X197100881Y-186321900D01*
X197100881Y-186321900D02*
X197029453Y-186179042D01*
X197029453Y-186179042D02*
X197029453Y-186036185D01*
X197029453Y-186036185D02*
X197100881Y-185893328D01*
X197100881Y-185893328D02*
X197243739Y-185821900D01*
X197243739Y-185821900D02*
X197600881Y-185821900D01*
X197600881Y-185821900D02*
X197743739Y-185750471D01*
X198672310Y-186393328D02*
X198529453Y-186321900D01*
X198529453Y-186321900D02*
X198458024Y-186179042D01*
X198458024Y-186179042D02*
X198458024Y-184893328D01*
X199243738Y-186250471D02*
X199315167Y-186321900D01*
X199315167Y-186321900D02*
X199243738Y-186393328D01*
X199243738Y-186393328D02*
X199172310Y-186321900D01*
X199172310Y-186321900D02*
X199243738Y-186250471D01*
X199243738Y-186250471D02*
X199243738Y-186393328D01*
X199958024Y-186393328D02*
X199958024Y-184893328D01*
X200100882Y-185821900D02*
X200529453Y-186393328D01*
X200529453Y-185393328D02*
X199958024Y-185964757D01*
X201172310Y-186393328D02*
X201172310Y-185393328D01*
X201172310Y-184893328D02*
X201100882Y-184964757D01*
X201100882Y-184964757D02*
X201172310Y-185036185D01*
X201172310Y-185036185D02*
X201243739Y-184964757D01*
X201243739Y-184964757D02*
X201172310Y-184893328D01*
X201172310Y-184893328D02*
X201172310Y-185036185D01*
X202529454Y-186321900D02*
X202386596Y-186393328D01*
X202386596Y-186393328D02*
X202100882Y-186393328D01*
X202100882Y-186393328D02*
X201958025Y-186321900D01*
X201958025Y-186321900D02*
X201886596Y-186250471D01*
X201886596Y-186250471D02*
X201815168Y-186107614D01*
X201815168Y-186107614D02*
X201815168Y-185679042D01*
X201815168Y-185679042D02*
X201886596Y-185536185D01*
X201886596Y-185536185D02*
X201958025Y-185464757D01*
X201958025Y-185464757D02*
X202100882Y-185393328D01*
X202100882Y-185393328D02*
X202386596Y-185393328D01*
X202386596Y-185393328D02*
X202529454Y-185464757D01*
X203815168Y-186393328D02*
X203815168Y-185607614D01*
X203815168Y-185607614D02*
X203743739Y-185464757D01*
X203743739Y-185464757D02*
X203600882Y-185393328D01*
X203600882Y-185393328D02*
X203315168Y-185393328D01*
X203315168Y-185393328D02*
X203172310Y-185464757D01*
X203815168Y-186321900D02*
X203672310Y-186393328D01*
X203672310Y-186393328D02*
X203315168Y-186393328D01*
X203315168Y-186393328D02*
X203172310Y-186321900D01*
X203172310Y-186321900D02*
X203100882Y-186179042D01*
X203100882Y-186179042D02*
X203100882Y-186036185D01*
X203100882Y-186036185D02*
X203172310Y-185893328D01*
X203172310Y-185893328D02*
X203315168Y-185821900D01*
X203315168Y-185821900D02*
X203672310Y-185821900D01*
X203672310Y-185821900D02*
X203815168Y-185750471D01*
X205172311Y-186393328D02*
X205172311Y-184893328D01*
X205172311Y-186321900D02*
X205029453Y-186393328D01*
X205029453Y-186393328D02*
X204743739Y-186393328D01*
X204743739Y-186393328D02*
X204600882Y-186321900D01*
X204600882Y-186321900D02*
X204529453Y-186250471D01*
X204529453Y-186250471D02*
X204458025Y-186107614D01*
X204458025Y-186107614D02*
X204458025Y-185679042D01*
X204458025Y-185679042D02*
X204529453Y-185536185D01*
X204529453Y-185536185D02*
X204600882Y-185464757D01*
X204600882Y-185464757D02*
X204743739Y-185393328D01*
X204743739Y-185393328D02*
X205029453Y-185393328D01*
X205029453Y-185393328D02*
X205172311Y-185464757D01*
X205529454Y-186536185D02*
X206672311Y-186536185D01*
X207029453Y-185393328D02*
X207029453Y-186893328D01*
X207029453Y-185464757D02*
X207172311Y-185393328D01*
X207172311Y-185393328D02*
X207458025Y-185393328D01*
X207458025Y-185393328D02*
X207600882Y-185464757D01*
X207600882Y-185464757D02*
X207672311Y-185536185D01*
X207672311Y-185536185D02*
X207743739Y-185679042D01*
X207743739Y-185679042D02*
X207743739Y-186107614D01*
X207743739Y-186107614D02*
X207672311Y-186250471D01*
X207672311Y-186250471D02*
X207600882Y-186321900D01*
X207600882Y-186321900D02*
X207458025Y-186393328D01*
X207458025Y-186393328D02*
X207172311Y-186393328D01*
X207172311Y-186393328D02*
X207029453Y-186321900D01*
X209029454Y-186321900D02*
X208886596Y-186393328D01*
X208886596Y-186393328D02*
X208600882Y-186393328D01*
X208600882Y-186393328D02*
X208458025Y-186321900D01*
X208458025Y-186321900D02*
X208386596Y-186250471D01*
X208386596Y-186250471D02*
X208315168Y-186107614D01*
X208315168Y-186107614D02*
X208315168Y-185679042D01*
X208315168Y-185679042D02*
X208386596Y-185536185D01*
X208386596Y-185536185D02*
X208458025Y-185464757D01*
X208458025Y-185464757D02*
X208600882Y-185393328D01*
X208600882Y-185393328D02*
X208886596Y-185393328D01*
X208886596Y-185393328D02*
X209029454Y-185464757D01*
X209672310Y-186393328D02*
X209672310Y-184893328D01*
X209672310Y-185464757D02*
X209815168Y-185393328D01*
X209815168Y-185393328D02*
X210100882Y-185393328D01*
X210100882Y-185393328D02*
X210243739Y-185464757D01*
X210243739Y-185464757D02*
X210315168Y-185536185D01*
X210315168Y-185536185D02*
X210386596Y-185679042D01*
X210386596Y-185679042D02*
X210386596Y-186107614D01*
X210386596Y-186107614D02*
X210315168Y-186250471D01*
X210315168Y-186250471D02*
X210243739Y-186321900D01*
X210243739Y-186321900D02*
X210100882Y-186393328D01*
X210100882Y-186393328D02*
X209815168Y-186393328D01*
X209815168Y-186393328D02*
X209672310Y-186321900D01*
D10*
D11*
X177002200Y-181507200D02*
X285002200Y-181507200D01*
D10*
D11*
X178386598Y-183621900D02*
X178600884Y-183693328D01*
X178600884Y-183693328D02*
X178958026Y-183693328D01*
X178958026Y-183693328D02*
X179100884Y-183621900D01*
X179100884Y-183621900D02*
X179172312Y-183550471D01*
X179172312Y-183550471D02*
X179243741Y-183407614D01*
X179243741Y-183407614D02*
X179243741Y-183264757D01*
X179243741Y-183264757D02*
X179172312Y-183121900D01*
X179172312Y-183121900D02*
X179100884Y-183050471D01*
X179100884Y-183050471D02*
X178958026Y-182979042D01*
X178958026Y-182979042D02*
X178672312Y-182907614D01*
X178672312Y-182907614D02*
X178529455Y-182836185D01*
X178529455Y-182836185D02*
X178458026Y-182764757D01*
X178458026Y-182764757D02*
X178386598Y-182621900D01*
X178386598Y-182621900D02*
X178386598Y-182479042D01*
X178386598Y-182479042D02*
X178458026Y-182336185D01*
X178458026Y-182336185D02*
X178529455Y-182264757D01*
X178529455Y-182264757D02*
X178672312Y-182193328D01*
X178672312Y-182193328D02*
X179029455Y-182193328D01*
X179029455Y-182193328D02*
X179243741Y-182264757D01*
X179886597Y-183693328D02*
X179886597Y-182193328D01*
X180529455Y-183693328D02*
X180529455Y-182907614D01*
X180529455Y-182907614D02*
X180458026Y-182764757D01*
X180458026Y-182764757D02*
X180315169Y-182693328D01*
X180315169Y-182693328D02*
X180100883Y-182693328D01*
X180100883Y-182693328D02*
X179958026Y-182764757D01*
X179958026Y-182764757D02*
X179886597Y-182836185D01*
X181815169Y-183621900D02*
X181672312Y-183693328D01*
X181672312Y-183693328D02*
X181386598Y-183693328D01*
X181386598Y-183693328D02*
X181243740Y-183621900D01*
X181243740Y-183621900D02*
X181172312Y-183479042D01*
X181172312Y-183479042D02*
X181172312Y-182907614D01*
X181172312Y-182907614D02*
X181243740Y-182764757D01*
X181243740Y-182764757D02*
X181386598Y-182693328D01*
X181386598Y-182693328D02*
X181672312Y-182693328D01*
X181672312Y-182693328D02*
X181815169Y-182764757D01*
X181815169Y-182764757D02*
X181886598Y-182907614D01*
X181886598Y-182907614D02*
X181886598Y-183050471D01*
X181886598Y-183050471D02*
X181172312Y-183193328D01*
X183100883Y-183621900D02*
X182958026Y-183693328D01*
X182958026Y-183693328D02*
X182672312Y-183693328D01*
X182672312Y-183693328D02*
X182529454Y-183621900D01*
X182529454Y-183621900D02*
X182458026Y-183479042D01*
X182458026Y-183479042D02*
X182458026Y-182907614D01*
X182458026Y-182907614D02*
X182529454Y-182764757D01*
X182529454Y-182764757D02*
X182672312Y-182693328D01*
X182672312Y-182693328D02*
X182958026Y-182693328D01*
X182958026Y-182693328D02*
X183100883Y-182764757D01*
X183100883Y-182764757D02*
X183172312Y-182907614D01*
X183172312Y-182907614D02*
X183172312Y-183050471D01*
X183172312Y-183050471D02*
X182458026Y-183193328D01*
X183600883Y-182693328D02*
X184172311Y-182693328D01*
X183815168Y-182193328D02*
X183815168Y-183479042D01*
X183815168Y-183479042D02*
X183886597Y-183621900D01*
X183886597Y-183621900D02*
X184029454Y-183693328D01*
X184029454Y-183693328D02*
X184172311Y-183693328D01*
X184672311Y-183550471D02*
X184743740Y-183621900D01*
X184743740Y-183621900D02*
X184672311Y-183693328D01*
X184672311Y-183693328D02*
X184600883Y-183621900D01*
X184600883Y-183621900D02*
X184672311Y-183550471D01*
X184672311Y-183550471D02*
X184672311Y-183693328D01*
X184672311Y-182764757D02*
X184743740Y-182836185D01*
X184743740Y-182836185D02*
X184672311Y-182907614D01*
X184672311Y-182907614D02*
X184600883Y-182836185D01*
X184600883Y-182836185D02*
X184672311Y-182764757D01*
X184672311Y-182764757D02*
X184672311Y-182907614D01*
D10*
D12*
X178485282Y-180614100D02*
X178699568Y-180685528D01*
X178699568Y-180685528D02*
X179056710Y-180685528D01*
X179056710Y-180685528D02*
X179199568Y-180614100D01*
X179199568Y-180614100D02*
X179270996Y-180542671D01*
X179270996Y-180542671D02*
X179342425Y-180399814D01*
X179342425Y-180399814D02*
X179342425Y-180256957D01*
X179342425Y-180256957D02*
X179270996Y-180114100D01*
X179270996Y-180114100D02*
X179199568Y-180042671D01*
X179199568Y-180042671D02*
X179056710Y-179971242D01*
X179056710Y-179971242D02*
X178770996Y-179899814D01*
X178770996Y-179899814D02*
X178628139Y-179828385D01*
X178628139Y-179828385D02*
X178556710Y-179756957D01*
X178556710Y-179756957D02*
X178485282Y-179614100D01*
X178485282Y-179614100D02*
X178485282Y-179471242D01*
X178485282Y-179471242D02*
X178556710Y-179328385D01*
X178556710Y-179328385D02*
X178628139Y-179256957D01*
X178628139Y-179256957D02*
X178770996Y-179185528D01*
X178770996Y-179185528D02*
X179128139Y-179185528D01*
X179128139Y-179185528D02*
X179342425Y-179256957D01*
X180628139Y-180614100D02*
X180485281Y-180685528D01*
X180485281Y-180685528D02*
X180199567Y-180685528D01*
X180199567Y-180685528D02*
X180056710Y-180614100D01*
X180056710Y-180614100D02*
X179985281Y-180542671D01*
X179985281Y-180542671D02*
X179913853Y-180399814D01*
X179913853Y-180399814D02*
X179913853Y-179971242D01*
X179913853Y-179971242D02*
X179985281Y-179828385D01*
X179985281Y-179828385D02*
X180056710Y-179756957D01*
X180056710Y-179756957D02*
X180199567Y-179685528D01*
X180199567Y-179685528D02*
X180485281Y-179685528D01*
X180485281Y-179685528D02*
X180628139Y-179756957D01*
X181485281Y-180685528D02*
X181342424Y-180614100D01*
X181342424Y-180614100D02*
X181270995Y-180542671D01*
X181270995Y-180542671D02*
X181199567Y-180399814D01*
X181199567Y-180399814D02*
X181199567Y-179971242D01*
X181199567Y-179971242D02*
X181270995Y-179828385D01*
X181270995Y-179828385D02*
X181342424Y-179756957D01*
X181342424Y-179756957D02*
X181485281Y-179685528D01*
X181485281Y-179685528D02*
X181699567Y-179685528D01*
X181699567Y-179685528D02*
X181842424Y-179756957D01*
X181842424Y-179756957D02*
X181913853Y-179828385D01*
X181913853Y-179828385D02*
X181985281Y-179971242D01*
X181985281Y-179971242D02*
X181985281Y-180399814D01*
X181985281Y-180399814D02*
X181913853Y-180542671D01*
X181913853Y-180542671D02*
X181842424Y-180614100D01*
X181842424Y-180614100D02*
X181699567Y-180685528D01*
X181699567Y-180685528D02*
X181485281Y-180685528D01*
X182413853Y-179685528D02*
X182985281Y-179685528D01*
X182628138Y-179185528D02*
X182628138Y-180471242D01*
X182628138Y-180471242D02*
X182699567Y-180614100D01*
X182699567Y-180614100D02*
X182842424Y-180685528D01*
X182842424Y-180685528D02*
X182985281Y-180685528D01*
X183270996Y-179685528D02*
X183842424Y-179685528D01*
X183485281Y-179185528D02*
X183485281Y-180471242D01*
X183485281Y-180471242D02*
X183556710Y-180614100D01*
X183556710Y-180614100D02*
X183699567Y-180685528D01*
X183699567Y-180685528D02*
X183842424Y-180685528D01*
X186342424Y-180542671D02*
X186270996Y-180614100D01*
X186270996Y-180614100D02*
X186056710Y-180685528D01*
X186056710Y-180685528D02*
X185913853Y-180685528D01*
X185913853Y-180685528D02*
X185699567Y-180614100D01*
X185699567Y-180614100D02*
X185556710Y-180471242D01*
X185556710Y-180471242D02*
X185485281Y-180328385D01*
X185485281Y-180328385D02*
X185413853Y-180042671D01*
X185413853Y-180042671D02*
X185413853Y-179828385D01*
X185413853Y-179828385D02*
X185485281Y-179542671D01*
X185485281Y-179542671D02*
X185556710Y-179399814D01*
X185556710Y-179399814D02*
X185699567Y-179256957D01*
X185699567Y-179256957D02*
X185913853Y-179185528D01*
X185913853Y-179185528D02*
X186056710Y-179185528D01*
X186056710Y-179185528D02*
X186270996Y-179256957D01*
X186270996Y-179256957D02*
X186342424Y-179328385D01*
X187413853Y-179185528D02*
X187413853Y-180256957D01*
X187413853Y-180256957D02*
X187342424Y-180471242D01*
X187342424Y-180471242D02*
X187199567Y-180614100D01*
X187199567Y-180614100D02*
X186985281Y-180685528D01*
X186985281Y-180685528D02*
X186842424Y-180685528D01*
X187985281Y-179185528D02*
X188985281Y-180685528D01*
X188985281Y-179185528D02*
X187985281Y-180685528D01*
D10*
D11*
D10*
D11*
D10*
D11*
D10*
D11*
D10*
D11*
X197002200Y-191507200D02*
X197002200Y-194507200D01*
D10*
D11*
X261002200Y-191507200D02*
X261002200Y-198007200D01*
D12*
X166588346Y-143678328D02*
X167088346Y-142964042D01*
X167445489Y-143678328D02*
X167445489Y-142178328D01*
X167445489Y-142178328D02*
X166874060Y-142178328D01*
X166874060Y-142178328D02*
X166731203Y-142249757D01*
X166731203Y-142249757D02*
X166659774Y-142321185D01*
X166659774Y-142321185D02*
X166588346Y-142464042D01*
X166588346Y-142464042D02*
X166588346Y-142678328D01*
X166588346Y-142678328D02*
X166659774Y-142821185D01*
X166659774Y-142821185D02*
X166731203Y-142892614D01*
X166731203Y-142892614D02*
X166874060Y-142964042D01*
X166874060Y-142964042D02*
X167445489Y-142964042D01*
X165374060Y-143606900D02*
X165516917Y-143678328D01*
X165516917Y-143678328D02*
X165802632Y-143678328D01*
X165802632Y-143678328D02*
X165945489Y-143606900D01*
X165945489Y-143606900D02*
X166016917Y-143464042D01*
X166016917Y-143464042D02*
X166016917Y-142892614D01*
X166016917Y-142892614D02*
X165945489Y-142749757D01*
X165945489Y-142749757D02*
X165802632Y-142678328D01*
X165802632Y-142678328D02*
X165516917Y-142678328D01*
X165516917Y-142678328D02*
X165374060Y-142749757D01*
X165374060Y-142749757D02*
X165302632Y-142892614D01*
X165302632Y-142892614D02*
X165302632Y-143035471D01*
X165302632Y-143035471D02*
X166016917Y-143178328D01*
X164802632Y-142678328D02*
X164445489Y-143678328D01*
X164445489Y-143678328D02*
X164088346Y-142678328D01*
X162874061Y-142678328D02*
X162874061Y-143678328D01*
X163231203Y-142106900D02*
X163588346Y-143178328D01*
X163588346Y-143178328D02*
X162659775Y-143178328D01*
X167516917Y-146606900D02*
X167302632Y-146678328D01*
X167302632Y-146678328D02*
X166945489Y-146678328D01*
X166945489Y-146678328D02*
X166802632Y-146606900D01*
X166802632Y-146606900D02*
X166731203Y-146535471D01*
X166731203Y-146535471D02*
X166659774Y-146392614D01*
X166659774Y-146392614D02*
X166659774Y-146249757D01*
X166659774Y-146249757D02*
X166731203Y-146106900D01*
X166731203Y-146106900D02*
X166802632Y-146035471D01*
X166802632Y-146035471D02*
X166945489Y-145964042D01*
X166945489Y-145964042D02*
X167231203Y-145892614D01*
X167231203Y-145892614D02*
X167374060Y-145821185D01*
X167374060Y-145821185D02*
X167445489Y-145749757D01*
X167445489Y-145749757D02*
X167516917Y-145606900D01*
X167516917Y-145606900D02*
X167516917Y-145464042D01*
X167516917Y-145464042D02*
X167445489Y-145321185D01*
X167445489Y-145321185D02*
X167374060Y-145249757D01*
X167374060Y-145249757D02*
X167231203Y-145178328D01*
X167231203Y-145178328D02*
X166874060Y-145178328D01*
X166874060Y-145178328D02*
X166659774Y-145249757D01*
X165374061Y-146606900D02*
X165516918Y-146678328D01*
X165516918Y-146678328D02*
X165802632Y-146678328D01*
X165802632Y-146678328D02*
X165945489Y-146606900D01*
X165945489Y-146606900D02*
X166016918Y-146535471D01*
X166016918Y-146535471D02*
X166088346Y-146392614D01*
X166088346Y-146392614D02*
X166088346Y-145964042D01*
X166088346Y-145964042D02*
X166016918Y-145821185D01*
X166016918Y-145821185D02*
X165945489Y-145749757D01*
X165945489Y-145749757D02*
X165802632Y-145678328D01*
X165802632Y-145678328D02*
X165516918Y-145678328D01*
X165516918Y-145678328D02*
X165374061Y-145749757D01*
X164516918Y-146678328D02*
X164659775Y-146606900D01*
X164659775Y-146606900D02*
X164731204Y-146535471D01*
X164731204Y-146535471D02*
X164802632Y-146392614D01*
X164802632Y-146392614D02*
X164802632Y-145964042D01*
X164802632Y-145964042D02*
X164731204Y-145821185D01*
X164731204Y-145821185D02*
X164659775Y-145749757D01*
X164659775Y-145749757D02*
X164516918Y-145678328D01*
X164516918Y-145678328D02*
X164302632Y-145678328D01*
X164302632Y-145678328D02*
X164159775Y-145749757D01*
X164159775Y-145749757D02*
X164088347Y-145821185D01*
X164088347Y-145821185D02*
X164016918Y-145964042D01*
X164016918Y-145964042D02*
X164016918Y-146392614D01*
X164016918Y-146392614D02*
X164088347Y-146535471D01*
X164088347Y-146535471D02*
X164159775Y-146606900D01*
X164159775Y-146606900D02*
X164302632Y-146678328D01*
X164302632Y-146678328D02*
X164516918Y-146678328D01*
X163588346Y-145678328D02*
X163016918Y-145678328D01*
X163374061Y-145178328D02*
X163374061Y-146464042D01*
X163374061Y-146464042D02*
X163302632Y-146606900D01*
X163302632Y-146606900D02*
X163159775Y-146678328D01*
X163159775Y-146678328D02*
X163016918Y-146678328D01*
X162731203Y-145678328D02*
X162159775Y-145678328D01*
X162516918Y-145178328D02*
X162516918Y-146464042D01*
X162516918Y-146464042D02*
X162445489Y-146606900D01*
X162445489Y-146606900D02*
X162302632Y-146678328D01*
X162302632Y-146678328D02*
X162159775Y-146678328D01*
X159659775Y-146535471D02*
X159731203Y-146606900D01*
X159731203Y-146606900D02*
X159945489Y-146678328D01*
X159945489Y-146678328D02*
X160088346Y-146678328D01*
X160088346Y-146678328D02*
X160302632Y-146606900D01*
X160302632Y-146606900D02*
X160445489Y-146464042D01*
X160445489Y-146464042D02*
X160516918Y-146321185D01*
X160516918Y-146321185D02*
X160588346Y-146035471D01*
X160588346Y-146035471D02*
X160588346Y-145821185D01*
X160588346Y-145821185D02*
X160516918Y-145535471D01*
X160516918Y-145535471D02*
X160445489Y-145392614D01*
X160445489Y-145392614D02*
X160302632Y-145249757D01*
X160302632Y-145249757D02*
X160088346Y-145178328D01*
X160088346Y-145178328D02*
X159945489Y-145178328D01*
X159945489Y-145178328D02*
X159731203Y-145249757D01*
X159731203Y-145249757D02*
X159659775Y-145321185D01*
X158588346Y-145178328D02*
X158588346Y-146249757D01*
X158588346Y-146249757D02*
X158659775Y-146464042D01*
X158659775Y-146464042D02*
X158802632Y-146606900D01*
X158802632Y-146606900D02*
X159016918Y-146678328D01*
X159016918Y-146678328D02*
X159159775Y-146678328D01*
X158016918Y-145178328D02*
X157016918Y-146678328D01*
X157016918Y-145178328D02*
X158016918Y-146678328D01*
D14*
%TO.C,kibuzzard-65C10821*%
G36*
X152561366Y-134105279D02*
G01*
X152674475Y-134156476D01*
X152754644Y-134248948D01*
X152807825Y-134389839D01*
X152837591Y-134589070D01*
X152847512Y-134856564D01*
X152837987Y-135115326D01*
X152809412Y-135307414D01*
X152758216Y-135443939D01*
X152680825Y-135536014D01*
X152570891Y-135589195D01*
X152422062Y-135609039D01*
X152669712Y-135256614D01*
X152266487Y-135256614D01*
X152091862Y-135488389D01*
X152001375Y-135255026D01*
X151981134Y-135080004D01*
X151974387Y-134856564D01*
X151984309Y-134587085D01*
X152014075Y-134388251D01*
X152066859Y-134248551D01*
X152145837Y-134156476D01*
X152257756Y-134105279D01*
X152409362Y-134088214D01*
X152561366Y-134105279D01*
G37*
G36*
X153909021Y-136886447D02*
G01*
X153247562Y-136886447D01*
X151514012Y-136886447D01*
X150444037Y-136886447D01*
X139576046Y-136886447D01*
X138914587Y-136886447D01*
X138914587Y-136224989D01*
X151514012Y-136224989D01*
X151999787Y-136224989D01*
X152177587Y-135945589D01*
X152409362Y-135958289D01*
X152612739Y-135947352D01*
X152782601Y-135914544D01*
X152918950Y-135859864D01*
X153072144Y-135727307D01*
X153172950Y-135526489D01*
X153214401Y-135347630D01*
X153239272Y-135124322D01*
X153247562Y-134856564D01*
X153239272Y-134584925D01*
X153214401Y-134358441D01*
X153172950Y-134177114D01*
X153072144Y-133973517D01*
X152918950Y-133838976D01*
X152782601Y-133783414D01*
X152612739Y-133750076D01*
X152409362Y-133738964D01*
X152205986Y-133750076D01*
X152036124Y-133783414D01*
X151899775Y-133838976D01*
X151746581Y-133973517D01*
X151645775Y-134177114D01*
X151604324Y-134358441D01*
X151579453Y-134584925D01*
X151571162Y-134856564D01*
X151577865Y-135098922D01*
X151597974Y-135305297D01*
X151631487Y-135475689D01*
X151712450Y-135674920D01*
X151834687Y-135815414D01*
X151514012Y-136224989D01*
X138914587Y-136224989D01*
X138914587Y-135329639D01*
X149682037Y-135329639D01*
X149712200Y-135549110D01*
X149770937Y-135712226D01*
X149864997Y-135827320D01*
X150001125Y-135902726D01*
X150190434Y-135944398D01*
X150444037Y-135958289D01*
X150651118Y-135947176D01*
X150823626Y-135913839D01*
X150961562Y-135858276D01*
X151116344Y-135724529D01*
X151218737Y-135523314D01*
X151261071Y-135344455D01*
X151286471Y-135121147D01*
X151294937Y-134853389D01*
X151286471Y-134583514D01*
X151261071Y-134358089D01*
X151218737Y-134177114D01*
X151116344Y-133973517D01*
X150961562Y-133838976D01*
X150823626Y-133783414D01*
X150651118Y-133750076D01*
X150444037Y-133738964D01*
X150193212Y-133753648D01*
X150005887Y-133797701D01*
X149871744Y-133876282D01*
X149780462Y-133994551D01*
X149725694Y-134161635D01*
X149701087Y-134386664D01*
X150097962Y-134386664D01*
X150140031Y-134239820D01*
X150202737Y-134148539D01*
X150299575Y-134100913D01*
X150444037Y-134085038D01*
X150598819Y-134102104D01*
X150713912Y-134153301D01*
X150795272Y-134245773D01*
X150848850Y-134386664D01*
X150878616Y-134585895D01*
X150888537Y-134853389D01*
X150878616Y-135117707D01*
X150848850Y-135313764D01*
X150795272Y-135452273D01*
X150713912Y-135543951D01*
X150598819Y-135595148D01*
X150444037Y-135612214D01*
X150284494Y-135597529D01*
X150180512Y-135553476D01*
X150078912Y-135329639D01*
X149682037Y-135329639D01*
X138914587Y-135329639D01*
X138914587Y-133077505D01*
X139576046Y-133077505D01*
X153247562Y-133077505D01*
X153909021Y-133077505D01*
X153909021Y-136886447D01*
G37*
%TO.C,kibuzzard-65CCCB35*%
G36*
X131899075Y-125355813D02*
G01*
X131403775Y-125355813D01*
X131648250Y-124447763D01*
X131654600Y-124447763D01*
X131899075Y-125355813D01*
G37*
G36*
X149044075Y-125355813D02*
G01*
X148548775Y-125355813D01*
X148793250Y-124447763D01*
X148799600Y-124447763D01*
X149044075Y-125355813D01*
G37*
G36*
X133883450Y-124396963D02*
G01*
X133883450Y-124977988D01*
X133473875Y-124977988D01*
X133278612Y-124909726D01*
X133226225Y-124663663D01*
X133280200Y-124468401D01*
X133480225Y-124403313D01*
X133634212Y-124396170D01*
X133746925Y-124393788D01*
X133883450Y-124396963D01*
G37*
G36*
X154096558Y-126903097D02*
G01*
X153435100Y-126903097D01*
X152600075Y-126903097D01*
X149856875Y-126903097D01*
X147894725Y-126903097D01*
X146084975Y-126903097D01*
X144179975Y-126903097D01*
X142478175Y-126903097D01*
X141097050Y-126903097D01*
X138515775Y-126903097D01*
X136553625Y-126903097D01*
X134705775Y-126903097D01*
X132702350Y-126903097D01*
X130749725Y-126903097D01*
X128939975Y-126903097D01*
X125650675Y-126903097D01*
X125164900Y-126903097D01*
X124503442Y-126903097D01*
X124503442Y-126213063D01*
X130749725Y-126213063D01*
X131152950Y-126213063D01*
X131308525Y-125695539D01*
X131994325Y-125695539D01*
X132149900Y-126213063D01*
X132553125Y-126213063D01*
X132702350Y-126213063D01*
X133137325Y-126213063D01*
X133286550Y-125568538D01*
X133400850Y-125379626D01*
X133511975Y-125342717D01*
X133680250Y-125330413D01*
X133883450Y-125330413D01*
X133883450Y-126213063D01*
X134286675Y-126213063D01*
X134705775Y-126213063D01*
X136109125Y-126213063D01*
X136109125Y-124054063D01*
X136553625Y-124054063D01*
X136553625Y-126213063D01*
X137048925Y-126213063D01*
X137823625Y-124520788D01*
X137833150Y-124520788D01*
X137788700Y-124971638D01*
X137788700Y-126213063D01*
X138179225Y-126213063D01*
X138515775Y-126213063D01*
X139919125Y-126213063D01*
X139919125Y-124650963D01*
X140363625Y-124650963D01*
X140757325Y-124650963D01*
X140804950Y-124481101D01*
X140924013Y-124396963D01*
X141147850Y-124371563D01*
X141302631Y-124389026D01*
X141417725Y-124441413D01*
X141499084Y-124535076D01*
X141552663Y-124676363D01*
X141582428Y-124875595D01*
X141592350Y-125143088D01*
X141581238Y-125404629D01*
X141547900Y-125598701D01*
X141488766Y-125735623D01*
X141400263Y-125825713D01*
X141275247Y-125875720D01*
X141106575Y-125892388D01*
X140911313Y-125878101D01*
X140754150Y-125828888D01*
X140754150Y-125343113D01*
X141201825Y-125343113D01*
X141201825Y-124997038D01*
X140369975Y-124997038D01*
X140369975Y-126073363D01*
X140567619Y-126155913D01*
X140735100Y-126206714D01*
X140901788Y-126232907D01*
X141097050Y-126241639D01*
X141314008Y-126230526D01*
X141408806Y-126213063D01*
X147894725Y-126213063D01*
X148297950Y-126213063D01*
X148453525Y-125695539D01*
X149139325Y-125695539D01*
X149294900Y-126213063D01*
X149698125Y-126213063D01*
X149053600Y-124054063D01*
X149856875Y-124054063D01*
X149856875Y-126213063D01*
X150231525Y-126213063D01*
X150231525Y-125120863D01*
X150193425Y-124558888D01*
X150206125Y-124558888D01*
X150539500Y-125492338D01*
X150860175Y-125492338D01*
X151193550Y-124558888D01*
X151206250Y-124558888D01*
X151168150Y-125120863D01*
X151168150Y-126213063D01*
X151542800Y-126213063D01*
X151542800Y-125635213D01*
X151787275Y-125635213D01*
X151805531Y-125846351D01*
X151860300Y-126003513D01*
X151958328Y-126114638D01*
X152106363Y-126187664D01*
X152316309Y-126228145D01*
X152600075Y-126241639D01*
X152892572Y-126226557D01*
X153109663Y-126181314D01*
X153262459Y-126099557D01*
X153362075Y-125974938D01*
X153414463Y-125798726D01*
X153425575Y-125562188D01*
X153028700Y-125562188D01*
X152977900Y-125766976D01*
X152842963Y-125866988D01*
X152729059Y-125888420D01*
X152574675Y-125895564D01*
X152338138Y-125873338D01*
X152219075Y-125795551D01*
X152184150Y-125638388D01*
X152234950Y-125476463D01*
X152401638Y-125354226D01*
X152541734Y-125296679D01*
X152730250Y-125235163D01*
X152966391Y-125155392D01*
X153141413Y-125074826D01*
X153264841Y-124986323D01*
X153346200Y-124882738D01*
X153391444Y-124756532D01*
X153406525Y-124600163D01*
X153388666Y-124400138D01*
X153335088Y-124250913D01*
X153239044Y-124144948D01*
X153093788Y-124074701D01*
X152888603Y-124035410D01*
X152612775Y-124022313D01*
X152342503Y-124035807D01*
X152141288Y-124076288D01*
X151998016Y-124149313D01*
X151901575Y-124260438D01*
X151847600Y-124418395D01*
X151831725Y-124631913D01*
X152234950Y-124631913D01*
X152280988Y-124471576D01*
X152398463Y-124392201D01*
X152625475Y-124368388D01*
X152858838Y-124390613D01*
X152974725Y-124463638D01*
X153009650Y-124612863D01*
X152887413Y-124776376D01*
X152717153Y-124854560D01*
X152450850Y-124946238D01*
X152220266Y-125029582D01*
X152049213Y-125114513D01*
X151928166Y-125209367D01*
X151847600Y-125322476D01*
X151802356Y-125461779D01*
X151787275Y-125635213D01*
X151542800Y-125635213D01*
X151542800Y-124054063D01*
X151063375Y-124054063D01*
X150717300Y-125089113D01*
X150682375Y-125089113D01*
X150329950Y-124054063D01*
X149856875Y-124054063D01*
X149053600Y-124054063D01*
X148539250Y-124054063D01*
X147894725Y-126213063D01*
X141408806Y-126213063D01*
X141426041Y-126209888D01*
X144179975Y-126209888D01*
X145678575Y-126209888D01*
X146084975Y-126209888D01*
X147583575Y-126209888D01*
X147583575Y-124054063D01*
X147177175Y-124054063D01*
X147177175Y-125854288D01*
X146084975Y-125854288D01*
X146084975Y-126209888D01*
X145678575Y-126209888D01*
X145678575Y-124054063D01*
X145272175Y-124054063D01*
X145272175Y-125854288D01*
X144179975Y-125854288D01*
X144179975Y-126209888D01*
X141426041Y-126209888D01*
X141494983Y-126197188D01*
X141639975Y-126141626D01*
X141803091Y-126007482D01*
X141911438Y-125805076D01*
X141956417Y-125625336D01*
X141983404Y-125401498D01*
X141992400Y-125133563D01*
X141991104Y-125092288D01*
X142478175Y-125092288D01*
X142478175Y-125441538D01*
X143684675Y-125441538D01*
X143684675Y-125092288D01*
X142478175Y-125092288D01*
X141991104Y-125092288D01*
X141983933Y-124863865D01*
X141958533Y-124638969D01*
X141916200Y-124458876D01*
X141814203Y-124256470D01*
X141660613Y-124122326D01*
X141524264Y-124066763D01*
X141354401Y-124033426D01*
X141151025Y-124022313D01*
X140888294Y-124036601D01*
X140690650Y-124079463D01*
X140548172Y-124155663D01*
X140450938Y-124269963D01*
X140391803Y-124431888D01*
X140363625Y-124650963D01*
X139919125Y-124650963D01*
X139919125Y-124054063D01*
X138579275Y-124054063D01*
X138579275Y-124403313D01*
X139512725Y-124403313D01*
X139512725Y-124917663D01*
X138706275Y-124917663D01*
X138706275Y-125266913D01*
X139512725Y-125266913D01*
X139512725Y-125863813D01*
X138515775Y-125863813D01*
X138515775Y-126213063D01*
X138179225Y-126213063D01*
X138179225Y-124054063D01*
X137683925Y-124054063D01*
X136909225Y-125746339D01*
X136899700Y-125746339D01*
X136944150Y-125295488D01*
X136944150Y-124054063D01*
X136553625Y-124054063D01*
X136109125Y-124054063D01*
X134769275Y-124054063D01*
X134769275Y-124403313D01*
X135702725Y-124403313D01*
X135702725Y-124917663D01*
X134896275Y-124917663D01*
X134896275Y-125266913D01*
X135702725Y-125266913D01*
X135702725Y-125863813D01*
X134705775Y-125863813D01*
X134705775Y-126213063D01*
X134286675Y-126213063D01*
X134286675Y-124057238D01*
X133908850Y-124044538D01*
X133721525Y-124041363D01*
X133506154Y-124048066D01*
X133325708Y-124068175D01*
X133180187Y-124101688D01*
X133015881Y-124181063D01*
X132907137Y-124298538D01*
X132846416Y-124462051D01*
X132826175Y-124679538D01*
X132859512Y-124935126D01*
X132972225Y-125078001D01*
X133197650Y-125149438D01*
X133197650Y-125178014D01*
X132999212Y-125276439D01*
X132937697Y-125380420D01*
X132883325Y-125539963D01*
X132702350Y-126213063D01*
X132553125Y-126213063D01*
X131908600Y-124054063D01*
X131394250Y-124054063D01*
X130749725Y-126213063D01*
X124503442Y-126213063D01*
X124503442Y-126209888D01*
X128939975Y-126209888D01*
X130438575Y-126209888D01*
X130438575Y-124054063D01*
X130032175Y-124054063D01*
X130032175Y-125854288D01*
X128939975Y-125854288D01*
X128939975Y-126209888D01*
X124503442Y-126209888D01*
X124503442Y-125006563D01*
X125164900Y-125006563D01*
X125444300Y-125095463D01*
X125711000Y-125127213D01*
X125510975Y-125311363D01*
X125339525Y-125543138D01*
X125650675Y-125774913D01*
X125834825Y-125527263D01*
X125939600Y-125308188D01*
X126044375Y-125530438D01*
X126215825Y-125771739D01*
X126536500Y-125539963D01*
X126377750Y-125317713D01*
X126165025Y-125127213D01*
X126431725Y-125089113D01*
X126704775Y-125000213D01*
X126593650Y-124654138D01*
X126301550Y-124739863D01*
X126088825Y-124863688D01*
X126142800Y-124600163D01*
X126142800Y-124317588D01*
X125739575Y-124317588D01*
X125739575Y-124600163D01*
X125790375Y-124860513D01*
X125574475Y-124739863D01*
X125279200Y-124647788D01*
X125164900Y-125006563D01*
X124503442Y-125006563D01*
X124503442Y-123360855D01*
X125164900Y-123360855D01*
X153435100Y-123360855D01*
X154096558Y-123360855D01*
X154096558Y-126903097D01*
G37*
%TO.C,G\u002A\u002A\u002A*%
G36*
X133928809Y-114358864D02*
G01*
X133911219Y-114376454D01*
X133893629Y-114358864D01*
X133911219Y-114341274D01*
X133928809Y-114358864D01*
G37*
G36*
X134069529Y-114358864D02*
G01*
X134051939Y-114376454D01*
X134034349Y-114358864D01*
X134051939Y-114341274D01*
X134069529Y-114358864D01*
G37*
G36*
X136848753Y-116399308D02*
G01*
X136831163Y-116416898D01*
X136813573Y-116399308D01*
X136831163Y-116381718D01*
X136848753Y-116399308D01*
G37*
G36*
X136883933Y-115168006D02*
G01*
X136866343Y-115185596D01*
X136848753Y-115168006D01*
X136866343Y-115150416D01*
X136883933Y-115168006D01*
G37*
G36*
X137200554Y-115343906D02*
G01*
X137182964Y-115361496D01*
X137165374Y-115343906D01*
X137182964Y-115326316D01*
X137200554Y-115343906D01*
G37*
G36*
X137728255Y-115414266D02*
G01*
X137710665Y-115431856D01*
X137693075Y-115414266D01*
X137710665Y-115396676D01*
X137728255Y-115414266D01*
G37*
G36*
X138185595Y-115519806D02*
G01*
X138168005Y-115537396D01*
X138150415Y-115519806D01*
X138168005Y-115502216D01*
X138185595Y-115519806D01*
G37*
G36*
X138361496Y-117243629D02*
G01*
X138343906Y-117261219D01*
X138326316Y-117243629D01*
X138343906Y-117226039D01*
X138361496Y-117243629D01*
G37*
G36*
X140859280Y-117243629D02*
G01*
X140841690Y-117261219D01*
X140824100Y-117243629D01*
X140841690Y-117226039D01*
X140859280Y-117243629D01*
G37*
G36*
X142196122Y-117243629D02*
G01*
X142178532Y-117261219D01*
X142160942Y-117243629D01*
X142178532Y-117226039D01*
X142196122Y-117243629D01*
G37*
G36*
X143321884Y-117982410D02*
G01*
X143304294Y-118000000D01*
X143286703Y-117982410D01*
X143304294Y-117964820D01*
X143321884Y-117982410D01*
G37*
G36*
X143708864Y-117912050D02*
G01*
X143691274Y-117929640D01*
X143673684Y-117912050D01*
X143691274Y-117894460D01*
X143708864Y-117912050D01*
G37*
G36*
X144271745Y-112775762D02*
G01*
X144254155Y-112793352D01*
X144236565Y-112775762D01*
X144254155Y-112758172D01*
X144271745Y-112775762D01*
G37*
G36*
X144799446Y-117138089D02*
G01*
X144781856Y-117155679D01*
X144764266Y-117138089D01*
X144781856Y-117120499D01*
X144799446Y-117138089D01*
G37*
G36*
X144975346Y-115238366D02*
G01*
X144957756Y-115255956D01*
X144940166Y-115238366D01*
X144957756Y-115220776D01*
X144975346Y-115238366D01*
G37*
G36*
X145256787Y-116012327D02*
G01*
X145239197Y-116029917D01*
X145221607Y-116012327D01*
X145239197Y-115994737D01*
X145256787Y-116012327D01*
G37*
G36*
X145327147Y-117173269D02*
G01*
X145309557Y-117190859D01*
X145291967Y-117173269D01*
X145309557Y-117155679D01*
X145327147Y-117173269D01*
G37*
G36*
X145467867Y-113373823D02*
G01*
X145450277Y-113391413D01*
X145432687Y-113373823D01*
X145450277Y-113356233D01*
X145467867Y-113373823D01*
G37*
G36*
X146452908Y-115977147D02*
G01*
X146435318Y-115994737D01*
X146417728Y-115977147D01*
X146435318Y-115959557D01*
X146452908Y-115977147D01*
G37*
G36*
X146488089Y-115906787D02*
G01*
X146470499Y-115924377D01*
X146452908Y-115906787D01*
X146470499Y-115889197D01*
X146488089Y-115906787D01*
G37*
G36*
X146558449Y-115906787D02*
G01*
X146540859Y-115924377D01*
X146523269Y-115906787D01*
X146540859Y-115889197D01*
X146558449Y-115906787D01*
G37*
G36*
X146593629Y-116047507D02*
G01*
X146576039Y-116065097D01*
X146558449Y-116047507D01*
X146576039Y-116029917D01*
X146593629Y-116047507D01*
G37*
G36*
X146593629Y-116434488D02*
G01*
X146576039Y-116452078D01*
X146558449Y-116434488D01*
X146576039Y-116416898D01*
X146593629Y-116434488D01*
G37*
G36*
X146663989Y-116328948D02*
G01*
X146646399Y-116346538D01*
X146628809Y-116328948D01*
X146646399Y-116311358D01*
X146663989Y-116328948D01*
G37*
G36*
X146699169Y-117138089D02*
G01*
X146681579Y-117155679D01*
X146663989Y-117138089D01*
X146681579Y-117120499D01*
X146699169Y-117138089D01*
G37*
G36*
X146875069Y-111544460D02*
G01*
X146857479Y-111562050D01*
X146839889Y-111544460D01*
X146857479Y-111526870D01*
X146875069Y-111544460D01*
G37*
G36*
X147262050Y-118474931D02*
G01*
X147244460Y-118492521D01*
X147226870Y-118474931D01*
X147244460Y-118457341D01*
X147262050Y-118474931D01*
G37*
G36*
X147578670Y-113620083D02*
G01*
X147561080Y-113637673D01*
X147543490Y-113620083D01*
X147561080Y-113602493D01*
X147578670Y-113620083D01*
G37*
G36*
X147578670Y-118299031D02*
G01*
X147561080Y-118316621D01*
X147543490Y-118299031D01*
X147561080Y-118281441D01*
X147578670Y-118299031D01*
G37*
G36*
X148669252Y-119319252D02*
G01*
X148651662Y-119336842D01*
X148634072Y-119319252D01*
X148651662Y-119301662D01*
X148669252Y-119319252D01*
G37*
G36*
X149513573Y-114147784D02*
G01*
X149495983Y-114165374D01*
X149478393Y-114147784D01*
X149495983Y-114130194D01*
X149513573Y-114147784D01*
G37*
G36*
X150076454Y-116328948D02*
G01*
X150058864Y-116346538D01*
X150041274Y-116328948D01*
X150058864Y-116311358D01*
X150076454Y-116328948D01*
G37*
G36*
X150252354Y-118263851D02*
G01*
X150234764Y-118281441D01*
X150217174Y-118263851D01*
X150234764Y-118246261D01*
X150252354Y-118263851D01*
G37*
G36*
X150357895Y-118299031D02*
G01*
X150340305Y-118316621D01*
X150322715Y-118299031D01*
X150340305Y-118281441D01*
X150357895Y-118299031D01*
G37*
G36*
X150639335Y-114464405D02*
G01*
X150621745Y-114481995D01*
X150604155Y-114464405D01*
X150621745Y-114446815D01*
X150639335Y-114464405D01*
G37*
G36*
X150780055Y-116082687D02*
G01*
X150762465Y-116100277D01*
X150744875Y-116082687D01*
X150762465Y-116065097D01*
X150780055Y-116082687D01*
G37*
G36*
X152644598Y-115906787D02*
G01*
X152627008Y-115924377D01*
X152609418Y-115906787D01*
X152627008Y-115889197D01*
X152644598Y-115906787D01*
G37*
G36*
X137364728Y-115373223D02*
G01*
X137370231Y-115383804D01*
X137341274Y-115396676D01*
X137322650Y-115394137D01*
X137317821Y-115373223D01*
X137322977Y-115369012D01*
X137364728Y-115373223D01*
G37*
G36*
X137488591Y-115372644D02*
G01*
X137504874Y-115385307D01*
X137467336Y-115393899D01*
X137431654Y-115391411D01*
X137421162Y-115375421D01*
X137433608Y-115368450D01*
X137488591Y-115372644D01*
G37*
G36*
X138103509Y-115443583D02*
G01*
X138109012Y-115454164D01*
X138080055Y-115467036D01*
X138061431Y-115464497D01*
X138056602Y-115443583D01*
X138061758Y-115439372D01*
X138103509Y-115443583D01*
G37*
G36*
X141902955Y-113016159D02*
G01*
X141908458Y-113026741D01*
X141879501Y-113039612D01*
X141860877Y-113037074D01*
X141856048Y-113016159D01*
X141861204Y-113011949D01*
X141902955Y-113016159D01*
G37*
G36*
X142465836Y-113016159D02*
G01*
X142471339Y-113026741D01*
X142442382Y-113039612D01*
X142423758Y-113037074D01*
X142418929Y-113016159D01*
X142424085Y-113011949D01*
X142465836Y-113016159D01*
G37*
G36*
X145069160Y-117132226D02*
G01*
X145074663Y-117142807D01*
X145045706Y-117155679D01*
X145027082Y-117153140D01*
X145022253Y-117132226D01*
X145027409Y-117128015D01*
X145069160Y-117132226D01*
G37*
G36*
X146523269Y-116416898D02*
G01*
X146520730Y-116435522D01*
X146499815Y-116440351D01*
X146495605Y-116435195D01*
X146499815Y-116393444D01*
X146510397Y-116387941D01*
X146523269Y-116416898D01*
G37*
G36*
X146558449Y-116170637D02*
G01*
X146555910Y-116189262D01*
X146534995Y-116194091D01*
X146530785Y-116188934D01*
X146534995Y-116147184D01*
X146545577Y-116141680D01*
X146558449Y-116170637D01*
G37*
G36*
X146699169Y-116240997D02*
G01*
X146696630Y-116259622D01*
X146675716Y-116264451D01*
X146671505Y-116259295D01*
X146675716Y-116217544D01*
X146686297Y-116212040D01*
X146699169Y-116240997D01*
G37*
G36*
X146846485Y-116111425D02*
G01*
X146862769Y-116124088D01*
X146825231Y-116132680D01*
X146789549Y-116130192D01*
X146779057Y-116114203D01*
X146791503Y-116107231D01*
X146846485Y-116111425D01*
G37*
G36*
X148657525Y-117413666D02*
G01*
X148663029Y-117424247D01*
X148634072Y-117437119D01*
X148615448Y-117434580D01*
X148610619Y-117413666D01*
X148615775Y-117409456D01*
X148657525Y-117413666D01*
G37*
G36*
X149290766Y-115654663D02*
G01*
X149296270Y-115665245D01*
X149267313Y-115678117D01*
X149248689Y-115675578D01*
X149243860Y-115654663D01*
X149249016Y-115650453D01*
X149290766Y-115654663D01*
G37*
G36*
X136934876Y-115066632D02*
G01*
X136961878Y-115078815D01*
X136989474Y-115101410D01*
X136979723Y-115114516D01*
X136939400Y-115109622D01*
X136901772Y-115080459D01*
X136898561Y-115064174D01*
X136934876Y-115066632D01*
G37*
G36*
X137010423Y-115180160D02*
G01*
X137005749Y-115187322D01*
X136970989Y-115219721D01*
X136954294Y-115205262D01*
X136957438Y-115197349D01*
X136994909Y-115164646D01*
X137014569Y-115156087D01*
X137010423Y-115180160D01*
G37*
G36*
X137115509Y-115223670D02*
G01*
X137089975Y-115259815D01*
X137057827Y-115279502D01*
X137033601Y-115283811D01*
X137047034Y-115238568D01*
X137062052Y-115215048D01*
X137102456Y-115207785D01*
X137115509Y-115223670D01*
G37*
G36*
X142451764Y-113809208D02*
G01*
X142456309Y-113813841D01*
X142473170Y-113839613D01*
X142432070Y-113828902D01*
X142399239Y-113811357D01*
X142388681Y-113785188D01*
X142405638Y-113781420D01*
X142451764Y-113809208D01*
G37*
G36*
X143086558Y-116354606D02*
G01*
X143138026Y-116396538D01*
X143171287Y-116432118D01*
X143173988Y-116443408D01*
X143121198Y-116413366D01*
X143073598Y-116377798D01*
X143060471Y-116349963D01*
X143086558Y-116354606D01*
G37*
G36*
X146517939Y-115981532D02*
G01*
X146507125Y-116027577D01*
X146490579Y-116050759D01*
X146466947Y-116060380D01*
X146475949Y-116010810D01*
X146489160Y-115985160D01*
X146513547Y-115973289D01*
X146517939Y-115981532D01*
G37*
G36*
X136903556Y-115222359D02*
G01*
X136936703Y-115255956D01*
X136943256Y-115268411D01*
X136940856Y-115291136D01*
X136934671Y-115289553D01*
X136901523Y-115255956D01*
X136894971Y-115243500D01*
X136897371Y-115220776D01*
X136903556Y-115222359D01*
G37*
G36*
X140059374Y-115507592D02*
G01*
X140067728Y-115537396D01*
X140060518Y-115548040D01*
X140032548Y-115572576D01*
X140027460Y-115570921D01*
X139997368Y-115537396D01*
X139994551Y-115518764D01*
X140032548Y-115502216D01*
X140059374Y-115507592D01*
G37*
G36*
X145562499Y-113953735D02*
G01*
X145674720Y-114270914D01*
X144908764Y-114270914D01*
X144142808Y-114270914D01*
X144199181Y-113963089D01*
X144255554Y-113655263D01*
X144852915Y-113645909D01*
X145450277Y-113636556D01*
X145562499Y-113953735D01*
G37*
G36*
X145053842Y-115468388D02*
G01*
X145080886Y-115502216D01*
X145080483Y-115510178D01*
X145065373Y-115537396D01*
X145059729Y-115535777D01*
X145028116Y-115502216D01*
X145022619Y-115488589D01*
X145043630Y-115467036D01*
X145053842Y-115468388D01*
G37*
G36*
X137718492Y-116490512D02*
G01*
X137786056Y-116515520D01*
X137828148Y-116576863D01*
X137855942Y-116642152D01*
X137868975Y-116682403D01*
X137862687Y-116686899D01*
X137807787Y-116695091D01*
X137714768Y-116698338D01*
X137616772Y-116692905D01*
X137564183Y-116669733D01*
X137539348Y-116619183D01*
X137528726Y-116577568D01*
X137524204Y-116515893D01*
X137560457Y-116491541D01*
X137652248Y-116487258D01*
X137718492Y-116490512D01*
G37*
G36*
X141367118Y-116494532D02*
G01*
X141467531Y-116539048D01*
X141560120Y-116636773D01*
X141571665Y-116653183D01*
X141577606Y-116677855D01*
X141548594Y-116691420D01*
X141472831Y-116697155D01*
X141338518Y-116698338D01*
X141314508Y-116698307D01*
X141186472Y-116695695D01*
X141112534Y-116686502D01*
X141078545Y-116667389D01*
X141070360Y-116635014D01*
X141085057Y-116568261D01*
X141155139Y-116507667D01*
X141281752Y-116487258D01*
X141367118Y-116494532D01*
G37*
G36*
X138329711Y-116487989D02*
G01*
X138416039Y-116497262D01*
X138464415Y-116524049D01*
X138496569Y-116576863D01*
X138524363Y-116642152D01*
X138537396Y-116682403D01*
X138537049Y-116683244D01*
X138498765Y-116690881D01*
X138409542Y-116696287D01*
X138287033Y-116698338D01*
X138217058Y-116698165D01*
X138116318Y-116694941D01*
X138065444Y-116683893D01*
X138050583Y-116660236D01*
X138057882Y-116619183D01*
X138070893Y-116565519D01*
X138079575Y-116513643D01*
X138095169Y-116503208D01*
X138163587Y-116491722D01*
X138267899Y-116487258D01*
X138329711Y-116487989D01*
G37*
G36*
X142918043Y-116493508D02*
G01*
X143007842Y-116500305D01*
X143040923Y-116510697D01*
X143045577Y-116544741D01*
X143062617Y-116619183D01*
X143083829Y-116698338D01*
X142604796Y-116698338D01*
X142545557Y-116698275D01*
X142359987Y-116696156D01*
X142234159Y-116689055D01*
X142159667Y-116674311D01*
X142128103Y-116649264D01*
X142131060Y-116611253D01*
X142160132Y-116557618D01*
X142169137Y-116547128D01*
X142212733Y-116525909D01*
X142294820Y-116510832D01*
X142426015Y-116500398D01*
X142616934Y-116493107D01*
X142622594Y-116492952D01*
X142785101Y-116490870D01*
X142918043Y-116493508D01*
G37*
G36*
X139377353Y-113630686D02*
G01*
X139866417Y-113641289D01*
X140098998Y-113938171D01*
X140175108Y-114036315D01*
X140256048Y-114143374D01*
X140311199Y-114219650D01*
X140331579Y-114252983D01*
X140327971Y-114255164D01*
X140274855Y-114261356D01*
X140168133Y-114266355D01*
X140020461Y-114269697D01*
X139844497Y-114270914D01*
X139357414Y-114270914D01*
X139137690Y-113983999D01*
X139072903Y-113898564D01*
X138989619Y-113785908D01*
X138929728Y-113701338D01*
X138903127Y-113658583D01*
X138902602Y-113655495D01*
X138930957Y-113640239D01*
X139016698Y-113631186D01*
X139164078Y-113628085D01*
X139377353Y-113630686D01*
G37*
G36*
X139214306Y-116487953D02*
G01*
X139356030Y-116493471D01*
X139451889Y-116508366D01*
X139516167Y-116537144D01*
X139563147Y-116584308D01*
X139607113Y-116654363D01*
X139609399Y-116664896D01*
X139585675Y-116680949D01*
X139517201Y-116691241D01*
X139395462Y-116696722D01*
X139211939Y-116698338D01*
X139065318Y-116697990D01*
X138933460Y-116695255D01*
X138847902Y-116687688D01*
X138795234Y-116672853D01*
X138762047Y-116648311D01*
X138734932Y-116611626D01*
X138695428Y-116546006D01*
X138678116Y-116506086D01*
X138705704Y-116499225D01*
X138790609Y-116493016D01*
X138919113Y-116488807D01*
X139077234Y-116487258D01*
X139214306Y-116487953D01*
G37*
G36*
X140272921Y-116493919D02*
G01*
X140457368Y-116520067D01*
X140589800Y-116568076D01*
X140678892Y-116640119D01*
X140688847Y-116653344D01*
X140693247Y-116673834D01*
X140667888Y-116686969D01*
X140602621Y-116694358D01*
X140487298Y-116697611D01*
X140311769Y-116698338D01*
X140244741Y-116698244D01*
X140085080Y-116696177D01*
X139976625Y-116689714D01*
X139905021Y-116676645D01*
X139855912Y-116654759D01*
X139814940Y-116621846D01*
X139812953Y-116619970D01*
X139756783Y-116558441D01*
X139733518Y-116516305D01*
X139745146Y-116508734D01*
X139811999Y-116497684D01*
X139924987Y-116490084D01*
X140068858Y-116487258D01*
X140272921Y-116493919D01*
G37*
G36*
X141868826Y-113637673D02*
G01*
X142275570Y-113637673D01*
X142250745Y-113857549D01*
X142238297Y-113960666D01*
X142221026Y-114086708D01*
X142206623Y-114174169D01*
X142187327Y-114270914D01*
X141767193Y-114270914D01*
X141679532Y-114270780D01*
X141529741Y-114268919D01*
X141434354Y-114263529D01*
X141382357Y-114252927D01*
X141362735Y-114235428D01*
X141364475Y-114209349D01*
X141372667Y-114172083D01*
X141388723Y-114074231D01*
X141404571Y-113954294D01*
X141412482Y-113884194D01*
X141427099Y-113773446D01*
X141449671Y-113701898D01*
X141492665Y-113661048D01*
X141568545Y-113642394D01*
X141689777Y-113637437D01*
X141868826Y-113637673D01*
G37*
G36*
X143547801Y-113903360D02*
G01*
X143558311Y-113932940D01*
X143604264Y-114061690D01*
X143641109Y-114164023D01*
X143661667Y-114219981D01*
X143663107Y-114224512D01*
X143656672Y-114244274D01*
X143619350Y-114257648D01*
X143541278Y-114265783D01*
X143412593Y-114269822D01*
X143223434Y-114270914D01*
X142765657Y-114270914D01*
X142656790Y-113970045D01*
X142632486Y-113902480D01*
X142589104Y-113779550D01*
X142559117Y-113691300D01*
X142547922Y-113653424D01*
X142548909Y-113652383D01*
X142592456Y-113646632D01*
X142691023Y-113641960D01*
X142831480Y-113638821D01*
X143000701Y-113637673D01*
X143453480Y-113637673D01*
X143547801Y-113903360D01*
G37*
G36*
X136873399Y-116489071D02*
G01*
X137015891Y-116498718D01*
X137118643Y-116518875D01*
X137199228Y-116551993D01*
X137219927Y-116563581D01*
X137295903Y-116615676D01*
X137333536Y-116657534D01*
X137320959Y-116675009D01*
X137257559Y-116688404D01*
X137136177Y-116695963D01*
X136950698Y-116698338D01*
X136916847Y-116698313D01*
X136751657Y-116696592D01*
X136639494Y-116690458D01*
X136565525Y-116677539D01*
X136514916Y-116655460D01*
X136472835Y-116621846D01*
X136470847Y-116619970D01*
X136414677Y-116558441D01*
X136391413Y-116516305D01*
X136404796Y-116508291D01*
X136474107Y-116497455D01*
X136589187Y-116490019D01*
X136734967Y-116487258D01*
X136873399Y-116489071D01*
G37*
G36*
X140181850Y-115570520D02*
G01*
X140246496Y-115642975D01*
X140342164Y-115764456D01*
X140390036Y-115827388D01*
X140468431Y-115934229D01*
X140522503Y-116013149D01*
X140542659Y-116050462D01*
X140526216Y-116052589D01*
X140478324Y-116017780D01*
X140426614Y-115981900D01*
X140357582Y-115959557D01*
X140325815Y-115951998D01*
X140238196Y-115918043D01*
X140115392Y-115863042D01*
X139973371Y-115793882D01*
X139645568Y-115628208D01*
X139786288Y-115587319D01*
X139816537Y-115579472D01*
X139914400Y-115566065D01*
X139979756Y-115574606D01*
X140015897Y-115583347D01*
X140087087Y-115553386D01*
X140105979Y-115539878D01*
X140138315Y-115538888D01*
X140181850Y-115570520D01*
G37*
G36*
X140788920Y-116960227D02*
G01*
X140787678Y-116995875D01*
X140746424Y-117150838D01*
X140650941Y-117264953D01*
X140506923Y-117330736D01*
X140491296Y-117334338D01*
X140302865Y-117362081D01*
X140162313Y-117347646D01*
X140061201Y-117290267D01*
X140059213Y-117288391D01*
X140003043Y-117226862D01*
X139979778Y-117184727D01*
X139997014Y-117172776D01*
X140067295Y-117160455D01*
X140173269Y-117155679D01*
X140289013Y-117147285D01*
X140417811Y-117103097D01*
X140488552Y-117022196D01*
X140499464Y-116905937D01*
X140494686Y-116868713D01*
X140500850Y-116824016D01*
X140542355Y-116806743D01*
X140636702Y-116803878D01*
X140788920Y-116803878D01*
X140788920Y-116960227D01*
G37*
G36*
X139312455Y-116806535D02*
G01*
X139366326Y-116825627D01*
X139402454Y-116877819D01*
X139441298Y-116979779D01*
X139463250Y-117039098D01*
X139500990Y-117115041D01*
X139543818Y-117148314D01*
X139607583Y-117155679D01*
X139682146Y-117171692D01*
X139772301Y-117218515D01*
X139844613Y-117279508D01*
X139874238Y-117337712D01*
X139846969Y-117348252D01*
X139762364Y-117357852D01*
X139634124Y-117364362D01*
X139476249Y-117366759D01*
X139333797Y-117366462D01*
X139206627Y-117363524D01*
X139122548Y-117354738D01*
X139066388Y-117336897D01*
X139022978Y-117306794D01*
X138977147Y-117261219D01*
X138876033Y-117155679D01*
X139040782Y-117155679D01*
X139205530Y-117155679D01*
X139138693Y-116979779D01*
X139071857Y-116803878D01*
X139225340Y-116803878D01*
X139312455Y-116806535D01*
G37*
G36*
X138625346Y-113637981D02*
G01*
X138737568Y-113954448D01*
X138849789Y-114270914D01*
X137625345Y-114270914D01*
X137338957Y-114270815D01*
X137067686Y-114270216D01*
X136852925Y-114268705D01*
X136687251Y-114265873D01*
X136563244Y-114261310D01*
X136473481Y-114254606D01*
X136410540Y-114245351D01*
X136367001Y-114233136D01*
X136335441Y-114217550D01*
X136308438Y-114198183D01*
X136295057Y-114186814D01*
X136223197Y-114113292D01*
X136130512Y-114006730D01*
X136032795Y-113886413D01*
X135945839Y-113771624D01*
X135885436Y-113681648D01*
X135884466Y-113677496D01*
X135901052Y-113666758D01*
X135950761Y-113658014D01*
X136038912Y-113651094D01*
X136170823Y-113645825D01*
X136351813Y-113642035D01*
X136587202Y-113639554D01*
X136882309Y-113638208D01*
X137242453Y-113637827D01*
X138625346Y-113637981D01*
G37*
G36*
X148045570Y-113514039D02*
G01*
X148109908Y-113524767D01*
X148283230Y-113565964D01*
X148392440Y-113616306D01*
X148442113Y-113677678D01*
X148453141Y-113721259D01*
X148452589Y-113755112D01*
X148439135Y-113760371D01*
X148371756Y-113784522D01*
X148261636Y-113823101D01*
X148123961Y-113870764D01*
X148015598Y-113906437D01*
X147835540Y-113956621D01*
X147697767Y-113982040D01*
X147609678Y-113981564D01*
X147578670Y-113954061D01*
X147580681Y-113942783D01*
X147611145Y-113897534D01*
X147684171Y-113827288D01*
X147807341Y-113724430D01*
X147844641Y-113690724D01*
X147836562Y-113688158D01*
X147823333Y-113691298D01*
X147765855Y-113671013D01*
X147709574Y-113621940D01*
X147684210Y-113567596D01*
X147684989Y-113562402D01*
X147725399Y-113532318D01*
X147812505Y-113512222D01*
X147925999Y-113505126D01*
X148045570Y-113514039D01*
G37*
G36*
X143036606Y-117423479D02*
G01*
X143128550Y-117446165D01*
X143147367Y-117448418D01*
X143162593Y-117454966D01*
X143115913Y-117459973D01*
X143013743Y-117462524D01*
X142999620Y-117462588D01*
X142874499Y-117458664D01*
X142781079Y-117447995D01*
X142738666Y-117432676D01*
X142731617Y-117424344D01*
X142730391Y-117424247D01*
X142835586Y-117424247D01*
X142864543Y-117437119D01*
X142883167Y-117434580D01*
X142887996Y-117413666D01*
X142882840Y-117409456D01*
X142841089Y-117413666D01*
X142835586Y-117424247D01*
X142730391Y-117424247D01*
X142686615Y-117420783D01*
X142672556Y-117423603D01*
X142673888Y-117389646D01*
X142691751Y-117365192D01*
X142752640Y-117347234D01*
X142784386Y-117346756D01*
X142846953Y-117316958D01*
X142863015Y-117299842D01*
X142875456Y-117290928D01*
X142875071Y-117291716D01*
X142889226Y-117333594D01*
X142949951Y-117381735D01*
X143016236Y-117413666D01*
X143036606Y-117423479D01*
G37*
G36*
X137446814Y-116960227D02*
G01*
X137446255Y-116984503D01*
X137408687Y-117140469D01*
X137314155Y-117255750D01*
X137165374Y-117326806D01*
X137123180Y-117336427D01*
X136995238Y-117354827D01*
X136860624Y-117363586D01*
X136679004Y-117366759D01*
X136587979Y-117128548D01*
X136583374Y-117116464D01*
X136539659Y-116998159D01*
X136508703Y-116908009D01*
X136496953Y-116864697D01*
X136509853Y-116849562D01*
X136572565Y-116837256D01*
X136667645Y-116837564D01*
X136772897Y-116848797D01*
X136866127Y-116869266D01*
X136925138Y-116897281D01*
X136977743Y-116956750D01*
X136978985Y-117000149D01*
X136916534Y-117014959D01*
X136868821Y-117029486D01*
X136853654Y-117072283D01*
X136880229Y-117120122D01*
X136943695Y-117149047D01*
X137001861Y-117145474D01*
X137087358Y-117095478D01*
X137143487Y-117008606D01*
X137152328Y-116905754D01*
X137144709Y-116862983D01*
X137150337Y-116821894D01*
X137193010Y-116806319D01*
X137289384Y-116803878D01*
X137446814Y-116803878D01*
X137446814Y-116960227D01*
G37*
G36*
X138582679Y-114552503D02*
G01*
X138745931Y-114554571D01*
X138855316Y-114560256D01*
X138922471Y-114571049D01*
X138959029Y-114588440D01*
X138976625Y-114613920D01*
X138981381Y-114626116D01*
X139011873Y-114707528D01*
X139062704Y-114845687D01*
X139131213Y-115033295D01*
X139214741Y-115263057D01*
X139310628Y-115527675D01*
X139416214Y-115819853D01*
X139556251Y-116207850D01*
X139093263Y-116198039D01*
X138630274Y-116188227D01*
X138464367Y-115730887D01*
X138298459Y-115273546D01*
X137811072Y-115263051D01*
X137323684Y-115252556D01*
X136971884Y-114921455D01*
X136620083Y-114590355D01*
X137177214Y-114588945D01*
X137734345Y-114587535D01*
X137959970Y-114804191D01*
X137969479Y-114813310D01*
X138080855Y-114916587D01*
X138148865Y-114969196D01*
X138177943Y-114971765D01*
X138172523Y-114924922D01*
X138137040Y-114829297D01*
X138134943Y-114824155D01*
X138094620Y-114719468D01*
X138064309Y-114631510D01*
X138040134Y-114552355D01*
X138496081Y-114552355D01*
X138582679Y-114552503D01*
G37*
G36*
X134549736Y-113510283D02*
G01*
X134642952Y-113555203D01*
X134802979Y-113624154D01*
X135063393Y-113679868D01*
X135348732Y-113674355D01*
X135354065Y-113673728D01*
X135485679Y-113656302D01*
X135592779Y-113638712D01*
X135652631Y-113624675D01*
X135671001Y-113625708D01*
X135724160Y-113665358D01*
X135785605Y-113738829D01*
X135841328Y-113825610D01*
X135877326Y-113905190D01*
X135879593Y-113957058D01*
X135876002Y-113972252D01*
X135908953Y-113989474D01*
X135959015Y-114008303D01*
X136024409Y-114062472D01*
X136025012Y-114063138D01*
X136066803Y-114112949D01*
X136056536Y-114125866D01*
X135985887Y-114112752D01*
X135962479Y-114107496D01*
X135834489Y-114075350D01*
X135673350Y-114031087D01*
X135493490Y-113979102D01*
X135309337Y-113923788D01*
X135135318Y-113869541D01*
X134985861Y-113820755D01*
X134875393Y-113781824D01*
X134818343Y-113757142D01*
X134757517Y-113725750D01*
X134693034Y-113708033D01*
X134685492Y-113706959D01*
X134630607Y-113671826D01*
X134567612Y-113602493D01*
X134524658Y-113540967D01*
X134511974Y-113504489D01*
X134549736Y-113510283D01*
G37*
G36*
X137837206Y-116806884D02*
G01*
X137901231Y-116827204D01*
X137929142Y-116874238D01*
X137929758Y-116876549D01*
X137961304Y-116935682D01*
X137994382Y-116934324D01*
X138009695Y-116872816D01*
X138011375Y-116848332D01*
X138026956Y-116822987D01*
X138070688Y-116810351D01*
X138156607Y-116807436D01*
X138298751Y-116811251D01*
X138587807Y-116821468D01*
X138685435Y-117085319D01*
X138698732Y-117121328D01*
X138741745Y-117238970D01*
X138771906Y-117323283D01*
X138783360Y-117357964D01*
X138777677Y-117360361D01*
X138723953Y-117364941D01*
X138631852Y-117366759D01*
X138480048Y-117366759D01*
X138398798Y-117136609D01*
X138395493Y-117127302D01*
X138353424Y-117018360D01*
X138319106Y-116945591D01*
X138299691Y-116924316D01*
X138287844Y-116952503D01*
X138265823Y-117033641D01*
X138241211Y-117145671D01*
X138200587Y-117349169D01*
X138004732Y-117359567D01*
X137808876Y-117369964D01*
X137715795Y-117107770D01*
X137704509Y-117075824D01*
X137662893Y-116955031D01*
X137633715Y-116865517D01*
X137622715Y-116824727D01*
X137626889Y-116819750D01*
X137677365Y-116808407D01*
X137766728Y-116803878D01*
X137837206Y-116806884D01*
G37*
G36*
X141292473Y-116979779D02*
G01*
X141271640Y-117155679D01*
X141434850Y-117155679D01*
X141486568Y-117154217D01*
X141566547Y-117144065D01*
X141598061Y-117127429D01*
X141590439Y-117106695D01*
X141551093Y-117040336D01*
X141489477Y-116951529D01*
X141380894Y-116803878D01*
X141536556Y-116803878D01*
X141568305Y-116804068D01*
X141632178Y-116809520D01*
X141684826Y-116830211D01*
X141739745Y-116876301D01*
X141810430Y-116957950D01*
X141910374Y-117085319D01*
X142128530Y-117366759D01*
X141777899Y-117366759D01*
X141751231Y-117366747D01*
X141598693Y-117365263D01*
X141498708Y-117358995D01*
X141435677Y-117344675D01*
X141394002Y-117319035D01*
X141358086Y-117278809D01*
X141355543Y-117275595D01*
X141301873Y-117215640D01*
X141267582Y-117190859D01*
X141253576Y-117212635D01*
X141246260Y-117278809D01*
X141246210Y-117286468D01*
X141236500Y-117339316D01*
X141196204Y-117361959D01*
X141105540Y-117366759D01*
X141070670Y-117366595D01*
X141010122Y-117360585D01*
X140976970Y-117336359D01*
X140967387Y-117281142D01*
X140977543Y-117182159D01*
X141003611Y-117026635D01*
X141042403Y-116803878D01*
X141177854Y-116803878D01*
X141313305Y-116803878D01*
X141292473Y-116979779D01*
G37*
G36*
X143229372Y-117064470D02*
G01*
X143240055Y-117094716D01*
X143281669Y-117215816D01*
X143310868Y-117306114D01*
X143321884Y-117347933D01*
X143317036Y-117353397D01*
X143265270Y-117361776D01*
X143175103Y-117359987D01*
X143130384Y-117356116D01*
X143057151Y-117338452D01*
X143014779Y-117292987D01*
X142978681Y-117199654D01*
X142963286Y-117156495D01*
X142929099Y-117080305D01*
X142904116Y-117050139D01*
X142874036Y-117068848D01*
X142808305Y-117126099D01*
X142723823Y-117208449D01*
X142641034Y-117288956D01*
X142569118Y-117340398D01*
X142494889Y-117362223D01*
X142392553Y-117366759D01*
X142216652Y-117366759D01*
X142364697Y-117215912D01*
X142396335Y-117183410D01*
X142475065Y-117096453D01*
X142505492Y-117045280D01*
X142490654Y-117021027D01*
X142433587Y-117014827D01*
X142407770Y-117012383D01*
X142320106Y-116984474D01*
X142228010Y-116936425D01*
X142155292Y-116882113D01*
X142125762Y-116835414D01*
X142127477Y-116829803D01*
X142172042Y-116813105D01*
X142263762Y-116808480D01*
X142384888Y-116814143D01*
X142517673Y-116828313D01*
X142644368Y-116849204D01*
X142747227Y-116875035D01*
X142808501Y-116904021D01*
X142845230Y-116934466D01*
X142865842Y-116937247D01*
X142855769Y-116883033D01*
X142851520Y-116864465D01*
X142853701Y-116824142D01*
X142893164Y-116807278D01*
X142986405Y-116803878D01*
X143136860Y-116803878D01*
X143229372Y-117064470D01*
G37*
G36*
X144913554Y-116008764D02*
G01*
X144969262Y-116020183D01*
X145126001Y-116057892D01*
X145230143Y-116096039D01*
X145295237Y-116140708D01*
X145334830Y-116197986D01*
X145335978Y-116200387D01*
X145357281Y-116239495D01*
X145385412Y-116266557D01*
X145433060Y-116284666D01*
X145512917Y-116296913D01*
X145637671Y-116306390D01*
X145820013Y-116316187D01*
X145825275Y-116316457D01*
X146000223Y-116327089D01*
X146154413Y-116339428D01*
X146271330Y-116351964D01*
X146334458Y-116363189D01*
X146405253Y-116364453D01*
X146466383Y-116306557D01*
X146467235Y-116305345D01*
X146506839Y-116260111D01*
X146523269Y-116263213D01*
X146522686Y-116268239D01*
X146494489Y-116322442D01*
X146436998Y-116394171D01*
X146401560Y-116429154D01*
X146341132Y-116466638D01*
X146258304Y-116484545D01*
X146129173Y-116490340D01*
X146031718Y-116493577D01*
X145869062Y-116504892D01*
X145731717Y-116520819D01*
X145645721Y-116530492D01*
X145496769Y-116540809D01*
X145318345Y-116548682D01*
X145132686Y-116552917D01*
X144999847Y-116554023D01*
X144856714Y-116552316D01*
X144753632Y-116544142D01*
X144672745Y-116526627D01*
X144596198Y-116496896D01*
X144506137Y-116452078D01*
X144404048Y-116401976D01*
X144304293Y-116359088D01*
X144243257Y-116340200D01*
X144237947Y-116339278D01*
X144255926Y-116333015D01*
X144328738Y-116323985D01*
X144444020Y-116313815D01*
X144544170Y-116304918D01*
X144652780Y-116285663D01*
X144717704Y-116250259D01*
X144755180Y-116187811D01*
X144781450Y-116087423D01*
X144798720Y-116027875D01*
X144835472Y-116000233D01*
X144913554Y-116008764D01*
G37*
G36*
X140883254Y-114952980D02*
G01*
X140963784Y-115055832D01*
X141072211Y-115188168D01*
X141147395Y-115269414D01*
X141193528Y-115303908D01*
X141214800Y-115295985D01*
X141221730Y-115269870D01*
X141238781Y-115179717D01*
X141259516Y-115048731D01*
X141280892Y-114895360D01*
X141325675Y-114552355D01*
X141745679Y-114552355D01*
X141833953Y-114552491D01*
X141983461Y-114554353D01*
X142078581Y-114559743D01*
X142130309Y-114570344D01*
X142149643Y-114587841D01*
X142147581Y-114613920D01*
X142143516Y-114631632D01*
X142128804Y-114714422D01*
X142107796Y-114846567D01*
X142082665Y-115014132D01*
X142055587Y-115203186D01*
X142047388Y-115261049D01*
X142001414Y-115557250D01*
X141957332Y-115789195D01*
X141913883Y-115962024D01*
X141869812Y-116080876D01*
X141823863Y-116150890D01*
X141805962Y-116164954D01*
X141753796Y-116184894D01*
X141667393Y-116197435D01*
X141534737Y-116203951D01*
X141343813Y-116205817D01*
X141227398Y-116205547D01*
X141080754Y-116202836D01*
X140980159Y-116195148D01*
X140910423Y-116180001D01*
X140856356Y-116154911D01*
X140802768Y-116117398D01*
X140795243Y-116110927D01*
X140742581Y-116054672D01*
X140658234Y-115955866D01*
X140549115Y-115823345D01*
X140422136Y-115665941D01*
X140284209Y-115492488D01*
X140142246Y-115311822D01*
X140003160Y-115132774D01*
X139873862Y-114964181D01*
X139761265Y-114814874D01*
X139672280Y-114693689D01*
X139613820Y-114609460D01*
X139592798Y-114571019D01*
X139596709Y-114568664D01*
X139650643Y-114562249D01*
X139758066Y-114557073D01*
X139906360Y-114553614D01*
X140082907Y-114552355D01*
X140573017Y-114552355D01*
X140883254Y-114952980D01*
G37*
G36*
X143328249Y-114560132D02*
G01*
X143790988Y-114569945D01*
X143878187Y-114808143D01*
X143884389Y-114824911D01*
X143928371Y-114934162D01*
X143963934Y-115006799D01*
X143983876Y-115027851D01*
X143997310Y-114993030D01*
X144018734Y-114906525D01*
X144042081Y-114789653D01*
X144081798Y-114569945D01*
X144929142Y-114560533D01*
X145150996Y-114558279D01*
X145366697Y-114557047D01*
X145527373Y-114557994D01*
X145641476Y-114561631D01*
X145717458Y-114568468D01*
X145763770Y-114579019D01*
X145788863Y-114593793D01*
X145801188Y-114613303D01*
X145802057Y-114615513D01*
X145824644Y-114675916D01*
X145865049Y-114786393D01*
X145917820Y-114931963D01*
X145977502Y-115097646D01*
X146032002Y-115249109D01*
X146111511Y-115469337D01*
X146189275Y-115684022D01*
X146254313Y-115862812D01*
X146379510Y-116205817D01*
X145914894Y-116205403D01*
X145450277Y-116204989D01*
X145188605Y-115477675D01*
X145151356Y-115375136D01*
X145077994Y-115179277D01*
X145013567Y-115015279D01*
X144961638Y-114891785D01*
X144925771Y-114817435D01*
X144909528Y-114800873D01*
X144909137Y-114802075D01*
X144896705Y-114855240D01*
X144873927Y-114965220D01*
X144843115Y-115120390D01*
X144806579Y-115309127D01*
X144766629Y-115519806D01*
X144641136Y-116188227D01*
X144055602Y-116197856D01*
X143470068Y-116207485D01*
X143434643Y-116109906D01*
X143411890Y-116047078D01*
X143369605Y-115930178D01*
X143312296Y-115771670D01*
X143244416Y-115583869D01*
X143170414Y-115379086D01*
X143096674Y-115175384D01*
X143028363Y-114987398D01*
X142970407Y-114828637D01*
X142927307Y-114711424D01*
X142903560Y-114648082D01*
X142865510Y-114550319D01*
X143328249Y-114560132D01*
G37*
G36*
X150812317Y-114197183D02*
G01*
X150878038Y-114273463D01*
X150884976Y-114330717D01*
X150831101Y-114369919D01*
X150714387Y-114392040D01*
X150532807Y-114398056D01*
X150284334Y-114388938D01*
X150105419Y-114380711D01*
X149986172Y-114380868D01*
X149920600Y-114389948D01*
X149900554Y-114408362D01*
X149874017Y-114434005D01*
X149786219Y-114429045D01*
X149771646Y-114426790D01*
X149653980Y-114424478D01*
X149531163Y-114441097D01*
X149525827Y-114442320D01*
X149413083Y-114458671D01*
X149294094Y-114462660D01*
X149194096Y-114454672D01*
X149138325Y-114435093D01*
X149137216Y-114426130D01*
X149159251Y-114405929D01*
X149216611Y-114371213D01*
X149318577Y-114316490D01*
X149474430Y-114236271D01*
X149490195Y-114228179D01*
X149548976Y-114192662D01*
X149558717Y-114162536D01*
X149514849Y-114125391D01*
X149508996Y-114122146D01*
X150052880Y-114122146D01*
X150094138Y-114154849D01*
X150101323Y-114158379D01*
X150188889Y-114189461D01*
X150296330Y-114215108D01*
X150357248Y-114224053D01*
X150413196Y-114219110D01*
X150428255Y-114186714D01*
X150427717Y-114180688D01*
X150384504Y-114139513D01*
X150272144Y-114111095D01*
X150149395Y-114098507D01*
X150073732Y-114102767D01*
X150052880Y-114122146D01*
X149508996Y-114122146D01*
X149412807Y-114068814D01*
X149348220Y-114040224D01*
X149284779Y-114024654D01*
X149230283Y-114005584D01*
X149156875Y-113956907D01*
X149113707Y-113919152D01*
X149098533Y-113887654D01*
X149133242Y-113866017D01*
X149165412Y-113861594D01*
X149261411Y-113859889D01*
X149405200Y-113863072D01*
X149583760Y-113870808D01*
X149784073Y-113882762D01*
X149975492Y-113896628D01*
X150178046Y-113915994D01*
X150334125Y-113939940D01*
X150457337Y-113972280D01*
X150561288Y-114016825D01*
X150659588Y-114077386D01*
X150765844Y-114157776D01*
X150799971Y-114186714D01*
X150812317Y-114197183D01*
G37*
G36*
X148542008Y-115662907D02*
G01*
X148225526Y-115847751D01*
X148124201Y-115897130D01*
X147872518Y-115984665D01*
X147577108Y-116042609D01*
X147226870Y-116073473D01*
X147120915Y-116078203D01*
X146924339Y-116084124D01*
X146787592Y-116082678D01*
X146703546Y-116073291D01*
X146665074Y-116055393D01*
X146665050Y-116028411D01*
X146670326Y-116020048D01*
X146693724Y-115998328D01*
X146737572Y-115973963D01*
X146809721Y-115944122D01*
X146918026Y-115905972D01*
X147070337Y-115856680D01*
X147274507Y-115793412D01*
X147538387Y-115713337D01*
X147600980Y-115694128D01*
X147744070Y-115647099D01*
X147838969Y-115611309D01*
X147882045Y-115589192D01*
X147869664Y-115583180D01*
X147798195Y-115595706D01*
X147664004Y-115629204D01*
X147485443Y-115676329D01*
X147298303Y-115721949D01*
X147145844Y-115752394D01*
X147009590Y-115770636D01*
X146871062Y-115779648D01*
X146711784Y-115782404D01*
X146355008Y-115783657D01*
X146298418Y-115642225D01*
X146284612Y-115606676D01*
X146266758Y-115554986D01*
X147930471Y-115554986D01*
X147948061Y-115572576D01*
X147965651Y-115554986D01*
X147948061Y-115537396D01*
X147930471Y-115554986D01*
X146266758Y-115554986D01*
X146254029Y-115518135D01*
X146241828Y-115466324D01*
X146261680Y-115451443D01*
X146334763Y-115437314D01*
X146443137Y-115431856D01*
X146479501Y-115431158D01*
X146633881Y-115420463D01*
X146837004Y-115398664D01*
X147074030Y-115368079D01*
X147330123Y-115331024D01*
X147590443Y-115289817D01*
X147840150Y-115246775D01*
X148064408Y-115204215D01*
X148248376Y-115164456D01*
X148377217Y-115129813D01*
X148546929Y-115067428D01*
X148740080Y-114984916D01*
X148909419Y-114902021D01*
X148947322Y-114881926D01*
X149068515Y-114821522D01*
X149164513Y-114779313D01*
X149217244Y-114763435D01*
X149252974Y-114777664D01*
X149264061Y-114838316D01*
X149233388Y-114938833D01*
X149162468Y-115070732D01*
X149153985Y-115084141D01*
X148997999Y-115287934D01*
X148796753Y-115478578D01*
X148691156Y-115554986D01*
X148542008Y-115662907D01*
G37*
G36*
X136399584Y-116300813D02*
G01*
X136577147Y-116301741D01*
X136714266Y-116303327D01*
X136795983Y-116305483D01*
X136936703Y-116312402D01*
X136801050Y-116361786D01*
X136722896Y-116381164D01*
X136587210Y-116402239D01*
X136419015Y-116420497D01*
X136238169Y-116433411D01*
X135987000Y-116448708D01*
X135134629Y-116532722D01*
X134302532Y-116663439D01*
X134178186Y-116686719D01*
X134001258Y-116719267D01*
X133856166Y-116745254D01*
X133755335Y-116762469D01*
X133711190Y-116768698D01*
X133703064Y-116769733D01*
X133695910Y-116797036D01*
X133703122Y-116801206D01*
X133763823Y-116805206D01*
X133870478Y-116798301D01*
X134005811Y-116781364D01*
X134156078Y-116763975D01*
X134393790Y-116748083D01*
X134669757Y-116738727D01*
X134966290Y-116735849D01*
X135265699Y-116739390D01*
X135550295Y-116749294D01*
X135802387Y-116765500D01*
X136004286Y-116787951D01*
X136113200Y-116804453D01*
X136256538Y-116828083D01*
X136348103Y-116847895D01*
X136399338Y-116867476D01*
X136421690Y-116890412D01*
X136426603Y-116920290D01*
X136419359Y-116929737D01*
X136373620Y-116942427D01*
X136280762Y-116951934D01*
X136134982Y-116958594D01*
X135930475Y-116962745D01*
X135661437Y-116964723D01*
X135428160Y-116966789D01*
X135107028Y-116972585D01*
X134772531Y-116981280D01*
X134452575Y-116992130D01*
X134175069Y-117004389D01*
X133979522Y-117013905D01*
X133704101Y-117024312D01*
X133479686Y-117027674D01*
X133294384Y-117023620D01*
X133136304Y-117011782D01*
X132993553Y-116991787D01*
X132854239Y-116963267D01*
X132692242Y-116907383D01*
X132528004Y-116810116D01*
X132395641Y-116688031D01*
X132307704Y-116553000D01*
X132276743Y-116416898D01*
X132277877Y-116328948D01*
X132359479Y-116428692D01*
X132446189Y-116523185D01*
X132564803Y-116607272D01*
X132705597Y-116650283D01*
X132890997Y-116662066D01*
X133021379Y-116658072D01*
X133167707Y-116646155D01*
X133277978Y-116629188D01*
X133283791Y-116627911D01*
X133363425Y-116613267D01*
X133500895Y-116590465D01*
X133685810Y-116561132D01*
X133907781Y-116526895D01*
X134156418Y-116489379D01*
X134421330Y-116450210D01*
X134566978Y-116429032D01*
X134857093Y-116388167D01*
X135097621Y-116356949D01*
X135302364Y-116334106D01*
X135485130Y-116318364D01*
X135659723Y-116308452D01*
X135839949Y-116303096D01*
X136039612Y-116301023D01*
X136196532Y-116300630D01*
X136399584Y-116300813D01*
G37*
G36*
X147938611Y-112911968D02*
G01*
X147991130Y-112930788D01*
X148160766Y-113022131D01*
X148309775Y-113145753D01*
X148422032Y-113286310D01*
X148481412Y-113428458D01*
X148489700Y-113483419D01*
X148475607Y-113523500D01*
X148418262Y-113532133D01*
X148358627Y-113518268D01*
X148292585Y-113465215D01*
X148261782Y-113430687D01*
X148159968Y-113370448D01*
X148021520Y-113324859D01*
X147868605Y-113300240D01*
X147723394Y-113302912D01*
X147707377Y-113305292D01*
X147568975Y-113339930D01*
X147448949Y-113392420D01*
X147364394Y-113453529D01*
X147332410Y-113514026D01*
X147328356Y-113538783D01*
X147297230Y-113567313D01*
X147264742Y-113587409D01*
X147271705Y-113652779D01*
X147321671Y-113756763D01*
X147412192Y-113892435D01*
X147419123Y-113901760D01*
X147497297Y-113996834D01*
X147563220Y-114060326D01*
X147603253Y-114078926D01*
X147708458Y-114046624D01*
X147892123Y-114007732D01*
X148098659Y-113978625D01*
X148309826Y-113960701D01*
X148507383Y-113955359D01*
X148673091Y-113963998D01*
X148788708Y-113988016D01*
X148890575Y-114026807D01*
X148813872Y-114108452D01*
X148796664Y-114124718D01*
X148701562Y-114187154D01*
X148588876Y-114234640D01*
X148485711Y-114266682D01*
X148341704Y-114312943D01*
X148194321Y-114361486D01*
X148186543Y-114364082D01*
X148055762Y-114406545D01*
X147945068Y-114440502D01*
X147877701Y-114458812D01*
X147767896Y-114474112D01*
X147661261Y-114464503D01*
X147542056Y-114423515D01*
X147388181Y-114346058D01*
X147335367Y-114318093D01*
X147062773Y-114192844D01*
X146722047Y-114062705D01*
X146312188Y-113927287D01*
X146249974Y-113908643D01*
X146103835Y-113868698D01*
X145953385Y-113831616D01*
X145816623Y-113801480D01*
X145711549Y-113782378D01*
X145656164Y-113778395D01*
X145647849Y-113775935D01*
X145614838Y-113731676D01*
X145575969Y-113649685D01*
X145540890Y-113552279D01*
X145519254Y-113461773D01*
X145515596Y-113413191D01*
X145525210Y-113417798D01*
X145541525Y-113444750D01*
X145578251Y-113458367D01*
X145645297Y-113441917D01*
X145758486Y-113393768D01*
X145818692Y-113368310D01*
X145957558Y-113315199D01*
X146136886Y-113250609D01*
X146340336Y-113180083D01*
X146551568Y-113109161D01*
X146754243Y-113043386D01*
X146932020Y-112988299D01*
X147068559Y-112949443D01*
X147163991Y-112926229D01*
X147459045Y-112878346D01*
X147720877Y-112873436D01*
X147938611Y-112911968D01*
G37*
G36*
X133617558Y-113423949D02*
G01*
X133752908Y-113444341D01*
X133788804Y-113452575D01*
X133916900Y-113490494D01*
X134064790Y-113543423D01*
X134218076Y-113605075D01*
X134331072Y-113655263D01*
X134362360Y-113669160D01*
X134483245Y-113729391D01*
X134566334Y-113779477D01*
X134597230Y-113813132D01*
X134592758Y-113816930D01*
X134539555Y-113819208D01*
X134438967Y-113810478D01*
X134306994Y-113791912D01*
X134123828Y-113768315D01*
X133852467Y-113749436D01*
X133527907Y-113742090D01*
X133144726Y-113746176D01*
X132697507Y-113761591D01*
X132693200Y-113761779D01*
X132478820Y-113770159D01*
X132317653Y-113773047D01*
X132192983Y-113769360D01*
X132088092Y-113758014D01*
X131986262Y-113737928D01*
X131870776Y-113708016D01*
X131712705Y-113660338D01*
X131326258Y-113503378D01*
X131228877Y-113447753D01*
X131468306Y-113447753D01*
X131490898Y-113461843D01*
X131562406Y-113497598D01*
X131624673Y-113524108D01*
X131768062Y-113571701D01*
X131912505Y-113606681D01*
X131914637Y-113607066D01*
X132005321Y-113617048D01*
X132154522Y-113626416D01*
X132350835Y-113634761D01*
X132582848Y-113641673D01*
X132839154Y-113646743D01*
X133108344Y-113649563D01*
X134103055Y-113655263D01*
X133866417Y-113572968D01*
X133801690Y-113551291D01*
X133733759Y-113532098D01*
X133660658Y-113517308D01*
X133573075Y-113506277D01*
X133461696Y-113498362D01*
X133317209Y-113492922D01*
X133130300Y-113489313D01*
X132891657Y-113486892D01*
X132591967Y-113485017D01*
X132520473Y-113484566D01*
X132258627Y-113481825D01*
X132019778Y-113477675D01*
X131813397Y-113472392D01*
X131648958Y-113466256D01*
X131535933Y-113459542D01*
X131483795Y-113452530D01*
X131468306Y-113447753D01*
X131228877Y-113447753D01*
X131161038Y-113409003D01*
X131360665Y-113409003D01*
X131378255Y-113426593D01*
X131395845Y-113409003D01*
X131378255Y-113391413D01*
X131360665Y-113409003D01*
X131161038Y-113409003D01*
X130949754Y-113288316D01*
X130848795Y-113220121D01*
X130748372Y-113144726D01*
X130697391Y-113095759D01*
X130697922Y-113076670D01*
X130752037Y-113090908D01*
X130861809Y-113141921D01*
X130934098Y-113177055D01*
X131032205Y-113217415D01*
X131137904Y-113250150D01*
X131260163Y-113276469D01*
X131407948Y-113297585D01*
X131590223Y-113314709D01*
X131815956Y-113329051D01*
X132094112Y-113341823D01*
X132433656Y-113354235D01*
X132455616Y-113354984D01*
X132830879Y-113369768D01*
X133152392Y-113386379D01*
X133416002Y-113404534D01*
X133462397Y-113409003D01*
X133617558Y-113423949D01*
G37*
G36*
X143967344Y-116440168D02*
G01*
X144111126Y-116507679D01*
X144253830Y-116578823D01*
X144379708Y-116645418D01*
X144473015Y-116699282D01*
X144518005Y-116732235D01*
X144538451Y-116746669D01*
X144609709Y-116783567D01*
X144710518Y-116829052D01*
X144778804Y-116860815D01*
X144861186Y-116908481D01*
X144898907Y-116943953D01*
X144899343Y-116956320D01*
X144865875Y-116969824D01*
X144781276Y-116961629D01*
X144641855Y-116930988D01*
X144443925Y-116877156D01*
X144183795Y-116799388D01*
X143913540Y-116714387D01*
X143665314Y-116631263D01*
X143483369Y-116563509D01*
X143366531Y-116510684D01*
X143313627Y-116472347D01*
X143302087Y-116458793D01*
X143287242Y-116465670D01*
X143285145Y-116470077D01*
X143252604Y-116455527D01*
X143228645Y-116434488D01*
X143357064Y-116434488D01*
X143374654Y-116452078D01*
X143392244Y-116434488D01*
X143374654Y-116416898D01*
X143357064Y-116434488D01*
X143228645Y-116434488D01*
X143193312Y-116403461D01*
X143112286Y-116341710D01*
X143036329Y-116330253D01*
X143031991Y-116331396D01*
X142961402Y-116329258D01*
X142848520Y-116306613D01*
X142707133Y-116268284D01*
X142551026Y-116219094D01*
X142393985Y-116163865D01*
X142249798Y-116107419D01*
X142132251Y-116054580D01*
X142055130Y-116010170D01*
X142032222Y-115979011D01*
X142043374Y-115940213D01*
X142065609Y-115848840D01*
X142092067Y-115730887D01*
X142113877Y-115632622D01*
X142134294Y-115546576D01*
X142144931Y-115509540D01*
X142176274Y-115514134D01*
X142256632Y-115537231D01*
X142367733Y-115573878D01*
X142390740Y-115581666D01*
X142565777Y-115625384D01*
X142693140Y-115624359D01*
X142773627Y-115616546D01*
X142828297Y-115641211D01*
X142840808Y-115653005D01*
X142894533Y-115649799D01*
X142991007Y-115602283D01*
X143045607Y-115572091D01*
X143091770Y-115554955D01*
X143083252Y-115578873D01*
X143020370Y-115631460D01*
X142930487Y-115679946D01*
X142888218Y-115696199D01*
X142828286Y-115706009D01*
X142795331Y-115679975D01*
X142775004Y-115671585D01*
X142767798Y-115729216D01*
X142768364Y-115744469D01*
X142782698Y-115793277D01*
X142825057Y-115841871D01*
X142907004Y-115900954D01*
X143040103Y-115981228D01*
X143072715Y-116000566D01*
X143203568Y-116086876D01*
X143301561Y-116165773D01*
X143351572Y-116225403D01*
X143376254Y-116267539D01*
X143431440Y-116302473D01*
X143529891Y-116311358D01*
X143619134Y-116322131D01*
X143753808Y-116356611D01*
X143891241Y-116406576D01*
X143954476Y-116434488D01*
X143967344Y-116440168D01*
G37*
G36*
X144289906Y-117119936D02*
G01*
X144432504Y-117133664D01*
X144605956Y-117156995D01*
X144771155Y-117180990D01*
X144926764Y-117201813D01*
X145047508Y-117216068D01*
X145116066Y-117221564D01*
X145150172Y-117222894D01*
X145257372Y-117231685D01*
X145379917Y-117245770D01*
X145463620Y-117254273D01*
X145630708Y-117263669D01*
X145822931Y-117268405D01*
X146016467Y-117268299D01*
X146187493Y-117263172D01*
X146312188Y-117252843D01*
X146331011Y-117250168D01*
X146456198Y-117230728D01*
X146585496Y-117208703D01*
X146673169Y-117196102D01*
X146716016Y-117202021D01*
X146716864Y-117230670D01*
X146707415Y-117244700D01*
X146648896Y-117297178D01*
X146554465Y-117366655D01*
X146442352Y-117441295D01*
X146330783Y-117509263D01*
X146237986Y-117558723D01*
X146182189Y-117577840D01*
X146164355Y-117580127D01*
X146136288Y-117606784D01*
X146119174Y-117629316D01*
X146050760Y-117673909D01*
X145946027Y-117727047D01*
X145822209Y-117780187D01*
X145696537Y-117824785D01*
X145613949Y-117854299D01*
X145480068Y-117909889D01*
X145344737Y-117972652D01*
X145209836Y-118034255D01*
X144908001Y-118146604D01*
X144570524Y-118243700D01*
X144548193Y-118248469D01*
X144420162Y-118262234D01*
X144243176Y-118267957D01*
X144033909Y-118266399D01*
X143809035Y-118258321D01*
X143585230Y-118244484D01*
X143379168Y-118225647D01*
X143207523Y-118202572D01*
X143086969Y-118176020D01*
X143010926Y-118150617D01*
X142944931Y-118119541D01*
X142944352Y-118095962D01*
X143010824Y-118076615D01*
X143145983Y-118058235D01*
X143204876Y-118050887D01*
X143352523Y-118028831D01*
X143497784Y-118003433D01*
X143536989Y-117996009D01*
X143679822Y-117969778D01*
X143852334Y-117938897D01*
X144025485Y-117908585D01*
X144110594Y-117893267D01*
X144246213Y-117866041D01*
X144346698Y-117842185D01*
X144394875Y-117825558D01*
X144408887Y-117818540D01*
X144481641Y-117792874D01*
X144597176Y-117757949D01*
X144737881Y-117719225D01*
X144806530Y-117700342D01*
X144929227Y-117661824D01*
X145014042Y-117628485D01*
X145045706Y-117605943D01*
X145044082Y-117596696D01*
X145014512Y-117592966D01*
X144989394Y-117594678D01*
X144939845Y-117559862D01*
X144911233Y-117531610D01*
X144863886Y-117507479D01*
X144838686Y-117499238D01*
X144761677Y-117466806D01*
X144649799Y-117416783D01*
X144519223Y-117356709D01*
X144386121Y-117294127D01*
X144266663Y-117236581D01*
X144177023Y-117191612D01*
X144133370Y-117166763D01*
X144130053Y-117159778D01*
X144150960Y-117123927D01*
X144191340Y-117116769D01*
X144289906Y-117119936D01*
G37*
G36*
X140990376Y-116524617D02*
G01*
X140993746Y-116538461D01*
X140992550Y-116576267D01*
X140954705Y-116588493D01*
X140863747Y-116582691D01*
X140838757Y-116579380D01*
X140727252Y-116548159D01*
X140650662Y-116504848D01*
X140683379Y-116504848D01*
X140700969Y-116522438D01*
X140718559Y-116504848D01*
X140700969Y-116487258D01*
X140683379Y-116504848D01*
X140650662Y-116504848D01*
X140644402Y-116501308D01*
X140634666Y-116492973D01*
X140591912Y-116467386D01*
X140529735Y-116449422D01*
X140435402Y-116437251D01*
X140296178Y-116429043D01*
X140099329Y-116422967D01*
X139953686Y-116419771D01*
X139807394Y-116418578D01*
X139712566Y-116422102D01*
X139658313Y-116431485D01*
X139633747Y-116447869D01*
X139627978Y-116472395D01*
X139626749Y-116502049D01*
X139611340Y-116513580D01*
X139563643Y-116475120D01*
X139541841Y-116459030D01*
X139444803Y-116427119D01*
X139290997Y-116417130D01*
X139222958Y-116416120D01*
X139018992Y-116403850D01*
X138795212Y-116379895D01*
X138569643Y-116347089D01*
X138360311Y-116308267D01*
X138185243Y-116266266D01*
X138062465Y-116223919D01*
X138031408Y-116209259D01*
X138002747Y-116190613D01*
X138018720Y-116180822D01*
X138087899Y-116177350D01*
X138218855Y-116177662D01*
X138317029Y-116179755D01*
X138425561Y-116189537D01*
X138492536Y-116210611D01*
X138535476Y-116246803D01*
X138537571Y-116249335D01*
X138564636Y-116274454D01*
X138604121Y-116291645D01*
X138667605Y-116302039D01*
X138766670Y-116306770D01*
X138912897Y-116306971D01*
X139117867Y-116303775D01*
X139645568Y-116293768D01*
X139638671Y-116141874D01*
X139631775Y-115989980D01*
X139744211Y-116012609D01*
X139796789Y-116023350D01*
X140017212Y-116071797D01*
X140220238Y-116121577D01*
X140392916Y-116169173D01*
X140522297Y-116211069D01*
X140595429Y-116243748D01*
X140680361Y-116276154D01*
X140830449Y-116300894D01*
X141033667Y-116314674D01*
X141281440Y-116316584D01*
X141361535Y-116315399D01*
X141503878Y-116315619D01*
X141603688Y-116323022D01*
X141680345Y-116341401D01*
X141753224Y-116374548D01*
X141841705Y-116426259D01*
X141932434Y-116484440D01*
X142008205Y-116540028D01*
X142009884Y-116541260D01*
X142043962Y-116576153D01*
X142029114Y-116600224D01*
X141967424Y-116615461D01*
X141909438Y-116610428D01*
X141879501Y-116587000D01*
X141873970Y-116574220D01*
X141835526Y-116580909D01*
X141763095Y-116611560D01*
X141675194Y-116597972D01*
X141602769Y-116540028D01*
X141668421Y-116540028D01*
X141686011Y-116557618D01*
X141703601Y-116540028D01*
X141914681Y-116540028D01*
X141932271Y-116557618D01*
X141949861Y-116540028D01*
X141932271Y-116522438D01*
X141914681Y-116540028D01*
X141703601Y-116540028D01*
X141686011Y-116522438D01*
X141668421Y-116540028D01*
X141602769Y-116540028D01*
X141579447Y-116521369D01*
X141544468Y-116486758D01*
X141479675Y-116441632D01*
X141399640Y-116421502D01*
X141276935Y-116416898D01*
X141189407Y-116420260D01*
X141097044Y-116433245D01*
X141052415Y-116452652D01*
X141043027Y-116463816D01*
X141000850Y-116470193D01*
X140986573Y-116475004D01*
X140988861Y-116504848D01*
X140990376Y-116524617D01*
G37*
G36*
X134119731Y-115587783D02*
G01*
X134280414Y-115663795D01*
X134409583Y-115731734D01*
X134495610Y-115786529D01*
X134526870Y-115823107D01*
X134517469Y-115840530D01*
X134469570Y-115839557D01*
X134319489Y-115794036D01*
X134080978Y-115747860D01*
X133789016Y-115711923D01*
X133452506Y-115686546D01*
X133080356Y-115672049D01*
X132681468Y-115668754D01*
X132264749Y-115676983D01*
X131839103Y-115697057D01*
X131413435Y-115729296D01*
X131249329Y-115743130D01*
X130982576Y-115762006D01*
X130714642Y-115777260D01*
X130469240Y-115787596D01*
X130270083Y-115791720D01*
X130199290Y-115791841D01*
X130012311Y-115789714D01*
X129869793Y-115781945D01*
X129752047Y-115766188D01*
X129639386Y-115740092D01*
X129512119Y-115701311D01*
X129367829Y-115648060D01*
X129147146Y-115529185D01*
X129120822Y-115505796D01*
X129754359Y-115505796D01*
X129754969Y-115508074D01*
X129800223Y-115521975D01*
X129894387Y-115545293D01*
X130023823Y-115574547D01*
X130164766Y-115599171D01*
X130385425Y-115622723D01*
X130625071Y-115635560D01*
X130861664Y-115637140D01*
X131073165Y-115626922D01*
X131237535Y-115604363D01*
X131265011Y-115599542D01*
X131378330Y-115587666D01*
X131542820Y-115576852D01*
X131746335Y-115567328D01*
X131976730Y-115559325D01*
X132221860Y-115553070D01*
X132469580Y-115548793D01*
X132707745Y-115546723D01*
X132924210Y-115547088D01*
X133106829Y-115550117D01*
X133243459Y-115556039D01*
X133321953Y-115565083D01*
X133364692Y-115573949D01*
X133441173Y-115581791D01*
X133471468Y-115571768D01*
X133471220Y-115570342D01*
X133433462Y-115547982D01*
X133340768Y-115517539D01*
X133206499Y-115482102D01*
X133044010Y-115444755D01*
X132866661Y-115408585D01*
X132687809Y-115376679D01*
X132520813Y-115352123D01*
X132366304Y-115339828D01*
X132129503Y-115336283D01*
X131849107Y-115344245D01*
X131539053Y-115363046D01*
X131213283Y-115392019D01*
X130885734Y-115430496D01*
X130789103Y-115441795D01*
X130601927Y-115459086D01*
X130393665Y-115474287D01*
X130194109Y-115485046D01*
X130039799Y-115491674D01*
X129899569Y-115498043D01*
X129799379Y-115502989D01*
X129754359Y-115505796D01*
X129120822Y-115505796D01*
X128972431Y-115373947D01*
X128829687Y-115171477D01*
X128780332Y-115083116D01*
X128738315Y-115002909D01*
X128722161Y-114964853D01*
X128723288Y-114963525D01*
X128763292Y-114971759D01*
X128849072Y-115001768D01*
X128964903Y-115048156D01*
X129075165Y-115091339D01*
X129237366Y-115141498D01*
X129409368Y-115176364D01*
X129603148Y-115197052D01*
X129830684Y-115204679D01*
X130103952Y-115200363D01*
X130434930Y-115185220D01*
X130780706Y-115166379D01*
X131129878Y-115148502D01*
X131423968Y-115135217D01*
X131671153Y-115126447D01*
X131879610Y-115122113D01*
X132057514Y-115122138D01*
X132213044Y-115126442D01*
X132354374Y-115134948D01*
X132489683Y-115147578D01*
X132627147Y-115164253D01*
X132803005Y-115188679D01*
X132983335Y-115216018D01*
X133135921Y-115241452D01*
X133239718Y-115261636D01*
X133250523Y-115264143D01*
X133394382Y-115304443D01*
X133564858Y-115362029D01*
X133750326Y-115431829D01*
X133939159Y-115508771D01*
X134083131Y-115571768D01*
X134119731Y-115587783D01*
G37*
G36*
X145295393Y-113211829D02*
G01*
X145163362Y-113284061D01*
X145029989Y-113353314D01*
X144913607Y-113409717D01*
X144832546Y-113443397D01*
X144824621Y-113445794D01*
X144739828Y-113462508D01*
X144612924Y-113479428D01*
X144468214Y-113493232D01*
X144189751Y-113514543D01*
X144149084Y-113637673D01*
X144145348Y-113648681D01*
X144107331Y-113724575D01*
X144044629Y-113775621D01*
X143935026Y-113820829D01*
X143870689Y-113842234D01*
X143774842Y-113870618D01*
X143718897Y-113882394D01*
X143669970Y-113855357D01*
X143622746Y-113780139D01*
X143593074Y-113678943D01*
X143587539Y-113649133D01*
X143555401Y-113573191D01*
X143492105Y-113526627D01*
X143384849Y-113503166D01*
X143220831Y-113496536D01*
X143065267Y-113490116D01*
X142902504Y-113472843D01*
X142773985Y-113448582D01*
X142717641Y-113435306D01*
X142574813Y-113412303D01*
X142451891Y-113405024D01*
X142416228Y-113405302D01*
X142344275Y-113399524D01*
X142322214Y-113386559D01*
X142316790Y-113377327D01*
X142263117Y-113357779D01*
X142169378Y-113339291D01*
X142116893Y-113330437D01*
X142021167Y-113308376D01*
X141967451Y-113287431D01*
X141919345Y-113263538D01*
X141835526Y-113237283D01*
X141769798Y-113207465D01*
X141738781Y-113158157D01*
X141745457Y-113128987D01*
X141783409Y-113116511D01*
X141870706Y-113129486D01*
X141923161Y-113138763D01*
X142057093Y-113155673D01*
X142196122Y-113166760D01*
X142303729Y-113172314D01*
X142463045Y-113180579D01*
X142649875Y-113190299D01*
X142842504Y-113200346D01*
X142858391Y-113201171D01*
X143042318Y-113209479D01*
X143166594Y-113211643D01*
X143241004Y-113207116D01*
X143275329Y-113195345D01*
X143278417Y-113180333D01*
X143321884Y-113180333D01*
X143348431Y-113204331D01*
X143418629Y-113214974D01*
X143449413Y-113214192D01*
X143486401Y-113204715D01*
X143462604Y-113180333D01*
X143410572Y-113154974D01*
X143347928Y-113149142D01*
X143321884Y-113180333D01*
X143278417Y-113180333D01*
X143279353Y-113175782D01*
X143241201Y-113137993D01*
X143163573Y-113109973D01*
X143091207Y-113085886D01*
X143049209Y-113048407D01*
X143057204Y-113016111D01*
X143120643Y-112999879D01*
X143246681Y-113003574D01*
X143296874Y-113000840D01*
X143311994Y-112981083D01*
X143311666Y-112980276D01*
X143341795Y-112968612D01*
X143428644Y-112958209D01*
X143559440Y-112950174D01*
X143721407Y-112945615D01*
X143855189Y-112941723D01*
X144088642Y-112928268D01*
X144321147Y-112908177D01*
X144518005Y-112884130D01*
X144698746Y-112856965D01*
X144972759Y-112815539D01*
X145187358Y-112782671D01*
X145349094Y-112757302D01*
X145464521Y-112738373D01*
X145540192Y-112724827D01*
X145582659Y-112715606D01*
X145598476Y-112709650D01*
X145587768Y-112702600D01*
X145525639Y-112688411D01*
X145425067Y-112672921D01*
X145372262Y-112665085D01*
X145210987Y-112633871D01*
X145063296Y-112596871D01*
X144971964Y-112565533D01*
X144838836Y-112509481D01*
X144703996Y-112443975D01*
X144584236Y-112377826D01*
X144496352Y-112319846D01*
X144457137Y-112278845D01*
X144480652Y-112270079D01*
X144565321Y-112262244D01*
X144702595Y-112256495D01*
X144883080Y-112252740D01*
X145097385Y-112250883D01*
X145336116Y-112250833D01*
X145589881Y-112252494D01*
X145849287Y-112255773D01*
X146104942Y-112260577D01*
X146347452Y-112266812D01*
X146567426Y-112274384D01*
X146755470Y-112283199D01*
X146902192Y-112293165D01*
X146998199Y-112304186D01*
X147126960Y-112329089D01*
X147294252Y-112368665D01*
X147448314Y-112412132D01*
X147570459Y-112454119D01*
X147642001Y-112489255D01*
X147670115Y-112524195D01*
X147642001Y-112567972D01*
X147624129Y-112581395D01*
X147554507Y-112595894D01*
X147437950Y-112581322D01*
X147354142Y-112568931D01*
X147224460Y-112557786D01*
X147080442Y-112551163D01*
X146938985Y-112549241D01*
X146816986Y-112552200D01*
X146731343Y-112560219D01*
X146698954Y-112573477D01*
X146692697Y-112581043D01*
X146637836Y-112596113D01*
X146544873Y-112604006D01*
X146506111Y-112607034D01*
X146384269Y-112635355D01*
X146224762Y-112696094D01*
X146017387Y-112792904D01*
X145873846Y-112866275D01*
X145754291Y-112932039D01*
X145673465Y-112981879D01*
X145643767Y-113008635D01*
X145638723Y-113022121D01*
X145593510Y-113039612D01*
X145562151Y-113045818D01*
X145496765Y-113085722D01*
X145482106Y-113097912D01*
X145407751Y-113146489D01*
X145307626Y-113204715D01*
X145295393Y-113211829D01*
G37*
G36*
X135039366Y-114765401D02*
G01*
X135199584Y-114837333D01*
X135367674Y-114916953D01*
X135529501Y-114998083D01*
X135540753Y-115003812D01*
X135626374Y-115044707D01*
X135748566Y-115100484D01*
X135892947Y-115164874D01*
X136045134Y-115231610D01*
X136190743Y-115294426D01*
X136315391Y-115347053D01*
X136404695Y-115383226D01*
X136444272Y-115396676D01*
X136451178Y-115392476D01*
X136440488Y-115355518D01*
X136435881Y-115330936D01*
X136482387Y-115341206D01*
X136635809Y-115390897D01*
X136891261Y-115438951D01*
X137153570Y-115453071D01*
X137170987Y-115452802D01*
X137287386Y-115454523D01*
X137365795Y-115461882D01*
X137390058Y-115473486D01*
X137400820Y-115491627D01*
X137465666Y-115510610D01*
X137590715Y-115529937D01*
X137781025Y-115550607D01*
X137838787Y-115557146D01*
X137950038Y-115574900D01*
X138024261Y-115593647D01*
X138070092Y-115603953D01*
X138063991Y-115575045D01*
X138058611Y-115565842D01*
X138059358Y-115547579D01*
X138109565Y-115569542D01*
X138162840Y-115591377D01*
X138225934Y-115599436D01*
X138239718Y-115602200D01*
X138284837Y-115645339D01*
X138335134Y-115721380D01*
X138376540Y-115807049D01*
X138394986Y-115879074D01*
X138394209Y-115883034D01*
X138351896Y-115901767D01*
X138253436Y-115911895D01*
X138110495Y-115914085D01*
X137934735Y-115909002D01*
X137737820Y-115897312D01*
X137531413Y-115879682D01*
X137327179Y-115856777D01*
X137136782Y-115829264D01*
X136971884Y-115797808D01*
X136839042Y-115767500D01*
X136686588Y-115731295D01*
X136566494Y-115701172D01*
X136496953Y-115681584D01*
X136486141Y-115678123D01*
X136399138Y-115654060D01*
X136271773Y-115622183D01*
X136127562Y-115588422D01*
X136069234Y-115573832D01*
X135891424Y-115519822D01*
X135663460Y-115440898D01*
X135394784Y-115340643D01*
X135094840Y-115222639D01*
X134773071Y-115090469D01*
X134438920Y-114947716D01*
X134283602Y-114885468D01*
X133954710Y-114778184D01*
X133693655Y-114710665D01*
X134843490Y-114710665D01*
X134861080Y-114728255D01*
X134878670Y-114710665D01*
X134861080Y-114693075D01*
X134843490Y-114710665D01*
X133693655Y-114710665D01*
X133582837Y-114682003D01*
X133185494Y-114599949D01*
X132780193Y-114535045D01*
X132384446Y-114490312D01*
X132015765Y-114468776D01*
X131691662Y-114473458D01*
X131685713Y-114473834D01*
X131510285Y-114481964D01*
X131400774Y-114479293D01*
X131353508Y-114464723D01*
X131364815Y-114437154D01*
X131431025Y-114395489D01*
X131441855Y-114389842D01*
X131555437Y-114338668D01*
X131659695Y-114302712D01*
X131665013Y-114301330D01*
X131755799Y-114277534D01*
X131885925Y-114243218D01*
X132029086Y-114205318D01*
X132123949Y-114181420D01*
X132444098Y-114119148D01*
X132789076Y-114080603D01*
X133173084Y-114064570D01*
X133610325Y-114069831D01*
X133740099Y-114074954D01*
X133977634Y-114087961D01*
X134207800Y-114104647D01*
X134409603Y-114123406D01*
X134562050Y-114142633D01*
X134690026Y-114161224D01*
X134899405Y-114188119D01*
X135125000Y-114214066D01*
X135336011Y-114235374D01*
X135507220Y-114252030D01*
X135698494Y-114272586D01*
X135866111Y-114292540D01*
X135986842Y-114309255D01*
X135998265Y-114310959D01*
X136108233Y-114322851D01*
X136271691Y-114335793D01*
X136474079Y-114348834D01*
X136700838Y-114361022D01*
X136937410Y-114371405D01*
X136946459Y-114371757D01*
X137231309Y-114384647D01*
X137453704Y-114399427D01*
X137621332Y-114417544D01*
X137741878Y-114440448D01*
X137823031Y-114469585D01*
X137872477Y-114506405D01*
X137897902Y-114552355D01*
X137901905Y-114567341D01*
X137892885Y-114580444D01*
X137844960Y-114543560D01*
X137842497Y-114541416D01*
X137807857Y-114519104D01*
X137757075Y-114503085D01*
X137679310Y-114492362D01*
X137563721Y-114485938D01*
X137399467Y-114482814D01*
X137175706Y-114481995D01*
X137112428Y-114482067D01*
X136895763Y-114484035D01*
X136738520Y-114489182D01*
X136631951Y-114498169D01*
X136567305Y-114511657D01*
X136535834Y-114530306D01*
X136513709Y-114569028D01*
X136519636Y-114629790D01*
X136575185Y-114705609D01*
X136685912Y-114806719D01*
X136746304Y-114861841D01*
X136811645Y-114936564D01*
X136837027Y-114988397D01*
X136829631Y-115021034D01*
X136793823Y-115007903D01*
X136771267Y-114992419D01*
X136720531Y-114977447D01*
X136652837Y-114981537D01*
X136595517Y-114967545D01*
X136584903Y-114939335D01*
X136583609Y-114918035D01*
X136536285Y-114904155D01*
X136493660Y-114898229D01*
X136444183Y-114868975D01*
X136428825Y-114853437D01*
X136366830Y-114833795D01*
X136333931Y-114826938D01*
X136272161Y-114782464D01*
X136248137Y-114762188D01*
X136166159Y-114721743D01*
X136057202Y-114686302D01*
X135992508Y-114668436D01*
X135904968Y-114638752D01*
X135862805Y-114616395D01*
X135860959Y-114614333D01*
X135811329Y-114591350D01*
X135726034Y-114570481D01*
X135724318Y-114570176D01*
X135624359Y-114546256D01*
X135548866Y-114518124D01*
X135513581Y-114504970D01*
X135417511Y-114482844D01*
X135298656Y-114465032D01*
X135193502Y-114452528D01*
X135027302Y-114431360D01*
X134866976Y-114409673D01*
X134865089Y-114409408D01*
X134740723Y-114395086D01*
X134644374Y-114389669D01*
X134596761Y-114394334D01*
X134584375Y-114398491D01*
X134544038Y-114375772D01*
X134539661Y-114370702D01*
X134482801Y-114348906D01*
X134392092Y-114341473D01*
X134374795Y-114341553D01*
X134265980Y-114336893D01*
X134120188Y-114325604D01*
X133963989Y-114309660D01*
X133800257Y-114291801D01*
X133570127Y-114270579D01*
X133372675Y-114257107D01*
X133217160Y-114251818D01*
X133112843Y-114255150D01*
X133068984Y-114267539D01*
X133076921Y-114281164D01*
X133135758Y-114301603D01*
X133234589Y-114318022D01*
X133324947Y-114328274D01*
X133579603Y-114360020D01*
X133790238Y-114392296D01*
X133976886Y-114428881D01*
X134159580Y-114473556D01*
X134358354Y-114530102D01*
X134422217Y-114548345D01*
X134559056Y-114581792D01*
X134667269Y-114600651D01*
X134727744Y-114601243D01*
X134738789Y-114597737D01*
X134769344Y-114592412D01*
X134737950Y-114618858D01*
X134729217Y-114625247D01*
X134706780Y-114651217D01*
X134750181Y-114657356D01*
X134799084Y-114669321D01*
X134901155Y-114707337D01*
X134909077Y-114710665D01*
X135039366Y-114765401D01*
G37*
G36*
X139114469Y-113411337D02*
G01*
X139027456Y-113418696D01*
X138994869Y-113427243D01*
X138976890Y-113437802D01*
X138916870Y-113447386D01*
X138810727Y-113455556D01*
X138654424Y-113462450D01*
X138443921Y-113468207D01*
X138175177Y-113472963D01*
X137844155Y-113476856D01*
X137446814Y-113480025D01*
X137268285Y-113481021D01*
X137009261Y-113481487D01*
X136816928Y-113480230D01*
X136691684Y-113477127D01*
X136633933Y-113472054D01*
X136644075Y-113464886D01*
X136722513Y-113455499D01*
X136869647Y-113443770D01*
X137085880Y-113429573D01*
X137371612Y-113412785D01*
X137515039Y-113404919D01*
X138278535Y-113404919D01*
X138283824Y-113415932D01*
X138343906Y-113419735D01*
X138354831Y-113419503D01*
X138401558Y-113413412D01*
X138395909Y-113409003D01*
X138713296Y-113409003D01*
X138717705Y-113413412D01*
X138730886Y-113426593D01*
X138748476Y-113409003D01*
X138730886Y-113391413D01*
X138713296Y-113409003D01*
X138395909Y-113409003D01*
X138387211Y-113402214D01*
X138351510Y-113396558D01*
X138281671Y-113403517D01*
X138278535Y-113404919D01*
X137515039Y-113404919D01*
X137727245Y-113393281D01*
X137763592Y-113391304D01*
X137988239Y-113377693D01*
X138194281Y-113362953D01*
X138368796Y-113348163D01*
X138498865Y-113334403D01*
X138571567Y-113322753D01*
X138625559Y-113310719D01*
X138782648Y-113285359D01*
X138985686Y-113260991D01*
X139218156Y-113239078D01*
X139463544Y-113221084D01*
X139705333Y-113208470D01*
X139927008Y-113202700D01*
X140074513Y-113202871D01*
X140266410Y-113210667D01*
X140415869Y-113229134D01*
X140539847Y-113259852D01*
X140621983Y-113284090D01*
X140707250Y-113303564D01*
X140746770Y-113304569D01*
X140745941Y-113300359D01*
X140705596Y-113271857D01*
X140619326Y-113225491D01*
X140501052Y-113168943D01*
X140457359Y-113147890D01*
X140323660Y-113071596D01*
X140194717Y-112983252D01*
X140084864Y-112894140D01*
X140008439Y-112815541D01*
X139979778Y-112758737D01*
X140007745Y-112753007D01*
X140087035Y-112760776D01*
X140199654Y-112780991D01*
X140372464Y-112807880D01*
X140645615Y-112827662D01*
X140967782Y-112831694D01*
X141328139Y-112820551D01*
X141715857Y-112794809D01*
X142120109Y-112755042D01*
X142530067Y-112701826D01*
X142934903Y-112635734D01*
X143087654Y-112608421D01*
X143285508Y-112575212D01*
X143453573Y-112550784D01*
X143615728Y-112531785D01*
X143795847Y-112514863D01*
X143798926Y-112514540D01*
X143811081Y-112499789D01*
X143766813Y-112469010D01*
X143676462Y-112425924D01*
X143550370Y-112374255D01*
X143398880Y-112317726D01*
X143232333Y-112260059D01*
X143061072Y-112204977D01*
X142895438Y-112156203D01*
X142745773Y-112117460D01*
X142622419Y-112092469D01*
X142579936Y-112085740D01*
X142469479Y-112067001D01*
X142403531Y-112050633D01*
X142386111Y-112033657D01*
X142421240Y-112013096D01*
X142512940Y-111985973D01*
X142665231Y-111949308D01*
X142882133Y-111900126D01*
X143157222Y-111842158D01*
X143584466Y-111771153D01*
X144004603Y-111727853D01*
X144442388Y-111710019D01*
X144922576Y-111715409D01*
X145149028Y-111724658D01*
X145387656Y-111738352D01*
X145608170Y-111754781D01*
X145793158Y-111772640D01*
X145925208Y-111790622D01*
X146024884Y-111807319D01*
X146237249Y-111834932D01*
X146393625Y-111842273D01*
X146490227Y-111829306D01*
X146523269Y-111795999D01*
X146518290Y-111774448D01*
X146482291Y-111701735D01*
X146422936Y-111611303D01*
X146402582Y-111583907D01*
X146347019Y-111514648D01*
X146281360Y-111442798D01*
X146194793Y-111357534D01*
X146076508Y-111248031D01*
X145915693Y-111103467D01*
X145836148Y-111028834D01*
X145779187Y-110967610D01*
X145763095Y-110938475D01*
X145763687Y-110938059D01*
X145806020Y-110941505D01*
X145900737Y-110961119D01*
X146033714Y-110993150D01*
X146190826Y-111033844D01*
X146357947Y-111079448D01*
X146520953Y-111126208D01*
X146665718Y-111170371D01*
X146778118Y-111208184D01*
X146881991Y-111243929D01*
X147147948Y-111322663D01*
X147454934Y-111399987D01*
X147783042Y-111471418D01*
X148112364Y-111532471D01*
X148422992Y-111578663D01*
X148482787Y-111586359D01*
X148649436Y-111611051D01*
X148781938Y-111639659D01*
X148904292Y-111679591D01*
X149040494Y-111738258D01*
X149214543Y-111823069D01*
X149357194Y-111898157D01*
X149525637Y-111995690D01*
X149671844Y-112089473D01*
X149774956Y-112166713D01*
X149775522Y-112167205D01*
X149915409Y-112306708D01*
X150068581Y-112488667D01*
X150219132Y-112691646D01*
X150351158Y-112894205D01*
X150448755Y-113074909D01*
X150485872Y-113149191D01*
X150572781Y-113274009D01*
X150680009Y-113360554D01*
X150700575Y-113373076D01*
X150930611Y-113523012D01*
X151145786Y-113684977D01*
X151375151Y-113880709D01*
X151422590Y-113921853D01*
X151562443Y-114032396D01*
X151699772Y-114127949D01*
X151810656Y-114191443D01*
X151853661Y-114211298D01*
X152114544Y-114325047D01*
X152373772Y-114427767D01*
X152611331Y-114511860D01*
X152807206Y-114569728D01*
X152853886Y-114582175D01*
X153058376Y-114655336D01*
X153227770Y-114746594D01*
X153344436Y-114846851D01*
X153364172Y-114881194D01*
X153378036Y-114968310D01*
X153369532Y-115106691D01*
X153318075Y-115389706D01*
X153197194Y-115737948D01*
X153011567Y-116079970D01*
X152765559Y-116412046D01*
X152758490Y-116421588D01*
X152705116Y-116484920D01*
X152561685Y-116651243D01*
X152437232Y-116789917D01*
X152338092Y-116894194D01*
X152270603Y-116957325D01*
X152241103Y-116972562D01*
X152232914Y-116944247D01*
X152215033Y-116863722D01*
X152192386Y-116751108D01*
X152172529Y-116658833D01*
X152124318Y-116514929D01*
X152111768Y-116497788D01*
X152278404Y-116497788D01*
X152284703Y-116601593D01*
X152291033Y-116656980D01*
X152306551Y-116737123D01*
X152322725Y-116768563D01*
X152345705Y-116753151D01*
X152400454Y-116696236D01*
X152469270Y-116614926D01*
X152537083Y-116527964D01*
X152588823Y-116454090D01*
X152609418Y-116412046D01*
X152608821Y-116409253D01*
X152571005Y-116392433D01*
X152493128Y-116383589D01*
X152401602Y-116383039D01*
X152322836Y-116391104D01*
X152283237Y-116408103D01*
X152279711Y-116424794D01*
X152278404Y-116497788D01*
X152111768Y-116497788D01*
X152056411Y-116422184D01*
X151956984Y-116367701D01*
X151814210Y-116338579D01*
X151802335Y-116337225D01*
X151667185Y-116332075D01*
X151507420Y-116339718D01*
X151338864Y-116357673D01*
X151177340Y-116383459D01*
X151038673Y-116414594D01*
X150938687Y-116448598D01*
X150893205Y-116482990D01*
X150892895Y-116483783D01*
X150851888Y-116544324D01*
X150783521Y-116613613D01*
X150771856Y-116623966D01*
X150730491Y-116672282D01*
X150703637Y-116736557D01*
X150685840Y-116834917D01*
X150671647Y-116985487D01*
X150665060Y-117056744D01*
X150629336Y-117269780D01*
X150575154Y-117425008D01*
X150553860Y-117469830D01*
X150525024Y-117549623D01*
X150523576Y-117591074D01*
X150531038Y-117596086D01*
X150598013Y-117609916D01*
X150709217Y-117614547D01*
X150844369Y-117610924D01*
X150983187Y-117599992D01*
X151105387Y-117582697D01*
X151190688Y-117559984D01*
X151317620Y-117506948D01*
X151297040Y-117680708D01*
X151285596Y-117739160D01*
X151272057Y-117808308D01*
X151179754Y-118040669D01*
X151023373Y-118291086D01*
X151006637Y-118314720D01*
X150939423Y-118435853D01*
X150924846Y-118537778D01*
X150959390Y-118639658D01*
X150977409Y-118683871D01*
X150972813Y-118735677D01*
X150925575Y-118775439D01*
X150828765Y-118806092D01*
X150675454Y-118830574D01*
X150458714Y-118851821D01*
X150023684Y-118887571D01*
X149890768Y-119039804D01*
X149727471Y-119198430D01*
X149483728Y-119377128D01*
X149198228Y-119539753D01*
X148886411Y-119677666D01*
X148563712Y-119782232D01*
X148544917Y-119787143D01*
X148451943Y-119809754D01*
X148361918Y-119827239D01*
X148264368Y-119840248D01*
X148148822Y-119849434D01*
X148004808Y-119855446D01*
X147821853Y-119858937D01*
X147589484Y-119860556D01*
X147297230Y-119860955D01*
X147265741Y-119860948D01*
X146867774Y-119859203D01*
X146539966Y-119854386D01*
X146282190Y-119846482D01*
X146094318Y-119835476D01*
X145976226Y-119821354D01*
X145927787Y-119804100D01*
X145948874Y-119783701D01*
X146039362Y-119760141D01*
X146199123Y-119733406D01*
X146275524Y-119721558D01*
X146527469Y-119668359D01*
X146728875Y-119598686D01*
X146894841Y-119507638D01*
X146957115Y-119460744D01*
X147002180Y-119398980D01*
X147007943Y-119321786D01*
X146991528Y-119256543D01*
X146940900Y-119198209D01*
X146839889Y-119138071D01*
X146792263Y-119115440D01*
X146666029Y-119066611D01*
X146558449Y-119038351D01*
X146493230Y-119027965D01*
X146362682Y-119006380D01*
X146224238Y-118982814D01*
X146122295Y-118971929D01*
X145914851Y-118972234D01*
X145657797Y-118992555D01*
X145361626Y-119031669D01*
X145036831Y-119088351D01*
X144693906Y-119161377D01*
X144458471Y-119214850D01*
X144227823Y-119263132D01*
X144039129Y-119295867D01*
X143878260Y-119314624D01*
X143731085Y-119320972D01*
X143583474Y-119316481D01*
X143421299Y-119302720D01*
X143318231Y-119292214D01*
X143185658Y-119278943D01*
X143091775Y-119269853D01*
X143052229Y-119266482D01*
X143048653Y-119265373D01*
X143055051Y-119236128D01*
X143071020Y-119223401D01*
X143140576Y-119192745D01*
X143241822Y-119161005D01*
X143283795Y-119149130D01*
X143418793Y-119104679D01*
X143569763Y-119048152D01*
X143723005Y-118985523D01*
X143864819Y-118922766D01*
X143981507Y-118865854D01*
X144059369Y-118820760D01*
X144084706Y-118793459D01*
X144084029Y-118792081D01*
X144037676Y-118777195D01*
X143922125Y-118767804D01*
X143738260Y-118763949D01*
X143486961Y-118765670D01*
X143222388Y-118767126D01*
X142983389Y-118759714D01*
X142770919Y-118740052D01*
X142562373Y-118705147D01*
X142335146Y-118652008D01*
X142066634Y-118577642D01*
X141862143Y-118515884D01*
X141580036Y-118418781D01*
X141355104Y-118323186D01*
X141179402Y-118225559D01*
X141044984Y-118122359D01*
X140876870Y-117967614D01*
X141056092Y-117966217D01*
X141118831Y-117964968D01*
X141262462Y-117959774D01*
X141436170Y-117951614D01*
X141615126Y-117941581D01*
X141774425Y-117930864D01*
X141882138Y-117920200D01*
X141937812Y-117908097D01*
X141950809Y-117892467D01*
X141930495Y-117871221D01*
X141865227Y-117840757D01*
X141767123Y-117824100D01*
X141735662Y-117821379D01*
X141633411Y-117801693D01*
X141495581Y-117767141D01*
X141342891Y-117722677D01*
X141298012Y-117708722D01*
X141106657Y-117649812D01*
X140910025Y-117590025D01*
X140744303Y-117540382D01*
X140685915Y-117522613D01*
X140565807Y-117480824D01*
X140506225Y-117450817D01*
X140500742Y-117432029D01*
X140542931Y-117423898D01*
X140626366Y-117425862D01*
X140744619Y-117437359D01*
X140891266Y-117457826D01*
X141059877Y-117486701D01*
X141244028Y-117523423D01*
X141437292Y-117567427D01*
X141633241Y-117618154D01*
X141717175Y-117643029D01*
X141895564Y-117707669D01*
X142045756Y-117778001D01*
X142154224Y-117847187D01*
X142207439Y-117908389D01*
X142211423Y-117925911D01*
X142200184Y-117946998D01*
X142159439Y-117964537D01*
X142079054Y-117981083D01*
X141948895Y-117999189D01*
X141758826Y-118021407D01*
X141550201Y-118044872D01*
X141706056Y-118126949D01*
X141759941Y-118152578D01*
X141901505Y-118209301D01*
X142083299Y-118273664D01*
X142287181Y-118339657D01*
X142495009Y-118401269D01*
X142688643Y-118452490D01*
X142709880Y-118457267D01*
X142833412Y-118477850D01*
X142991515Y-118496762D01*
X143155352Y-118510421D01*
X143189339Y-118512681D01*
X143359483Y-118527170D01*
X143521329Y-118545375D01*
X143643880Y-118563901D01*
X143737537Y-118576149D01*
X143889732Y-118587512D01*
X144070835Y-118595221D01*
X144258957Y-118598061D01*
X144273952Y-118598080D01*
X144437593Y-118600893D01*
X144571061Y-118607800D01*
X144660962Y-118617818D01*
X144693906Y-118629965D01*
X144680179Y-118656768D01*
X144621365Y-118718819D01*
X144530714Y-118797557D01*
X144424101Y-118880206D01*
X144317400Y-118953990D01*
X144226486Y-119006135D01*
X144197791Y-119020993D01*
X144132700Y-119064842D01*
X144094879Y-119103641D01*
X144094021Y-119125028D01*
X144139820Y-119116643D01*
X144156539Y-119111755D01*
X144234764Y-119092679D01*
X144362075Y-119063568D01*
X144525357Y-119027393D01*
X144711496Y-118987126D01*
X144795334Y-118968937D01*
X144985343Y-118925856D01*
X145153681Y-118885246D01*
X145284593Y-118850983D01*
X145362327Y-118826945D01*
X145370892Y-118823648D01*
X145470452Y-118784966D01*
X145605475Y-118732114D01*
X145749307Y-118675520D01*
X145909534Y-118614781D01*
X146096055Y-118548187D01*
X146259418Y-118493665D01*
X146396974Y-118448746D01*
X146523926Y-118404694D01*
X146611219Y-118371550D01*
X146715182Y-118328759D01*
X146831094Y-118282450D01*
X146844355Y-118277094D01*
X146916154Y-118240821D01*
X146945429Y-118212676D01*
X146948645Y-118203362D01*
X146990033Y-118187627D01*
X147047927Y-118180726D01*
X147136550Y-118162049D01*
X147238462Y-118136470D01*
X147137378Y-118270521D01*
X147104400Y-118312976D01*
X147044471Y-118383328D01*
X147008232Y-118416371D01*
X146998759Y-118424906D01*
X147003620Y-118469141D01*
X147011346Y-118485565D01*
X146998645Y-118484395D01*
X146989179Y-118480352D01*
X146929291Y-118489214D01*
X146843489Y-118525223D01*
X146828572Y-118532949D01*
X146702735Y-118593356D01*
X146576039Y-118648246D01*
X146435318Y-118704725D01*
X146663989Y-118684152D01*
X146732357Y-118676876D01*
X146971360Y-118631475D01*
X147211129Y-118551487D01*
X147467066Y-118430979D01*
X147754571Y-118264016D01*
X147794172Y-118239673D01*
X147918061Y-118170912D01*
X147993930Y-118145279D01*
X148027129Y-118161893D01*
X148023004Y-118219876D01*
X148010389Y-118275136D01*
X148001311Y-118343006D01*
X147998854Y-118359110D01*
X147968163Y-118386981D01*
X147932270Y-118406368D01*
X147860661Y-118463197D01*
X147771240Y-118544360D01*
X147745558Y-118568202D01*
X147548169Y-118715187D01*
X147327159Y-118828912D01*
X147110300Y-118894656D01*
X146976140Y-118918708D01*
X147160771Y-119013440D01*
X147198330Y-119033154D01*
X147327729Y-119114241D01*
X147396399Y-119190004D01*
X147410415Y-119270384D01*
X147375856Y-119365325D01*
X147357867Y-119394050D01*
X147275193Y-119487602D01*
X147174100Y-119568363D01*
X147033379Y-119658040D01*
X147455540Y-119638417D01*
X147553533Y-119633262D01*
X147900322Y-119604408D01*
X148205107Y-119561782D01*
X148458637Y-119506907D01*
X148651662Y-119441307D01*
X148673333Y-119431251D01*
X148795011Y-119364658D01*
X148938872Y-119274338D01*
X149078233Y-119176835D01*
X149293327Y-118983660D01*
X149459201Y-118753082D01*
X149564685Y-118490826D01*
X149611191Y-118193319D01*
X149600131Y-117856988D01*
X149593401Y-117798073D01*
X149576211Y-117689441D01*
X149551155Y-117629107D01*
X149510061Y-117617562D01*
X149444758Y-117655300D01*
X149347076Y-117742813D01*
X149208842Y-117880595D01*
X149008298Y-118077913D01*
X148812329Y-118259692D01*
X148636307Y-118411703D01*
X148489109Y-118526289D01*
X148379610Y-118595795D01*
X148300097Y-118642488D01*
X148221300Y-118701332D01*
X148164178Y-118739550D01*
X148071057Y-118782980D01*
X147970171Y-118818792D01*
X147884966Y-118838803D01*
X147838889Y-118834826D01*
X147837302Y-118832921D01*
X147844140Y-118788939D01*
X147890370Y-118719558D01*
X147961986Y-118642425D01*
X148044980Y-118575186D01*
X148052449Y-118570013D01*
X148110773Y-118514080D01*
X148125927Y-118467928D01*
X148124455Y-118447184D01*
X148160933Y-118445306D01*
X148186377Y-118450130D01*
X148211911Y-118428096D01*
X148215399Y-118414843D01*
X148252066Y-118355144D01*
X148315800Y-118277580D01*
X148343067Y-118245428D01*
X148389678Y-118172560D01*
X148398110Y-118125894D01*
X148391406Y-118111661D01*
X148403949Y-118112660D01*
X148416171Y-118118653D01*
X148469255Y-118093204D01*
X148546632Y-118004207D01*
X148647188Y-117853096D01*
X148769810Y-117641306D01*
X148812621Y-117559454D01*
X148868693Y-117419641D01*
X148875164Y-117329543D01*
X148831838Y-117288836D01*
X148738517Y-117297198D01*
X148595005Y-117354304D01*
X148548838Y-117375024D01*
X148427266Y-117424011D01*
X148264826Y-117485290D01*
X148073393Y-117554787D01*
X147864842Y-117628430D01*
X147651048Y-117702145D01*
X147443885Y-117771858D01*
X147255229Y-117833496D01*
X147096953Y-117882985D01*
X146980934Y-117916251D01*
X146919044Y-117929223D01*
X146918127Y-117929105D01*
X146910249Y-117900051D01*
X146929666Y-117876393D01*
X146996657Y-117828342D01*
X147094944Y-117770666D01*
X147183803Y-117719258D01*
X147327055Y-117628278D01*
X147477138Y-117526260D01*
X147611491Y-117428660D01*
X147707557Y-117350935D01*
X147716928Y-117342740D01*
X147779966Y-117291211D01*
X147852247Y-117234730D01*
X148824008Y-117234730D01*
X148849194Y-117264462D01*
X148851562Y-117265941D01*
X148906782Y-117290694D01*
X148943885Y-117293898D01*
X148939271Y-117273251D01*
X148932988Y-117254189D01*
X148955305Y-117202891D01*
X148977070Y-117165790D01*
X148951006Y-117160079D01*
X148873267Y-117194640D01*
X148859099Y-117202500D01*
X148824008Y-117234730D01*
X147852247Y-117234730D01*
X147863369Y-117226039D01*
X147961999Y-117146153D01*
X148061090Y-117058275D01*
X148147583Y-116974919D01*
X148211280Y-116906412D01*
X148241986Y-116863080D01*
X148229501Y-116855252D01*
X148227421Y-116855982D01*
X148141791Y-116878042D01*
X148036011Y-116896270D01*
X148017873Y-116898736D01*
X147911582Y-116915017D01*
X147768343Y-116938693D01*
X147613850Y-116965547D01*
X147479533Y-116985854D01*
X147332175Y-116999065D01*
X147161890Y-117004630D01*
X146952958Y-117003048D01*
X146689656Y-116994817D01*
X146509852Y-116986633D01*
X146328953Y-116975518D01*
X146183521Y-116963395D01*
X146085177Y-116951252D01*
X146045544Y-116940078D01*
X146024171Y-116923398D01*
X145958311Y-116909418D01*
X145919400Y-116903105D01*
X145890028Y-116874238D01*
X145890250Y-116866377D01*
X145898823Y-116838855D01*
X145977761Y-116830169D01*
X146102350Y-116808018D01*
X146241435Y-116778352D01*
X146367469Y-116747075D01*
X146452908Y-116720091D01*
X146520373Y-116694703D01*
X146650050Y-116651042D01*
X146787119Y-116609210D01*
X146878795Y-116581545D01*
X147030640Y-116531365D01*
X147156510Y-116484994D01*
X147219089Y-116460736D01*
X147352283Y-116411380D01*
X147514731Y-116352905D01*
X147684210Y-116293380D01*
X147805347Y-116250922D01*
X147958232Y-116195933D01*
X148082496Y-116149657D01*
X148159141Y-116119063D01*
X148167928Y-116115287D01*
X148260235Y-116079358D01*
X148390579Y-116032386D01*
X148533702Y-115983512D01*
X148561832Y-115974123D01*
X148695250Y-115927922D01*
X148804396Y-115887567D01*
X148867913Y-115860895D01*
X148911345Y-115842261D01*
X149013904Y-115805635D01*
X149146503Y-115762603D01*
X149289815Y-115718989D01*
X149424517Y-115680622D01*
X149531282Y-115653329D01*
X149590783Y-115642936D01*
X149647189Y-115635033D01*
X149756450Y-115608587D01*
X149889522Y-115569996D01*
X150023448Y-115525989D01*
X150135272Y-115483297D01*
X150187949Y-115462730D01*
X150246742Y-115454779D01*
X150285529Y-115482210D01*
X150298410Y-115510028D01*
X150278335Y-115558864D01*
X150205348Y-115629845D01*
X150071746Y-115741952D01*
X149966402Y-115826288D01*
X149865374Y-115902019D01*
X149777424Y-115966071D01*
X149863919Y-115940524D01*
X149908765Y-115929327D01*
X150018959Y-115907574D01*
X150145359Y-115887198D01*
X150279832Y-115867714D01*
X150448638Y-115842802D01*
X150613727Y-115818072D01*
X150781458Y-115797143D01*
X150902697Y-115794508D01*
X150970214Y-115813028D01*
X150991136Y-115853368D01*
X150990720Y-115856179D01*
X150953712Y-115892268D01*
X150868142Y-115942725D01*
X150750108Y-115999708D01*
X150615704Y-116055375D01*
X150481025Y-116101886D01*
X150450860Y-116111426D01*
X150359094Y-116145226D01*
X150304697Y-116172585D01*
X150267934Y-116192820D01*
X150180385Y-116231463D01*
X150067232Y-116276068D01*
X149974551Y-116314571D01*
X149895692Y-116356409D01*
X149865374Y-116385647D01*
X149868944Y-116402958D01*
X149896023Y-116473017D01*
X149940988Y-116567814D01*
X149969156Y-116629182D01*
X149990259Y-116696818D01*
X150004402Y-116781355D01*
X150013093Y-116896155D01*
X150017838Y-117054583D01*
X150019028Y-117165790D01*
X150020143Y-117270001D01*
X150020375Y-117326555D01*
X150018489Y-117535204D01*
X150012289Y-117694513D01*
X150002164Y-117797500D01*
X149988504Y-117837181D01*
X149983867Y-117850392D01*
X150010786Y-117901788D01*
X150072313Y-117975596D01*
X150098798Y-118005744D01*
X150152618Y-118090864D01*
X150170631Y-118160827D01*
X150151465Y-118201374D01*
X150093748Y-118198245D01*
X150074063Y-118191476D01*
X150043764Y-118193683D01*
X150069189Y-118232843D01*
X150148937Y-118306215D01*
X150212684Y-118372237D01*
X150222618Y-118424959D01*
X150166345Y-118455225D01*
X150043404Y-118463723D01*
X150006644Y-118464253D01*
X149936850Y-118473981D01*
X149917979Y-118492254D01*
X149922054Y-118496515D01*
X149980080Y-118518392D01*
X150091052Y-118540597D01*
X150240604Y-118560699D01*
X150414370Y-118576265D01*
X150523616Y-118583799D01*
X150440755Y-118396436D01*
X150407997Y-118315409D01*
X150371919Y-118203015D01*
X150357895Y-118124204D01*
X150350066Y-118066142D01*
X150322715Y-118017590D01*
X150310007Y-117984182D01*
X150309116Y-117977130D01*
X150678712Y-117977130D01*
X150713137Y-118100291D01*
X150716268Y-118108917D01*
X150754371Y-118180984D01*
X150792292Y-118209927D01*
X150837491Y-118188907D01*
X150907181Y-118123802D01*
X150984836Y-118030249D01*
X151059314Y-117924272D01*
X151119475Y-117821901D01*
X151154178Y-117739160D01*
X151152281Y-117692078D01*
X151146825Y-117690176D01*
X151097335Y-117704789D01*
X151019371Y-117745932D01*
X151012662Y-117749936D01*
X150899433Y-117804635D01*
X150788850Y-117840690D01*
X150731922Y-117857729D01*
X150683619Y-117900921D01*
X150678712Y-117977130D01*
X150309116Y-117977130D01*
X150298181Y-117890543D01*
X150290361Y-117749778D01*
X150287535Y-117574324D01*
X150297149Y-117298691D01*
X150334905Y-117023380D01*
X150405265Y-116777902D01*
X150512449Y-116542892D01*
X150523718Y-116523279D01*
X150587878Y-116431547D01*
X150675080Y-116324732D01*
X150772126Y-116216997D01*
X150865821Y-116122506D01*
X150942968Y-116055425D01*
X150990371Y-116029917D01*
X150999343Y-116028910D01*
X151026316Y-115998179D01*
X151026404Y-115996845D01*
X151058766Y-115964024D01*
X151131856Y-115929648D01*
X151199031Y-115898166D01*
X151230461Y-115848093D01*
X151237396Y-115754614D01*
X151237434Y-115748778D01*
X151253212Y-115639978D01*
X151291767Y-115571248D01*
X151319305Y-115537446D01*
X151328051Y-115478990D01*
X151326557Y-115453171D01*
X151367655Y-115431856D01*
X151412385Y-115421766D01*
X151484612Y-115378221D01*
X151533034Y-115350656D01*
X151635538Y-115315165D01*
X151760457Y-115286436D01*
X151931300Y-115266074D01*
X152073362Y-115268748D01*
X152172273Y-115291716D01*
X152222594Y-115330635D01*
X152218886Y-115381164D01*
X152155710Y-115438963D01*
X152027628Y-115499689D01*
X151940395Y-115531222D01*
X151849838Y-115561054D01*
X151803003Y-115572576D01*
X151766379Y-115596894D01*
X151716626Y-115658902D01*
X151690261Y-115710917D01*
X151683344Y-115813663D01*
X151736472Y-115894582D01*
X151842662Y-115938194D01*
X151986002Y-115957678D01*
X152286706Y-115980516D01*
X152532978Y-115971258D01*
X152618494Y-115959367D01*
X152699214Y-115933971D01*
X152758063Y-115882509D01*
X152823013Y-115787234D01*
X152864469Y-115717263D01*
X152915518Y-115599204D01*
X152915298Y-115520998D01*
X152864474Y-115477679D01*
X152836809Y-115464956D01*
X152754327Y-115416981D01*
X152656863Y-115352181D01*
X152604790Y-115317535D01*
X152506590Y-115272142D01*
X152428193Y-115272378D01*
X152382404Y-115280555D01*
X152384857Y-115267055D01*
X152408902Y-115228595D01*
X152420037Y-115150416D01*
X152421887Y-115103936D01*
X152444421Y-115074668D01*
X152504377Y-115060054D01*
X152618213Y-115051915D01*
X152705986Y-115044358D01*
X152788598Y-115029201D01*
X152820499Y-115011477D01*
X152818080Y-115007485D01*
X152770945Y-114979648D01*
X152672825Y-114935078D01*
X152535801Y-114879018D01*
X152371953Y-114816714D01*
X152241738Y-114767520D01*
X152013657Y-114675479D01*
X151794634Y-114580344D01*
X151596082Y-114487542D01*
X151429416Y-114402498D01*
X151306049Y-114330638D01*
X151237396Y-114277388D01*
X151205203Y-114245400D01*
X151124283Y-114174442D01*
X151026316Y-114095243D01*
X150959654Y-114041932D01*
X150888576Y-113980407D01*
X150856279Y-113945761D01*
X150855285Y-113943709D01*
X150813866Y-113919114D01*
X150783128Y-113908941D01*
X150707557Y-113865998D01*
X150613788Y-113802694D01*
X150522931Y-113733550D01*
X150456098Y-113673083D01*
X150436743Y-113653681D01*
X150357209Y-113583650D01*
X150262178Y-113508523D01*
X150220830Y-113477363D01*
X150148251Y-113420747D01*
X150111634Y-113389291D01*
X150085414Y-113367934D01*
X150014550Y-113316791D01*
X149918144Y-113250439D01*
X149828950Y-113187829D01*
X149691362Y-113085457D01*
X149546014Y-112972460D01*
X149409130Y-112861758D01*
X149296936Y-112766273D01*
X149225655Y-112698926D01*
X149201882Y-112675386D01*
X149121410Y-112605389D01*
X149024999Y-112529502D01*
X149020420Y-112526056D01*
X148932283Y-112444645D01*
X148887246Y-112372359D01*
X148889408Y-112320616D01*
X148942870Y-112300831D01*
X148950437Y-112301340D01*
X149026786Y-112324236D01*
X149144564Y-112375362D01*
X149288270Y-112446715D01*
X149442402Y-112530291D01*
X149591462Y-112618085D01*
X149719949Y-112702095D01*
X149813524Y-112765147D01*
X149886837Y-112809135D01*
X149919438Y-112821375D01*
X149919246Y-112818340D01*
X149887755Y-112782643D01*
X149816594Y-112717443D01*
X149717993Y-112634110D01*
X149697565Y-112617369D01*
X149592872Y-112530984D01*
X149509847Y-112461550D01*
X149464938Y-112422804D01*
X149452674Y-112411785D01*
X149348210Y-112331635D01*
X149214494Y-112244666D01*
X149068828Y-112160417D01*
X148928516Y-112088429D01*
X148810864Y-112038240D01*
X148733174Y-112019391D01*
X148698413Y-112013696D01*
X148669252Y-111984211D01*
X148642730Y-111959896D01*
X148572507Y-111948382D01*
X148537704Y-111947315D01*
X148374316Y-111930046D01*
X148170791Y-111895329D01*
X147947743Y-111847834D01*
X147725784Y-111792232D01*
X147525528Y-111733192D01*
X147367590Y-111675387D01*
X147355908Y-111670394D01*
X147254038Y-111627477D01*
X147174100Y-111594733D01*
X147140913Y-111581504D01*
X146894147Y-111479905D01*
X146668530Y-111381794D01*
X146616944Y-111360123D01*
X146535917Y-111333677D01*
X146495561Y-111331770D01*
X146491363Y-111339032D01*
X146517372Y-111350970D01*
X146540505Y-111359175D01*
X146609219Y-111408695D01*
X146701929Y-111491440D01*
X146805322Y-111593960D01*
X146906089Y-111702804D01*
X146990918Y-111804521D01*
X147046499Y-111885661D01*
X147058135Y-111907841D01*
X147104428Y-112018787D01*
X147128510Y-112114332D01*
X147129365Y-112150936D01*
X147105980Y-112203961D01*
X147041800Y-112225635D01*
X146928769Y-112217407D01*
X146758825Y-112180722D01*
X146758691Y-112180688D01*
X146653999Y-112157929D01*
X146495029Y-112127759D01*
X146297107Y-112092880D01*
X146075554Y-112055993D01*
X145845694Y-112019797D01*
X145808526Y-112014167D01*
X145398757Y-111959390D01*
X145032951Y-111926389D01*
X144690208Y-111914381D01*
X144349626Y-111922581D01*
X143990305Y-111950206D01*
X143905196Y-111958619D01*
X143705897Y-111978393D01*
X143512499Y-111997667D01*
X143357064Y-112013250D01*
X143093213Y-112039836D01*
X143368412Y-112082550D01*
X143532670Y-112116731D01*
X143700252Y-112165643D01*
X143834159Y-112218565D01*
X143872480Y-112238948D01*
X143989693Y-112316845D01*
X144106439Y-112412719D01*
X144208023Y-112512587D01*
X144279750Y-112602469D01*
X144306925Y-112668382D01*
X144294994Y-112685457D01*
X144223318Y-112713344D01*
X144093627Y-112738656D01*
X143913689Y-112760034D01*
X143691274Y-112776118D01*
X143525955Y-112787304D01*
X143257871Y-112811520D01*
X142956767Y-112844285D01*
X142643458Y-112883466D01*
X142517363Y-112900002D01*
X142376211Y-112917752D01*
X142272072Y-112929949D01*
X142221297Y-112934611D01*
X142198221Y-112938623D01*
X142219062Y-112960996D01*
X142218040Y-112967777D01*
X142167693Y-112977226D01*
X142067742Y-112983390D01*
X141931157Y-112985177D01*
X141848623Y-112985383D01*
X141724744Y-112988556D01*
X141641869Y-112994622D01*
X141614671Y-113002767D01*
X141614729Y-113005194D01*
X141577066Y-113013104D01*
X141488291Y-113015561D01*
X141364068Y-113013230D01*
X141220063Y-113006776D01*
X141071940Y-112996863D01*
X140935364Y-112984155D01*
X140826001Y-112969317D01*
X140740160Y-112955643D01*
X140652529Y-112946611D01*
X140628480Y-112952279D01*
X140670011Y-112971252D01*
X140779116Y-113002133D01*
X140868779Y-113029151D01*
X141015998Y-113083433D01*
X141158310Y-113144963D01*
X141265527Y-113193921D01*
X141379594Y-113241825D01*
X141457341Y-113269667D01*
X141499163Y-113283176D01*
X141603886Y-113323036D01*
X141721191Y-113372740D01*
X141790613Y-113403508D01*
X141889088Y-113446226D01*
X141949861Y-113471375D01*
X141954209Y-113475699D01*
X141918219Y-113484309D01*
X141830175Y-113490854D01*
X141702624Y-113494176D01*
X141697183Y-113494228D01*
X141545351Y-113498374D01*
X141446943Y-113509301D01*
X141385588Y-113530219D01*
X141344919Y-113564340D01*
X141311398Y-113613157D01*
X141305145Y-113649651D01*
X141300234Y-113657526D01*
X141246859Y-113673783D01*
X141159726Y-113688448D01*
X141152739Y-113689624D01*
X140944120Y-113717734D01*
X140733433Y-113749920D01*
X140579519Y-113779145D01*
X140474868Y-113806880D01*
X140411972Y-113834593D01*
X140404834Y-113839044D01*
X140318345Y-113876522D01*
X140240722Y-113868105D01*
X140158241Y-113808256D01*
X140088481Y-113727619D01*
X140448416Y-113727619D01*
X140454709Y-113742136D01*
X140478525Y-113737802D01*
X140542659Y-113708033D01*
X140566542Y-113688448D01*
X140560249Y-113673931D01*
X140536433Y-113678265D01*
X140472299Y-113708033D01*
X140448416Y-113727619D01*
X140088481Y-113727619D01*
X140057180Y-113691437D01*
X140045423Y-113676424D01*
X139979215Y-113590488D01*
X139946658Y-113532942D01*
X139954924Y-113495937D01*
X140011187Y-113471624D01*
X140122621Y-113452151D01*
X140296399Y-113429672D01*
X140525069Y-113400335D01*
X140349169Y-113393389D01*
X140344262Y-113393202D01*
X140216945Y-113390870D01*
X140054857Y-113391100D01*
X139891828Y-113393859D01*
X139881495Y-113394128D01*
X139698870Y-113398312D01*
X139491645Y-113402256D01*
X139302694Y-113405139D01*
X139239971Y-113406310D01*
X139172739Y-113409003D01*
X139114469Y-113411337D01*
G37*
%TO.C,kibuzzard-65C10836*%
G36*
X153996289Y-131753097D02*
G01*
X153334831Y-131753097D01*
X152499806Y-131753097D01*
X149788356Y-131753097D01*
X134665169Y-131753097D01*
X134003711Y-131753097D01*
X134003711Y-128904063D01*
X149788356Y-128904063D01*
X149788356Y-131063063D01*
X150283656Y-131063063D01*
X151058356Y-129370788D01*
X151067881Y-129370788D01*
X151023431Y-129821638D01*
X151023431Y-131063063D01*
X151413956Y-131063063D01*
X151413956Y-130485213D01*
X151687006Y-130485213D01*
X151705262Y-130696351D01*
X151760031Y-130853513D01*
X151858059Y-130964638D01*
X152006093Y-131037664D01*
X152216040Y-131078145D01*
X152499806Y-131091639D01*
X152792303Y-131076557D01*
X153009393Y-131031314D01*
X153162190Y-130949557D01*
X153261806Y-130824938D01*
X153314193Y-130648726D01*
X153325306Y-130412188D01*
X152928431Y-130412188D01*
X152877631Y-130616976D01*
X152742693Y-130716988D01*
X152628790Y-130738420D01*
X152474406Y-130745564D01*
X152237868Y-130723338D01*
X152118806Y-130645551D01*
X152083881Y-130488388D01*
X152134681Y-130326463D01*
X152301368Y-130204226D01*
X152441465Y-130146679D01*
X152629981Y-130085163D01*
X152866121Y-130005392D01*
X153041143Y-129924826D01*
X153164571Y-129836323D01*
X153245931Y-129732738D01*
X153291174Y-129606532D01*
X153306256Y-129450163D01*
X153288396Y-129250138D01*
X153234818Y-129100913D01*
X153138774Y-128994948D01*
X152993518Y-128924701D01*
X152788334Y-128885410D01*
X152512506Y-128872313D01*
X152242234Y-128885807D01*
X152041018Y-128926288D01*
X151897746Y-128999313D01*
X151801306Y-129110438D01*
X151747331Y-129268395D01*
X151731456Y-129481913D01*
X152134681Y-129481913D01*
X152180718Y-129321576D01*
X152298193Y-129242201D01*
X152525206Y-129218388D01*
X152758568Y-129240613D01*
X152874456Y-129313638D01*
X152909381Y-129462863D01*
X152787143Y-129626376D01*
X152616884Y-129704560D01*
X152350581Y-129796238D01*
X152119996Y-129879582D01*
X151948943Y-129964513D01*
X151827896Y-130059367D01*
X151747331Y-130172476D01*
X151702087Y-130311779D01*
X151687006Y-130485213D01*
X151413956Y-130485213D01*
X151413956Y-128904063D01*
X150918656Y-128904063D01*
X150143956Y-130596339D01*
X150134431Y-130596339D01*
X150178881Y-130145488D01*
X150178881Y-128904063D01*
X149788356Y-128904063D01*
X134003711Y-128904063D01*
X134003711Y-128210855D01*
X134665169Y-128210855D01*
X153334831Y-128210855D01*
X153996289Y-128210855D01*
X153996289Y-131753097D01*
G37*
%TD*%
D15*
%TO.C,SG101*%
X174000000Y-100000000D02*
X174000000Y-100000000D01*
G75*
G02*
X180000000Y-106000000I0J-6000000D01*
G01*
X180000000Y-144000000D01*
G75*
G02*
X174000000Y-150000000I-6000000J0D01*
G01*
X106000000Y-150000000D01*
G75*
G02*
X100000000Y-144000000I0J6000000D01*
G01*
X100000000Y-106000000D01*
G75*
G02*
X106000000Y-100000000I6000000J0D01*
G01*
X174000000Y-100000000D01*
%TD*%
M02*
