%TF.GenerationSoftware,KiCad,Pcbnew,8.0.1*%
%TF.CreationDate,2024-03-19T23:03:32+08:00*%
%TF.ProjectId,SmallGeneral,536d616c-6c47-4656-9e65-72616c2e6b69,4*%
%TF.SameCoordinates,Original*%
%TF.FileFunction,Soldermask,Top*%
%TF.FilePolarity,Negative*%
%FSLAX46Y46*%
G04 Gerber Fmt 4.6, Leading zero omitted, Abs format (unit mm)*
G04 Created by KiCad (PCBNEW 8.0.1) date 2024-03-19 23:03:32*
%MOMM*%
%LPD*%
G01*
G04 APERTURE LIST*
G04 Aperture macros list*
%AMRoundRect*
0 Rectangle with rounded corners*
0 $1 Rounding radius*
0 $2 $3 $4 $5 $6 $7 $8 $9 X,Y pos of 4 corners*
0 Add a 4 corners polygon primitive as box body*
4,1,4,$2,$3,$4,$5,$6,$7,$8,$9,$2,$3,0*
0 Add four circle primitives for the rounded corners*
1,1,$1+$1,$2,$3*
1,1,$1+$1,$4,$5*
1,1,$1+$1,$6,$7*
1,1,$1+$1,$8,$9*
0 Add four rect primitives between the rounded corners*
20,1,$1+$1,$2,$3,$4,$5,0*
20,1,$1+$1,$4,$5,$6,$7,0*
20,1,$1+$1,$6,$7,$8,$9,0*
20,1,$1+$1,$8,$9,$2,$3,0*%
G04 Aperture macros list end*
%ADD10C,0.100000*%
%ADD11C,0.150000*%
%ADD12C,0.300000*%
%ADD13C,0.400000*%
%ADD14RoundRect,0.250000X0.475000X-0.250000X0.475000X0.250000X-0.475000X0.250000X-0.475000X-0.250000X0*%
%ADD15RoundRect,0.250000X-0.475000X0.250000X-0.475000X-0.250000X0.475000X-0.250000X0.475000X0.250000X0*%
%ADD16RoundRect,0.200000X0.200000X0.275000X-0.200000X0.275000X-0.200000X-0.275000X0.200000X-0.275000X0*%
%ADD17RoundRect,0.250000X-1.000000X-0.650000X1.000000X-0.650000X1.000000X0.650000X-1.000000X0.650000X0*%
%ADD18RoundRect,0.075000X-0.662500X-0.075000X0.662500X-0.075000X0.662500X0.075000X-0.662500X0.075000X0*%
%ADD19RoundRect,0.075000X-0.075000X-0.662500X0.075000X-0.662500X0.075000X0.662500X-0.075000X0.662500X0*%
%ADD20RoundRect,0.225000X0.225000X0.250000X-0.225000X0.250000X-0.225000X-0.250000X0.225000X-0.250000X0*%
%ADD21RoundRect,0.225000X-0.250000X0.225000X-0.250000X-0.225000X0.250000X-0.225000X0.250000X0.225000X0*%
%ADD22RoundRect,0.225000X0.250000X-0.225000X0.250000X0.225000X-0.250000X0.225000X-0.250000X-0.225000X0*%
%ADD23RoundRect,0.218750X-0.256250X0.218750X-0.256250X-0.218750X0.256250X-0.218750X0.256250X0.218750X0*%
%ADD24RoundRect,0.225000X-0.225000X-0.250000X0.225000X-0.250000X0.225000X0.250000X-0.225000X0.250000X0*%
%ADD25C,1.200000*%
%ADD26RoundRect,0.250000X-0.350000X0.350000X-0.350000X-0.350000X0.350000X-0.350000X0.350000X0.350000X0*%
%ADD27RoundRect,0.250000X-0.350000X-0.625000X0.350000X-0.625000X0.350000X0.625000X-0.350000X0.625000X0*%
%ADD28O,1.200000X1.750000*%
%ADD29RoundRect,0.250000X-0.350000X-0.350000X0.350000X-0.350000X0.350000X0.350000X-0.350000X0.350000X0*%
%ADD30RoundRect,0.250000X0.350000X0.625000X-0.350000X0.625000X-0.350000X-0.625000X0.350000X-0.625000X0*%
%ADD31C,4.700000*%
%ADD32C,7.500000*%
%ADD33O,1.700000X1.700000*%
%ADD34R,2.500000X2.500000*%
%ADD35RoundRect,0.150000X0.825000X0.150000X-0.825000X0.150000X-0.825000X-0.150000X0.825000X-0.150000X0*%
%ADD36R,0.750000X1.000000*%
%ADD37RoundRect,0.102000X-0.611000X-0.611000X0.611000X-0.611000X0.611000X0.611000X-0.611000X0.611000X0*%
%ADD38C,1.426000*%
%ADD39RoundRect,0.375000X0.375000X-0.625000X0.375000X0.625000X-0.375000X0.625000X-0.375000X-0.625000X0*%
%ADD40RoundRect,0.500000X1.400000X-0.500000X1.400000X0.500000X-1.400000X0.500000X-1.400000X-0.500000X0*%
%ADD41RoundRect,0.200000X0.275000X-0.200000X0.275000X0.200000X-0.275000X0.200000X-0.275000X-0.200000X0*%
%ADD42R,4.240000X3.810000*%
%ADD43C,0.650000*%
%ADD44R,1.450000X0.600000*%
%ADD45R,1.450000X0.300000*%
%ADD46O,2.100000X1.000000*%
%ADD47O,1.600000X1.000000*%
%ADD48R,1.000000X0.750000*%
%ADD49RoundRect,0.200000X-0.200000X-0.275000X0.200000X-0.275000X0.200000X0.275000X-0.200000X0.275000X0*%
%ADD50RoundRect,0.250000X0.250000X0.475000X-0.250000X0.475000X-0.250000X-0.475000X0.250000X-0.475000X0*%
%ADD51RoundRect,0.250000X1.000000X0.650000X-1.000000X0.650000X-1.000000X-0.650000X1.000000X-0.650000X0*%
%ADD52RoundRect,0.375000X-0.625000X-0.375000X0.625000X-0.375000X0.625000X0.375000X-0.625000X0.375000X0*%
%ADD53RoundRect,0.500000X-0.500000X-1.400000X0.500000X-1.400000X0.500000X1.400000X-0.500000X1.400000X0*%
%TA.AperFunction,Profile*%
%ADD54C,0.100000*%
%TD*%
G04 APERTURE END LIST*
D10*
D11*
X177002200Y-166007200D02*
X285002200Y-166007200D01*
X285002200Y-198007200D01*
X177002200Y-198007200D01*
X177002200Y-166007200D01*
D10*
D11*
X10000000Y-10000000D02*
X287002200Y-10000000D01*
X287002200Y-200007200D01*
X10000000Y-200007200D01*
X10000000Y-10000000D01*
D10*
D11*
X12000000Y-12000000D02*
X285002200Y-12000000D01*
X285002200Y-198007200D01*
X12000000Y-198007200D01*
X12000000Y-12000000D01*
D10*
D11*
X60000000Y-12000000D02*
X60000000Y-10000000D01*
D10*
D11*
X110000000Y-12000000D02*
X110000000Y-10000000D01*
D10*
D11*
X160000000Y-12000000D02*
X160000000Y-10000000D01*
D10*
D11*
X210000000Y-12000000D02*
X210000000Y-10000000D01*
D10*
D11*
X260000000Y-12000000D02*
X260000000Y-10000000D01*
D10*
D11*
X36089160Y-11593604D02*
X35346303Y-11593604D01*
X35717731Y-11593604D02*
X35717731Y-10293604D01*
X35717731Y-10293604D02*
X35593922Y-10479319D01*
X35593922Y-10479319D02*
X35470112Y-10603128D01*
X35470112Y-10603128D02*
X35346303Y-10665033D01*
D10*
D11*
X85346303Y-10417414D02*
X85408207Y-10355509D01*
X85408207Y-10355509D02*
X85532017Y-10293604D01*
X85532017Y-10293604D02*
X85841541Y-10293604D01*
X85841541Y-10293604D02*
X85965350Y-10355509D01*
X85965350Y-10355509D02*
X86027255Y-10417414D01*
X86027255Y-10417414D02*
X86089160Y-10541223D01*
X86089160Y-10541223D02*
X86089160Y-10665033D01*
X86089160Y-10665033D02*
X86027255Y-10850747D01*
X86027255Y-10850747D02*
X85284398Y-11593604D01*
X85284398Y-11593604D02*
X86089160Y-11593604D01*
D10*
D11*
X135284398Y-10293604D02*
X136089160Y-10293604D01*
X136089160Y-10293604D02*
X135655826Y-10788842D01*
X135655826Y-10788842D02*
X135841541Y-10788842D01*
X135841541Y-10788842D02*
X135965350Y-10850747D01*
X135965350Y-10850747D02*
X136027255Y-10912652D01*
X136027255Y-10912652D02*
X136089160Y-11036461D01*
X136089160Y-11036461D02*
X136089160Y-11345985D01*
X136089160Y-11345985D02*
X136027255Y-11469795D01*
X136027255Y-11469795D02*
X135965350Y-11531700D01*
X135965350Y-11531700D02*
X135841541Y-11593604D01*
X135841541Y-11593604D02*
X135470112Y-11593604D01*
X135470112Y-11593604D02*
X135346303Y-11531700D01*
X135346303Y-11531700D02*
X135284398Y-11469795D01*
D10*
D11*
X185965350Y-10726938D02*
X185965350Y-11593604D01*
X185655826Y-10231700D02*
X185346303Y-11160271D01*
X185346303Y-11160271D02*
X186151064Y-11160271D01*
D10*
D11*
X236027255Y-10293604D02*
X235408207Y-10293604D01*
X235408207Y-10293604D02*
X235346303Y-10912652D01*
X235346303Y-10912652D02*
X235408207Y-10850747D01*
X235408207Y-10850747D02*
X235532017Y-10788842D01*
X235532017Y-10788842D02*
X235841541Y-10788842D01*
X235841541Y-10788842D02*
X235965350Y-10850747D01*
X235965350Y-10850747D02*
X236027255Y-10912652D01*
X236027255Y-10912652D02*
X236089160Y-11036461D01*
X236089160Y-11036461D02*
X236089160Y-11345985D01*
X236089160Y-11345985D02*
X236027255Y-11469795D01*
X236027255Y-11469795D02*
X235965350Y-11531700D01*
X235965350Y-11531700D02*
X235841541Y-11593604D01*
X235841541Y-11593604D02*
X235532017Y-11593604D01*
X235532017Y-11593604D02*
X235408207Y-11531700D01*
X235408207Y-11531700D02*
X235346303Y-11469795D01*
D10*
D11*
X285965350Y-10293604D02*
X285717731Y-10293604D01*
X285717731Y-10293604D02*
X285593922Y-10355509D01*
X285593922Y-10355509D02*
X285532017Y-10417414D01*
X285532017Y-10417414D02*
X285408207Y-10603128D01*
X285408207Y-10603128D02*
X285346303Y-10850747D01*
X285346303Y-10850747D02*
X285346303Y-11345985D01*
X285346303Y-11345985D02*
X285408207Y-11469795D01*
X285408207Y-11469795D02*
X285470112Y-11531700D01*
X285470112Y-11531700D02*
X285593922Y-11593604D01*
X285593922Y-11593604D02*
X285841541Y-11593604D01*
X285841541Y-11593604D02*
X285965350Y-11531700D01*
X285965350Y-11531700D02*
X286027255Y-11469795D01*
X286027255Y-11469795D02*
X286089160Y-11345985D01*
X286089160Y-11345985D02*
X286089160Y-11036461D01*
X286089160Y-11036461D02*
X286027255Y-10912652D01*
X286027255Y-10912652D02*
X285965350Y-10850747D01*
X285965350Y-10850747D02*
X285841541Y-10788842D01*
X285841541Y-10788842D02*
X285593922Y-10788842D01*
X285593922Y-10788842D02*
X285470112Y-10850747D01*
X285470112Y-10850747D02*
X285408207Y-10912652D01*
X285408207Y-10912652D02*
X285346303Y-11036461D01*
D10*
D11*
X60000000Y-198007200D02*
X60000000Y-200007200D01*
D10*
D11*
X110000000Y-198007200D02*
X110000000Y-200007200D01*
D10*
D11*
X160000000Y-198007200D02*
X160000000Y-200007200D01*
D10*
D11*
X210000000Y-198007200D02*
X210000000Y-200007200D01*
D10*
D11*
X260000000Y-198007200D02*
X260000000Y-200007200D01*
D10*
D11*
X36089160Y-199600804D02*
X35346303Y-199600804D01*
X35717731Y-199600804D02*
X35717731Y-198300804D01*
X35717731Y-198300804D02*
X35593922Y-198486519D01*
X35593922Y-198486519D02*
X35470112Y-198610328D01*
X35470112Y-198610328D02*
X35346303Y-198672233D01*
D10*
D11*
X85346303Y-198424614D02*
X85408207Y-198362709D01*
X85408207Y-198362709D02*
X85532017Y-198300804D01*
X85532017Y-198300804D02*
X85841541Y-198300804D01*
X85841541Y-198300804D02*
X85965350Y-198362709D01*
X85965350Y-198362709D02*
X86027255Y-198424614D01*
X86027255Y-198424614D02*
X86089160Y-198548423D01*
X86089160Y-198548423D02*
X86089160Y-198672233D01*
X86089160Y-198672233D02*
X86027255Y-198857947D01*
X86027255Y-198857947D02*
X85284398Y-199600804D01*
X85284398Y-199600804D02*
X86089160Y-199600804D01*
D10*
D11*
X135284398Y-198300804D02*
X136089160Y-198300804D01*
X136089160Y-198300804D02*
X135655826Y-198796042D01*
X135655826Y-198796042D02*
X135841541Y-198796042D01*
X135841541Y-198796042D02*
X135965350Y-198857947D01*
X135965350Y-198857947D02*
X136027255Y-198919852D01*
X136027255Y-198919852D02*
X136089160Y-199043661D01*
X136089160Y-199043661D02*
X136089160Y-199353185D01*
X136089160Y-199353185D02*
X136027255Y-199476995D01*
X136027255Y-199476995D02*
X135965350Y-199538900D01*
X135965350Y-199538900D02*
X135841541Y-199600804D01*
X135841541Y-199600804D02*
X135470112Y-199600804D01*
X135470112Y-199600804D02*
X135346303Y-199538900D01*
X135346303Y-199538900D02*
X135284398Y-199476995D01*
D10*
D11*
X185965350Y-198734138D02*
X185965350Y-199600804D01*
X185655826Y-198238900D02*
X185346303Y-199167471D01*
X185346303Y-199167471D02*
X186151064Y-199167471D01*
D10*
D11*
X236027255Y-198300804D02*
X235408207Y-198300804D01*
X235408207Y-198300804D02*
X235346303Y-198919852D01*
X235346303Y-198919852D02*
X235408207Y-198857947D01*
X235408207Y-198857947D02*
X235532017Y-198796042D01*
X235532017Y-198796042D02*
X235841541Y-198796042D01*
X235841541Y-198796042D02*
X235965350Y-198857947D01*
X235965350Y-198857947D02*
X236027255Y-198919852D01*
X236027255Y-198919852D02*
X236089160Y-199043661D01*
X236089160Y-199043661D02*
X236089160Y-199353185D01*
X236089160Y-199353185D02*
X236027255Y-199476995D01*
X236027255Y-199476995D02*
X235965350Y-199538900D01*
X235965350Y-199538900D02*
X235841541Y-199600804D01*
X235841541Y-199600804D02*
X235532017Y-199600804D01*
X235532017Y-199600804D02*
X235408207Y-199538900D01*
X235408207Y-199538900D02*
X235346303Y-199476995D01*
D10*
D11*
X285965350Y-198300804D02*
X285717731Y-198300804D01*
X285717731Y-198300804D02*
X285593922Y-198362709D01*
X285593922Y-198362709D02*
X285532017Y-198424614D01*
X285532017Y-198424614D02*
X285408207Y-198610328D01*
X285408207Y-198610328D02*
X285346303Y-198857947D01*
X285346303Y-198857947D02*
X285346303Y-199353185D01*
X285346303Y-199353185D02*
X285408207Y-199476995D01*
X285408207Y-199476995D02*
X285470112Y-199538900D01*
X285470112Y-199538900D02*
X285593922Y-199600804D01*
X285593922Y-199600804D02*
X285841541Y-199600804D01*
X285841541Y-199600804D02*
X285965350Y-199538900D01*
X285965350Y-199538900D02*
X286027255Y-199476995D01*
X286027255Y-199476995D02*
X286089160Y-199353185D01*
X286089160Y-199353185D02*
X286089160Y-199043661D01*
X286089160Y-199043661D02*
X286027255Y-198919852D01*
X286027255Y-198919852D02*
X285965350Y-198857947D01*
X285965350Y-198857947D02*
X285841541Y-198796042D01*
X285841541Y-198796042D02*
X285593922Y-198796042D01*
X285593922Y-198796042D02*
X285470112Y-198857947D01*
X285470112Y-198857947D02*
X285408207Y-198919852D01*
X285408207Y-198919852D02*
X285346303Y-199043661D01*
D10*
D11*
X10000000Y-60000000D02*
X12000000Y-60000000D01*
D10*
D11*
X10000000Y-110000000D02*
X12000000Y-110000000D01*
D10*
D11*
X10000000Y-160000000D02*
X12000000Y-160000000D01*
D10*
D11*
X10690476Y-35222176D02*
X11309523Y-35222176D01*
X10566666Y-35593604D02*
X10999999Y-34293604D01*
X10999999Y-34293604D02*
X11433333Y-35593604D01*
D10*
D11*
X11092857Y-84912652D02*
X11278571Y-84974557D01*
X11278571Y-84974557D02*
X11340476Y-85036461D01*
X11340476Y-85036461D02*
X11402380Y-85160271D01*
X11402380Y-85160271D02*
X11402380Y-85345985D01*
X11402380Y-85345985D02*
X11340476Y-85469795D01*
X11340476Y-85469795D02*
X11278571Y-85531700D01*
X11278571Y-85531700D02*
X11154761Y-85593604D01*
X11154761Y-85593604D02*
X10659523Y-85593604D01*
X10659523Y-85593604D02*
X10659523Y-84293604D01*
X10659523Y-84293604D02*
X11092857Y-84293604D01*
X11092857Y-84293604D02*
X11216666Y-84355509D01*
X11216666Y-84355509D02*
X11278571Y-84417414D01*
X11278571Y-84417414D02*
X11340476Y-84541223D01*
X11340476Y-84541223D02*
X11340476Y-84665033D01*
X11340476Y-84665033D02*
X11278571Y-84788842D01*
X11278571Y-84788842D02*
X11216666Y-84850747D01*
X11216666Y-84850747D02*
X11092857Y-84912652D01*
X11092857Y-84912652D02*
X10659523Y-84912652D01*
D10*
D11*
X11402380Y-135469795D02*
X11340476Y-135531700D01*
X11340476Y-135531700D02*
X11154761Y-135593604D01*
X11154761Y-135593604D02*
X11030952Y-135593604D01*
X11030952Y-135593604D02*
X10845238Y-135531700D01*
X10845238Y-135531700D02*
X10721428Y-135407890D01*
X10721428Y-135407890D02*
X10659523Y-135284080D01*
X10659523Y-135284080D02*
X10597619Y-135036461D01*
X10597619Y-135036461D02*
X10597619Y-134850747D01*
X10597619Y-134850747D02*
X10659523Y-134603128D01*
X10659523Y-134603128D02*
X10721428Y-134479319D01*
X10721428Y-134479319D02*
X10845238Y-134355509D01*
X10845238Y-134355509D02*
X11030952Y-134293604D01*
X11030952Y-134293604D02*
X11154761Y-134293604D01*
X11154761Y-134293604D02*
X11340476Y-134355509D01*
X11340476Y-134355509D02*
X11402380Y-134417414D01*
D10*
D11*
X10659523Y-185593604D02*
X10659523Y-184293604D01*
X10659523Y-184293604D02*
X10969047Y-184293604D01*
X10969047Y-184293604D02*
X11154761Y-184355509D01*
X11154761Y-184355509D02*
X11278571Y-184479319D01*
X11278571Y-184479319D02*
X11340476Y-184603128D01*
X11340476Y-184603128D02*
X11402380Y-184850747D01*
X11402380Y-184850747D02*
X11402380Y-185036461D01*
X11402380Y-185036461D02*
X11340476Y-185284080D01*
X11340476Y-185284080D02*
X11278571Y-185407890D01*
X11278571Y-185407890D02*
X11154761Y-185531700D01*
X11154761Y-185531700D02*
X10969047Y-185593604D01*
X10969047Y-185593604D02*
X10659523Y-185593604D01*
D10*
D11*
X287002200Y-60000000D02*
X285002200Y-60000000D01*
D10*
D11*
X287002200Y-110000000D02*
X285002200Y-110000000D01*
D10*
D11*
X287002200Y-160000000D02*
X285002200Y-160000000D01*
D10*
D11*
X285692676Y-35222176D02*
X286311723Y-35222176D01*
X285568866Y-35593604D02*
X286002199Y-34293604D01*
X286002199Y-34293604D02*
X286435533Y-35593604D01*
D10*
D11*
X286095057Y-84912652D02*
X286280771Y-84974557D01*
X286280771Y-84974557D02*
X286342676Y-85036461D01*
X286342676Y-85036461D02*
X286404580Y-85160271D01*
X286404580Y-85160271D02*
X286404580Y-85345985D01*
X286404580Y-85345985D02*
X286342676Y-85469795D01*
X286342676Y-85469795D02*
X286280771Y-85531700D01*
X286280771Y-85531700D02*
X286156961Y-85593604D01*
X286156961Y-85593604D02*
X285661723Y-85593604D01*
X285661723Y-85593604D02*
X285661723Y-84293604D01*
X285661723Y-84293604D02*
X286095057Y-84293604D01*
X286095057Y-84293604D02*
X286218866Y-84355509D01*
X286218866Y-84355509D02*
X286280771Y-84417414D01*
X286280771Y-84417414D02*
X286342676Y-84541223D01*
X286342676Y-84541223D02*
X286342676Y-84665033D01*
X286342676Y-84665033D02*
X286280771Y-84788842D01*
X286280771Y-84788842D02*
X286218866Y-84850747D01*
X286218866Y-84850747D02*
X286095057Y-84912652D01*
X286095057Y-84912652D02*
X285661723Y-84912652D01*
D10*
D11*
X286404580Y-135469795D02*
X286342676Y-135531700D01*
X286342676Y-135531700D02*
X286156961Y-135593604D01*
X286156961Y-135593604D02*
X286033152Y-135593604D01*
X286033152Y-135593604D02*
X285847438Y-135531700D01*
X285847438Y-135531700D02*
X285723628Y-135407890D01*
X285723628Y-135407890D02*
X285661723Y-135284080D01*
X285661723Y-135284080D02*
X285599819Y-135036461D01*
X285599819Y-135036461D02*
X285599819Y-134850747D01*
X285599819Y-134850747D02*
X285661723Y-134603128D01*
X285661723Y-134603128D02*
X285723628Y-134479319D01*
X285723628Y-134479319D02*
X285847438Y-134355509D01*
X285847438Y-134355509D02*
X286033152Y-134293604D01*
X286033152Y-134293604D02*
X286156961Y-134293604D01*
X286156961Y-134293604D02*
X286342676Y-134355509D01*
X286342676Y-134355509D02*
X286404580Y-134417414D01*
D10*
D11*
X285661723Y-185593604D02*
X285661723Y-184293604D01*
X285661723Y-184293604D02*
X285971247Y-184293604D01*
X285971247Y-184293604D02*
X286156961Y-184355509D01*
X286156961Y-184355509D02*
X286280771Y-184479319D01*
X286280771Y-184479319D02*
X286342676Y-184603128D01*
X286342676Y-184603128D02*
X286404580Y-184850747D01*
X286404580Y-184850747D02*
X286404580Y-185036461D01*
X286404580Y-185036461D02*
X286342676Y-185284080D01*
X286342676Y-185284080D02*
X286280771Y-185407890D01*
X286280771Y-185407890D02*
X286156961Y-185531700D01*
X286156961Y-185531700D02*
X285971247Y-185593604D01*
X285971247Y-185593604D02*
X285661723Y-185593604D01*
D10*
D11*
X200458026Y-193793328D02*
X200458026Y-192293328D01*
X200458026Y-192293328D02*
X200815169Y-192293328D01*
X200815169Y-192293328D02*
X201029455Y-192364757D01*
X201029455Y-192364757D02*
X201172312Y-192507614D01*
X201172312Y-192507614D02*
X201243741Y-192650471D01*
X201243741Y-192650471D02*
X201315169Y-192936185D01*
X201315169Y-192936185D02*
X201315169Y-193150471D01*
X201315169Y-193150471D02*
X201243741Y-193436185D01*
X201243741Y-193436185D02*
X201172312Y-193579042D01*
X201172312Y-193579042D02*
X201029455Y-193721900D01*
X201029455Y-193721900D02*
X200815169Y-193793328D01*
X200815169Y-193793328D02*
X200458026Y-193793328D01*
X202600884Y-193793328D02*
X202600884Y-193007614D01*
X202600884Y-193007614D02*
X202529455Y-192864757D01*
X202529455Y-192864757D02*
X202386598Y-192793328D01*
X202386598Y-192793328D02*
X202100884Y-192793328D01*
X202100884Y-192793328D02*
X201958026Y-192864757D01*
X202600884Y-193721900D02*
X202458026Y-193793328D01*
X202458026Y-193793328D02*
X202100884Y-193793328D01*
X202100884Y-193793328D02*
X201958026Y-193721900D01*
X201958026Y-193721900D02*
X201886598Y-193579042D01*
X201886598Y-193579042D02*
X201886598Y-193436185D01*
X201886598Y-193436185D02*
X201958026Y-193293328D01*
X201958026Y-193293328D02*
X202100884Y-193221900D01*
X202100884Y-193221900D02*
X202458026Y-193221900D01*
X202458026Y-193221900D02*
X202600884Y-193150471D01*
X203100884Y-192793328D02*
X203672312Y-192793328D01*
X203315169Y-192293328D02*
X203315169Y-193579042D01*
X203315169Y-193579042D02*
X203386598Y-193721900D01*
X203386598Y-193721900D02*
X203529455Y-193793328D01*
X203529455Y-193793328D02*
X203672312Y-193793328D01*
X204743741Y-193721900D02*
X204600884Y-193793328D01*
X204600884Y-193793328D02*
X204315170Y-193793328D01*
X204315170Y-193793328D02*
X204172312Y-193721900D01*
X204172312Y-193721900D02*
X204100884Y-193579042D01*
X204100884Y-193579042D02*
X204100884Y-193007614D01*
X204100884Y-193007614D02*
X204172312Y-192864757D01*
X204172312Y-192864757D02*
X204315170Y-192793328D01*
X204315170Y-192793328D02*
X204600884Y-192793328D01*
X204600884Y-192793328D02*
X204743741Y-192864757D01*
X204743741Y-192864757D02*
X204815170Y-193007614D01*
X204815170Y-193007614D02*
X204815170Y-193150471D01*
X204815170Y-193150471D02*
X204100884Y-193293328D01*
X205458026Y-193650471D02*
X205529455Y-193721900D01*
X205529455Y-193721900D02*
X205458026Y-193793328D01*
X205458026Y-193793328D02*
X205386598Y-193721900D01*
X205386598Y-193721900D02*
X205458026Y-193650471D01*
X205458026Y-193650471D02*
X205458026Y-193793328D01*
X205458026Y-192864757D02*
X205529455Y-192936185D01*
X205529455Y-192936185D02*
X205458026Y-193007614D01*
X205458026Y-193007614D02*
X205386598Y-192936185D01*
X205386598Y-192936185D02*
X205458026Y-192864757D01*
X205458026Y-192864757D02*
X205458026Y-193007614D01*
X207243741Y-192436185D02*
X207315169Y-192364757D01*
X207315169Y-192364757D02*
X207458027Y-192293328D01*
X207458027Y-192293328D02*
X207815169Y-192293328D01*
X207815169Y-192293328D02*
X207958027Y-192364757D01*
X207958027Y-192364757D02*
X208029455Y-192436185D01*
X208029455Y-192436185D02*
X208100884Y-192579042D01*
X208100884Y-192579042D02*
X208100884Y-192721900D01*
X208100884Y-192721900D02*
X208029455Y-192936185D01*
X208029455Y-192936185D02*
X207172312Y-193793328D01*
X207172312Y-193793328D02*
X208100884Y-193793328D01*
X209029455Y-192293328D02*
X209172312Y-192293328D01*
X209172312Y-192293328D02*
X209315169Y-192364757D01*
X209315169Y-192364757D02*
X209386598Y-192436185D01*
X209386598Y-192436185D02*
X209458026Y-192579042D01*
X209458026Y-192579042D02*
X209529455Y-192864757D01*
X209529455Y-192864757D02*
X209529455Y-193221900D01*
X209529455Y-193221900D02*
X209458026Y-193507614D01*
X209458026Y-193507614D02*
X209386598Y-193650471D01*
X209386598Y-193650471D02*
X209315169Y-193721900D01*
X209315169Y-193721900D02*
X209172312Y-193793328D01*
X209172312Y-193793328D02*
X209029455Y-193793328D01*
X209029455Y-193793328D02*
X208886598Y-193721900D01*
X208886598Y-193721900D02*
X208815169Y-193650471D01*
X208815169Y-193650471D02*
X208743740Y-193507614D01*
X208743740Y-193507614D02*
X208672312Y-193221900D01*
X208672312Y-193221900D02*
X208672312Y-192864757D01*
X208672312Y-192864757D02*
X208743740Y-192579042D01*
X208743740Y-192579042D02*
X208815169Y-192436185D01*
X208815169Y-192436185D02*
X208886598Y-192364757D01*
X208886598Y-192364757D02*
X209029455Y-192293328D01*
X210100883Y-192436185D02*
X210172311Y-192364757D01*
X210172311Y-192364757D02*
X210315169Y-192293328D01*
X210315169Y-192293328D02*
X210672311Y-192293328D01*
X210672311Y-192293328D02*
X210815169Y-192364757D01*
X210815169Y-192364757D02*
X210886597Y-192436185D01*
X210886597Y-192436185D02*
X210958026Y-192579042D01*
X210958026Y-192579042D02*
X210958026Y-192721900D01*
X210958026Y-192721900D02*
X210886597Y-192936185D01*
X210886597Y-192936185D02*
X210029454Y-193793328D01*
X210029454Y-193793328D02*
X210958026Y-193793328D01*
X212243740Y-192793328D02*
X212243740Y-193793328D01*
X211886597Y-192221900D02*
X211529454Y-193293328D01*
X211529454Y-193293328D02*
X212458025Y-193293328D01*
X213029453Y-193221900D02*
X214172311Y-193221900D01*
X215172311Y-192293328D02*
X215315168Y-192293328D01*
X215315168Y-192293328D02*
X215458025Y-192364757D01*
X215458025Y-192364757D02*
X215529454Y-192436185D01*
X215529454Y-192436185D02*
X215600882Y-192579042D01*
X215600882Y-192579042D02*
X215672311Y-192864757D01*
X215672311Y-192864757D02*
X215672311Y-193221900D01*
X215672311Y-193221900D02*
X215600882Y-193507614D01*
X215600882Y-193507614D02*
X215529454Y-193650471D01*
X215529454Y-193650471D02*
X215458025Y-193721900D01*
X215458025Y-193721900D02*
X215315168Y-193793328D01*
X215315168Y-193793328D02*
X215172311Y-193793328D01*
X215172311Y-193793328D02*
X215029454Y-193721900D01*
X215029454Y-193721900D02*
X214958025Y-193650471D01*
X214958025Y-193650471D02*
X214886596Y-193507614D01*
X214886596Y-193507614D02*
X214815168Y-193221900D01*
X214815168Y-193221900D02*
X214815168Y-192864757D01*
X214815168Y-192864757D02*
X214886596Y-192579042D01*
X214886596Y-192579042D02*
X214958025Y-192436185D01*
X214958025Y-192436185D02*
X215029454Y-192364757D01*
X215029454Y-192364757D02*
X215172311Y-192293328D01*
X216243739Y-192436185D02*
X216315167Y-192364757D01*
X216315167Y-192364757D02*
X216458025Y-192293328D01*
X216458025Y-192293328D02*
X216815167Y-192293328D01*
X216815167Y-192293328D02*
X216958025Y-192364757D01*
X216958025Y-192364757D02*
X217029453Y-192436185D01*
X217029453Y-192436185D02*
X217100882Y-192579042D01*
X217100882Y-192579042D02*
X217100882Y-192721900D01*
X217100882Y-192721900D02*
X217029453Y-192936185D01*
X217029453Y-192936185D02*
X216172310Y-193793328D01*
X216172310Y-193793328D02*
X217100882Y-193793328D01*
X217743738Y-193221900D02*
X218886596Y-193221900D01*
X219529453Y-192436185D02*
X219600881Y-192364757D01*
X219600881Y-192364757D02*
X219743739Y-192293328D01*
X219743739Y-192293328D02*
X220100881Y-192293328D01*
X220100881Y-192293328D02*
X220243739Y-192364757D01*
X220243739Y-192364757D02*
X220315167Y-192436185D01*
X220315167Y-192436185D02*
X220386596Y-192579042D01*
X220386596Y-192579042D02*
X220386596Y-192721900D01*
X220386596Y-192721900D02*
X220315167Y-192936185D01*
X220315167Y-192936185D02*
X219458024Y-193793328D01*
X219458024Y-193793328D02*
X220386596Y-193793328D01*
X221815167Y-193793328D02*
X220958024Y-193793328D01*
X221386595Y-193793328D02*
X221386595Y-192293328D01*
X221386595Y-192293328D02*
X221243738Y-192507614D01*
X221243738Y-192507614D02*
X221100881Y-192650471D01*
X221100881Y-192650471D02*
X220958024Y-192721900D01*
D10*
D11*
X177002200Y-194507200D02*
X285002200Y-194507200D01*
D10*
D11*
X178458026Y-196593328D02*
X178458026Y-195093328D01*
X179315169Y-196593328D02*
X178672312Y-195736185D01*
X179315169Y-195093328D02*
X178458026Y-195950471D01*
X179958026Y-196593328D02*
X179958026Y-195593328D01*
X179958026Y-195093328D02*
X179886598Y-195164757D01*
X179886598Y-195164757D02*
X179958026Y-195236185D01*
X179958026Y-195236185D02*
X180029455Y-195164757D01*
X180029455Y-195164757D02*
X179958026Y-195093328D01*
X179958026Y-195093328D02*
X179958026Y-195236185D01*
X181529455Y-196450471D02*
X181458027Y-196521900D01*
X181458027Y-196521900D02*
X181243741Y-196593328D01*
X181243741Y-196593328D02*
X181100884Y-196593328D01*
X181100884Y-196593328D02*
X180886598Y-196521900D01*
X180886598Y-196521900D02*
X180743741Y-196379042D01*
X180743741Y-196379042D02*
X180672312Y-196236185D01*
X180672312Y-196236185D02*
X180600884Y-195950471D01*
X180600884Y-195950471D02*
X180600884Y-195736185D01*
X180600884Y-195736185D02*
X180672312Y-195450471D01*
X180672312Y-195450471D02*
X180743741Y-195307614D01*
X180743741Y-195307614D02*
X180886598Y-195164757D01*
X180886598Y-195164757D02*
X181100884Y-195093328D01*
X181100884Y-195093328D02*
X181243741Y-195093328D01*
X181243741Y-195093328D02*
X181458027Y-195164757D01*
X181458027Y-195164757D02*
X181529455Y-195236185D01*
X182815170Y-196593328D02*
X182815170Y-195807614D01*
X182815170Y-195807614D02*
X182743741Y-195664757D01*
X182743741Y-195664757D02*
X182600884Y-195593328D01*
X182600884Y-195593328D02*
X182315170Y-195593328D01*
X182315170Y-195593328D02*
X182172312Y-195664757D01*
X182815170Y-196521900D02*
X182672312Y-196593328D01*
X182672312Y-196593328D02*
X182315170Y-196593328D01*
X182315170Y-196593328D02*
X182172312Y-196521900D01*
X182172312Y-196521900D02*
X182100884Y-196379042D01*
X182100884Y-196379042D02*
X182100884Y-196236185D01*
X182100884Y-196236185D02*
X182172312Y-196093328D01*
X182172312Y-196093328D02*
X182315170Y-196021900D01*
X182315170Y-196021900D02*
X182672312Y-196021900D01*
X182672312Y-196021900D02*
X182815170Y-195950471D01*
X184172313Y-196593328D02*
X184172313Y-195093328D01*
X184172313Y-196521900D02*
X184029455Y-196593328D01*
X184029455Y-196593328D02*
X183743741Y-196593328D01*
X183743741Y-196593328D02*
X183600884Y-196521900D01*
X183600884Y-196521900D02*
X183529455Y-196450471D01*
X183529455Y-196450471D02*
X183458027Y-196307614D01*
X183458027Y-196307614D02*
X183458027Y-195879042D01*
X183458027Y-195879042D02*
X183529455Y-195736185D01*
X183529455Y-195736185D02*
X183600884Y-195664757D01*
X183600884Y-195664757D02*
X183743741Y-195593328D01*
X183743741Y-195593328D02*
X184029455Y-195593328D01*
X184029455Y-195593328D02*
X184172313Y-195664757D01*
X186029455Y-195807614D02*
X186529455Y-195807614D01*
X186743741Y-196593328D02*
X186029455Y-196593328D01*
X186029455Y-196593328D02*
X186029455Y-195093328D01*
X186029455Y-195093328D02*
X186743741Y-195093328D01*
X187386598Y-196450471D02*
X187458027Y-196521900D01*
X187458027Y-196521900D02*
X187386598Y-196593328D01*
X187386598Y-196593328D02*
X187315170Y-196521900D01*
X187315170Y-196521900D02*
X187386598Y-196450471D01*
X187386598Y-196450471D02*
X187386598Y-196593328D01*
X188100884Y-196593328D02*
X188100884Y-195093328D01*
X188100884Y-195093328D02*
X188458027Y-195093328D01*
X188458027Y-195093328D02*
X188672313Y-195164757D01*
X188672313Y-195164757D02*
X188815170Y-195307614D01*
X188815170Y-195307614D02*
X188886599Y-195450471D01*
X188886599Y-195450471D02*
X188958027Y-195736185D01*
X188958027Y-195736185D02*
X188958027Y-195950471D01*
X188958027Y-195950471D02*
X188886599Y-196236185D01*
X188886599Y-196236185D02*
X188815170Y-196379042D01*
X188815170Y-196379042D02*
X188672313Y-196521900D01*
X188672313Y-196521900D02*
X188458027Y-196593328D01*
X188458027Y-196593328D02*
X188100884Y-196593328D01*
X189600884Y-196450471D02*
X189672313Y-196521900D01*
X189672313Y-196521900D02*
X189600884Y-196593328D01*
X189600884Y-196593328D02*
X189529456Y-196521900D01*
X189529456Y-196521900D02*
X189600884Y-196450471D01*
X189600884Y-196450471D02*
X189600884Y-196593328D01*
X190243742Y-196164757D02*
X190958028Y-196164757D01*
X190100885Y-196593328D02*
X190600885Y-195093328D01*
X190600885Y-195093328D02*
X191100885Y-196593328D01*
X191600884Y-196450471D02*
X191672313Y-196521900D01*
X191672313Y-196521900D02*
X191600884Y-196593328D01*
X191600884Y-196593328D02*
X191529456Y-196521900D01*
X191529456Y-196521900D02*
X191600884Y-196450471D01*
X191600884Y-196450471D02*
X191600884Y-196593328D01*
X193672313Y-195736185D02*
X193529456Y-195664757D01*
X193529456Y-195664757D02*
X193458027Y-195593328D01*
X193458027Y-195593328D02*
X193386599Y-195450471D01*
X193386599Y-195450471D02*
X193386599Y-195379042D01*
X193386599Y-195379042D02*
X193458027Y-195236185D01*
X193458027Y-195236185D02*
X193529456Y-195164757D01*
X193529456Y-195164757D02*
X193672313Y-195093328D01*
X193672313Y-195093328D02*
X193958027Y-195093328D01*
X193958027Y-195093328D02*
X194100885Y-195164757D01*
X194100885Y-195164757D02*
X194172313Y-195236185D01*
X194172313Y-195236185D02*
X194243742Y-195379042D01*
X194243742Y-195379042D02*
X194243742Y-195450471D01*
X194243742Y-195450471D02*
X194172313Y-195593328D01*
X194172313Y-195593328D02*
X194100885Y-195664757D01*
X194100885Y-195664757D02*
X193958027Y-195736185D01*
X193958027Y-195736185D02*
X193672313Y-195736185D01*
X193672313Y-195736185D02*
X193529456Y-195807614D01*
X193529456Y-195807614D02*
X193458027Y-195879042D01*
X193458027Y-195879042D02*
X193386599Y-196021900D01*
X193386599Y-196021900D02*
X193386599Y-196307614D01*
X193386599Y-196307614D02*
X193458027Y-196450471D01*
X193458027Y-196450471D02*
X193529456Y-196521900D01*
X193529456Y-196521900D02*
X193672313Y-196593328D01*
X193672313Y-196593328D02*
X193958027Y-196593328D01*
X193958027Y-196593328D02*
X194100885Y-196521900D01*
X194100885Y-196521900D02*
X194172313Y-196450471D01*
X194172313Y-196450471D02*
X194243742Y-196307614D01*
X194243742Y-196307614D02*
X194243742Y-196021900D01*
X194243742Y-196021900D02*
X194172313Y-195879042D01*
X194172313Y-195879042D02*
X194100885Y-195807614D01*
X194100885Y-195807614D02*
X193958027Y-195736185D01*
X194886598Y-196450471D02*
X194958027Y-196521900D01*
X194958027Y-196521900D02*
X194886598Y-196593328D01*
X194886598Y-196593328D02*
X194815170Y-196521900D01*
X194815170Y-196521900D02*
X194886598Y-196450471D01*
X194886598Y-196450471D02*
X194886598Y-196593328D01*
X195886599Y-195093328D02*
X196029456Y-195093328D01*
X196029456Y-195093328D02*
X196172313Y-195164757D01*
X196172313Y-195164757D02*
X196243742Y-195236185D01*
X196243742Y-195236185D02*
X196315170Y-195379042D01*
X196315170Y-195379042D02*
X196386599Y-195664757D01*
X196386599Y-195664757D02*
X196386599Y-196021900D01*
X196386599Y-196021900D02*
X196315170Y-196307614D01*
X196315170Y-196307614D02*
X196243742Y-196450471D01*
X196243742Y-196450471D02*
X196172313Y-196521900D01*
X196172313Y-196521900D02*
X196029456Y-196593328D01*
X196029456Y-196593328D02*
X195886599Y-196593328D01*
X195886599Y-196593328D02*
X195743742Y-196521900D01*
X195743742Y-196521900D02*
X195672313Y-196450471D01*
X195672313Y-196450471D02*
X195600884Y-196307614D01*
X195600884Y-196307614D02*
X195529456Y-196021900D01*
X195529456Y-196021900D02*
X195529456Y-195664757D01*
X195529456Y-195664757D02*
X195600884Y-195379042D01*
X195600884Y-195379042D02*
X195672313Y-195236185D01*
X195672313Y-195236185D02*
X195743742Y-195164757D01*
X195743742Y-195164757D02*
X195886599Y-195093328D01*
X197029455Y-196450471D02*
X197100884Y-196521900D01*
X197100884Y-196521900D02*
X197029455Y-196593328D01*
X197029455Y-196593328D02*
X196958027Y-196521900D01*
X196958027Y-196521900D02*
X197029455Y-196450471D01*
X197029455Y-196450471D02*
X197029455Y-196593328D01*
X198529456Y-196593328D02*
X197672313Y-196593328D01*
X198100884Y-196593328D02*
X198100884Y-195093328D01*
X198100884Y-195093328D02*
X197958027Y-195307614D01*
X197958027Y-195307614D02*
X197815170Y-195450471D01*
X197815170Y-195450471D02*
X197672313Y-195521900D01*
D10*
D11*
X177002200Y-191507200D02*
X285002200Y-191507200D01*
D10*
D12*
X264413853Y-193785528D02*
X263913853Y-193071242D01*
X263556710Y-193785528D02*
X263556710Y-192285528D01*
X263556710Y-192285528D02*
X264128139Y-192285528D01*
X264128139Y-192285528D02*
X264270996Y-192356957D01*
X264270996Y-192356957D02*
X264342425Y-192428385D01*
X264342425Y-192428385D02*
X264413853Y-192571242D01*
X264413853Y-192571242D02*
X264413853Y-192785528D01*
X264413853Y-192785528D02*
X264342425Y-192928385D01*
X264342425Y-192928385D02*
X264270996Y-192999814D01*
X264270996Y-192999814D02*
X264128139Y-193071242D01*
X264128139Y-193071242D02*
X263556710Y-193071242D01*
X265628139Y-193714100D02*
X265485282Y-193785528D01*
X265485282Y-193785528D02*
X265199568Y-193785528D01*
X265199568Y-193785528D02*
X265056710Y-193714100D01*
X265056710Y-193714100D02*
X264985282Y-193571242D01*
X264985282Y-193571242D02*
X264985282Y-192999814D01*
X264985282Y-192999814D02*
X265056710Y-192856957D01*
X265056710Y-192856957D02*
X265199568Y-192785528D01*
X265199568Y-192785528D02*
X265485282Y-192785528D01*
X265485282Y-192785528D02*
X265628139Y-192856957D01*
X265628139Y-192856957D02*
X265699568Y-192999814D01*
X265699568Y-192999814D02*
X265699568Y-193142671D01*
X265699568Y-193142671D02*
X264985282Y-193285528D01*
X266199567Y-192785528D02*
X266556710Y-193785528D01*
X266556710Y-193785528D02*
X266913853Y-192785528D01*
X267485281Y-193642671D02*
X267556710Y-193714100D01*
X267556710Y-193714100D02*
X267485281Y-193785528D01*
X267485281Y-193785528D02*
X267413853Y-193714100D01*
X267413853Y-193714100D02*
X267485281Y-193642671D01*
X267485281Y-193642671D02*
X267485281Y-193785528D01*
X267485281Y-192856957D02*
X267556710Y-192928385D01*
X267556710Y-192928385D02*
X267485281Y-192999814D01*
X267485281Y-192999814D02*
X267413853Y-192928385D01*
X267413853Y-192928385D02*
X267485281Y-192856957D01*
X267485281Y-192856957D02*
X267485281Y-192999814D01*
X269985282Y-192785528D02*
X269985282Y-193785528D01*
X269628139Y-192214100D02*
X269270996Y-193285528D01*
X269270996Y-193285528D02*
X270199567Y-193285528D01*
D10*
D11*
X178386598Y-193721900D02*
X178600884Y-193793328D01*
X178600884Y-193793328D02*
X178958026Y-193793328D01*
X178958026Y-193793328D02*
X179100884Y-193721900D01*
X179100884Y-193721900D02*
X179172312Y-193650471D01*
X179172312Y-193650471D02*
X179243741Y-193507614D01*
X179243741Y-193507614D02*
X179243741Y-193364757D01*
X179243741Y-193364757D02*
X179172312Y-193221900D01*
X179172312Y-193221900D02*
X179100884Y-193150471D01*
X179100884Y-193150471D02*
X178958026Y-193079042D01*
X178958026Y-193079042D02*
X178672312Y-193007614D01*
X178672312Y-193007614D02*
X178529455Y-192936185D01*
X178529455Y-192936185D02*
X178458026Y-192864757D01*
X178458026Y-192864757D02*
X178386598Y-192721900D01*
X178386598Y-192721900D02*
X178386598Y-192579042D01*
X178386598Y-192579042D02*
X178458026Y-192436185D01*
X178458026Y-192436185D02*
X178529455Y-192364757D01*
X178529455Y-192364757D02*
X178672312Y-192293328D01*
X178672312Y-192293328D02*
X179029455Y-192293328D01*
X179029455Y-192293328D02*
X179243741Y-192364757D01*
X179886597Y-193793328D02*
X179886597Y-192793328D01*
X179886597Y-192293328D02*
X179815169Y-192364757D01*
X179815169Y-192364757D02*
X179886597Y-192436185D01*
X179886597Y-192436185D02*
X179958026Y-192364757D01*
X179958026Y-192364757D02*
X179886597Y-192293328D01*
X179886597Y-192293328D02*
X179886597Y-192436185D01*
X180458026Y-192793328D02*
X181243741Y-192793328D01*
X181243741Y-192793328D02*
X180458026Y-193793328D01*
X180458026Y-193793328D02*
X181243741Y-193793328D01*
X182386598Y-193721900D02*
X182243741Y-193793328D01*
X182243741Y-193793328D02*
X181958027Y-193793328D01*
X181958027Y-193793328D02*
X181815169Y-193721900D01*
X181815169Y-193721900D02*
X181743741Y-193579042D01*
X181743741Y-193579042D02*
X181743741Y-193007614D01*
X181743741Y-193007614D02*
X181815169Y-192864757D01*
X181815169Y-192864757D02*
X181958027Y-192793328D01*
X181958027Y-192793328D02*
X182243741Y-192793328D01*
X182243741Y-192793328D02*
X182386598Y-192864757D01*
X182386598Y-192864757D02*
X182458027Y-193007614D01*
X182458027Y-193007614D02*
X182458027Y-193150471D01*
X182458027Y-193150471D02*
X181743741Y-193293328D01*
X183100883Y-193650471D02*
X183172312Y-193721900D01*
X183172312Y-193721900D02*
X183100883Y-193793328D01*
X183100883Y-193793328D02*
X183029455Y-193721900D01*
X183029455Y-193721900D02*
X183100883Y-193650471D01*
X183100883Y-193650471D02*
X183100883Y-193793328D01*
X183100883Y-192864757D02*
X183172312Y-192936185D01*
X183172312Y-192936185D02*
X183100883Y-193007614D01*
X183100883Y-193007614D02*
X183029455Y-192936185D01*
X183029455Y-192936185D02*
X183100883Y-192864757D01*
X183100883Y-192864757D02*
X183100883Y-193007614D01*
X184886598Y-193364757D02*
X185600884Y-193364757D01*
X184743741Y-193793328D02*
X185243741Y-192293328D01*
X185243741Y-192293328D02*
X185743741Y-193793328D01*
X186886598Y-192793328D02*
X186886598Y-193793328D01*
X186529455Y-192221900D02*
X186172312Y-193293328D01*
X186172312Y-193293328D02*
X187100883Y-193293328D01*
D10*
D11*
X263458026Y-196593328D02*
X263458026Y-195093328D01*
X264815170Y-196593328D02*
X264815170Y-195093328D01*
X264815170Y-196521900D02*
X264672312Y-196593328D01*
X264672312Y-196593328D02*
X264386598Y-196593328D01*
X264386598Y-196593328D02*
X264243741Y-196521900D01*
X264243741Y-196521900D02*
X264172312Y-196450471D01*
X264172312Y-196450471D02*
X264100884Y-196307614D01*
X264100884Y-196307614D02*
X264100884Y-195879042D01*
X264100884Y-195879042D02*
X264172312Y-195736185D01*
X264172312Y-195736185D02*
X264243741Y-195664757D01*
X264243741Y-195664757D02*
X264386598Y-195593328D01*
X264386598Y-195593328D02*
X264672312Y-195593328D01*
X264672312Y-195593328D02*
X264815170Y-195664757D01*
X265529455Y-196450471D02*
X265600884Y-196521900D01*
X265600884Y-196521900D02*
X265529455Y-196593328D01*
X265529455Y-196593328D02*
X265458027Y-196521900D01*
X265458027Y-196521900D02*
X265529455Y-196450471D01*
X265529455Y-196450471D02*
X265529455Y-196593328D01*
X265529455Y-195664757D02*
X265600884Y-195736185D01*
X265600884Y-195736185D02*
X265529455Y-195807614D01*
X265529455Y-195807614D02*
X265458027Y-195736185D01*
X265458027Y-195736185D02*
X265529455Y-195664757D01*
X265529455Y-195664757D02*
X265529455Y-195807614D01*
X268172313Y-196593328D02*
X267315170Y-196593328D01*
X267743741Y-196593328D02*
X267743741Y-195093328D01*
X267743741Y-195093328D02*
X267600884Y-195307614D01*
X267600884Y-195307614D02*
X267458027Y-195450471D01*
X267458027Y-195450471D02*
X267315170Y-195521900D01*
X269886598Y-195021900D02*
X268600884Y-196950471D01*
X271172313Y-196593328D02*
X270315170Y-196593328D01*
X270743741Y-196593328D02*
X270743741Y-195093328D01*
X270743741Y-195093328D02*
X270600884Y-195307614D01*
X270600884Y-195307614D02*
X270458027Y-195450471D01*
X270458027Y-195450471D02*
X270315170Y-195521900D01*
D10*
D11*
X177002200Y-187507200D02*
X285002200Y-187507200D01*
D10*
D13*
X178693928Y-188211638D02*
X179836785Y-188211638D01*
X179015357Y-190211638D02*
X179265357Y-188211638D01*
X180253452Y-190211638D02*
X180420119Y-188878304D01*
X180503452Y-188211638D02*
X180396309Y-188306876D01*
X180396309Y-188306876D02*
X180479643Y-188402114D01*
X180479643Y-188402114D02*
X180586786Y-188306876D01*
X180586786Y-188306876D02*
X180503452Y-188211638D01*
X180503452Y-188211638D02*
X180479643Y-188402114D01*
X181086786Y-188878304D02*
X181848690Y-188878304D01*
X181455833Y-188211638D02*
X181241548Y-189925923D01*
X181241548Y-189925923D02*
X181312976Y-190116400D01*
X181312976Y-190116400D02*
X181491548Y-190211638D01*
X181491548Y-190211638D02*
X181682024Y-190211638D01*
X182634405Y-190211638D02*
X182455833Y-190116400D01*
X182455833Y-190116400D02*
X182384405Y-189925923D01*
X182384405Y-189925923D02*
X182598690Y-188211638D01*
X184170119Y-190116400D02*
X183967738Y-190211638D01*
X183967738Y-190211638D02*
X183586785Y-190211638D01*
X183586785Y-190211638D02*
X183408214Y-190116400D01*
X183408214Y-190116400D02*
X183336785Y-189925923D01*
X183336785Y-189925923D02*
X183432024Y-189164019D01*
X183432024Y-189164019D02*
X183551071Y-188973542D01*
X183551071Y-188973542D02*
X183753452Y-188878304D01*
X183753452Y-188878304D02*
X184134404Y-188878304D01*
X184134404Y-188878304D02*
X184312976Y-188973542D01*
X184312976Y-188973542D02*
X184384404Y-189164019D01*
X184384404Y-189164019D02*
X184360595Y-189354495D01*
X184360595Y-189354495D02*
X183384404Y-189544971D01*
X185134405Y-190021161D02*
X185217738Y-190116400D01*
X185217738Y-190116400D02*
X185110595Y-190211638D01*
X185110595Y-190211638D02*
X185027262Y-190116400D01*
X185027262Y-190116400D02*
X185134405Y-190021161D01*
X185134405Y-190021161D02*
X185110595Y-190211638D01*
X185265357Y-188973542D02*
X185348690Y-189068780D01*
X185348690Y-189068780D02*
X185241548Y-189164019D01*
X185241548Y-189164019D02*
X185158214Y-189068780D01*
X185158214Y-189068780D02*
X185265357Y-188973542D01*
X185265357Y-188973542D02*
X185241548Y-189164019D01*
X187503453Y-190116400D02*
X187777262Y-190211638D01*
X187777262Y-190211638D02*
X188253453Y-190211638D01*
X188253453Y-190211638D02*
X188455834Y-190116400D01*
X188455834Y-190116400D02*
X188562977Y-190021161D01*
X188562977Y-190021161D02*
X188682024Y-189830685D01*
X188682024Y-189830685D02*
X188705834Y-189640209D01*
X188705834Y-189640209D02*
X188634405Y-189449733D01*
X188634405Y-189449733D02*
X188551072Y-189354495D01*
X188551072Y-189354495D02*
X188372501Y-189259257D01*
X188372501Y-189259257D02*
X188003453Y-189164019D01*
X188003453Y-189164019D02*
X187824881Y-189068780D01*
X187824881Y-189068780D02*
X187741548Y-188973542D01*
X187741548Y-188973542D02*
X187670120Y-188783066D01*
X187670120Y-188783066D02*
X187693929Y-188592590D01*
X187693929Y-188592590D02*
X187812977Y-188402114D01*
X187812977Y-188402114D02*
X187920120Y-188306876D01*
X187920120Y-188306876D02*
X188122501Y-188211638D01*
X188122501Y-188211638D02*
X188598691Y-188211638D01*
X188598691Y-188211638D02*
X188872501Y-188306876D01*
X189491548Y-190211638D02*
X189658215Y-188878304D01*
X189634405Y-189068780D02*
X189741548Y-188973542D01*
X189741548Y-188973542D02*
X189943929Y-188878304D01*
X189943929Y-188878304D02*
X190229643Y-188878304D01*
X190229643Y-188878304D02*
X190408215Y-188973542D01*
X190408215Y-188973542D02*
X190479643Y-189164019D01*
X190479643Y-189164019D02*
X190348691Y-190211638D01*
X190479643Y-189164019D02*
X190598691Y-188973542D01*
X190598691Y-188973542D02*
X190801072Y-188878304D01*
X190801072Y-188878304D02*
X191086786Y-188878304D01*
X191086786Y-188878304D02*
X191265358Y-188973542D01*
X191265358Y-188973542D02*
X191336786Y-189164019D01*
X191336786Y-189164019D02*
X191205834Y-190211638D01*
X193015358Y-190211638D02*
X193146310Y-189164019D01*
X193146310Y-189164019D02*
X193074882Y-188973542D01*
X193074882Y-188973542D02*
X192896310Y-188878304D01*
X192896310Y-188878304D02*
X192515358Y-188878304D01*
X192515358Y-188878304D02*
X192312977Y-188973542D01*
X193027263Y-190116400D02*
X192824882Y-190211638D01*
X192824882Y-190211638D02*
X192348691Y-190211638D01*
X192348691Y-190211638D02*
X192170120Y-190116400D01*
X192170120Y-190116400D02*
X192098691Y-189925923D01*
X192098691Y-189925923D02*
X192122501Y-189735447D01*
X192122501Y-189735447D02*
X192241549Y-189544971D01*
X192241549Y-189544971D02*
X192443930Y-189449733D01*
X192443930Y-189449733D02*
X192920120Y-189449733D01*
X192920120Y-189449733D02*
X193122501Y-189354495D01*
X194253454Y-190211638D02*
X194074882Y-190116400D01*
X194074882Y-190116400D02*
X194003454Y-189925923D01*
X194003454Y-189925923D02*
X194217739Y-188211638D01*
X195301073Y-190211638D02*
X195122501Y-190116400D01*
X195122501Y-190116400D02*
X195051073Y-189925923D01*
X195051073Y-189925923D02*
X195265358Y-188211638D01*
X198872502Y-188306876D02*
X198693930Y-188211638D01*
X198693930Y-188211638D02*
X198408216Y-188211638D01*
X198408216Y-188211638D02*
X198110597Y-188306876D01*
X198110597Y-188306876D02*
X197896311Y-188497352D01*
X197896311Y-188497352D02*
X197777263Y-188687828D01*
X197777263Y-188687828D02*
X197634406Y-189068780D01*
X197634406Y-189068780D02*
X197598692Y-189354495D01*
X197598692Y-189354495D02*
X197646311Y-189735447D01*
X197646311Y-189735447D02*
X197717740Y-189925923D01*
X197717740Y-189925923D02*
X197884406Y-190116400D01*
X197884406Y-190116400D02*
X198158216Y-190211638D01*
X198158216Y-190211638D02*
X198348692Y-190211638D01*
X198348692Y-190211638D02*
X198646311Y-190116400D01*
X198646311Y-190116400D02*
X198753454Y-190021161D01*
X198753454Y-190021161D02*
X198836787Y-189354495D01*
X198836787Y-189354495D02*
X198455835Y-189354495D01*
X200360597Y-190116400D02*
X200158216Y-190211638D01*
X200158216Y-190211638D02*
X199777263Y-190211638D01*
X199777263Y-190211638D02*
X199598692Y-190116400D01*
X199598692Y-190116400D02*
X199527263Y-189925923D01*
X199527263Y-189925923D02*
X199622502Y-189164019D01*
X199622502Y-189164019D02*
X199741549Y-188973542D01*
X199741549Y-188973542D02*
X199943930Y-188878304D01*
X199943930Y-188878304D02*
X200324882Y-188878304D01*
X200324882Y-188878304D02*
X200503454Y-188973542D01*
X200503454Y-188973542D02*
X200574882Y-189164019D01*
X200574882Y-189164019D02*
X200551073Y-189354495D01*
X200551073Y-189354495D02*
X199574882Y-189544971D01*
X201467740Y-188878304D02*
X201301073Y-190211638D01*
X201443930Y-189068780D02*
X201551073Y-188973542D01*
X201551073Y-188973542D02*
X201753454Y-188878304D01*
X201753454Y-188878304D02*
X202039168Y-188878304D01*
X202039168Y-188878304D02*
X202217740Y-188973542D01*
X202217740Y-188973542D02*
X202289168Y-189164019D01*
X202289168Y-189164019D02*
X202158216Y-190211638D01*
X203884407Y-190116400D02*
X203682026Y-190211638D01*
X203682026Y-190211638D02*
X203301073Y-190211638D01*
X203301073Y-190211638D02*
X203122502Y-190116400D01*
X203122502Y-190116400D02*
X203051073Y-189925923D01*
X203051073Y-189925923D02*
X203146312Y-189164019D01*
X203146312Y-189164019D02*
X203265359Y-188973542D01*
X203265359Y-188973542D02*
X203467740Y-188878304D01*
X203467740Y-188878304D02*
X203848692Y-188878304D01*
X203848692Y-188878304D02*
X204027264Y-188973542D01*
X204027264Y-188973542D02*
X204098692Y-189164019D01*
X204098692Y-189164019D02*
X204074883Y-189354495D01*
X204074883Y-189354495D02*
X203098692Y-189544971D01*
X204824883Y-190211638D02*
X204991550Y-188878304D01*
X204943931Y-189259257D02*
X205062978Y-189068780D01*
X205062978Y-189068780D02*
X205170121Y-188973542D01*
X205170121Y-188973542D02*
X205372502Y-188878304D01*
X205372502Y-188878304D02*
X205562978Y-188878304D01*
X206920121Y-190211638D02*
X207051073Y-189164019D01*
X207051073Y-189164019D02*
X206979645Y-188973542D01*
X206979645Y-188973542D02*
X206801073Y-188878304D01*
X206801073Y-188878304D02*
X206420121Y-188878304D01*
X206420121Y-188878304D02*
X206217740Y-188973542D01*
X206932026Y-190116400D02*
X206729645Y-190211638D01*
X206729645Y-190211638D02*
X206253454Y-190211638D01*
X206253454Y-190211638D02*
X206074883Y-190116400D01*
X206074883Y-190116400D02*
X206003454Y-189925923D01*
X206003454Y-189925923D02*
X206027264Y-189735447D01*
X206027264Y-189735447D02*
X206146312Y-189544971D01*
X206146312Y-189544971D02*
X206348693Y-189449733D01*
X206348693Y-189449733D02*
X206824883Y-189449733D01*
X206824883Y-189449733D02*
X207027264Y-189354495D01*
X208158217Y-190211638D02*
X207979645Y-190116400D01*
X207979645Y-190116400D02*
X207908217Y-189925923D01*
X207908217Y-189925923D02*
X208122502Y-188211638D01*
D10*
D11*
X178958026Y-185607614D02*
X178458026Y-185607614D01*
X178458026Y-186393328D02*
X178458026Y-184893328D01*
X178458026Y-184893328D02*
X179172312Y-184893328D01*
X179743740Y-186393328D02*
X179743740Y-185393328D01*
X179743740Y-184893328D02*
X179672312Y-184964757D01*
X179672312Y-184964757D02*
X179743740Y-185036185D01*
X179743740Y-185036185D02*
X179815169Y-184964757D01*
X179815169Y-184964757D02*
X179743740Y-184893328D01*
X179743740Y-184893328D02*
X179743740Y-185036185D01*
X180672312Y-186393328D02*
X180529455Y-186321900D01*
X180529455Y-186321900D02*
X180458026Y-186179042D01*
X180458026Y-186179042D02*
X180458026Y-184893328D01*
X181815169Y-186321900D02*
X181672312Y-186393328D01*
X181672312Y-186393328D02*
X181386598Y-186393328D01*
X181386598Y-186393328D02*
X181243740Y-186321900D01*
X181243740Y-186321900D02*
X181172312Y-186179042D01*
X181172312Y-186179042D02*
X181172312Y-185607614D01*
X181172312Y-185607614D02*
X181243740Y-185464757D01*
X181243740Y-185464757D02*
X181386598Y-185393328D01*
X181386598Y-185393328D02*
X181672312Y-185393328D01*
X181672312Y-185393328D02*
X181815169Y-185464757D01*
X181815169Y-185464757D02*
X181886598Y-185607614D01*
X181886598Y-185607614D02*
X181886598Y-185750471D01*
X181886598Y-185750471D02*
X181172312Y-185893328D01*
X182529454Y-186250471D02*
X182600883Y-186321900D01*
X182600883Y-186321900D02*
X182529454Y-186393328D01*
X182529454Y-186393328D02*
X182458026Y-186321900D01*
X182458026Y-186321900D02*
X182529454Y-186250471D01*
X182529454Y-186250471D02*
X182529454Y-186393328D01*
X182529454Y-185464757D02*
X182600883Y-185536185D01*
X182600883Y-185536185D02*
X182529454Y-185607614D01*
X182529454Y-185607614D02*
X182458026Y-185536185D01*
X182458026Y-185536185D02*
X182529454Y-185464757D01*
X182529454Y-185464757D02*
X182529454Y-185607614D01*
X184315169Y-186321900D02*
X184529455Y-186393328D01*
X184529455Y-186393328D02*
X184886597Y-186393328D01*
X184886597Y-186393328D02*
X185029455Y-186321900D01*
X185029455Y-186321900D02*
X185100883Y-186250471D01*
X185100883Y-186250471D02*
X185172312Y-186107614D01*
X185172312Y-186107614D02*
X185172312Y-185964757D01*
X185172312Y-185964757D02*
X185100883Y-185821900D01*
X185100883Y-185821900D02*
X185029455Y-185750471D01*
X185029455Y-185750471D02*
X184886597Y-185679042D01*
X184886597Y-185679042D02*
X184600883Y-185607614D01*
X184600883Y-185607614D02*
X184458026Y-185536185D01*
X184458026Y-185536185D02*
X184386597Y-185464757D01*
X184386597Y-185464757D02*
X184315169Y-185321900D01*
X184315169Y-185321900D02*
X184315169Y-185179042D01*
X184315169Y-185179042D02*
X184386597Y-185036185D01*
X184386597Y-185036185D02*
X184458026Y-184964757D01*
X184458026Y-184964757D02*
X184600883Y-184893328D01*
X184600883Y-184893328D02*
X184958026Y-184893328D01*
X184958026Y-184893328D02*
X185172312Y-184964757D01*
X185815168Y-186393328D02*
X185815168Y-185393328D01*
X185815168Y-185536185D02*
X185886597Y-185464757D01*
X185886597Y-185464757D02*
X186029454Y-185393328D01*
X186029454Y-185393328D02*
X186243740Y-185393328D01*
X186243740Y-185393328D02*
X186386597Y-185464757D01*
X186386597Y-185464757D02*
X186458026Y-185607614D01*
X186458026Y-185607614D02*
X186458026Y-186393328D01*
X186458026Y-185607614D02*
X186529454Y-185464757D01*
X186529454Y-185464757D02*
X186672311Y-185393328D01*
X186672311Y-185393328D02*
X186886597Y-185393328D01*
X186886597Y-185393328D02*
X187029454Y-185464757D01*
X187029454Y-185464757D02*
X187100883Y-185607614D01*
X187100883Y-185607614D02*
X187100883Y-186393328D01*
X188458026Y-186393328D02*
X188458026Y-185607614D01*
X188458026Y-185607614D02*
X188386597Y-185464757D01*
X188386597Y-185464757D02*
X188243740Y-185393328D01*
X188243740Y-185393328D02*
X187958026Y-185393328D01*
X187958026Y-185393328D02*
X187815168Y-185464757D01*
X188458026Y-186321900D02*
X188315168Y-186393328D01*
X188315168Y-186393328D02*
X187958026Y-186393328D01*
X187958026Y-186393328D02*
X187815168Y-186321900D01*
X187815168Y-186321900D02*
X187743740Y-186179042D01*
X187743740Y-186179042D02*
X187743740Y-186036185D01*
X187743740Y-186036185D02*
X187815168Y-185893328D01*
X187815168Y-185893328D02*
X187958026Y-185821900D01*
X187958026Y-185821900D02*
X188315168Y-185821900D01*
X188315168Y-185821900D02*
X188458026Y-185750471D01*
X189386597Y-186393328D02*
X189243740Y-186321900D01*
X189243740Y-186321900D02*
X189172311Y-186179042D01*
X189172311Y-186179042D02*
X189172311Y-184893328D01*
X190172311Y-186393328D02*
X190029454Y-186321900D01*
X190029454Y-186321900D02*
X189958025Y-186179042D01*
X189958025Y-186179042D02*
X189958025Y-184893328D01*
X191529454Y-184964757D02*
X191386597Y-184893328D01*
X191386597Y-184893328D02*
X191172311Y-184893328D01*
X191172311Y-184893328D02*
X190958025Y-184964757D01*
X190958025Y-184964757D02*
X190815168Y-185107614D01*
X190815168Y-185107614D02*
X190743739Y-185250471D01*
X190743739Y-185250471D02*
X190672311Y-185536185D01*
X190672311Y-185536185D02*
X190672311Y-185750471D01*
X190672311Y-185750471D02*
X190743739Y-186036185D01*
X190743739Y-186036185D02*
X190815168Y-186179042D01*
X190815168Y-186179042D02*
X190958025Y-186321900D01*
X190958025Y-186321900D02*
X191172311Y-186393328D01*
X191172311Y-186393328D02*
X191315168Y-186393328D01*
X191315168Y-186393328D02*
X191529454Y-186321900D01*
X191529454Y-186321900D02*
X191600882Y-186250471D01*
X191600882Y-186250471D02*
X191600882Y-185750471D01*
X191600882Y-185750471D02*
X191315168Y-185750471D01*
X192815168Y-186321900D02*
X192672311Y-186393328D01*
X192672311Y-186393328D02*
X192386597Y-186393328D01*
X192386597Y-186393328D02*
X192243739Y-186321900D01*
X192243739Y-186321900D02*
X192172311Y-186179042D01*
X192172311Y-186179042D02*
X192172311Y-185607614D01*
X192172311Y-185607614D02*
X192243739Y-185464757D01*
X192243739Y-185464757D02*
X192386597Y-185393328D01*
X192386597Y-185393328D02*
X192672311Y-185393328D01*
X192672311Y-185393328D02*
X192815168Y-185464757D01*
X192815168Y-185464757D02*
X192886597Y-185607614D01*
X192886597Y-185607614D02*
X192886597Y-185750471D01*
X192886597Y-185750471D02*
X192172311Y-185893328D01*
X193529453Y-185393328D02*
X193529453Y-186393328D01*
X193529453Y-185536185D02*
X193600882Y-185464757D01*
X193600882Y-185464757D02*
X193743739Y-185393328D01*
X193743739Y-185393328D02*
X193958025Y-185393328D01*
X193958025Y-185393328D02*
X194100882Y-185464757D01*
X194100882Y-185464757D02*
X194172311Y-185607614D01*
X194172311Y-185607614D02*
X194172311Y-186393328D01*
X195458025Y-186321900D02*
X195315168Y-186393328D01*
X195315168Y-186393328D02*
X195029454Y-186393328D01*
X195029454Y-186393328D02*
X194886596Y-186321900D01*
X194886596Y-186321900D02*
X194815168Y-186179042D01*
X194815168Y-186179042D02*
X194815168Y-185607614D01*
X194815168Y-185607614D02*
X194886596Y-185464757D01*
X194886596Y-185464757D02*
X195029454Y-185393328D01*
X195029454Y-185393328D02*
X195315168Y-185393328D01*
X195315168Y-185393328D02*
X195458025Y-185464757D01*
X195458025Y-185464757D02*
X195529454Y-185607614D01*
X195529454Y-185607614D02*
X195529454Y-185750471D01*
X195529454Y-185750471D02*
X194815168Y-185893328D01*
X196172310Y-186393328D02*
X196172310Y-185393328D01*
X196172310Y-185679042D02*
X196243739Y-185536185D01*
X196243739Y-185536185D02*
X196315168Y-185464757D01*
X196315168Y-185464757D02*
X196458025Y-185393328D01*
X196458025Y-185393328D02*
X196600882Y-185393328D01*
X197743739Y-186393328D02*
X197743739Y-185607614D01*
X197743739Y-185607614D02*
X197672310Y-185464757D01*
X197672310Y-185464757D02*
X197529453Y-185393328D01*
X197529453Y-185393328D02*
X197243739Y-185393328D01*
X197243739Y-185393328D02*
X197100881Y-185464757D01*
X197743739Y-186321900D02*
X197600881Y-186393328D01*
X197600881Y-186393328D02*
X197243739Y-186393328D01*
X197243739Y-186393328D02*
X197100881Y-186321900D01*
X197100881Y-186321900D02*
X197029453Y-186179042D01*
X197029453Y-186179042D02*
X197029453Y-186036185D01*
X197029453Y-186036185D02*
X197100881Y-185893328D01*
X197100881Y-185893328D02*
X197243739Y-185821900D01*
X197243739Y-185821900D02*
X197600881Y-185821900D01*
X197600881Y-185821900D02*
X197743739Y-185750471D01*
X198672310Y-186393328D02*
X198529453Y-186321900D01*
X198529453Y-186321900D02*
X198458024Y-186179042D01*
X198458024Y-186179042D02*
X198458024Y-184893328D01*
X199243738Y-186250471D02*
X199315167Y-186321900D01*
X199315167Y-186321900D02*
X199243738Y-186393328D01*
X199243738Y-186393328D02*
X199172310Y-186321900D01*
X199172310Y-186321900D02*
X199243738Y-186250471D01*
X199243738Y-186250471D02*
X199243738Y-186393328D01*
X199958024Y-186393328D02*
X199958024Y-184893328D01*
X200100882Y-185821900D02*
X200529453Y-186393328D01*
X200529453Y-185393328D02*
X199958024Y-185964757D01*
X201172310Y-186393328D02*
X201172310Y-185393328D01*
X201172310Y-184893328D02*
X201100882Y-184964757D01*
X201100882Y-184964757D02*
X201172310Y-185036185D01*
X201172310Y-185036185D02*
X201243739Y-184964757D01*
X201243739Y-184964757D02*
X201172310Y-184893328D01*
X201172310Y-184893328D02*
X201172310Y-185036185D01*
X202529454Y-186321900D02*
X202386596Y-186393328D01*
X202386596Y-186393328D02*
X202100882Y-186393328D01*
X202100882Y-186393328D02*
X201958025Y-186321900D01*
X201958025Y-186321900D02*
X201886596Y-186250471D01*
X201886596Y-186250471D02*
X201815168Y-186107614D01*
X201815168Y-186107614D02*
X201815168Y-185679042D01*
X201815168Y-185679042D02*
X201886596Y-185536185D01*
X201886596Y-185536185D02*
X201958025Y-185464757D01*
X201958025Y-185464757D02*
X202100882Y-185393328D01*
X202100882Y-185393328D02*
X202386596Y-185393328D01*
X202386596Y-185393328D02*
X202529454Y-185464757D01*
X203815168Y-186393328D02*
X203815168Y-185607614D01*
X203815168Y-185607614D02*
X203743739Y-185464757D01*
X203743739Y-185464757D02*
X203600882Y-185393328D01*
X203600882Y-185393328D02*
X203315168Y-185393328D01*
X203315168Y-185393328D02*
X203172310Y-185464757D01*
X203815168Y-186321900D02*
X203672310Y-186393328D01*
X203672310Y-186393328D02*
X203315168Y-186393328D01*
X203315168Y-186393328D02*
X203172310Y-186321900D01*
X203172310Y-186321900D02*
X203100882Y-186179042D01*
X203100882Y-186179042D02*
X203100882Y-186036185D01*
X203100882Y-186036185D02*
X203172310Y-185893328D01*
X203172310Y-185893328D02*
X203315168Y-185821900D01*
X203315168Y-185821900D02*
X203672310Y-185821900D01*
X203672310Y-185821900D02*
X203815168Y-185750471D01*
X205172311Y-186393328D02*
X205172311Y-184893328D01*
X205172311Y-186321900D02*
X205029453Y-186393328D01*
X205029453Y-186393328D02*
X204743739Y-186393328D01*
X204743739Y-186393328D02*
X204600882Y-186321900D01*
X204600882Y-186321900D02*
X204529453Y-186250471D01*
X204529453Y-186250471D02*
X204458025Y-186107614D01*
X204458025Y-186107614D02*
X204458025Y-185679042D01*
X204458025Y-185679042D02*
X204529453Y-185536185D01*
X204529453Y-185536185D02*
X204600882Y-185464757D01*
X204600882Y-185464757D02*
X204743739Y-185393328D01*
X204743739Y-185393328D02*
X205029453Y-185393328D01*
X205029453Y-185393328D02*
X205172311Y-185464757D01*
X205529454Y-186536185D02*
X206672311Y-186536185D01*
X207029453Y-185393328D02*
X207029453Y-186893328D01*
X207029453Y-185464757D02*
X207172311Y-185393328D01*
X207172311Y-185393328D02*
X207458025Y-185393328D01*
X207458025Y-185393328D02*
X207600882Y-185464757D01*
X207600882Y-185464757D02*
X207672311Y-185536185D01*
X207672311Y-185536185D02*
X207743739Y-185679042D01*
X207743739Y-185679042D02*
X207743739Y-186107614D01*
X207743739Y-186107614D02*
X207672311Y-186250471D01*
X207672311Y-186250471D02*
X207600882Y-186321900D01*
X207600882Y-186321900D02*
X207458025Y-186393328D01*
X207458025Y-186393328D02*
X207172311Y-186393328D01*
X207172311Y-186393328D02*
X207029453Y-186321900D01*
X209029454Y-186321900D02*
X208886596Y-186393328D01*
X208886596Y-186393328D02*
X208600882Y-186393328D01*
X208600882Y-186393328D02*
X208458025Y-186321900D01*
X208458025Y-186321900D02*
X208386596Y-186250471D01*
X208386596Y-186250471D02*
X208315168Y-186107614D01*
X208315168Y-186107614D02*
X208315168Y-185679042D01*
X208315168Y-185679042D02*
X208386596Y-185536185D01*
X208386596Y-185536185D02*
X208458025Y-185464757D01*
X208458025Y-185464757D02*
X208600882Y-185393328D01*
X208600882Y-185393328D02*
X208886596Y-185393328D01*
X208886596Y-185393328D02*
X209029454Y-185464757D01*
X209672310Y-186393328D02*
X209672310Y-184893328D01*
X209672310Y-185464757D02*
X209815168Y-185393328D01*
X209815168Y-185393328D02*
X210100882Y-185393328D01*
X210100882Y-185393328D02*
X210243739Y-185464757D01*
X210243739Y-185464757D02*
X210315168Y-185536185D01*
X210315168Y-185536185D02*
X210386596Y-185679042D01*
X210386596Y-185679042D02*
X210386596Y-186107614D01*
X210386596Y-186107614D02*
X210315168Y-186250471D01*
X210315168Y-186250471D02*
X210243739Y-186321900D01*
X210243739Y-186321900D02*
X210100882Y-186393328D01*
X210100882Y-186393328D02*
X209815168Y-186393328D01*
X209815168Y-186393328D02*
X209672310Y-186321900D01*
D10*
D11*
X177002200Y-181507200D02*
X285002200Y-181507200D01*
D10*
D11*
X178386598Y-183621900D02*
X178600884Y-183693328D01*
X178600884Y-183693328D02*
X178958026Y-183693328D01*
X178958026Y-183693328D02*
X179100884Y-183621900D01*
X179100884Y-183621900D02*
X179172312Y-183550471D01*
X179172312Y-183550471D02*
X179243741Y-183407614D01*
X179243741Y-183407614D02*
X179243741Y-183264757D01*
X179243741Y-183264757D02*
X179172312Y-183121900D01*
X179172312Y-183121900D02*
X179100884Y-183050471D01*
X179100884Y-183050471D02*
X178958026Y-182979042D01*
X178958026Y-182979042D02*
X178672312Y-182907614D01*
X178672312Y-182907614D02*
X178529455Y-182836185D01*
X178529455Y-182836185D02*
X178458026Y-182764757D01*
X178458026Y-182764757D02*
X178386598Y-182621900D01*
X178386598Y-182621900D02*
X178386598Y-182479042D01*
X178386598Y-182479042D02*
X178458026Y-182336185D01*
X178458026Y-182336185D02*
X178529455Y-182264757D01*
X178529455Y-182264757D02*
X178672312Y-182193328D01*
X178672312Y-182193328D02*
X179029455Y-182193328D01*
X179029455Y-182193328D02*
X179243741Y-182264757D01*
X179886597Y-183693328D02*
X179886597Y-182193328D01*
X180529455Y-183693328D02*
X180529455Y-182907614D01*
X180529455Y-182907614D02*
X180458026Y-182764757D01*
X180458026Y-182764757D02*
X180315169Y-182693328D01*
X180315169Y-182693328D02*
X180100883Y-182693328D01*
X180100883Y-182693328D02*
X179958026Y-182764757D01*
X179958026Y-182764757D02*
X179886597Y-182836185D01*
X181815169Y-183621900D02*
X181672312Y-183693328D01*
X181672312Y-183693328D02*
X181386598Y-183693328D01*
X181386598Y-183693328D02*
X181243740Y-183621900D01*
X181243740Y-183621900D02*
X181172312Y-183479042D01*
X181172312Y-183479042D02*
X181172312Y-182907614D01*
X181172312Y-182907614D02*
X181243740Y-182764757D01*
X181243740Y-182764757D02*
X181386598Y-182693328D01*
X181386598Y-182693328D02*
X181672312Y-182693328D01*
X181672312Y-182693328D02*
X181815169Y-182764757D01*
X181815169Y-182764757D02*
X181886598Y-182907614D01*
X181886598Y-182907614D02*
X181886598Y-183050471D01*
X181886598Y-183050471D02*
X181172312Y-183193328D01*
X183100883Y-183621900D02*
X182958026Y-183693328D01*
X182958026Y-183693328D02*
X182672312Y-183693328D01*
X182672312Y-183693328D02*
X182529454Y-183621900D01*
X182529454Y-183621900D02*
X182458026Y-183479042D01*
X182458026Y-183479042D02*
X182458026Y-182907614D01*
X182458026Y-182907614D02*
X182529454Y-182764757D01*
X182529454Y-182764757D02*
X182672312Y-182693328D01*
X182672312Y-182693328D02*
X182958026Y-182693328D01*
X182958026Y-182693328D02*
X183100883Y-182764757D01*
X183100883Y-182764757D02*
X183172312Y-182907614D01*
X183172312Y-182907614D02*
X183172312Y-183050471D01*
X183172312Y-183050471D02*
X182458026Y-183193328D01*
X183600883Y-182693328D02*
X184172311Y-182693328D01*
X183815168Y-182193328D02*
X183815168Y-183479042D01*
X183815168Y-183479042D02*
X183886597Y-183621900D01*
X183886597Y-183621900D02*
X184029454Y-183693328D01*
X184029454Y-183693328D02*
X184172311Y-183693328D01*
X184672311Y-183550471D02*
X184743740Y-183621900D01*
X184743740Y-183621900D02*
X184672311Y-183693328D01*
X184672311Y-183693328D02*
X184600883Y-183621900D01*
X184600883Y-183621900D02*
X184672311Y-183550471D01*
X184672311Y-183550471D02*
X184672311Y-183693328D01*
X184672311Y-182764757D02*
X184743740Y-182836185D01*
X184743740Y-182836185D02*
X184672311Y-182907614D01*
X184672311Y-182907614D02*
X184600883Y-182836185D01*
X184600883Y-182836185D02*
X184672311Y-182764757D01*
X184672311Y-182764757D02*
X184672311Y-182907614D01*
D10*
D12*
X178485282Y-180614100D02*
X178699568Y-180685528D01*
X178699568Y-180685528D02*
X179056710Y-180685528D01*
X179056710Y-180685528D02*
X179199568Y-180614100D01*
X179199568Y-180614100D02*
X179270996Y-180542671D01*
X179270996Y-180542671D02*
X179342425Y-180399814D01*
X179342425Y-180399814D02*
X179342425Y-180256957D01*
X179342425Y-180256957D02*
X179270996Y-180114100D01*
X179270996Y-180114100D02*
X179199568Y-180042671D01*
X179199568Y-180042671D02*
X179056710Y-179971242D01*
X179056710Y-179971242D02*
X178770996Y-179899814D01*
X178770996Y-179899814D02*
X178628139Y-179828385D01*
X178628139Y-179828385D02*
X178556710Y-179756957D01*
X178556710Y-179756957D02*
X178485282Y-179614100D01*
X178485282Y-179614100D02*
X178485282Y-179471242D01*
X178485282Y-179471242D02*
X178556710Y-179328385D01*
X178556710Y-179328385D02*
X178628139Y-179256957D01*
X178628139Y-179256957D02*
X178770996Y-179185528D01*
X178770996Y-179185528D02*
X179128139Y-179185528D01*
X179128139Y-179185528D02*
X179342425Y-179256957D01*
X180628139Y-180614100D02*
X180485281Y-180685528D01*
X180485281Y-180685528D02*
X180199567Y-180685528D01*
X180199567Y-180685528D02*
X180056710Y-180614100D01*
X180056710Y-180614100D02*
X179985281Y-180542671D01*
X179985281Y-180542671D02*
X179913853Y-180399814D01*
X179913853Y-180399814D02*
X179913853Y-179971242D01*
X179913853Y-179971242D02*
X179985281Y-179828385D01*
X179985281Y-179828385D02*
X180056710Y-179756957D01*
X180056710Y-179756957D02*
X180199567Y-179685528D01*
X180199567Y-179685528D02*
X180485281Y-179685528D01*
X180485281Y-179685528D02*
X180628139Y-179756957D01*
X181485281Y-180685528D02*
X181342424Y-180614100D01*
X181342424Y-180614100D02*
X181270995Y-180542671D01*
X181270995Y-180542671D02*
X181199567Y-180399814D01*
X181199567Y-180399814D02*
X181199567Y-179971242D01*
X181199567Y-179971242D02*
X181270995Y-179828385D01*
X181270995Y-179828385D02*
X181342424Y-179756957D01*
X181342424Y-179756957D02*
X181485281Y-179685528D01*
X181485281Y-179685528D02*
X181699567Y-179685528D01*
X181699567Y-179685528D02*
X181842424Y-179756957D01*
X181842424Y-179756957D02*
X181913853Y-179828385D01*
X181913853Y-179828385D02*
X181985281Y-179971242D01*
X181985281Y-179971242D02*
X181985281Y-180399814D01*
X181985281Y-180399814D02*
X181913853Y-180542671D01*
X181913853Y-180542671D02*
X181842424Y-180614100D01*
X181842424Y-180614100D02*
X181699567Y-180685528D01*
X181699567Y-180685528D02*
X181485281Y-180685528D01*
X182413853Y-179685528D02*
X182985281Y-179685528D01*
X182628138Y-179185528D02*
X182628138Y-180471242D01*
X182628138Y-180471242D02*
X182699567Y-180614100D01*
X182699567Y-180614100D02*
X182842424Y-180685528D01*
X182842424Y-180685528D02*
X182985281Y-180685528D01*
X183270996Y-179685528D02*
X183842424Y-179685528D01*
X183485281Y-179185528D02*
X183485281Y-180471242D01*
X183485281Y-180471242D02*
X183556710Y-180614100D01*
X183556710Y-180614100D02*
X183699567Y-180685528D01*
X183699567Y-180685528D02*
X183842424Y-180685528D01*
X186342424Y-180542671D02*
X186270996Y-180614100D01*
X186270996Y-180614100D02*
X186056710Y-180685528D01*
X186056710Y-180685528D02*
X185913853Y-180685528D01*
X185913853Y-180685528D02*
X185699567Y-180614100D01*
X185699567Y-180614100D02*
X185556710Y-180471242D01*
X185556710Y-180471242D02*
X185485281Y-180328385D01*
X185485281Y-180328385D02*
X185413853Y-180042671D01*
X185413853Y-180042671D02*
X185413853Y-179828385D01*
X185413853Y-179828385D02*
X185485281Y-179542671D01*
X185485281Y-179542671D02*
X185556710Y-179399814D01*
X185556710Y-179399814D02*
X185699567Y-179256957D01*
X185699567Y-179256957D02*
X185913853Y-179185528D01*
X185913853Y-179185528D02*
X186056710Y-179185528D01*
X186056710Y-179185528D02*
X186270996Y-179256957D01*
X186270996Y-179256957D02*
X186342424Y-179328385D01*
X187413853Y-179185528D02*
X187413853Y-180256957D01*
X187413853Y-180256957D02*
X187342424Y-180471242D01*
X187342424Y-180471242D02*
X187199567Y-180614100D01*
X187199567Y-180614100D02*
X186985281Y-180685528D01*
X186985281Y-180685528D02*
X186842424Y-180685528D01*
X187985281Y-179185528D02*
X188985281Y-180685528D01*
X188985281Y-179185528D02*
X187985281Y-180685528D01*
D10*
D11*
D10*
D11*
D10*
D11*
D10*
D11*
D10*
D11*
X197002200Y-191507200D02*
X197002200Y-194507200D01*
D10*
D11*
X261002200Y-191507200D02*
X261002200Y-198007200D01*
D14*
%TO.C,C101*%
X148600000Y-117750000D03*
X148600000Y-115850000D03*
%TD*%
D15*
%TO.C,C111*%
X123500001Y-136200000D03*
X123500001Y-138100000D03*
%TD*%
D16*
%TO.C,R109*%
X174136396Y-126410000D03*
X172486396Y-126410000D03*
%TD*%
D17*
%TO.C,D106*%
X112500000Y-109800000D03*
X116500000Y-109800000D03*
%TD*%
D18*
%TO.C,U101*%
X135837500Y-122250000D03*
X135837500Y-122750000D03*
X135837500Y-123250000D03*
X135837500Y-123750000D03*
X135837500Y-124250000D03*
X135837500Y-124750000D03*
X135837500Y-125250000D03*
X135837500Y-125750000D03*
X135837500Y-126250000D03*
X135837500Y-126750000D03*
X135837500Y-127250000D03*
X135837500Y-127750000D03*
D19*
X137250000Y-129162500D03*
X137750000Y-129162500D03*
X138250000Y-129162500D03*
X138750000Y-129162500D03*
X139250000Y-129162500D03*
X139750000Y-129162500D03*
X140250000Y-129162500D03*
X140750000Y-129162500D03*
X141250000Y-129162500D03*
X141750000Y-129162500D03*
X142250000Y-129162500D03*
X142750000Y-129162500D03*
D18*
X144162500Y-127750000D03*
X144162500Y-127250000D03*
X144162500Y-126750000D03*
X144162500Y-126250000D03*
X144162500Y-125750000D03*
X144162500Y-125250000D03*
X144162500Y-124750000D03*
X144162500Y-124250000D03*
X144162500Y-123750000D03*
X144162500Y-123250000D03*
X144162500Y-122750000D03*
X144162500Y-122250000D03*
D19*
X142750000Y-120837500D03*
X142250000Y-120837500D03*
X141750000Y-120837500D03*
X141250000Y-120837500D03*
X140750000Y-120837500D03*
X140250000Y-120837500D03*
X139750000Y-120837500D03*
X139250000Y-120837500D03*
X138750000Y-120837500D03*
X138250000Y-120837500D03*
X137750000Y-120837500D03*
X137250000Y-120837500D03*
%TD*%
D20*
%TO.C,C103*%
X130725000Y-128350000D03*
X129175000Y-128350000D03*
%TD*%
D16*
%TO.C,R103*%
X157475000Y-140150000D03*
X155825000Y-140150000D03*
%TD*%
D21*
%TO.C,C104*%
X144450000Y-131875000D03*
X144450000Y-133425000D03*
%TD*%
D22*
%TO.C,C109*%
X125200000Y-105275000D03*
X125200000Y-103725000D03*
%TD*%
D15*
%TO.C,C112*%
X121200000Y-136200000D03*
X121200000Y-138100000D03*
%TD*%
D23*
%TO.C,D101*%
X154750000Y-132550001D03*
X154750000Y-134125001D03*
%TD*%
D24*
%TO.C,C110*%
X155875000Y-138500000D03*
X157425000Y-138500000D03*
%TD*%
D25*
%TO.C,SG101*%
X107016000Y-114600000D03*
X107016000Y-116600000D03*
X107016000Y-118600000D03*
X107016000Y-120600000D03*
D26*
X109016000Y-114600000D03*
D25*
X109016000Y-116600000D03*
X109016000Y-118600000D03*
X109016000Y-120600000D03*
X107016000Y-129600000D03*
X107016000Y-131600000D03*
X107016000Y-133600000D03*
X107016000Y-135600000D03*
D26*
X109016000Y-129600000D03*
D25*
X109016000Y-131600000D03*
X109016000Y-133600000D03*
X109016000Y-135600000D03*
D27*
X116000000Y-143300000D03*
D28*
X118000000Y-143300000D03*
X120000000Y-143300000D03*
X122000000Y-143300000D03*
X124000000Y-143300000D03*
D27*
X131000000Y-143300000D03*
D28*
X133000000Y-143300000D03*
X135000000Y-143300000D03*
X137000000Y-143300000D03*
X139000000Y-143300000D03*
D29*
X146015500Y-140484000D03*
D25*
X148015500Y-140484000D03*
X150015500Y-140484000D03*
X152015500Y-140484000D03*
X146015500Y-142484000D03*
X148015500Y-142484000D03*
X150015500Y-142484000D03*
X152015500Y-142484000D03*
D30*
X145000000Y-106800000D03*
D28*
X143000000Y-106800000D03*
X141000000Y-106800000D03*
X139000000Y-106800000D03*
X137000000Y-106800000D03*
D31*
X106000000Y-144000000D03*
D32*
X106000000Y-144000000D03*
D31*
X174000000Y-106000000D03*
D32*
X174000000Y-106000000D03*
D31*
X174000000Y-144000000D03*
D32*
X174000000Y-144000000D03*
D30*
X162500000Y-106800000D03*
D28*
X160500000Y-106800000D03*
X158500000Y-106800000D03*
X156500000Y-106800000D03*
X154500000Y-106800000D03*
D33*
X115097404Y-117575000D03*
X115097404Y-120115000D03*
X115097404Y-122655000D03*
X115097404Y-125195000D03*
X115097404Y-127735000D03*
X115097404Y-130275000D03*
X115097404Y-132815000D03*
X115097404Y-135355000D03*
X160817404Y-117575000D03*
X160817404Y-120115000D03*
X160817404Y-122655000D03*
X160817404Y-125195000D03*
X160817404Y-127735000D03*
X160817404Y-130275000D03*
X160817404Y-132815000D03*
X160817404Y-135355000D03*
%TD*%
D22*
%TO.C,C105*%
X146500000Y-117575000D03*
X146500000Y-116025000D03*
%TD*%
D34*
%TO.C,TP101*%
X112800000Y-139000000D03*
%TD*%
D23*
%TO.C,D102*%
X152195000Y-132550001D03*
X152195000Y-134125001D03*
%TD*%
D35*
%TO.C,U102*%
X124975000Y-116002315D03*
X124975000Y-114732315D03*
X124975000Y-113462315D03*
X124975000Y-112192315D03*
X120025000Y-112192315D03*
X120025000Y-113462315D03*
X120025000Y-114732315D03*
X120025000Y-116002315D03*
%TD*%
D23*
%TO.C,D103*%
X149545000Y-132550001D03*
X149545000Y-134125001D03*
%TD*%
D36*
%TO.C,SW101*%
X131275000Y-101500000D03*
X131275000Y-107500000D03*
X127525000Y-101500000D03*
X127525000Y-107500000D03*
%TD*%
D17*
%TO.C,D104*%
X164600000Y-138200000D03*
X168600000Y-138200000D03*
%TD*%
D37*
%TO.C,RV102*%
X127660000Y-134550000D03*
D38*
X130200000Y-132010000D03*
X132740000Y-134550000D03*
%TD*%
D39*
%TO.C,U103*%
X118900000Y-133800001D03*
X121200000Y-133800001D03*
D40*
X121200000Y-127500001D03*
D39*
X123500000Y-133800001D03*
%TD*%
D41*
%TO.C,R105*%
X154745000Y-130767501D03*
X154745000Y-129117501D03*
%TD*%
D42*
%TO.C,F101*%
X105315000Y-104800000D03*
X111685000Y-104800000D03*
%TD*%
D43*
%TO.C,J101*%
X174400000Y-135890000D03*
X174400000Y-130110000D03*
D44*
X172955000Y-136250000D03*
X172955000Y-135450000D03*
D45*
X172955000Y-134250000D03*
X172955000Y-133250000D03*
X172955000Y-132750000D03*
X172955000Y-131750000D03*
D44*
X172955000Y-130550000D03*
X172955000Y-129750000D03*
X172955000Y-129750000D03*
X172955000Y-130550000D03*
D45*
X172955000Y-131250000D03*
X172955000Y-132250000D03*
X172955000Y-133750000D03*
X172955000Y-134750000D03*
D44*
X172955000Y-135450000D03*
X172955000Y-136250000D03*
D46*
X173870000Y-137320000D03*
D47*
X178050000Y-137320000D03*
D46*
X173870000Y-128680000D03*
D47*
X178050000Y-128680000D03*
%TD*%
D21*
%TO.C,C107*%
X128150000Y-113275000D03*
X128150000Y-114825000D03*
%TD*%
D48*
%TO.C,SW103*%
X156800000Y-144275000D03*
X162800000Y-144275000D03*
X156800000Y-148025000D03*
X162800000Y-148025000D03*
%TD*%
D16*
%TO.C,R108*%
X174136396Y-124500000D03*
X172486396Y-124500000D03*
%TD*%
D49*
%TO.C,R101*%
X127775000Y-117200000D03*
X129425000Y-117200000D03*
%TD*%
D41*
%TO.C,R107*%
X149545000Y-130767500D03*
X149545000Y-129117500D03*
%TD*%
D36*
%TO.C,SW102*%
X122975001Y-101500000D03*
X122975001Y-107500000D03*
X119225001Y-101500000D03*
X119225001Y-107500000D03*
%TD*%
D50*
%TO.C,C114*%
X168300000Y-116640000D03*
X166400000Y-116640000D03*
%TD*%
%TO.C,C113*%
X168300000Y-118940000D03*
X166400000Y-118940000D03*
%TD*%
D51*
%TO.C,D105*%
X106200000Y-109800000D03*
X102200000Y-109800000D03*
%TD*%
D52*
%TO.C,U104*%
X170800000Y-114350000D03*
X170800000Y-116650000D03*
D53*
X177100000Y-116650000D03*
D52*
X170800000Y-118950000D03*
%TD*%
D41*
%TO.C,R102*%
X133000000Y-105325000D03*
X133000000Y-103675000D03*
%TD*%
D49*
%TO.C,R104*%
X155825000Y-141800000D03*
X157475000Y-141800000D03*
%TD*%
D37*
%TO.C,RV101*%
X127360000Y-121940000D03*
D38*
X129900000Y-119400000D03*
X132440000Y-121940000D03*
%TD*%
D34*
%TO.C,TP102*%
X116300000Y-104600000D03*
%TD*%
%TO.C,TP103*%
X177250000Y-122500000D03*
%TD*%
D16*
%TO.C,R110*%
X161625000Y-140400000D03*
X159975000Y-140400000D03*
%TD*%
D22*
%TO.C,C102*%
X134650000Y-117575000D03*
X134650000Y-116025000D03*
%TD*%
D41*
%TO.C,R106*%
X152195000Y-130767500D03*
X152195000Y-129117500D03*
%TD*%
D24*
%TO.C,C108*%
X123950000Y-110350000D03*
X125500000Y-110350000D03*
%TD*%
D22*
%TO.C,C106*%
X136500000Y-117575000D03*
X136500000Y-116025000D03*
%TD*%
D49*
%TO.C,R111*%
X159975000Y-142100000D03*
X161625000Y-142100000D03*
%TD*%
D54*
%TO.C,SG101*%
X174000000Y-100000000D02*
X174000000Y-100000000D01*
G75*
G02*
X180000000Y-106000000I0J-6000000D01*
G01*
X180000000Y-144000000D01*
G75*
G02*
X174000000Y-150000000I-6000000J0D01*
G01*
X106000000Y-150000000D01*
G75*
G02*
X100000000Y-144000000I0J6000000D01*
G01*
X100000000Y-106000000D01*
G75*
G02*
X106000000Y-100000000I6000000J0D01*
G01*
X174000000Y-100000000D01*
%TD*%
M02*
