M48
; DRILL file {KiCad 8.0.1} date 2024-03-19T23:03:29+0800
; FORMAT={-:-/ absolute / metric / decimal}
; #@! TF.CreationDate,2024-03-19T23:03:29+08:00
; #@! TF.GenerationSoftware,Kicad,Pcbnew,8.0.1
; #@! TF.FileFunction,Plated,1,2,PTH
FMAT,2
METRIC
; #@! TA.AperFunction,Plated,PTH,ViaDrill
T1C0.300
; #@! TA.AperFunction,Plated,PTH,ViaDrill
T2C0.350
; #@! TA.AperFunction,Plated,PTH,ViaDrill
T3C0.400
; #@! TA.AperFunction,Plated,PTH,ComponentDrill
T4C0.600
; #@! TA.AperFunction,Plated,PTH,ComponentDrill
T5C0.714
; #@! TA.AperFunction,Plated,PTH,ComponentDrill
T6C0.750
; #@! TA.AperFunction,Plated,PTH,ComponentDrill
T7C1.000
; #@! TA.AperFunction,Plated,PTH,ComponentDrill
T8C4.300
%
G90
G05
T1
X122.95Y-110.35
X125.5Y-109.2
X129.175Y-114.825
X129.2Y-113.25
X131.2Y-117.164
X136.0Y-114.9
X137.275Y-119.0
X138.0Y-125.3
T2
X103.85Y-129.6
X111.65Y-132.55
X117.0Y-141.1
X118.3Y-135.5
X118.4Y-126.6
X118.4Y-128.2
X119.25Y-135.5
X119.75Y-138.1
X120.0Y-117.2
X120.4Y-107.5
X122.2Y-117.1
X123.95Y-117.2
X124.4Y-107.5
X124.95Y-138.1
X125.2Y-102.3
X125.4Y-136.2
X125.45Y-130.15
X126.45Y-118.35
X127.5Y-119.35
X128.0Y-128.35
X129.2Y-136.2
X129.7Y-107.5
X132.3Y-111.1
X132.35Y-126.8
X133.0Y-102.4
X133.4Y-117.575
X135.15Y-114.9
X135.75Y-120.2
X136.05Y-134.3
X136.732Y-111.632
X141.75Y-145.75
X145.0Y-109.9
X145.25Y-117.6
X145.325Y-116.025
X146.042Y-122.167
X147.9Y-129.1
X148.65Y-138.75
X150.0Y-115.8
X152.0Y-137.95
X153.5Y-129.1
X153.8Y-141.5
X155.5Y-136.5
X156.046Y-129.104
X158.8Y-141.0
X159.95Y-138.95
X162.8Y-134.1
X163.05Y-142.1
X164.35Y-148.05
X166.4Y-115.1
X166.4Y-120.4
X166.5Y-113.6
X166.6Y-135.45
X168.3Y-121.0
X168.9Y-135.45
X169.0Y-113.35
X169.0Y-114.45
X171.4Y-124.5
X171.4Y-126.4
X171.55Y-130.35
X171.55Y-136.55
X171.6Y-129.1
T3
X116.5Y-112.0
X116.9Y-107.3
X118.25Y-106.55
X118.8Y-118.6
X144.45Y-130.45
X144.45Y-134.6
T5
X127.36Y-121.94
X127.66Y-134.55
X129.9Y-119.4
X130.2Y-132.01
X132.44Y-121.94
X132.74Y-134.55
T6
X107.016Y-114.6
X107.016Y-116.6
X107.016Y-118.6
X107.016Y-120.6
X107.016Y-129.6
X107.016Y-131.6
X107.016Y-133.6
X107.016Y-135.6
X109.016Y-114.6
X109.016Y-116.6
X109.016Y-118.6
X109.016Y-120.6
X109.016Y-129.6
X109.016Y-131.6
X109.016Y-133.6
X109.016Y-135.6
X116.0Y-143.3
X118.0Y-143.3
X120.0Y-143.3
X122.0Y-143.3
X124.0Y-143.3
X131.0Y-143.3
X133.0Y-143.3
X135.0Y-143.3
X137.0Y-106.8
X137.0Y-143.3
X139.0Y-106.8
X139.0Y-143.3
X141.0Y-106.8
X143.0Y-106.8
X145.0Y-106.8
X146.016Y-140.484
X146.016Y-142.484
X148.016Y-140.484
X148.016Y-142.484
X150.016Y-140.484
X150.016Y-142.484
X152.016Y-140.484
X152.016Y-142.484
X154.5Y-106.8
X156.5Y-106.8
X158.5Y-106.8
X160.5Y-106.8
X162.5Y-106.8
T7
X115.097Y-117.575
X115.097Y-120.115
X115.097Y-122.655
X115.097Y-125.195
X115.097Y-127.735
X115.097Y-130.275
X115.097Y-132.815
X115.097Y-135.355
X160.817Y-117.575
X160.817Y-120.115
X160.817Y-122.655
X160.817Y-125.195
X160.817Y-127.735
X160.817Y-130.275
X160.817Y-132.815
X160.817Y-135.355
T8
X106.0Y-144.0
X174.0Y-106.0
X174.0Y-144.0
T4
G00X173.32Y-128.68
M15
G01X174.42Y-128.68
M16
G05
G00X173.32Y-137.32
M15
G01X174.42Y-137.32
M16
G05
G00X177.75Y-128.68
M15
G01X178.35Y-128.68
M16
G05
G00X177.75Y-137.32
M15
G01X178.35Y-137.32
M16
G05
M30
